<svg id="Layer_1" data-name="Layer 1" xmlns="http://www.w3.org/2000/svg" viewBox="0 0 212.43 367.96"><defs><style>.cls-1{fill:#0c1513;}.cls-2{fill:#3bca8d;}</style></defs><title>alberta-final</title><path class="cls-1" d="M485.22,718.56a43.9,43.9,0,0,0,4,22.23c3.68,8.41,5.19,18-.86,26.73a8.64,8.64,0,0,0-1.16,5.73c2.08,13.06-5,17-13.13,20.56-14.47,6.46-29.61,7.39-44.69,2.23-10.22-3.5-20.45-3.71-31-2.58-7.56.81-10.73-1.38-13.2-8.48a16.43,16.43,0,0,1-.62-5.9c.35-8.22-1.88-15.61-5.83-22.83-3.78-6.92-6.58-14.37-9.87-21.56a6.16,6.16,0,0,0-1.76-2.3c-5.68-4.22-9.4-10-13.7-15.51-5.45-7-12.58-12.63-19.13-18.69-5.48-5.07-11.31-9.75-16.71-14.89-4-3.82-6.28-8.54-7.83-14.11-2.25-8.08-8.95-13.33-15.14-18.69A99.34,99.34,0,0,1,284,640c-5.16-6-5.37-12.58-.15-18.52,4.81-5.48,5.05-10.76,2.71-17.42-1.3-3.72-1.46-9,.29-12.38,4.31-8.19,4.17-16.19,1.92-24.59a19.23,19.23,0,0,1,1.58-14.46c3.58-6.88,5.08-14,1.92-21.56-.48-1.15-.73-3-.16-3.87,3.18-5.08,1.78-10.24.89-15.49a28.77,28.77,0,0,1,4.94-22.24c4.48-6.29,5.64-12.18,1.84-19.8-4.5-9-4.32-19.29-.83-28.66,1.22-3.3,6-6.34,9.69-7.44a32.93,32.93,0,0,1,24.79,2.19c9.76,5.07,19.72,5.11,29.42,1.4A83.2,83.2,0,0,1,405,432.53c10.88,1.63,21.62,3.22,32.56,3.07a56.66,56.66,0,0,0,15.12-2.17c4.52-1.33,8.72-3.67,13.12-.23,4.87,3.81,6.67,9,6,15-.54,4.63-1.35,9.22-2,13.83-1.62,10.91.12,21.49,3.06,32,.55,1.94.92,4.5.11,6.16-3.11,6.31-1.81,12.54-.79,19q2.79,17.64,4.95,35.4c.94,7.72,1.44,15.49,2.07,23.25.21,2.64.2,5.3.33,8,.35,7.13.87,14.27,1,21.41.08,3.92-.47,7.85-.69,11.78-.2,3.6-1.54,7.7-.29,10.72,3.69,8.89,2.34,18.06,2.67,27.1.17,4.76-1.11,9.55-1.18,14.34a15.16,15.16,0,0,0,1.72,7.94c3.69,5.94,3.33,11.81,1.57,18.16-.71,2.54-.28,5.46-.12,8.19C484.45,710.17,484.92,714.94,485.22,718.56ZM451.33,795.2c6.74-1.88,15.42-4,23.86-6.78,5.26-1.77,8.25-5.75,8.1-11.84a29.44,29.44,0,0,1,1.53-9.31,39,39,0,0,0-.15-24.53c-3.55-10.58-4.48-21.36-4.35-32.46.09-8.42-.3-17.07-2.19-25.21s-1.78-16.08-1.35-24.24a192.49,192.49,0,0,0-.23-20.38c-.34-6.45-1.56-12.87-1.75-19.32-.4-13.78-.2-27.58-.61-41.37-.21-7.13-1.18-14.23-1.84-21.35-1-10.75-2.06-21.5-3.06-32.26-.71-7.59-1.55-15.17-2-22.78-.24-4.43.84-9,.33-13.33-1.59-13.62-2.75-27.16-.13-40.8.5-2.63-.25-5.6-.83-8.32-.75-3.53-2.95-4.89-6.67-3.87-10.89,3-22,3.43-33.19,2.57-11.61-.88-23.22-1.77-34.85-2.51a35.38,35.38,0,0,0-8.91.38c-7.67,1.48-15.23,3.61-22.92,4.94-9.4,1.62-18.67,2.18-27.87-2.19-5-2.35-10.78-3.31-16.32-4-7.5-1-14.57,4.35-14.84,11.56-.25,6.57-.16,13.61,1.94,19.69,3.26,9.44,3.26,17.62-2.48,26-4.14,6.08-4.87,12.92-4,20.51,1.13,9.79.58,19.8.45,29.71a24.76,24.76,0,0,1-1.91,7.73,34.19,34.19,0,0,0-1.61,19.1c1.81,8.75.46,17.2-2.87,25.45-.77,1.91-1.36,4.5-.7,6.29,3.13,8.52.83,15.92-3.43,23.33-3.06,5.33-1.55,10.86,3.19,14.68a111.08,111.08,0,0,1,9.11,7.77c7,7.06,14.53,13.76,16.79,24.26a15.88,15.88,0,0,0,4.44,7.67c6.26,5.93,12.31,12.44,19.59,16.83,8.67,5.23,13.57,12.93,18.66,20.95,2,3.11,4.81,5.67,7.29,8.45,2.27,2.56,5.17,4.76,6.75,7.67,2.51,4.64,3.72,10,6.26,14.6,5.28,9.62,9.62,19.41,9.25,30.68-.18,5.44,3.27,7.63,7.86,8.49,2.6.49,5.33.17,8,.52Q417.26,790,430.79,792C436.87,792.84,442.94,793.87,451.33,795.2Z" transform="translate(-279.98 -431.41)"/><path class="cls-2" d="M451.33,795.2c-8.39-1.33-14.46-2.36-20.54-3.25q-13.53-2-27.09-3.77c-2.63-.35-5.36,0-8-.52-4.59-.86-8-3-7.86-8.49.37-11.27-4-21.06-9.25-30.68-2.54-4.62-3.75-10-6.26-14.6-1.58-2.91-4.48-5.11-6.75-7.67-2.48-2.78-5.32-5.34-7.29-8.45-5.09-8-10-15.72-18.66-20.95-7.28-4.39-13.33-10.9-19.59-16.83a15.88,15.88,0,0,1-4.44-7.67c-2.26-10.5-9.77-17.2-16.79-24.26a111.08,111.08,0,0,0-9.11-7.77c-4.74-3.82-6.25-9.35-3.19-14.68,4.26-7.41,6.56-14.81,3.43-23.33-.66-1.79-.07-4.38.7-6.29,3.33-8.25,4.68-16.7,2.87-25.45a34.19,34.19,0,0,1,1.61-19.1,24.76,24.76,0,0,0,1.91-7.73c.13-9.91.68-19.92-.45-29.71-.89-7.59-.16-14.43,4-20.51,5.74-8.4,5.74-16.58,2.48-26-2.1-6.08-2.19-13.12-1.94-19.69.27-7.21,7.34-12.52,14.84-11.56,5.54.71,11.35,1.67,16.32,4,9.2,4.37,18.47,3.81,27.87,2.19,7.69-1.33,15.25-3.46,22.92-4.94a35.38,35.38,0,0,1,8.91-.38c11.63.74,23.24,1.63,34.85,2.51,11.2.86,22.3.42,33.19-2.57,3.72-1,5.92.34,6.67,3.87.58,2.72,1.33,5.69.83,8.32-2.62,13.64-1.46,27.18.13,40.8.51,4.37-.57,8.9-.33,13.33.4,7.61,1.24,15.19,2,22.78,1,10.76,2,21.51,3.06,32.26.66,7.12,1.63,14.22,1.84,21.35.41,13.79.21,27.59.61,41.37.19,6.45,1.41,12.87,1.75,19.32a192.49,192.49,0,0,1,.23,20.38c-.43,8.16-.54,16.07,1.35,24.24s2.28,16.79,2.19,25.21c-.13,11.1.8,21.88,4.35,32.46a39,39,0,0,1,.15,24.53,29.44,29.44,0,0,0-1.53,9.31c.15,6.09-2.84,10.07-8.1,11.84C466.75,791.24,458.07,793.32,451.33,795.2Z" transform="translate(-279.98 -431.41)"/></svg>