<svg id="Layer_1" data-name="Layer 1" xmlns="http://www.w3.org/2000/svg" viewBox="0 0 151.36 147.41"><defs><style>.cls-1{fill:#111915;}.cls-2{fill:#161a19;}.cls-3{fill:#a4a5a5;}.cls-4{fill:#737675;}.cls-5{fill:#a9abab;}.cls-6{fill:#3bc98c;}.cls-7{fill:#38be85;}.cls-8{fill:#33a976;}.cls-9{fill:#121f1a;}.cls-10{fill:#27855d;}</style></defs><title>bc-final</title><path class="cls-1" d="M428.16,681.48l-.88.24-3,1.08-2.42,1-1.26.36-2.71.08-2.86-1-7.89-1.48-4.61-3.69,4.21,9.57a4.65,4.65,0,0,1-5.16,4.1l-1.21-.13-1.52-.3-1.67-.51-.8-.37-1.36-.76a.63.63,0,0,0-.33-.22L392.83,688h0l-6.57-3.73-4.69-3.48-1.78-1.5-.93-.68-1.22-1-1.45-1.26-2.78-2.67-.73-.9-.91-1.26L370.36,669l-.4-1.71v-1.64l.38-1.71c.92-4,4.19-2.53,6.68-2.85l14.76,9.1c1.89-3.26.8-5.65-2.77-5.74a9.65,9.65,0,0,1-6.11-2.21,47.11,47.11,0,0,0-5.71-3.38c-1.14-1.29-2.3-2.56-3.41-3.86a16.79,16.79,0,0,1-4.18-10.11c-.08-1.5-.41-3-.62-4.43-5.45.26-7.83-.64-7.75-3.61.08-2.81,1.49-5.59,2.35-8.49a24.43,24.43,0,0,1-3.71,0c-2.35-.34-3.1-1.73-3.08-4.18.06-7.35,1.92-14.33,3.85-21.32,1.24-4.49.42-5.63-4.07-7.15s-7-5.55-9.39-9.37a21.13,21.13,0,0,1-1.37-3.24l-.9-2.83-.21-1-.28-1.2-.19-1-.35-3.36c-1.57-3.71-3.13-7.43-4.71-11.14-.43-1-.94-2-1.41-2.93s-1-2.27-1.59-3.33c-1.26-2.13-2.81-2.35-4.87-.85a54.05,54.05,0,0,1-5.34,3.08h-2.19l-3-2.45-.4-.8-.57-5.62.18-1a6,6,0,0,0,.66-1.11c1.49-4,1.75-4,5.43-1.65a41,41,0,0,0,5.46,2.5l1,.18,2.23.51,6.46.66,1.22.17,5.31.35,7.61,0,2-.36,1.22-.19,4.89,0,2.24.44,1,.15,1.2.25,1,.22,1.2.32,1,.21,8.82,1.88,9.56.16,3.35-.39,5.34-.17,1.19-.32c2.77-1.46,5.29-.8,8.19.13,3.91,1.24,8.15,1.51,12.26,2.11,4.82.7,6.44,3.14,5.66,7.9a11.46,11.46,0,0,0,.65,5.67c1.09,2.86,1.69,5.53-.08,8.29-1.25,1.95-.68,3.87-.21,6a48.11,48.11,0,0,1,.83,8.74c.13,4,.06,8.1,0,12.15a53.38,53.38,0,0,1-.25,7.49c-.31,2.12-.48,3.92.73,5.95a8,8,0,0,1,.69,4.9,7.26,7.26,0,0,0,2.56,7c2.07,1.87,3.72,4.23,5.86,6,6,4.95,12.18,9.65,18.18,14.58,2.43,2,4.59,4.32,6.87,6.5l4.15,6.08a1.14,1.14,0,0,1,.25.39l.83,1.25a1.12,1.12,0,0,1,.26.38l1.34,1.81a1.16,1.16,0,0,1,.29.37c1.51,3.13,3.7,6.1,2.2,9.9l-.55.52-20.35,3.44h-1.27c-.44,0-.95-.22-1.29,0-3.74,1.89-7.4,1.42-11.11-.15a6.41,6.41,0,0,0-2.46,0l-.88.22-1.43.46-1.84.61Zm-34.73,2.68,7,4c.3.23.76.73.87.66,1-.63,2.81-1.67,2.69-2a28.11,28.11,0,0,0-2.59-4.78l-3.15-2.76-1.4-1c-2.56-1.45-5.33-2.62-7.61-4.41-3.51-2.75-6.69-5.92-10-8.91-1.34-1.7-2.85-1.09-4.37-.34l-1,0-.82-.33.29.83c.87,2.1,1.19,4.81,2.71,6.2,4.25,3.9,9,7.25,13.54,10.82ZM339,553.81c1.68,3.45,3.33,6.61,4.78,9.86s2.74,6.29,3.83,9.54,1.44,6.77,2.78,9.88c1.75,4,4,8,8.61,9.56,4.41,1.44,6.47,4.08,5.8,8.71-.45,3.11-1.53,6.13-2.17,9.23a81.86,81.86,0,0,0-1.83,10.6c-.28,3.95.08,4.06,4,4.24,2.49.12,3.67,1.66,2.84,4-.45,1.25-1.44,2.31-1.95,3.55a13,13,0,0,0-.51,2.9,9.9,9.9,0,0,0,2.41-.47c2.68-1.22,4.09-.59,4.67,2.35.3,1.51.38,3.06.53,4.59.92,9.82,7.53,16.76,17.29,18.14,3.65.52,5.69,2.32,6,5.89a7.56,7.56,0,0,0,3.68,6,50.87,50.87,0,0,1,4.85,3.48c3.12,2.74,6.45,4.65,10.81,4,.67-.09,1.39.36,2.1.39a12.82,12.82,0,0,0,3.82-.09c4.09-1.11,8.29-3.8,12.14-3.34a67.33,67.33,0,0,0,17.54.09c1.06-.14,2.28.11,3.18-.32a22.44,22.44,0,0,1,10-1.82c4.12,0,5-1.79,2.75-5.28-2-3.12-4-6.28-6.3-9.18a38.2,38.2,0,0,0-6.55-6.77c-9.62-7.38-19.55-14.37-27.49-23.69-1.84-2.16-3-4.35-2.29-7.42.35-1.59-.46-3.43-.75-5.16s-1.36-3.79-.8-5.18c1.56-3.86,1-7.44-.15-11.14a11.66,11.66,0,0,1,.08-8.48,10.26,10.26,0,0,0-.52-9.63,6.26,6.26,0,0,1,.25-7c1.66-2.35,1.12-4.46,0-6.86a9.2,9.2,0,0,1-.76-5.14c.7-4.27.33-5.14-4-6.08s-8.67-1.75-13-2.56a4.76,4.76,0,0,0-1.87.13c-11.16,2.46-22.24,2.5-33.26-.85a26.25,26.25,0,0,0-12.58-1,47.55,47.55,0,0,1-7.84.25C345.86,553.83,342.73,553.81,339,553.81Zm-8.5-1.36c-2.14-1.66-3.95-3.19-5.91-4.51-.37-.25-1.9.46-1.88.54.35,1.88.49,4,1.47,5.48.42.64,2.72.25,4.1,0C329,553.82,329.68,553,330.45,552.45Z" transform="translate(-319.78 -544.34)"/><path class="cls-2" d="M339.16,624.64c-.07-7.23,4-10.49,8.42-8.63,2.46,1,3.58,3.2,2.72,5.73a28.66,28.66,0,0,1-2.41,5.14,6.63,6.63,0,0,0,.2,7.64,19.93,19.93,0,0,1,2.07,3.79c.23.6-.22,1.45-.35,2.19-.74-.17-1.74-.11-2.18-.57a20.44,20.44,0,0,1-3.68-4.65C341.94,631.29,340.26,627.13,339.16,624.64Zm3.06-1.31-.43.28,1.83,2.89c.87-.85,1.78-1.66,2.59-2.57.27-.3.27-.84.39-1.27.41-1.46.68-3.09-1.15-3.58s-2.57,1.17-3.08,2.65A7,7,0,0,0,342.22,623.33Z" transform="translate(-319.78 -544.34)"/><path class="cls-3" d="M379.91,553.23l-8.82-1.88Z" transform="translate(-319.78 -544.34)"/><path class="cls-3" d="M355.32,550.34l-7.61,0Z" transform="translate(-319.78 -544.34)"/><path class="cls-4" d="M465.46,662l-4.15-6.08Z" transform="translate(-319.78 -544.34)"/><path class="cls-5" d="M386.26,684.26l6.57,3.73Z" transform="translate(-319.78 -544.34)"/><path class="cls-5" d="M373.41,673.68l2.78,2.67Z" transform="translate(-319.78 -544.34)"/><path class="cls-3" d="M343.89,573.73l.35,3.36Z" transform="translate(-319.78 -544.34)"/><path class="cls-3" d="M392.82,553l-3.35.39Z" transform="translate(-319.78 -544.34)"/><path class="cls-4" d="M415,683.25l2.86,1Z" transform="translate(-319.78 -544.34)"/><path class="cls-4" d="M424.23,682.8l3-1.08Z" transform="translate(-319.78 -544.34)"/><path class="cls-3" d="M344.92,580.27l.9,2.83Z" transform="translate(-319.78 -544.34)"/><path class="cls-3" d="M365.71,550.2l-2.24-.44Z" transform="translate(-319.78 -544.34)"/><path class="cls-3" d="M334.72,549.13l-2.23-.51Z" transform="translate(-319.78 -544.34)"/><path class="cls-5" d="M392.83,688l1.81,1.47Z" transform="translate(-319.78 -544.34)"/><path class="cls-4" d="M468.14,665.82,466.8,664Z" transform="translate(-319.78 -544.34)"/><path class="cls-5" d="M379.79,679.28l1.78,1.5Z" transform="translate(-319.78 -544.34)"/><path class="cls-5" d="M370.35,664l-.38,1.71Z" transform="translate(-319.78 -544.34)"/><path class="cls-5" d="M370,667.32l.4,1.71Z" transform="translate(-319.78 -544.34)"/><path class="cls-5" d="M397.13,690.81l1.67.51Z" transform="translate(-319.78 -544.34)"/><path class="cls-5" d="M377.64,677.61l1.22,1Z" transform="translate(-319.78 -544.34)"/><path class="cls-4" d="M431.29,680.58l1.43-.46Z" transform="translate(-319.78 -544.34)"/><path class="cls-5" d="M371.77,671.52l.91,1.26Z" transform="translate(-319.78 -544.34)"/><path class="cls-4" d="M428.16,681.48l1.29-.29Z" transform="translate(-319.78 -544.34)"/><path class="cls-4" d="M466.54,663.63l-.83-1.25Z" transform="translate(-319.78 -544.34)"/><path class="cls-3" d="M344.43,578.09l.28,1.2Z" transform="translate(-319.78 -544.34)"/><path class="cls-3" d="M399.35,552.51l-1.19.32Z" transform="translate(-319.78 -544.34)"/><path class="cls-4" d="M420.55,684.19l1.26-.36Z" transform="translate(-319.78 -544.34)"/><path class="cls-3" d="M370.11,551.14l-1.2-.32Z" transform="translate(-319.78 -544.34)"/><path class="cls-3" d="M367.93,550.6l-1.2-.25Z" transform="translate(-319.78 -544.34)"/><path class="cls-5" d="M395,689.68l1.36.76Z" transform="translate(-319.78 -544.34)"/><path class="cls-3" d="M358.58,549.79l-1.22.19Z" transform="translate(-319.78 -544.34)"/><path class="cls-3" d="M342.4,550l-1.22-.17Z" transform="translate(-319.78 -544.34)"/><path class="cls-5" d="M400.32,691.62l1.21.13Z" transform="translate(-319.78 -544.34)"/><path class="cls-6" d="M339,553.81c3.78,0,6.91,0,10,0a47.55,47.55,0,0,0,7.84-.25,26.25,26.25,0,0,1,12.58,1c11,3.35,22.1,3.31,33.26.85a4.76,4.76,0,0,1,1.87-.13c4.34.81,8.69,1.64,13,2.56s4.74,1.81,4,6.08a9.2,9.2,0,0,0,.76,5.14c1.12,2.4,1.66,4.51,0,6.86a6.26,6.26,0,0,0-.25,7,10.26,10.26,0,0,1,.52,9.63,11.66,11.66,0,0,0-.08,8.48c1.15,3.7,1.71,7.28.15,11.14-.56,1.39.49,3.43.8,5.18s1.1,3.57.75,5.16c-.67,3.07.45,5.26,2.29,7.42,7.94,9.32,17.87,16.31,27.49,23.69a38.2,38.2,0,0,1,6.55,6.77c2.3,2.9,4.29,6.06,6.3,9.18,2.26,3.49,1.37,5.31-2.75,5.28a22.44,22.44,0,0,0-10,1.82c-.9.43-2.12.18-3.18.32a67.33,67.33,0,0,1-17.54-.09c-3.85-.46-8.05,2.23-12.14,3.34a12.82,12.82,0,0,1-3.82.09c-.71,0-1.43-.48-2.1-.39-4.36.61-7.69-1.3-10.81-4a50.87,50.87,0,0,0-4.85-3.48,7.56,7.56,0,0,1-3.68-6c-.28-3.57-2.32-5.37-6-5.89-9.76-1.38-16.37-8.32-17.29-18.14-.15-1.53-.23-3.08-.53-4.59-.58-2.94-2-3.57-4.67-2.35a9.9,9.9,0,0,1-2.41.47,13,13,0,0,1,.51-2.9c.51-1.24,1.5-2.3,1.95-3.55.83-2.35-.35-3.89-2.84-4-3.88-.18-4.24-.29-4-4.24a81.86,81.86,0,0,1,1.83-10.6c.64-3.1,1.72-6.12,2.17-9.23.67-4.63-1.39-7.27-5.8-8.71-4.62-1.51-6.86-5.51-8.61-9.56-1.34-3.11-1.7-6.64-2.78-9.88s-2.44-6.41-3.83-9.54S340.63,557.26,339,553.81Z" transform="translate(-319.78 -544.34)"/><path class="cls-7" d="M379.24,665c3.32,3,6.5,6.16,10,8.91,2.28,1.79,5.05,3,7.61,4.41l1.4,1,3.15,2.76c.33.73.64,1.46,1,2.17,1.08,2.19.55,3.56-2,3.95l-7-4-3.87-2c-4.54-3.57-9.29-6.92-13.54-10.82-1.52-1.39-1.84-4.1-2.71-6.2l.53-.5,1,0Z" transform="translate(-319.78 -544.34)"/><path class="cls-8" d="M330.45,552.45c-.77.55-1.44,1.37-2.22,1.51-1.38.25-3.68.64-4.1,0-1-1.51-1.12-3.6-1.47-5.48,0-.08,1.51-.79,1.88-.54C326.5,549.26,328.31,550.79,330.45,552.45Z" transform="translate(-319.78 -544.34)"/><path class="cls-9" d="M400.44,688.17c2.51-.39,3-1.76,2-3.95-.35-.71-.66-1.44-1-2.17a28.11,28.11,0,0,1,2.59,4.78c.12.33-1.71,1.37-2.69,2C401.2,688.9,400.74,688.4,400.44,688.17Z" transform="translate(-319.78 -544.34)"/><path class="cls-9" d="M379.24,665l-4.37-.34C376.39,663.9,377.9,663.29,379.24,665Z" transform="translate(-319.78 -544.34)"/><path class="cls-9" d="M389.56,682.19l3.87,2Z" transform="translate(-319.78 -544.34)"/><path class="cls-9" d="M398.26,679.29l-1.4-1Z" transform="translate(-319.78 -544.34)"/><path class="cls-9" d="M373.84,664.67l-.53.5c-.09-.28-.19-.55-.29-.83Z" transform="translate(-319.78 -544.34)"/><path class="cls-10" d="M342.22,623.33a7,7,0,0,1,.15-1.6c.51-1.48,1.12-3.18,3.08-2.65s1.56,2.12,1.15,3.58c-.12.43-.12,1-.39,1.27-.81.91-1.72,1.72-2.59,2.57l-1.83-2.89Z" transform="translate(-319.78 -544.34)"/></svg>