<?xml version="1.0" encoding="utf-8"?>
<!-- Generator: Adobe Illustrator 23.0.3, SVG Export Plug-In . SVG Version: 6.00 Build 0)  -->
<svg version="1.1" xmlns="http://www.w3.org/2000/svg" xmlns:xlink="http://www.w3.org/1999/xlink" x="0px" y="0px"
	 viewBox="0 0 675 900" style="enable-background:new 0 0 675 900;" xml:space="preserve">
<style type="text/css">
	.st0{fill:#999999;}
	.st1{display:none;}
</style>
<g id="BC">
	<path class="st0" d="M480.4,546.9c-0.4,0.2-0.7,0.5-1.1,0.7c-0.2,0.1-0.4,0.3-0.6,0.4l192.1,279.6l2.6-1.8L481.4,546.1c0,0,0,0,0,0
		C481.1,546.4,480.7,546.6,480.4,546.9z"/>
	<rect x="244.4" y="826" class="st0" width="429.1" height="3.2"/>
	<rect x="11.2" y="826" class="st0" width="429.1" height="3.2"/>
	
		<rect x="-201.7" y="613" transform="matrix(4.489571e-11 -1 1 4.489571e-11 -601.7804 627.472)" class="st0" width="429.1" height="3.2"/>
	<path class="st0" d="M13.2,60.9c-0.4,0-0.9,0-1.3-0.1c-0.2,0-0.5,0-0.7,0v339.2h3.2V60.8c0,0,0,0,0,0C14,60.9,13.6,60.9,13.2,60.9z
		"/>
	
		<rect x="11.2" y="60.8" transform="matrix(-1 -8.979052e-11 8.979052e-11 -1 451.5045 124.8447)" class="st0" width="429.1" height="3.2"/>
	
		<rect x="34" y="60.8" transform="matrix(-1 -8.979052e-11 8.979052e-11 -1 497.1432 124.8447)" class="st0" width="429.1" height="3.2"/>
	<path class="st0" d="M461.1,60.9c-0.4,0-0.9,0-1.3-0.1c-0.2,0-0.5,0-0.7,0v339.2h3.2V60.8c0,0,0,0,0,0
		C462,60.9,461.6,60.9,461.1,60.9z"/>
	<path class="st0" d="M461.1,176.5c-0.4,0-0.9,0-1.3-0.1c-0.2,0-0.5,0-0.7,0v339.2h3.2V176.5c0,0,0,0,0,0
		C462,176.5,461.6,176.5,461.1,176.5z"/>
	<path class="st0" d="M458.9,513.4c0,0.4,0,0.8,0,1.2c0,0.4-0.1,0.8-0.1,1.2c0,0.2,0.1,0.3,0.1,0.5c0,0.4,0,0.9,0,1.3
		c0,0.1,0,0.1,0,0.2c0,0.1,0,0.2,0,0.2c0,0.3,0,0.6,0,0.9l180.9,263.4l2.6-1.8L458.9,513.4z"/>
	<g id="Mountains_1_">
		<path class="st0" d="M376.7,549.7l-0.1-0.1l-0.8-1.4l-0.8,0.4l-0.8-0.4l-0.8,1.4l-0.1,0.1l-4.3,7.5l-8.3-14.4l-0.1-0.1l-0.8-1.3
			l-0.8,0.5l-0.8-0.5l-0.8,1.3l-0.1,0.1l-8,13.9l-4.1-7l-0.1-0.1l-0.8-1.3l-0.8,0.4l-0.8-0.4l-0.8,1.4l-0.1,0.1l-15.9,27.5l2.5,1.4
			l15-26.1l4.1,7l1.6,2.8l8.3,14.4l0.5,0.8l1.2,0.7l1.2-0.7l0.5-0.8l14-24.2l15,26.1l2.5-1.4L376.7,549.7z M359.4,573.9l-8.3-14.3
			l8-13.9l8.3,14.3L359.4,573.9z"/>
		<path class="st0" d="M462.9,593.1l-0.1-0.1l-0.8-1.4l-0.8,0.4l-0.8-0.4l-0.8,1.4l-0.1,0.1l-4.3,7.5l-8.3-14.4l-0.1-0.1l-0.8-1.3
			l-0.8,0.5l-0.8-0.5l-0.8,1.3l-0.1,0.1l-8,13.9l-4.1-7l-0.1-0.1l-0.8-1.3L430,592l-0.8-0.4l-0.8,1.4l-0.1,0.1l-15.9,27.5l2.5,1.4
			l15-26.1l4.1,7l1.6,2.8l8.3,14.4l0.5,0.8l1.2,0.7l1.2-0.7l0.5-0.8l14-24.2l15,26.1l2.5-1.4L462.9,593.1z M445.6,617.3l-8.3-14.3
			l8-13.9l8.3,14.3L445.6,617.3z"/>
		<path class="st0" d="M476.1,690.6l-0.1-0.1l-0.8-1.4l-0.8,0.4l-0.8-0.4l-0.8,1.4l-0.1,0.1l-4.3,7.5l-8.3-14.4l-0.1-0.1l-0.8-1.3
			l-0.8,0.5l-0.8-0.5l-0.8,1.3l-0.1,0.1l-8,13.9l-4.1-7l-0.1-0.1l-0.8-1.3l-0.8,0.4l-0.8-0.4l-0.8,1.4l-0.1,0.1l-15.9,27.5l2.5,1.4
			l15-26.1l4.1,7l1.6,2.8l8.3,14.4l0.5,0.8l1.2,0.7l1.2-0.7l0.5-0.8l14-24.2l15,26.1l2.5-1.4L476.1,690.6z M458.8,714.8l-8.3-14.3
			l8-13.9l8.3,14.3L458.8,714.8z"/>
		<path class="st0" d="M549.1,732.9l-0.1-0.1l-0.8-1.4l-0.8,0.4l-0.8-0.4l-0.8,1.4l-0.1,0.1l-4.3,7.5l-8.3-14.4l-0.1-0.1l-0.8-1.3
			l-0.8,0.5l-0.8-0.5l-0.8,1.3L530,726l-8,13.9l-4.1-7l-0.1-0.1l-0.8-1.3l-0.8,0.4l-0.8-0.4l-0.8,1.4l-0.1,0.1l-15.9,27.5l2.5,1.4
			l15-26.1l4.1,7l1.6,2.8l8.3,14.4l0.5,0.8l1.2,0.7l1.2-0.7l0.5-0.8l14-24.2l15,26.1l2.5-1.4L549.1,732.9z M531.8,757.1l-8.3-14.3
			l8-13.9l8.3,14.3L531.8,757.1z"/>
		<path class="st0" d="M363.4,656.2l-0.1-0.1l-0.8-1.4l-0.8,0.4l-0.8-0.4l-0.8,1.4l-0.1,0.1l-4.3,7.5l-8.3-14.4l-0.1-0.1l-0.8-1.3
			l-0.8,0.5l-0.8-0.5l-0.8,1.3l-0.1,0.1l-8,13.9l-4.1-7l-0.1-0.1l-0.8-1.3l-0.8,0.4l-0.8-0.4l-0.8,1.4l-0.1,0.1L313,683.7l2.5,1.4
			l15-26.1l4.1,7l1.6,2.8l8.3,14.4l0.5,0.8l1.2,0.7l1.2-0.7l0.5-0.8l14-24.2l15,26.1l2.5-1.4L363.4,656.2z M346.1,680.5l-8.3-14.3
			l8-13.9l8.3,14.3L346.1,680.5z"/>
		<path class="st0" d="M417.9,466l-0.1-0.1l-0.8-1.4l-0.8,0.4l-0.8-0.4l-0.8,1.4l-0.1,0.1l-4.3,7.5l-8.3-14.4l-0.1-0.1l-0.8-1.3
			l-0.8,0.5l-0.8-0.5l-0.8,1.3l-0.1,0.1l-8,13.9l-4.1-7l-0.1-0.1l-0.8-1.3L385,465l-0.8-0.4l-0.8,1.4l-0.1,0.1l-15.9,27.5l2.5,1.4
			l15-26.1l4.1,7l1.6,2.8l8.3,14.4l0.5,0.8l1.2,0.7l1.2-0.7l0.5-0.8l14-24.2l15,26.1l2.5-1.4L417.9,466z M400.6,490.3l-8.3-14.3
			l8-13.9l8.3,14.3L400.6,490.3z"/>
		<path class="st0" d="M330.3,428.9l-0.1-0.1l-0.8-1.4l-0.8,0.4l-0.8-0.4l-0.8,1.4l-0.1,0.1l-4.3,7.5l-8.3-14.4l-0.1-0.1l-0.8-1.3
			l-0.8,0.5l-0.8-0.5l-0.8,1.3l-0.1,0.1l-8,13.9l-4.1-7l-0.1-0.1l-0.8-1.3l-0.8,0.4l-0.8-0.4l-0.8,1.4l-0.1,0.1l-15.9,27.5l2.5,1.4
			l15-26.1l4.1,7l1.6,2.8l8.3,14.4l0.5,0.8l1.2,0.7l1.2-0.7l0.5-0.8l14-24.2l15,26.1l2.5-1.4L330.3,428.9z M313,453.2l-8.3-14.3
			l8-13.9l8.3,14.3L313,453.2z"/>
	</g>
	<g id="Trees">
		<path class="st0" d="M65,135.6c0-0.3,0-0.5,0.1-0.8c-0.6-1.4-0.6-3,0-4.4c-0.1-0.4-0.2-0.8-0.2-1.2c-0.7-0.5-1.2-1.1-1.5-1.9
			c-0.9-0.4-1.5-1.1-1.9-2c-0.1-0.1-0.2-0.1-0.3-0.2c-0.2,0-0.5,0.1-0.7,0.1c-1,0-1.8-0.2-2.5-0.6c-0.7,0.3-1.5,0.6-2.2,0.6h-0.1
			c-0.1,0-0.2,0-0.3,0c-0.7,0.6-1.6,0.9-2.7,1c-0.4,0.6-0.9,1-1.6,1.4c-0.3,0.9-0.9,1.8-1.7,2.4c0,0.7,0,1.5-0.3,2.2
			c0,0.3,0,0.5-0.1,0.8c0.1,0.6,0.1,1.2,0,1.8c0.1,0.5,0.2,1.1,0.2,1.7c0.1,0.4,0.2,0.8,0.2,1.2c0.3,0.4,0.5,0.8,0.8,1.1
			c0.6,0.3,1.1,0.8,1.5,1.3c0.7,0.2,1.2,0.6,1.7,1.1c1.1,0.5,2.4,0.8,3.7,0.8c1.3,0,2.5-0.3,3.5-0.8c0.2-0.2,0.4-0.3,0.6-0.5
			c0.5-0.6,1.1-1,1.8-1.3c0,0,0,0,0,0c0.3-0.3,0.6-0.6,0.9-0.9c0.2-0.3,0.4-0.5,0.6-0.8c0.1-0.2,0.2-0.4,0.4-0.6
			c0-0.1,0-0.2,0.1-0.3c0-0.1,0-0.2,0-0.2C65.1,136.2,65,135.9,65,135.6L65,135.6L65,135.6z"/>
		<rect x="55.4" y="139.8" class="st0" width="3.4" height="14.1"/>
		<path class="st0" d="M115.5,164.9c0-0.3,0-0.5,0.1-0.8c-0.6-1.4-0.6-3,0-4.4c-0.1-0.4-0.2-0.8-0.2-1.2c-0.7-0.5-1.2-1.1-1.5-1.9
			c-0.9-0.4-1.5-1.1-1.9-2c-0.1-0.1-0.2-0.1-0.3-0.2c-0.2,0-0.5,0.1-0.7,0.1c-1,0-1.8-0.2-2.5-0.6c-0.7,0.3-1.5,0.6-2.2,0.6h-0.1
			c-0.1,0-0.2,0-0.3,0c-0.7,0.6-1.6,0.9-2.7,1c-0.4,0.6-0.9,1-1.6,1.4c-0.3,0.9-0.9,1.8-1.7,2.4c0,0.7,0,1.5-0.3,2.2
			c0,0.3,0,0.5-0.1,0.8c0.1,0.6,0.1,1.2,0,1.8c0.1,0.5,0.2,1.1,0.2,1.7c0.1,0.4,0.2,0.8,0.2,1.2c0.3,0.4,0.5,0.8,0.8,1.1
			c0.6,0.3,1.1,0.8,1.5,1.3c0.7,0.2,1.2,0.6,1.7,1.1c1.1,0.5,2.4,0.8,3.7,0.8c1.3,0,2.5-0.3,3.5-0.8c0.2-0.2,0.4-0.3,0.6-0.5
			c0.5-0.6,1.1-1,1.8-1.3c0,0,0,0,0,0c0.3-0.3,0.6-0.6,0.9-0.9c0.2-0.3,0.4-0.5,0.6-0.8c0.1-0.2,0.2-0.4,0.4-0.6
			c0-0.1,0-0.2,0.1-0.3c0-0.1,0-0.2,0-0.2C115.5,165.4,115.5,165.1,115.5,164.9L115.5,164.9L115.5,164.9z"/>
		<rect x="105.9" y="169" class="st0" width="3.4" height="14.1"/>
		<path class="st0" d="M39.6,241.5c0-0.3,0-0.5,0.1-0.8c-0.6-1.4-0.6-3,0-4.4c-0.1-0.4-0.2-0.8-0.2-1.2c-0.7-0.5-1.2-1.1-1.5-1.9
			c-0.9-0.4-1.5-1.1-1.9-2c-0.1-0.1-0.2-0.1-0.3-0.2c-0.2,0-0.5,0.1-0.7,0.1c-1,0-1.8-0.2-2.5-0.6c-0.7,0.3-1.5,0.6-2.2,0.6h-0.1
			c-0.1,0-0.2,0-0.3,0c-0.7,0.6-1.6,0.9-2.7,1c-0.4,0.6-0.9,1-1.6,1.4c-0.3,0.9-0.9,1.8-1.7,2.4c0,0.7,0,1.5-0.3,2.2
			c0,0.3,0,0.5-0.1,0.8c0.1,0.6,0.1,1.2,0,1.8c0.1,0.5,0.2,1.1,0.2,1.7c0.1,0.4,0.2,0.8,0.2,1.2c0.3,0.4,0.5,0.8,0.8,1.1
			c0.6,0.3,1.1,0.8,1.5,1.3c0.7,0.2,1.2,0.6,1.7,1.1c1.1,0.5,2.4,0.8,3.7,0.8c1.3,0,2.5-0.3,3.5-0.8c0.2-0.2,0.4-0.3,0.6-0.5
			c0.5-0.6,1.1-1,1.8-1.3c0,0,0,0,0,0c0.3-0.3,0.6-0.6,0.9-0.9c0.2-0.3,0.4-0.5,0.6-0.8c0.1-0.2,0.2-0.4,0.4-0.6
			c0-0.1,0-0.2,0.1-0.3c0-0.1,0-0.2,0-0.2C39.6,242,39.6,241.8,39.6,241.5L39.6,241.5L39.6,241.5z"/>
		<rect x="30" y="245.6" class="st0" width="3.4" height="14.1"/>
		<path class="st0" d="M92.6,226.8c0-0.3,0-0.5,0.1-0.8c-0.6-1.4-0.6-3,0-4.4c-0.1-0.4-0.2-0.8-0.2-1.2c-0.7-0.5-1.2-1.1-1.5-1.9
			c-0.9-0.4-1.5-1.1-1.9-2c-0.1-0.1-0.2-0.1-0.3-0.2c-0.2,0-0.5,0.1-0.7,0.1c-1,0-1.8-0.2-2.5-0.6c-0.7,0.3-1.5,0.6-2.2,0.6h-0.1
			c-0.1,0-0.2,0-0.3,0c-0.7,0.6-1.6,0.9-2.7,1c-0.4,0.6-0.9,1-1.6,1.4c-0.3,0.9-0.9,1.8-1.7,2.4c0,0.7,0,1.5-0.3,2.2
			c0,0.3,0,0.5-0.1,0.8c0.1,0.6,0.1,1.2,0,1.8c0.1,0.5,0.2,1.1,0.2,1.7c0.1,0.4,0.2,0.8,0.2,1.2c0.3,0.4,0.5,0.8,0.8,1.1
			c0.6,0.3,1.1,0.8,1.5,1.3c0.7,0.2,1.2,0.6,1.7,1.1c1.1,0.5,2.4,0.8,3.7,0.8c1.3,0,2.5-0.3,3.5-0.8c0.2-0.2,0.4-0.3,0.6-0.5
			c0.5-0.6,1.1-1,1.8-1.3c0,0,0,0,0,0c0.3-0.3,0.6-0.6,0.9-0.9c0.2-0.3,0.4-0.5,0.6-0.8c0.1-0.2,0.2-0.4,0.4-0.6
			c0-0.1,0-0.2,0.1-0.3c0-0.1,0-0.2,0-0.2C92.6,227.4,92.6,227.1,92.6,226.8L92.6,226.8L92.6,226.8z"/>
		<rect x="83" y="231" class="st0" width="3.4" height="14.1"/>
		<path class="st0" d="M151.6,263.7c0-0.3,0-0.5,0.1-0.8c-0.6-1.4-0.6-3,0-4.4c-0.1-0.4-0.2-0.8-0.2-1.2c-0.7-0.5-1.2-1.1-1.5-1.9
			c-0.9-0.4-1.5-1.1-1.9-2c-0.1-0.1-0.2-0.1-0.3-0.2c-0.2,0-0.5,0.1-0.7,0.1c-1,0-1.8-0.2-2.5-0.6c-0.7,0.3-1.5,0.6-2.2,0.6h-0.1
			c-0.1,0-0.2,0-0.3,0c-0.7,0.6-1.6,0.9-2.7,1c-0.4,0.6-0.9,1-1.6,1.4c-0.3,0.9-0.9,1.8-1.7,2.4c0,0.7,0,1.5-0.3,2.2
			c0,0.3,0,0.5-0.1,0.8c0.1,0.6,0.1,1.2,0,1.8c0.1,0.5,0.2,1.1,0.2,1.7c0.1,0.4,0.2,0.8,0.2,1.2c0.3,0.4,0.5,0.8,0.8,1.1
			c0.6,0.3,1.1,0.8,1.5,1.3c0.7,0.2,1.2,0.6,1.7,1.1c1.1,0.5,2.4,0.8,3.7,0.8c1.3,0,2.5-0.3,3.5-0.8c0.2-0.2,0.4-0.3,0.6-0.5
			c0.5-0.6,1.1-1,1.8-1.3c0,0,0,0,0,0c0.3-0.3,0.6-0.6,0.9-0.9c0.2-0.3,0.4-0.5,0.6-0.8c0.1-0.2,0.2-0.4,0.4-0.6
			c0-0.1,0-0.2,0.1-0.3c0-0.1,0-0.2,0-0.2C151.7,264.2,151.6,264,151.6,263.7L151.6,263.7L151.6,263.7z"/>
		<rect x="142.1" y="267.8" class="st0" width="3.4" height="14.1"/>
		<path class="st0" d="M178.3,197.6c0-0.3,0-0.5,0.1-0.8c-0.6-1.4-0.6-3,0-4.4c-0.1-0.4-0.2-0.8-0.2-1.2c-0.7-0.5-1.2-1.1-1.5-1.9
			c-0.9-0.4-1.5-1.1-1.9-2c-0.1-0.1-0.2-0.1-0.3-0.2c-0.2,0-0.5,0.1-0.7,0.1c-1,0-1.8-0.2-2.5-0.6c-0.7,0.3-1.5,0.6-2.2,0.6h-0.1
			c-0.1,0-0.2,0-0.3,0c-0.7,0.6-1.6,0.9-2.7,1c-0.4,0.6-0.9,1-1.6,1.4c-0.3,0.9-0.9,1.8-1.7,2.4c0,0.7,0,1.5-0.3,2.2
			c0,0.3,0,0.5-0.1,0.8c0.1,0.6,0.1,1.2,0,1.8c0.1,0.5,0.2,1.1,0.2,1.7c0.1,0.4,0.2,0.8,0.2,1.2c0.3,0.4,0.5,0.8,0.8,1.1
			c0.6,0.3,1.1,0.8,1.5,1.3c0.7,0.2,1.2,0.6,1.7,1.1c1.1,0.5,2.4,0.8,3.7,0.8c1.3,0,2.5-0.3,3.5-0.8c0.2-0.2,0.4-0.3,0.6-0.5
			c0.5-0.6,1.1-1,1.8-1.3c0,0,0,0,0,0c0.3-0.3,0.6-0.6,0.9-0.9c0.2-0.3,0.4-0.5,0.6-0.8c0.1-0.2,0.2-0.4,0.4-0.6
			c0-0.1,0-0.2,0.1-0.3c0-0.1,0-0.2,0-0.2C178.3,198.1,178.3,197.9,178.3,197.6L178.3,197.6L178.3,197.6z"/>
		<rect x="168.7" y="201.7" class="st0" width="3.4" height="14.1"/>
		<path class="st0" d="M123.6,342.5c0-0.3,0-0.5,0.1-0.8c-0.6-1.4-0.6-3,0-4.4c-0.1-0.4-0.2-0.8-0.2-1.2c-0.7-0.5-1.2-1.1-1.5-1.9
			c-0.9-0.5-1.5-1.1-1.9-2c-0.1-0.1-0.2-0.1-0.3-0.2c-0.2,0-0.5,0.1-0.7,0.1c-1,0-1.8-0.2-2.5-0.6c-0.7,0.3-1.5,0.5-2.2,0.5h-0.1
			c-0.1,0-0.2,0-0.3,0c-0.7,0.6-1.6,0.9-2.7,1c-0.4,0.6-0.9,1-1.6,1.4c-0.3,1-0.9,1.8-1.7,2.4c0,0.7,0,1.5-0.3,2.2
			c0,0.3,0,0.5-0.1,0.8c0.1,0.6,0.1,1.2,0,1.8c0.1,0.5,0.2,1.1,0.2,1.7c0.1,0.4,0.2,0.8,0.2,1.2c0.3,0.4,0.5,0.8,0.8,1.1
			c0.6,0.3,1.1,0.8,1.5,1.3c0.7,0.2,1.2,0.6,1.7,1.1c1.1,0.5,2.4,0.8,3.7,0.8c1.3,0,2.5-0.3,3.5-0.8c0.2-0.2,0.4-0.3,0.6-0.5
			c0.5-0.6,1.1-1,1.8-1.3c0,0,0,0,0,0c0.3-0.3,0.6-0.6,0.9-0.9c0.2-0.3,0.4-0.5,0.6-0.8c0.1-0.2,0.2-0.4,0.4-0.6
			c0-0.1,0-0.2,0.1-0.3c0-0.1,0-0.2,0-0.2C123.6,343,123.6,342.8,123.6,342.5L123.6,342.5L123.6,342.5z"/>
		<rect x="114" y="346.6" class="st0" width="3.4" height="14.1"/>
		<path class="st0" d="M197.6,350.1c0-0.3,0-0.5,0.1-0.8c-0.6-1.4-0.6-3,0-4.4c-0.1-0.4-0.2-0.8-0.2-1.2c-0.7-0.5-1.2-1.1-1.5-1.9
			c-0.9-0.4-1.5-1.1-1.9-2c-0.1-0.1-0.2-0.1-0.3-0.2c-0.2,0-0.5,0.1-0.7,0.1c-1,0-1.8-0.2-2.5-0.6c-0.7,0.3-1.5,0.6-2.2,0.6h-0.1
			c-0.1,0-0.2,0-0.3,0c-0.7,0.6-1.6,0.9-2.7,1c-0.4,0.6-0.9,1-1.6,1.4c-0.3,0.9-0.9,1.8-1.7,2.4c0,0.7,0,1.5-0.3,2.2
			c0,0.3,0,0.5-0.1,0.8c0.1,0.6,0.1,1.2,0,1.8c0.1,0.5,0.2,1.1,0.2,1.7c0.1,0.4,0.2,0.8,0.2,1.2c0.3,0.4,0.5,0.8,0.8,1.1
			c0.6,0.3,1.1,0.8,1.5,1.3c0.7,0.2,1.2,0.6,1.7,1.1c1.1,0.5,2.4,0.8,3.7,0.8c1.3,0,2.5-0.3,3.5-0.8c0.2-0.2,0.4-0.3,0.6-0.5
			c0.5-0.6,1.1-1,1.8-1.3c0,0,0,0,0,0c0.3-0.3,0.6-0.6,0.9-0.9c0.2-0.3,0.4-0.5,0.6-0.8c0.1-0.2,0.2-0.4,0.4-0.6
			c0-0.1,0-0.2,0.1-0.3c0-0.1,0-0.2,0-0.2C197.7,350.6,197.6,350.4,197.6,350.1L197.6,350.1L197.6,350.1z"/>
		<rect x="188" y="354.2" class="st0" width="3.4" height="14.1"/>
		<path class="st0" d="M170.2,143.2c0-0.3,0-0.5,0.1-0.8c-0.6-1.4-0.6-3,0-4.4c-0.1-0.4-0.2-0.8-0.2-1.2c-0.7-0.5-1.2-1.1-1.5-1.9
			c-0.9-0.4-1.5-1.1-1.9-2c-0.1-0.1-0.2-0.1-0.3-0.2c-0.2,0-0.5,0.1-0.7,0.1c-1,0-1.8-0.2-2.5-0.6c-0.7,0.3-1.5,0.6-2.2,0.6h-0.1
			c-0.1,0-0.2,0-0.3,0c-0.7,0.6-1.6,0.9-2.7,1c-0.4,0.6-0.9,1-1.6,1.4c-0.3,0.9-0.9,1.8-1.7,2.4c0,0.7,0,1.5-0.3,2.2
			c0,0.3,0,0.5-0.1,0.8c0.1,0.6,0.1,1.2,0,1.8c0.1,0.5,0.2,1.1,0.2,1.7c0.1,0.4,0.2,0.8,0.2,1.2c0.3,0.4,0.5,0.8,0.8,1.1
			c0.6,0.3,1.1,0.8,1.5,1.3c0.7,0.2,1.2,0.6,1.7,1.1c1.1,0.5,2.4,0.8,3.7,0.8c1.3,0,2.5-0.3,3.5-0.8c0.2-0.2,0.4-0.3,0.6-0.5
			c0.5-0.6,1.1-1,1.8-1.3c0,0,0,0,0,0c0.3-0.3,0.6-0.6,0.9-0.9c0.2-0.3,0.4-0.5,0.6-0.8c0.1-0.2,0.2-0.4,0.4-0.6
			c0-0.1,0-0.2,0.1-0.3c0-0.1,0-0.2,0-0.2C170.2,143.7,170.2,143.5,170.2,143.2L170.2,143.2L170.2,143.2z"/>
		<rect x="160.6" y="147.3" class="st0" width="3.4" height="14.1"/>
		<path class="st0" d="M213.8,257.6c0-0.3,0-0.5,0.1-0.8c-0.6-1.4-0.6-3,0-4.4c-0.1-0.4-0.2-0.8-0.2-1.2c-0.7-0.5-1.2-1.1-1.5-1.9
			c-0.9-0.4-1.5-1.1-1.9-2c-0.1-0.1-0.2-0.1-0.3-0.2c-0.2,0-0.5,0.1-0.7,0.1c-1,0-1.8-0.2-2.5-0.6c-0.7,0.3-1.5,0.6-2.2,0.6h-0.1
			c-0.1,0-0.2,0-0.3,0c-0.7,0.6-1.6,0.9-2.7,1c-0.4,0.6-0.9,1-1.6,1.4c-0.3,0.9-0.9,1.8-1.7,2.4c0,0.7,0,1.5-0.3,2.2
			c0,0.3,0,0.5-0.1,0.8c0.1,0.6,0.1,1.2,0,1.8c0.1,0.5,0.2,1.1,0.2,1.7c0.1,0.4,0.2,0.8,0.2,1.2c0.3,0.4,0.5,0.8,0.8,1.1
			c0.6,0.3,1.1,0.8,1.5,1.3c0.7,0.2,1.2,0.6,1.7,1.1c1.1,0.5,2.4,0.8,3.7,0.8c1.3,0,2.5-0.3,3.5-0.8c0.2-0.2,0.4-0.3,0.6-0.5
			c0.5-0.6,1.1-1,1.8-1.3c0,0,0,0,0,0c0.3-0.3,0.6-0.6,0.9-0.9c0.2-0.3,0.4-0.5,0.6-0.8c0.1-0.2,0.2-0.4,0.4-0.6
			c0-0.1,0-0.2,0.1-0.3c0-0.1,0-0.2,0-0.2C213.9,258.2,213.8,257.9,213.8,257.6L213.8,257.6L213.8,257.6z"/>
		<rect x="204.2" y="261.8" class="st0" width="3.4" height="14.1"/>
		<path class="st0" d="M100.7,280.8c0-0.3,0-0.5,0.1-0.8c-0.6-1.4-0.6-3,0-4.4c-0.1-0.4-0.2-0.8-0.2-1.2c-0.7-0.5-1.2-1.1-1.5-1.9
			c-0.9-0.5-1.5-1.1-1.9-2c-0.1-0.1-0.2-0.1-0.3-0.2c-0.2,0-0.5,0.1-0.7,0.1c-1,0-1.8-0.2-2.5-0.6c-0.7,0.3-1.5,0.5-2.2,0.5h-0.1
			c-0.1,0-0.2,0-0.3,0c-0.7,0.6-1.6,0.9-2.7,1c-0.4,0.6-0.9,1-1.6,1.4c-0.3,1-0.9,1.8-1.7,2.4c0,0.7,0,1.5-0.3,2.2
			c0,0.3,0,0.5-0.1,0.8c0.1,0.6,0.1,1.2,0,1.8c0.1,0.5,0.2,1.1,0.2,1.7c0.1,0.4,0.2,0.8,0.2,1.2c0.3,0.4,0.5,0.8,0.8,1.1
			c0.6,0.3,1.1,0.8,1.5,1.3c0.7,0.2,1.2,0.6,1.7,1.1c1.1,0.5,2.4,0.8,3.7,0.8c1.3,0,2.5-0.3,3.5-0.8c0.2-0.2,0.4-0.3,0.6-0.5
			c0.5-0.6,1.1-1,1.8-1.3c0,0,0,0,0,0c0.3-0.3,0.6-0.6,0.9-0.9c0.2-0.3,0.4-0.5,0.6-0.8c0.1-0.2,0.2-0.4,0.4-0.6
			c0-0.1,0-0.2,0.1-0.3c0-0.1,0-0.2,0-0.2C100.7,281.4,100.7,281.1,100.7,280.8L100.7,280.8L100.7,280.8z"/>
		<rect x="91.1" y="285" class="st0" width="3.4" height="14.1"/>
		<path class="st0" d="M63.4,327.9c0-0.3,0-0.5,0.1-0.8c-0.6-1.4-0.6-3,0-4.4c-0.1-0.4-0.2-0.8-0.2-1.2c-0.7-0.5-1.2-1.1-1.5-1.9
			c-0.9-0.4-1.5-1.1-1.9-2c-0.1-0.1-0.2-0.1-0.3-0.2c-0.2,0-0.5,0.1-0.7,0.1c-1,0-1.8-0.2-2.5-0.6c-0.7,0.3-1.5,0.6-2.2,0.6H54
			c-0.1,0-0.2,0-0.3,0c-0.7,0.6-1.6,0.9-2.7,1c-0.4,0.6-0.9,1-1.6,1.4c-0.3,0.9-0.9,1.8-1.7,2.4c0,0.7,0,1.5-0.3,2.2
			c0,0.3,0,0.5-0.1,0.8c0.1,0.6,0.1,1.2,0,1.8c0.1,0.5,0.2,1.1,0.2,1.7c0.1,0.4,0.2,0.8,0.2,1.2c0.3,0.4,0.5,0.8,0.8,1.1
			c0.6,0.3,1.1,0.8,1.5,1.3c0.7,0.2,1.2,0.6,1.7,1.1c1.1,0.5,2.4,0.8,3.7,0.8c1.3,0,2.5-0.3,3.5-0.8c0.2-0.2,0.4-0.3,0.6-0.5
			c0.5-0.6,1.1-1,1.8-1.3c0,0,0,0,0,0c0.3-0.3,0.6-0.6,0.9-0.9c0.2-0.3,0.4-0.5,0.6-0.8c0.1-0.2,0.2-0.4,0.4-0.6
			c0-0.1,0-0.2,0.1-0.3c0-0.1,0-0.2,0-0.2C63.5,328.4,63.4,328.1,63.4,327.9L63.4,327.9L63.4,327.9z"/>
		<rect x="53.8" y="332" class="st0" width="3.4" height="14.1"/>
		<path class="st0" d="M125.4,111.8c0-0.3,0-0.5,0.1-0.8c-0.6-1.4-0.6-3,0-4.4c-0.1-0.4-0.2-0.8-0.2-1.2c-0.7-0.5-1.2-1.1-1.5-1.9
			c-0.9-0.4-1.5-1.1-1.9-2c-0.1-0.1-0.2-0.1-0.3-0.2c-0.2,0-0.5,0.1-0.7,0.1c-1,0-1.8-0.2-2.5-0.6c-0.7,0.3-1.5,0.6-2.2,0.6h-0.1
			c-0.1,0-0.2,0-0.3,0c-0.7,0.6-1.6,0.9-2.7,1c-0.4,0.6-0.9,1-1.6,1.4c-0.3,0.9-0.9,1.8-1.7,2.4c0,0.7,0,1.5-0.3,2.2
			c0,0.3,0,0.5-0.1,0.8c0.1,0.6,0.1,1.2,0,1.8c0.1,0.5,0.2,1.1,0.2,1.7c0.1,0.4,0.2,0.8,0.2,1.2c0.3,0.4,0.5,0.8,0.8,1.1
			c0.6,0.3,1.1,0.8,1.5,1.3c0.7,0.2,1.2,0.6,1.7,1.1c1.1,0.5,2.4,0.8,3.7,0.8c1.3,0,2.5-0.3,3.5-0.8c0.2-0.2,0.4-0.3,0.6-0.5
			c0.5-0.6,1.1-1,1.8-1.3c0,0,0,0,0,0c0.3-0.3,0.6-0.6,0.9-0.9c0.2-0.3,0.4-0.5,0.6-0.8c0.1-0.2,0.2-0.4,0.4-0.6
			c0-0.1,0-0.2,0.1-0.3c0-0.1,0-0.2,0-0.2C125.4,112.4,125.4,112.1,125.4,111.8L125.4,111.8L125.4,111.8z"/>
		<rect x="115.8" y="116" class="st0" width="3.4" height="14.1"/>
		<path class="st0" d="M178.3,416.9c0-0.3,0-0.5,0.1-0.8c-0.6-1.4-0.6-3,0-4.4c-0.1-0.4-0.2-0.8-0.2-1.2c-0.7-0.5-1.2-1.1-1.5-1.9
			c-0.9-0.4-1.5-1.1-1.9-2c-0.1-0.1-0.2-0.1-0.3-0.2c-0.2,0-0.5,0.1-0.7,0.1c-1,0-1.8-0.2-2.5-0.6c-0.7,0.3-1.5,0.6-2.2,0.6h-0.1
			c-0.1,0-0.2,0-0.3,0c-0.7,0.6-1.6,0.9-2.7,1c-0.4,0.6-0.9,1-1.6,1.4c-0.3,0.9-0.9,1.8-1.7,2.4c0,0.7,0,1.5-0.3,2.2
			c0,0.3,0,0.5-0.1,0.8c0.1,0.6,0.1,1.2,0,1.8c0.1,0.5,0.2,1.1,0.2,1.7c0.1,0.4,0.2,0.8,0.2,1.2c0.3,0.4,0.5,0.8,0.8,1.1
			c0.6,0.3,1.1,0.8,1.5,1.3c0.7,0.2,1.2,0.6,1.7,1.1c1.1,0.5,2.4,0.8,3.7,0.8c1.3,0,2.5-0.3,3.5-0.8c0.2-0.2,0.4-0.3,0.6-0.5
			c0.5-0.6,1.1-1,1.8-1.3c0,0,0,0,0,0c0.3-0.3,0.6-0.6,0.9-0.9c0.2-0.3,0.4-0.5,0.6-0.8c0.1-0.2,0.2-0.4,0.4-0.6
			c0-0.1,0-0.2,0.1-0.3c0-0.1,0-0.2,0-0.2C178.3,417.5,178.3,417.2,178.3,416.9L178.3,416.9L178.3,416.9z"/>
		<rect x="168.7" y="421.1" class="st0" width="3.4" height="14.1"/>
		<path class="st0" d="M117.3,439.1c0-0.3,0-0.5,0.1-0.8c-0.6-1.4-0.6-3,0-4.4c-0.1-0.4-0.2-0.8-0.2-1.2c-0.7-0.5-1.2-1.1-1.5-1.9
			c-0.9-0.5-1.5-1.1-1.9-2c-0.1-0.1-0.2-0.1-0.3-0.2c-0.2,0-0.5,0.1-0.7,0.1c-1,0-1.8-0.2-2.5-0.6c-0.7,0.3-1.5,0.5-2.2,0.5h-0.1
			c-0.1,0-0.2,0-0.3,0c-0.7,0.6-1.6,0.9-2.7,1c-0.4,0.6-0.9,1-1.6,1.4c-0.3,1-0.9,1.8-1.7,2.4c0,0.7,0,1.5-0.3,2.2
			c0,0.3,0,0.5-0.1,0.8c0.1,0.6,0.1,1.2,0,1.8c0.1,0.5,0.2,1.1,0.2,1.7c0.1,0.4,0.2,0.8,0.2,1.2c0.3,0.4,0.5,0.8,0.8,1.1
			c0.6,0.3,1.1,0.8,1.5,1.3c0.7,0.2,1.2,0.6,1.7,1.1c1.1,0.5,2.4,0.8,3.7,0.8c1.3,0,2.5-0.3,3.5-0.8c0.2-0.2,0.4-0.3,0.6-0.5
			c0.5-0.6,1.1-1,1.8-1.3c0,0,0,0,0,0c0.3-0.3,0.6-0.6,0.9-0.9c0.2-0.3,0.4-0.5,0.6-0.8c0.1-0.2,0.2-0.4,0.4-0.6
			c0-0.1,0-0.2,0.1-0.3c0-0.1,0-0.2,0-0.2C117.3,439.7,117.3,439.4,117.3,439.1L117.3,439.1L117.3,439.1z"/>
		<rect x="107.7" y="443.3" class="st0" width="3.4" height="14.1"/>
		<path class="st0" d="M74.9,396.5c0-0.3,0-0.5,0.1-0.8c-0.6-1.4-0.6-3,0-4.4c-0.1-0.4-0.2-0.8-0.2-1.2c-0.7-0.5-1.2-1.1-1.5-1.9
			c-0.9-0.4-1.5-1.1-1.9-2c-0.1-0.1-0.2-0.1-0.3-0.2c-0.2,0-0.5,0.1-0.7,0.1c-1,0-1.8-0.2-2.5-0.6c-0.7,0.3-1.5,0.6-2.2,0.6h-0.1
			c-0.1,0-0.2,0-0.3,0c-0.7,0.6-1.6,0.9-2.7,1c-0.4,0.6-0.9,1-1.6,1.4c-0.3,0.9-0.9,1.8-1.7,2.4c0,0.7,0,1.5-0.3,2.2
			c0,0.3,0,0.5-0.1,0.8c0.1,0.6,0.1,1.2,0,1.8c0.1,0.5,0.2,1.1,0.2,1.7c0.1,0.4,0.2,0.8,0.2,1.2c0.3,0.4,0.5,0.8,0.8,1.1
			c0.6,0.3,1.1,0.8,1.5,1.3c0.7,0.2,1.2,0.6,1.7,1.1c1.1,0.5,2.4,0.8,3.7,0.8c1.3,0,2.5-0.3,3.5-0.8c0.2-0.2,0.4-0.3,0.6-0.5
			c0.5-0.6,1.1-1,1.8-1.3c0,0,0,0,0,0c0.3-0.3,0.6-0.6,0.9-0.9c0.2-0.3,0.4-0.5,0.6-0.8c0.1-0.2,0.2-0.4,0.4-0.6
			c0-0.1,0-0.2,0.1-0.3c0-0.1,0-0.2,0-0.2C74.9,397,74.9,396.8,74.9,396.5L74.9,396.5L74.9,396.5z"/>
		<rect x="65.3" y="400.6" class="st0" width="3.4" height="14.1"/>
		<path class="st0" d="M264.7,350.1c0-0.3,0-0.5,0.1-0.8c-0.6-1.4-0.6-3,0-4.4c-0.1-0.4-0.2-0.8-0.2-1.2c-0.7-0.5-1.2-1.1-1.5-1.9
			c-0.9-0.4-1.5-1.1-1.9-2c-0.1-0.1-0.2-0.1-0.3-0.2c-0.2,0-0.5,0.1-0.7,0.1c-1,0-1.8-0.2-2.5-0.6c-0.7,0.3-1.5,0.6-2.2,0.6h-0.1
			c-0.1,0-0.2,0-0.3,0c-0.7,0.6-1.6,0.9-2.7,1c-0.4,0.6-0.9,1-1.6,1.4c-0.3,0.9-0.9,1.8-1.7,2.4c0,0.7,0,1.5-0.3,2.2
			c0,0.3,0,0.5-0.1,0.8c0.1,0.6,0.1,1.2,0,1.8c0.1,0.5,0.2,1.1,0.2,1.7c0.1,0.4,0.2,0.8,0.2,1.2c0.3,0.4,0.5,0.8,0.8,1.1
			c0.6,0.3,1.1,0.8,1.5,1.3c0.7,0.2,1.2,0.6,1.7,1.1c1.1,0.5,2.4,0.8,3.7,0.8c1.3,0,2.5-0.3,3.5-0.8c0.2-0.2,0.4-0.3,0.6-0.5
			c0.5-0.6,1.1-1,1.8-1.3c0,0,0,0,0,0c0.3-0.3,0.6-0.6,0.9-0.9c0.2-0.3,0.4-0.5,0.6-0.8c0.1-0.2,0.2-0.4,0.4-0.6
			c0-0.1,0-0.2,0.1-0.3c0-0.1,0-0.2,0-0.2C264.7,350.6,264.7,350.4,264.7,350.1L264.7,350.1L264.7,350.1z"/>
		<rect x="255.1" y="354.2" class="st0" width="3.4" height="14.1"/>
		<path class="st0" d="M264.7,281.3c0-0.3,0-0.5,0.1-0.8c-0.6-1.4-0.6-3,0-4.4c-0.1-0.4-0.2-0.8-0.2-1.2c-0.7-0.5-1.2-1.1-1.5-1.9
			c-0.9-0.5-1.5-1.1-1.9-2c-0.1-0.1-0.2-0.1-0.3-0.2c-0.2,0-0.5,0.1-0.7,0.1c-1,0-1.8-0.2-2.5-0.6c-0.7,0.3-1.5,0.5-2.2,0.5h-0.1
			c-0.1,0-0.2,0-0.3,0c-0.7,0.6-1.6,0.9-2.7,1c-0.4,0.6-0.9,1-1.6,1.4c-0.3,1-0.9,1.8-1.7,2.4c0,0.7,0,1.5-0.3,2.2
			c0,0.3,0,0.5-0.1,0.8c0.1,0.6,0.1,1.2,0,1.8c0.1,0.5,0.2,1.1,0.2,1.7c0.1,0.4,0.2,0.8,0.2,1.2c0.3,0.4,0.5,0.8,0.8,1.1
			c0.6,0.3,1.1,0.8,1.5,1.3c0.7,0.2,1.2,0.6,1.7,1.1c1.1,0.5,2.4,0.8,3.7,0.8c1.3,0,2.5-0.3,3.5-0.8c0.2-0.2,0.4-0.3,0.6-0.5
			c0.5-0.6,1.1-1,1.8-1.3c0,0,0,0,0,0c0.3-0.3,0.6-0.6,0.9-0.9c0.2-0.3,0.4-0.5,0.6-0.8c0.1-0.2,0.2-0.4,0.4-0.6
			c0-0.1,0-0.2,0.1-0.3c0-0.1,0-0.2,0-0.2C264.7,281.9,264.7,281.6,264.7,281.3L264.7,281.3L264.7,281.3z"/>
		<rect x="255.1" y="285.5" class="st0" width="3.4" height="14.1"/>
		<path class="st0" d="M241.8,198.1c0-0.3,0-0.5,0.1-0.8c-0.6-1.4-0.6-3,0-4.4c-0.1-0.4-0.2-0.8-0.2-1.2c-0.7-0.5-1.2-1.1-1.5-1.9
			c-0.9-0.4-1.5-1.1-1.9-2c-0.1-0.1-0.2-0.1-0.3-0.2c-0.2,0-0.5,0.1-0.7,0.1c-1,0-1.8-0.2-2.5-0.6c-0.7,0.3-1.5,0.6-2.2,0.6h-0.1
			c-0.1,0-0.2,0-0.3,0c-0.7,0.6-1.6,0.9-2.7,1c-0.4,0.6-0.9,1-1.6,1.4c-0.3,0.9-0.9,1.8-1.7,2.4c0,0.7,0,1.5-0.3,2.2
			c0,0.3,0,0.5-0.1,0.8c0.1,0.6,0.1,1.2,0,1.8c0.1,0.5,0.2,1.1,0.2,1.7c0.1,0.4,0.2,0.8,0.2,1.2c0.3,0.4,0.5,0.8,0.8,1.1
			c0.6,0.3,1.1,0.8,1.5,1.3c0.7,0.2,1.2,0.6,1.7,1.1c1.1,0.5,2.4,0.8,3.7,0.8c1.3,0,2.5-0.3,3.5-0.8c0.2-0.2,0.4-0.3,0.6-0.5
			c0.5-0.6,1.1-1,1.8-1.3c0,0,0,0,0,0c0.3-0.3,0.6-0.6,0.9-0.9c0.2-0.3,0.4-0.5,0.6-0.8c0.1-0.2,0.2-0.4,0.4-0.6
			c0-0.1,0-0.2,0.1-0.3c0-0.1,0-0.2,0-0.2C241.9,198.7,241.9,198.4,241.8,198.1L241.8,198.1L241.8,198.1z"/>
		<rect x="232.3" y="202.3" class="st0" width="3.4" height="14.1"/>
		<path class="st0" d="M223.7,145.7c0-0.3,0-0.5,0.1-0.8c-0.6-1.4-0.6-3,0-4.4c-0.1-0.4-0.2-0.8-0.2-1.2c-0.7-0.5-1.2-1.1-1.5-1.9
			c-0.9-0.4-1.5-1.1-1.9-2c-0.1-0.1-0.2-0.1-0.3-0.2c-0.2,0-0.5,0.1-0.7,0.1c-1,0-1.8-0.2-2.5-0.6c-0.7,0.3-1.5,0.6-2.2,0.6h-0.1
			c-0.1,0-0.2,0-0.3,0c-0.7,0.6-1.6,0.9-2.7,1c-0.4,0.6-0.9,1-1.6,1.4c-0.3,0.9-0.9,1.8-1.7,2.4c0,0.7,0,1.5-0.3,2.2
			c0,0.3,0,0.5-0.1,0.8c0.1,0.6,0.1,1.2,0,1.8c0.1,0.5,0.2,1.1,0.2,1.7c0.1,0.4,0.2,0.8,0.2,1.2c0.3,0.4,0.5,0.8,0.8,1.1
			c0.6,0.3,1.1,0.8,1.5,1.3c0.7,0.2,1.2,0.6,1.7,1.1c1.1,0.5,2.4,0.8,3.7,0.8c1.3,0,2.5-0.3,3.5-0.8c0.2-0.2,0.4-0.3,0.6-0.5
			c0.5-0.6,1.1-1,1.8-1.3c0,0,0,0,0,0c0.3-0.3,0.6-0.6,0.9-0.9c0.2-0.3,0.4-0.5,0.6-0.8c0.1-0.2,0.2-0.4,0.4-0.6
			c0-0.1,0-0.2,0.1-0.3c0-0.1,0-0.2,0-0.2C223.7,146.2,223.7,146,223.7,145.7L223.7,145.7L223.7,145.7z"/>
		<rect x="214.1" y="149.8" class="st0" width="3.4" height="14.1"/>
		<path class="st0" d="M299.4,313.2c0-0.3,0-0.5,0.1-0.8c-0.6-1.4-0.6-3,0-4.4c-0.1-0.4-0.2-0.8-0.2-1.2c-0.7-0.5-1.2-1.1-1.5-1.9
			c-0.9-0.4-1.5-1.1-1.9-2c-0.1-0.1-0.2-0.1-0.3-0.2c-0.2,0-0.5,0.1-0.7,0.1c-1,0-1.8-0.2-2.5-0.6c-0.7,0.3-1.5,0.6-2.2,0.6H290
			c-0.1,0-0.2,0-0.3,0c-0.7,0.6-1.6,0.9-2.7,1c-0.4,0.6-0.9,1-1.6,1.4c-0.3,0.9-0.9,1.8-1.7,2.4c0,0.7,0,1.5-0.3,2.2
			c0,0.3,0,0.5-0.1,0.8c0.1,0.6,0.1,1.2,0,1.8c0.1,0.5,0.2,1.1,0.2,1.7c0.1,0.4,0.2,0.8,0.2,1.2c0.3,0.4,0.5,0.8,0.8,1.1
			c0.6,0.3,1.1,0.8,1.5,1.3c0.7,0.2,1.2,0.6,1.7,1.1c1.1,0.5,2.4,0.8,3.7,0.8c1.3,0,2.5-0.3,3.5-0.8c0.2-0.2,0.4-0.3,0.6-0.5
			c0.5-0.6,1.1-1,1.8-1.3c0,0,0,0,0,0c0.3-0.3,0.6-0.6,0.9-0.9c0.2-0.3,0.4-0.5,0.6-0.8c0.1-0.2,0.2-0.4,0.4-0.6
			c0-0.1,0-0.2,0.1-0.3c0-0.1,0-0.2,0-0.2C299.5,313.8,299.4,313.5,299.4,313.2L299.4,313.2L299.4,313.2z"/>
		<rect x="289.8" y="317.4" class="st0" width="3.4" height="14.1"/>
		<path class="st0" d="M225.4,411.1c0-0.3,0-0.5,0.1-0.8c-0.6-1.4-0.6-3,0-4.4c-0.1-0.4-0.2-0.8-0.2-1.2c-0.7-0.5-1.2-1.1-1.5-1.9
			c-0.9-0.5-1.5-1.1-1.9-2c-0.1-0.1-0.2-0.1-0.3-0.2c-0.2,0-0.5,0.1-0.7,0.1c-1,0-1.8-0.2-2.5-0.6c-0.7,0.3-1.5,0.5-2.2,0.5H216
			c-0.1,0-0.2,0-0.3,0c-0.7,0.6-1.6,0.9-2.7,1c-0.4,0.6-0.9,1-1.6,1.4c-0.3,1-0.9,1.8-1.7,2.4c0,0.7,0,1.5-0.3,2.2
			c0,0.3,0,0.5-0.1,0.8c0.1,0.6,0.1,1.2,0,1.8c0.1,0.5,0.2,1.1,0.2,1.7c0.1,0.4,0.2,0.8,0.2,1.2c0.3,0.4,0.5,0.8,0.8,1.1
			c0.6,0.3,1.1,0.8,1.5,1.3c0.7,0.2,1.2,0.6,1.7,1.1c1.1,0.5,2.4,0.8,3.7,0.8c1.3,0,2.5-0.3,3.5-0.8c0.2-0.2,0.4-0.3,0.6-0.5
			c0.5-0.6,1.1-1,1.8-1.3c0,0,0,0,0,0c0.3-0.3,0.6-0.6,0.9-0.9c0.2-0.3,0.4-0.5,0.6-0.8c0.1-0.2,0.2-0.4,0.4-0.6
			c0-0.1,0-0.2,0.1-0.3c0-0.1,0-0.2,0-0.2C225.5,411.7,225.5,411.4,225.4,411.1L225.4,411.1L225.4,411.1z"/>
		<rect x="215.9" y="415.3" class="st0" width="3.4" height="14.1"/>
	</g>
</g>
<g id="Alberta" class="st1">
</g>
</svg>
