<?xml version="1.0" encoding="utf-8"?>
<!-- Generator: Adobe Illustrator 23.0.2, SVG Export Plug-In . SVG Version: 6.00 Build 0)  -->
<svg version="1.1" id="Layer_1" xmlns="http://www.w3.org/2000/svg" xmlns:xlink="http://www.w3.org/1999/xlink" x="0px" y="0px"
	 viewBox="0 0 300 400" style="enable-background:new 0 0 300 400;" xml:space="preserve">
<style type="text/css">
	.st0{fill:#989898;}
</style>
<path class="st0" d="M294.96,122.29l-62.13,90.51c-0.14-0.14-0.33-0.23-0.47-0.37c-0.19-0.1-0.33-0.23-0.51-0.33
	c-0.1-0.05-0.19-0.14-0.29-0.19l61.58-89.62H294.96z"/>
<polygon class="st0" points="226.35,23.02 120.5,23.02 120.5,21.52 225.32,21.52 "/>
<rect x="11.27" y="21.52" class="st0" width="201" height="1.5"/>
<rect x="11.28" y="21.53" class="st0" width="1.5" height="201"/>
<path class="st0" d="M12.2,381.4c-0.19,0-0.42,0-0.61,0.05c-0.09,0-0.23,0-0.33,0V222.56h1.5v158.89l0,0
	C12.58,381.4,12.39,381.4,12.2,381.4z"/>
<rect x="11.27" y="379.93" class="st0" width="201" height="1.5"/>
<rect x="21.97" y="379.93" class="st0" width="201" height="1.5"/>
<path class="st0" d="M222.57,225.08v156.37c-0.14-0.04-0.33-0.04-0.56-0.04c-0.18,0-0.41,0-0.61,0.04h-0.33V227.27L222.57,225.08z"
	/>
<path class="st0" d="M222.03,228.45v-0.56c0-0.19-0.04-0.38-0.04-0.56c0-0.1,0.04-0.14,0.04-0.23v-0.62c0-0.04,0-0.04,0-0.08
	c0-0.05,0-0.1,0-0.1v-0.42l64.18-93.44l1.35,0.65L222.03,228.45z"/>
<path class="st0" d="M294.96,122.98l-62.13-90.51c-0.14,0.14-0.33,0.23-0.47,0.37c-0.19,0.1-0.33,0.23-0.51,0.33
	c-0.1,0.05-0.19,0.14-0.29,0.19l61.58,89.62H294.96z"/>
<path class="st0" d="M287.98,112.82l-62.31-90.78c-0.14,0.14-0.33,0.23-0.47,0.37c-0.19,0.1-0.33,0.23-0.51,0.33
	c-0.1,0.05-0.19,0.14-0.29,0.19l61.76,89.88H287.98z"/>
<path class="st0" d="M35.85,103.11c0-0.1,0.02-0.2,0.03-0.29c-0.24-0.53-0.24-1.17-0.02-1.71c-0.04-0.15-0.07-0.31-0.07-0.47
	c-0.26-0.19-0.46-0.43-0.59-0.72c-0.33-0.17-0.58-0.44-0.74-0.76c-0.03-0.02-0.07-0.05-0.1-0.07c-0.09,0.01-0.18,0.02-0.28,0.02
	c-0.39,0-0.71-0.09-0.98-0.25c-0.27,0.13-0.56,0.21-0.85,0.21h-0.04c-0.03,0-0.07-0.01-0.1-0.01c-0.27,0.22-0.61,0.36-1.04,0.38
	c-0.15,0.22-0.36,0.4-0.61,0.52c-0.12,0.37-0.34,0.69-0.67,0.92c0.02,0.29-0.02,0.58-0.12,0.84c-0.01,0.1-0.02,0.2-0.04,0.29
	c0.03,0.22,0.04,0.45,0.01,0.68c0.05,0.21,0.07,0.42,0.06,0.64c0.05,0.15,0.08,0.31,0.09,0.47c0.1,0.15,0.2,0.3,0.32,0.44
	c0.24,0.12,0.43,0.29,0.59,0.5c0.26,0.09,0.48,0.24,0.66,0.42c0.44,0.19,0.92,0.3,1.43,0.3c0.49,0,0.95-0.11,1.37-0.29
	c0.07-0.07,0.15-0.12,0.23-0.18c0.18-0.22,0.41-0.39,0.7-0.5c0,0,0,0,0,0c0.1-0.12,0.22-0.24,0.36-0.34c0.07-0.1,0.14-0.2,0.23-0.29
	c0.04-0.08,0.09-0.16,0.15-0.24c0.01-0.03,0.02-0.07,0.03-0.1c0-0.03,0.01-0.06,0.01-0.09C35.87,103.33,35.86,103.22,35.85,103.11
	L35.85,103.11L35.85,103.11z"/>
<rect x="32.16" y="104.72" class="st0" width="1.3" height="5.44"/>
<path class="st0" d="M40.95,84.18c0-0.1,0.02-0.2,0.03-0.29c-0.24-0.53-0.24-1.17-0.02-1.71c-0.04-0.15-0.07-0.31-0.07-0.47
	c-0.26-0.19-0.46-0.43-0.59-0.72c-0.33-0.17-0.58-0.44-0.74-0.76c-0.03-0.02-0.07-0.05-0.1-0.07c-0.09,0.01-0.18,0.02-0.28,0.02
	c-0.39,0-0.71-0.09-0.98-0.25c-0.27,0.13-0.56,0.21-0.85,0.21h-0.04c-0.03,0-0.07-0.01-0.1-0.01c-0.27,0.22-0.61,0.36-1.04,0.38
	c-0.15,0.22-0.36,0.4-0.61,0.52c-0.12,0.37-0.34,0.69-0.67,0.92c0.02,0.29-0.02,0.58-0.12,0.84c-0.01,0.1-0.02,0.2-0.04,0.29
	c0.03,0.22,0.04,0.45,0.01,0.68c0.05,0.21,0.07,0.42,0.06,0.64c0.05,0.15,0.08,0.31,0.09,0.47c0.1,0.15,0.2,0.3,0.32,0.44
	c0.24,0.12,0.43,0.29,0.59,0.5c0.26,0.09,0.48,0.24,0.66,0.42c0.44,0.19,0.92,0.3,1.43,0.3c0.49,0,0.95-0.11,1.37-0.29
	c0.07-0.07,0.15-0.12,0.23-0.18c0.18-0.22,0.41-0.39,0.7-0.5c0,0,0,0,0,0c0.1-0.12,0.22-0.24,0.36-0.34c0.07-0.1,0.14-0.2,0.23-0.29
	c0.04-0.08,0.09-0.16,0.15-0.24c0.01-0.03,0.02-0.07,0.03-0.1c0-0.03,0.01-0.06,0.01-0.09C40.97,84.4,40.96,84.29,40.95,84.18
	L40.95,84.18L40.95,84.18z"/>
<rect x="37.25" y="85.79" class="st0" width="1.3" height="5.44"/>
<path class="st0" d="M31.16,54.86c0-0.1,0.02-0.2,0.03-0.29c-0.24-0.53-0.24-1.17-0.02-1.71c-0.04-0.15-0.07-0.31-0.07-0.47
	c-0.26-0.19-0.46-0.43-0.59-0.72c-0.33-0.17-0.58-0.44-0.74-0.76c-0.03-0.02-0.07-0.05-0.1-0.07c-0.09,0.01-0.18,0.02-0.28,0.02
	c-0.39,0-0.71-0.09-0.98-0.25c-0.27,0.13-0.56,0.21-0.85,0.21h-0.04c-0.03,0-0.07-0.01-0.1-0.01c-0.27,0.22-0.61,0.36-1.04,0.38
	c-0.15,0.22-0.36,0.4-0.61,0.52c-0.12,0.37-0.34,0.69-0.67,0.92c0.02,0.29-0.02,0.58-0.12,0.84c-0.01,0.1-0.02,0.2-0.04,0.29
	c0.03,0.22,0.04,0.45,0.01,0.68c0.05,0.21,0.07,0.42,0.06,0.64c0.05,0.15,0.08,0.31,0.09,0.47c0.1,0.15,0.2,0.3,0.32,0.44
	c0.24,0.12,0.43,0.29,0.59,0.5c0.26,0.09,0.48,0.24,0.66,0.42c0.44,0.19,0.92,0.3,1.43,0.3c0.49,0,0.95-0.11,1.37-0.29
	c0.07-0.07,0.15-0.12,0.23-0.18c0.18-0.22,0.41-0.39,0.7-0.5c0,0,0,0,0,0c0.1-0.12,0.22-0.24,0.36-0.34c0.07-0.1,0.14-0.2,0.23-0.29
	c0.04-0.08,0.09-0.16,0.15-0.24c0.01-0.03,0.02-0.07,0.03-0.1c0-0.03,0.01-0.06,0.01-0.09C31.19,55.07,31.17,54.97,31.16,54.86
	L31.16,54.86L31.16,54.86z"/>
<rect x="27.47" y="56.46" class="st0" width="1.3" height="5.44"/>
<path class="st0" d="M60.77,74.5c0-0.1,0.02-0.2,0.03-0.29c-0.24-0.53-0.24-1.17-0.02-1.71c-0.04-0.15-0.07-0.31-0.07-0.47
	c-0.26-0.19-0.46-0.43-0.59-0.72c-0.33-0.17-0.58-0.44-0.74-0.76c-0.03-0.02-0.07-0.05-0.1-0.07C59.19,70.49,59.1,70.5,59,70.5
	c-0.39,0-0.71-0.09-0.98-0.25c-0.27,0.13-0.56,0.21-0.85,0.21h-0.04c-0.03,0-0.07-0.01-0.1-0.01c-0.27,0.22-0.61,0.36-1.04,0.38
	c-0.15,0.22-0.36,0.4-0.61,0.52c-0.12,0.37-0.34,0.69-0.67,0.92c0.02,0.29-0.02,0.58-0.12,0.84c-0.01,0.1-0.02,0.2-0.04,0.29
	c0.03,0.22,0.04,0.45,0.01,0.68c0.05,0.21,0.07,0.42,0.06,0.64c0.05,0.15,0.08,0.31,0.09,0.47c0.1,0.15,0.2,0.3,0.32,0.44
	c0.24,0.12,0.43,0.29,0.59,0.5c0.26,0.09,0.48,0.24,0.66,0.42c0.44,0.19,0.92,0.3,1.43,0.3c0.49,0,0.95-0.11,1.37-0.29
	c0.07-0.07,0.15-0.12,0.23-0.18c0.18-0.22,0.41-0.39,0.7-0.5c0,0,0,0,0,0c0.1-0.12,0.22-0.24,0.36-0.34c0.07-0.1,0.14-0.2,0.23-0.29
	c0.04-0.08,0.09-0.16,0.15-0.24c0.01-0.03,0.02-0.07,0.03-0.1c0-0.03,0.01-0.06,0.01-0.09C60.79,74.72,60.78,74.61,60.77,74.5
	L60.77,74.5L60.77,74.5z"/>
<rect x="57.08" y="76.1" class="st0" width="1.3" height="5.44"/>
<path class="st0" d="M54.52,44.94c0-0.1,0.02-0.2,0.03-0.29c-0.24-0.53-0.24-1.17-0.02-1.71c-0.04-0.15-0.07-0.31-0.07-0.47
	c-0.26-0.19-0.46-0.43-0.59-0.72c-0.33-0.17-0.58-0.44-0.74-0.76c-0.03-0.02-0.07-0.05-0.1-0.07c-0.09,0.01-0.18,0.02-0.28,0.02
	c-0.39,0-0.71-0.09-0.98-0.25c-0.27,0.13-0.56,0.21-0.85,0.21h-0.04c-0.03,0-0.07-0.01-0.1-0.01c-0.27,0.22-0.61,0.36-1.04,0.38
	c-0.15,0.22-0.36,0.4-0.61,0.52c-0.12,0.37-0.34,0.69-0.67,0.92c0.02,0.29-0.02,0.58-0.12,0.84c-0.01,0.1-0.02,0.2-0.04,0.29
	c0.03,0.22,0.04,0.45,0.01,0.68c0.05,0.21,0.07,0.42,0.06,0.64c0.05,0.15,0.08,0.31,0.09,0.47c0.1,0.15,0.2,0.3,0.32,0.44
	c0.24,0.12,0.43,0.29,0.59,0.5c0.26,0.09,0.48,0.24,0.66,0.42c0.44,0.19,0.92,0.3,1.43,0.3c0.49,0,0.95-0.11,1.37-0.29
	c0.07-0.07,0.15-0.12,0.23-0.18c0.18-0.22,0.41-0.39,0.7-0.5c0,0,0,0,0,0c0.1-0.12,0.22-0.24,0.36-0.34c0.07-0.1,0.14-0.2,0.23-0.29
	c0.04-0.08,0.09-0.16,0.15-0.24c0.01-0.03,0.02-0.07,0.03-0.1c0-0.03,0.01-0.06,0.01-0.09C54.55,45.16,54.53,45.05,54.52,44.94
	L54.52,44.94L54.52,44.94z"/>
<rect x="50.83" y="46.54" class="st0" width="1.3" height="5.44"/>
<path class="st0" d="M84.93,87.67c0-0.1,0.02-0.2,0.03-0.29c-0.24-0.53-0.24-1.17-0.02-1.71c-0.04-0.15-0.07-0.31-0.07-0.47
	c-0.26-0.19-0.46-0.43-0.59-0.72c-0.33-0.17-0.58-0.44-0.74-0.76c-0.03-0.02-0.07-0.05-0.1-0.07c-0.09,0.01-0.18,0.02-0.28,0.02
	c-0.39,0-0.71-0.09-0.98-0.25c-0.27,0.13-0.56,0.21-0.85,0.21H81.3c-0.03,0-0.07-0.01-0.1-0.01c-0.27,0.22-0.61,0.36-1.04,0.38
	c-0.15,0.22-0.36,0.4-0.61,0.52c-0.12,0.37-0.34,0.69-0.67,0.92c0.02,0.29-0.02,0.57-0.12,0.84c-0.01,0.1-0.02,0.2-0.04,0.29
	c0.03,0.22,0.04,0.45,0.01,0.68c0.05,0.21,0.07,0.42,0.06,0.64c0.05,0.15,0.08,0.31,0.09,0.47c0.1,0.15,0.2,0.3,0.32,0.44
	c0.24,0.12,0.43,0.29,0.59,0.5c0.26,0.09,0.48,0.24,0.66,0.42c0.44,0.19,0.92,0.3,1.43,0.3c0.49,0,0.95-0.11,1.37-0.29
	c0.07-0.07,0.15-0.12,0.23-0.18c0.18-0.22,0.41-0.39,0.7-0.5c0,0,0,0,0,0c0.1-0.12,0.22-0.24,0.36-0.34c0.07-0.1,0.14-0.2,0.23-0.29
	c0.04-0.08,0.09-0.16,0.15-0.24c0.01-0.03,0.02-0.07,0.03-0.1c0-0.03,0.01-0.06,0.01-0.09C84.95,87.89,84.94,87.78,84.93,87.67
	L84.93,87.67L84.93,87.67z"/>
<rect x="81.24" y="89.28" class="st0" width="1.3" height="5.44"/>
<path class="st0" d="M63.9,97.87c0-0.1,0.02-0.2,0.03-0.29c-0.24-0.53-0.24-1.17-0.02-1.71c-0.04-0.15-0.07-0.31-0.07-0.47
	c-0.26-0.19-0.46-0.43-0.59-0.72c-0.33-0.17-0.58-0.44-0.74-0.76c-0.03-0.02-0.07-0.05-0.1-0.07c-0.09,0.01-0.18,0.02-0.28,0.02
	c-0.39,0-0.71-0.09-0.98-0.25c-0.27,0.13-0.56,0.21-0.85,0.21h-0.04c-0.03,0-0.07-0.01-0.1-0.01c-0.27,0.22-0.61,0.36-1.04,0.38
	c-0.15,0.22-0.36,0.4-0.61,0.52c-0.12,0.37-0.34,0.69-0.67,0.92c0.02,0.29-0.02,0.58-0.12,0.84c-0.01,0.1-0.02,0.2-0.04,0.29
	c0.03,0.22,0.04,0.45,0.01,0.68c0.05,0.21,0.07,0.42,0.06,0.64c0.05,0.15,0.08,0.31,0.09,0.47c0.1,0.15,0.2,0.3,0.32,0.44
	c0.24,0.12,0.43,0.29,0.59,0.5c0.26,0.09,0.48,0.24,0.66,0.42c0.44,0.19,0.92,0.3,1.43,0.3c0.49,0,0.95-0.11,1.37-0.29
	c0.07-0.07,0.15-0.12,0.23-0.18c0.18-0.22,0.41-0.39,0.7-0.5c0,0,0,0,0,0c0.1-0.12,0.22-0.24,0.36-0.34c0.07-0.1,0.14-0.2,0.23-0.29
	c0.04-0.08,0.09-0.16,0.15-0.24c0.01-0.03,0.02-0.07,0.03-0.1c0-0.03,0.01-0.06,0.01-0.09C63.92,98.08,63.9,97.98,63.9,97.87
	L63.9,97.87L63.9,97.87z"/>
<rect x="60.2" y="99.47" class="st0" width="1.3" height="5.44"/>
<path class="st0" d="M72.3,63.21c0-0.1,0.02-0.2,0.03-0.29c-0.24-0.53-0.24-1.17-0.02-1.71c-0.04-0.15-0.07-0.31-0.07-0.47
	c-0.26-0.19-0.46-0.43-0.59-0.72c-0.33-0.17-0.58-0.44-0.74-0.76c-0.03-0.02-0.07-0.05-0.1-0.07c-0.09,0.01-0.18,0.02-0.28,0.02
	c-0.39,0-0.71-0.09-0.98-0.25c-0.27,0.13-0.56,0.21-0.85,0.21h-0.04c-0.03,0-0.07-0.01-0.1-0.01c-0.27,0.22-0.61,0.36-1.04,0.38
	c-0.15,0.22-0.36,0.4-0.61,0.52c-0.12,0.37-0.34,0.69-0.67,0.92c0.02,0.29-0.02,0.58-0.12,0.84c-0.01,0.1-0.02,0.2-0.04,0.29
	c0.03,0.22,0.04,0.45,0.01,0.68c0.05,0.21,0.07,0.42,0.06,0.64c0.05,0.15,0.08,0.31,0.09,0.47c0.1,0.15,0.2,0.3,0.32,0.44
	c0.24,0.12,0.43,0.29,0.59,0.5c0.26,0.09,0.48,0.24,0.66,0.42c0.44,0.19,0.92,0.3,1.43,0.3c0.49,0,0.95-0.11,1.37-0.29
	c0.07-0.07,0.15-0.12,0.23-0.18c0.18-0.22,0.41-0.39,0.7-0.5c0,0,0,0,0,0c0.1-0.12,0.22-0.24,0.36-0.34c0.07-0.1,0.14-0.2,0.23-0.29
	c0.04-0.08,0.09-0.16,0.15-0.24c0.01-0.03,0.02-0.07,0.03-0.1c0-0.03,0.01-0.06,0.01-0.09C72.32,63.42,72.31,63.32,72.3,63.21
	L72.3,63.21L72.3,63.21z"/>
<rect x="68.61" y="64.81" class="st0" width="1.3" height="5.44"/>
<path class="st0" d="M93.33,59.16c0-0.1,0.02-0.2,0.03-0.29c-0.24-0.53-0.24-1.17-0.02-1.71c-0.04-0.15-0.07-0.31-0.07-0.47
	c-0.26-0.19-0.46-0.43-0.59-0.72c-0.33-0.17-0.58-0.44-0.74-0.76c-0.03-0.02-0.07-0.05-0.1-0.07c-0.09,0.01-0.18,0.02-0.28,0.02
	c-0.39,0-0.71-0.09-0.98-0.25c-0.27,0.13-0.56,0.21-0.85,0.21H89.7c-0.03,0-0.07-0.01-0.1-0.01c-0.27,0.22-0.61,0.36-1.04,0.38
	c-0.15,0.22-0.36,0.4-0.61,0.52c-0.12,0.37-0.34,0.69-0.67,0.92c0.02,0.29-0.02,0.58-0.12,0.84c-0.01,0.1-0.02,0.2-0.04,0.29
	c0.03,0.22,0.04,0.45,0.01,0.68c0.05,0.21,0.07,0.42,0.06,0.64c0.05,0.15,0.08,0.31,0.09,0.47c0.1,0.15,0.2,0.3,0.32,0.44
	c0.24,0.12,0.43,0.29,0.59,0.5c0.26,0.09,0.48,0.24,0.66,0.42c0.44,0.19,0.92,0.3,1.43,0.3c0.49,0,0.95-0.11,1.37-0.29
	c0.07-0.07,0.15-0.12,0.23-0.18c0.18-0.22,0.41-0.39,0.7-0.5c0,0,0,0,0,0c0.1-0.12,0.22-0.24,0.36-0.34c0.07-0.1,0.14-0.2,0.23-0.29
	c0.04-0.08,0.09-0.16,0.15-0.24c0.01-0.03,0.02-0.07,0.03-0.1c0-0.03,0.01-0.06,0.01-0.09C93.36,59.37,93.34,59.27,93.33,59.16
	L93.33,59.16L93.33,59.16z"/>
<rect x="89.64" y="60.76" class="st0" width="1.3" height="5.44"/>
<path class="st0" d="M76.53,42.6c0-0.1,0.02-0.2,0.03-0.29c-0.24-0.53-0.24-1.17-0.02-1.71c-0.04-0.15-0.07-0.31-0.07-0.47
	c-0.26-0.19-0.46-0.43-0.59-0.72c-0.33-0.17-0.58-0.44-0.74-0.76c-0.03-0.02-0.07-0.05-0.1-0.07c-0.09,0.01-0.18,0.02-0.28,0.02
	c-0.39,0-0.71-0.09-0.98-0.25c-0.27,0.13-0.56,0.21-0.85,0.21H72.9c-0.03,0-0.07-0.01-0.1-0.01c-0.27,0.22-0.61,0.36-1.04,0.38
	c-0.15,0.22-0.36,0.4-0.61,0.52c-0.12,0.37-0.34,0.69-0.67,0.92c0.02,0.29-0.02,0.58-0.12,0.84c-0.01,0.1-0.02,0.2-0.04,0.29
	c0.03,0.22,0.04,0.45,0.01,0.68c0.05,0.21,0.07,0.42,0.06,0.64c0.05,0.15,0.08,0.31,0.09,0.47c0.1,0.15,0.2,0.3,0.32,0.44
	c0.24,0.12,0.43,0.29,0.59,0.5c0.26,0.09,0.48,0.24,0.66,0.42c0.44,0.19,0.92,0.3,1.43,0.3c0.49,0,0.95-0.11,1.37-0.29
	c0.07-0.07,0.15-0.12,0.23-0.18c0.18-0.22,0.41-0.39,0.7-0.5c0,0,0,0,0,0c0.1-0.12,0.22-0.24,0.36-0.34c0.07-0.1,0.14-0.2,0.23-0.29
	c0.04-0.08,0.09-0.16,0.15-0.24c0.01-0.03,0.02-0.07,0.03-0.1c0-0.03,0.01-0.06,0.01-0.09C76.56,42.81,76.54,42.71,76.53,42.6
	L76.53,42.6L76.53,42.6z"/>
<rect x="72.84" y="44.2" class="st0" width="1.3" height="5.44"/>
<path class="st0" d="M109.51,77.43c0-0.1,0.02-0.2,0.03-0.29c-0.24-0.53-0.24-1.17-0.02-1.71c-0.04-0.15-0.07-0.31-0.07-0.47
	c-0.26-0.19-0.46-0.43-0.59-0.72c-0.33-0.17-0.58-0.44-0.74-0.76c-0.03-0.02-0.07-0.05-0.1-0.07c-0.09,0.01-0.18,0.02-0.28,0.02
	c-0.39,0-0.71-0.09-0.98-0.25c-0.27,0.13-0.56,0.21-0.85,0.21h-0.04c-0.03,0-0.07-0.01-0.1-0.01c-0.27,0.22-0.61,0.36-1.04,0.38
	c-0.15,0.22-0.36,0.4-0.61,0.52c-0.12,0.37-0.34,0.69-0.67,0.92c0.02,0.29-0.02,0.57-0.12,0.84c-0.01,0.1-0.02,0.2-0.04,0.29
	c0.03,0.22,0.04,0.45,0.01,0.68c0.05,0.21,0.07,0.42,0.06,0.64c0.05,0.15,0.08,0.31,0.09,0.47c0.1,0.15,0.2,0.3,0.32,0.44
	c0.24,0.12,0.43,0.29,0.59,0.5c0.26,0.09,0.48,0.24,0.66,0.42c0.44,0.19,0.92,0.3,1.43,0.3c0.49,0,0.95-0.11,1.37-0.29
	c0.07-0.07,0.15-0.12,0.23-0.18c0.18-0.22,0.41-0.39,0.7-0.5c0,0,0,0,0,0c0.1-0.12,0.22-0.24,0.36-0.34c0.07-0.1,0.14-0.2,0.23-0.29
	c0.04-0.08,0.09-0.16,0.15-0.24c0.01-0.03,0.02-0.07,0.03-0.1c0-0.03,0.01-0.06,0.01-0.09C109.53,77.64,109.52,77.54,109.51,77.43
	L109.51,77.43L109.51,77.43z"/>
<rect x="105.82" y="79.03" class="st0" width="1.3" height="5.44"/>
<path class="st0" d="M112.63,52.51c0-0.1,0.02-0.2,0.03-0.29c-0.24-0.53-0.24-1.17-0.02-1.71c-0.04-0.15-0.07-0.31-0.07-0.47
	c-0.26-0.19-0.46-0.43-0.59-0.72c-0.33-0.17-0.58-0.44-0.74-0.76c-0.03-0.02-0.07-0.05-0.1-0.07c-0.09,0.01-0.18,0.02-0.28,0.02
	c-0.39,0-0.71-0.09-0.98-0.25c-0.27,0.13-0.56,0.21-0.85,0.21H109c-0.03,0-0.07-0.01-0.1-0.01c-0.27,0.22-0.61,0.36-1.04,0.38
	c-0.15,0.22-0.36,0.4-0.61,0.52c-0.12,0.37-0.34,0.69-0.67,0.92c0.02,0.29-0.02,0.58-0.12,0.84c-0.01,0.1-0.02,0.2-0.04,0.29
	c0.03,0.22,0.04,0.45,0.01,0.68c0.05,0.21,0.07,0.42,0.06,0.64c0.05,0.15,0.08,0.31,0.09,0.47c0.1,0.15,0.2,0.3,0.32,0.44
	c0.24,0.12,0.43,0.29,0.59,0.5c0.26,0.09,0.48,0.24,0.66,0.42c0.44,0.19,0.92,0.3,1.43,0.3c0.49,0,0.95-0.11,1.37-0.29
	c0.07-0.07,0.15-0.12,0.23-0.18c0.18-0.22,0.41-0.39,0.7-0.5c0,0,0,0,0,0c0.1-0.12,0.22-0.24,0.36-0.34c0.07-0.1,0.14-0.2,0.23-0.29
	c0.04-0.08,0.09-0.16,0.15-0.24c0.01-0.03,0.02-0.07,0.03-0.1c0-0.03,0.01-0.06,0.01-0.09C112.66,52.73,112.64,52.62,112.63,52.51
	L112.63,52.51L112.63,52.51z"/>
<rect x="108.94" y="54.12" class="st0" width="1.3" height="5.44"/>
<path class="st0" d="M97.14,37.78c0-0.1,0.02-0.2,0.03-0.29c-0.24-0.53-0.24-1.17-0.02-1.71c-0.04-0.15-0.07-0.31-0.07-0.47
	c-0.26-0.19-0.46-0.43-0.59-0.72c-0.33-0.17-0.58-0.44-0.74-0.76c-0.03-0.02-0.07-0.05-0.1-0.07c-0.09,0.01-0.18,0.02-0.28,0.02
	c-0.39,0-0.71-0.09-0.98-0.25c-0.27,0.13-0.56,0.21-0.85,0.21h-0.04c-0.03,0-0.07-0.01-0.1-0.01c-0.27,0.22-0.61,0.36-1.04,0.38
	c-0.15,0.22-0.36,0.4-0.61,0.52c-0.12,0.37-0.34,0.69-0.67,0.92c0.02,0.29-0.02,0.58-0.12,0.84c-0.01,0.1-0.02,0.2-0.04,0.29
	c0.03,0.22,0.04,0.45,0.01,0.68c0.05,0.21,0.07,0.42,0.06,0.64c0.05,0.15,0.08,0.31,0.09,0.47c0.1,0.15,0.2,0.3,0.32,0.44
	c0.24,0.12,0.43,0.29,0.59,0.5c0.26,0.09,0.48,0.24,0.66,0.42c0.44,0.19,0.92,0.3,1.43,0.3c0.49,0,0.95-0.11,1.37-0.29
	c0.07-0.07,0.15-0.12,0.23-0.18c0.18-0.22,0.41-0.39,0.7-0.5c0,0,0,0,0,0c0.1-0.12,0.22-0.24,0.36-0.34c0.07-0.1,0.14-0.2,0.23-0.29
	c0.04-0.08,0.09-0.16,0.15-0.24c0.01-0.03,0.02-0.07,0.03-0.1c0-0.03,0.01-0.06,0.01-0.09C97.17,37.99,97.15,37.89,97.14,37.78
	L97.14,37.78L97.14,37.78z"/>
<rect x="93.45" y="39.38" class="st0" width="1.3" height="5.44"/>
<path class="st0" d="M103.39,106.81c0-0.1,0.02-0.2,0.03-0.29c-0.24-0.53-0.24-1.17-0.02-1.71c-0.04-0.15-0.07-0.31-0.07-0.47
	c-0.26-0.19-0.46-0.43-0.59-0.72c-0.33-0.17-0.58-0.44-0.74-0.76c-0.03-0.02-0.07-0.05-0.1-0.07c-0.09,0.01-0.18,0.02-0.28,0.02
	c-0.39,0-0.71-0.09-0.98-0.25c-0.27,0.13-0.56,0.21-0.85,0.21h-0.04c-0.03,0-0.07-0.01-0.1-0.01c-0.27,0.22-0.61,0.36-1.04,0.38
	c-0.15,0.22-0.36,0.4-0.61,0.52c-0.12,0.37-0.34,0.69-0.67,0.92c0.02,0.29-0.02,0.58-0.12,0.84c-0.01,0.1-0.02,0.2-0.04,0.29
	c0.03,0.22,0.04,0.45,0.01,0.68c0.05,0.21,0.07,0.42,0.06,0.64c0.05,0.15,0.08,0.31,0.09,0.47c0.1,0.15,0.2,0.3,0.32,0.44
	c0.24,0.12,0.43,0.29,0.59,0.5c0.26,0.09,0.48,0.24,0.66,0.42c0.44,0.19,0.92,0.3,1.43,0.3c0.49,0,0.95-0.11,1.37-0.29
	c0.07-0.07,0.15-0.12,0.23-0.18c0.18-0.22,0.41-0.39,0.7-0.5c0,0,0,0,0,0c0.1-0.12,0.22-0.24,0.36-0.34c0.07-0.1,0.14-0.2,0.23-0.29
	c0.04-0.08,0.09-0.16,0.15-0.24c0.01-0.03,0.02-0.07,0.03-0.1c0-0.03,0.01-0.06,0.01-0.09C103.41,107.03,103.4,106.93,103.39,106.81
	L103.39,106.81L103.39,106.81z"/>
<rect x="99.7" y="108.42" class="st0" width="1.3" height="5.44"/>
<path class="st0" d="M81.81,107.77c0-0.1,0.02-0.2,0.03-0.29c-0.24-0.53-0.24-1.17-0.02-1.71c-0.04-0.15-0.07-0.31-0.07-0.47
	c-0.26-0.19-0.46-0.43-0.59-0.72c-0.33-0.17-0.58-0.44-0.74-0.76c-0.03-0.02-0.07-0.05-0.1-0.07c-0.09,0.01-0.18,0.02-0.28,0.02
	c-0.39,0-0.71-0.09-0.98-0.25c-0.27,0.13-0.56,0.21-0.85,0.21h-0.04c-0.03,0-0.07-0.01-0.1-0.01c-0.27,0.22-0.61,0.36-1.04,0.38
	c-0.15,0.22-0.36,0.4-0.61,0.52c-0.12,0.37-0.34,0.69-0.67,0.92c0.02,0.29-0.02,0.57-0.12,0.84c-0.01,0.1-0.02,0.2-0.04,0.29
	c0.03,0.22,0.04,0.45,0.01,0.68c0.05,0.21,0.07,0.42,0.06,0.64c0.05,0.15,0.08,0.31,0.09,0.47c0.1,0.15,0.2,0.3,0.32,0.44
	c0.24,0.12,0.43,0.29,0.59,0.5c0.26,0.09,0.48,0.24,0.66,0.42c0.44,0.19,0.92,0.3,1.43,0.3c0.49,0,0.95-0.11,1.37-0.29
	c0.07-0.07,0.15-0.12,0.23-0.18c0.18-0.22,0.41-0.39,0.7-0.5c0,0,0,0,0,0c0.1-0.12,0.22-0.24,0.36-0.34c0.07-0.1,0.14-0.2,0.23-0.29
	c0.04-0.08,0.09-0.16,0.15-0.24c0.01-0.03,0.02-0.07,0.03-0.1c0-0.03,0.01-0.06,0.01-0.09C81.83,107.99,81.81,107.88,81.81,107.77
	L81.81,107.77L81.81,107.77z"/>
<rect x="78.11" y="109.38" class="st0" width="1.3" height="5.44"/>
<path class="st0" d="M53.91,118.74c0-0.1,0.02-0.2,0.03-0.29c-0.24-0.53-0.24-1.17-0.02-1.71c-0.04-0.15-0.07-0.31-0.07-0.47
	c-0.26-0.19-0.46-0.43-0.59-0.72c-0.33-0.17-0.58-0.44-0.74-0.76c-0.03-0.02-0.07-0.05-0.1-0.07c-0.09,0.01-0.18,0.02-0.28,0.02
	c-0.39,0-0.71-0.09-0.98-0.25c-0.27,0.13-0.56,0.21-0.85,0.21h-0.04c-0.03,0-0.07-0.01-0.1-0.01c-0.27,0.22-0.61,0.36-1.04,0.38
	c-0.15,0.22-0.36,0.4-0.61,0.52c-0.12,0.37-0.34,0.69-0.67,0.92c0.02,0.29-0.02,0.57-0.12,0.84c-0.01,0.1-0.02,0.2-0.04,0.29
	c0.03,0.22,0.04,0.45,0.01,0.68c0.05,0.21,0.07,0.42,0.06,0.64c0.05,0.15,0.08,0.31,0.09,0.47c0.1,0.15,0.2,0.3,0.32,0.44
	c0.24,0.12,0.43,0.29,0.59,0.5c0.26,0.09,0.48,0.24,0.66,0.42c0.44,0.19,0.92,0.3,1.43,0.3c0.49,0,0.95-0.11,1.37-0.29
	c0.07-0.07,0.15-0.12,0.23-0.18c0.18-0.22,0.41-0.39,0.7-0.5c0,0,0,0,0,0c0.1-0.12,0.22-0.24,0.36-0.34c0.07-0.1,0.14-0.2,0.23-0.29
	c0.04-0.08,0.09-0.16,0.15-0.24c0.01-0.03,0.02-0.07,0.03-0.1c0-0.03,0.01-0.06,0.01-0.09C53.94,118.96,53.92,118.85,53.91,118.74
	L53.91,118.74L53.91,118.74z"/>
<rect x="50.22" y="120.35" class="st0" width="1.3" height="5.44"/>
<path class="st0" d="M72.3,124.39c0-0.1,0.02-0.2,0.03-0.29c-0.24-0.53-0.24-1.17-0.02-1.71c-0.04-0.15-0.07-0.31-0.07-0.47
	c-0.26-0.19-0.46-0.43-0.59-0.72c-0.33-0.17-0.58-0.44-0.74-0.76c-0.03-0.02-0.07-0.05-0.1-0.07c-0.09,0.01-0.18,0.02-0.28,0.02
	c-0.39,0-0.71-0.09-0.98-0.25c-0.27,0.13-0.56,0.21-0.85,0.21h-0.04c-0.03,0-0.07-0.01-0.1-0.01c-0.27,0.22-0.61,0.36-1.04,0.38
	c-0.15,0.22-0.36,0.4-0.61,0.52c-0.12,0.37-0.34,0.69-0.67,0.92c0.02,0.29-0.02,0.58-0.12,0.84c-0.01,0.1-0.02,0.2-0.04,0.29
	c0.03,0.22,0.04,0.45,0.01,0.68c0.05,0.21,0.07,0.42,0.06,0.64c0.05,0.15,0.08,0.31,0.09,0.47c0.1,0.15,0.2,0.3,0.32,0.44
	c0.24,0.12,0.43,0.29,0.59,0.5c0.26,0.09,0.48,0.24,0.66,0.42c0.44,0.19,0.92,0.3,1.43,0.3c0.49,0,0.95-0.11,1.37-0.29
	c0.07-0.07,0.15-0.12,0.23-0.18c0.18-0.22,0.41-0.39,0.7-0.5c0,0,0,0,0,0c0.1-0.12,0.22-0.24,0.36-0.34c0.07-0.1,0.14-0.2,0.23-0.29
	c0.04-0.08,0.09-0.16,0.15-0.24c0.01-0.03,0.02-0.07,0.03-0.1c0-0.03,0.01-0.06,0.01-0.09C72.32,124.6,72.31,124.5,72.3,124.39
	L72.3,124.39L72.3,124.39z"/>
<rect x="68.61" y="125.99" class="st0" width="1.3" height="5.44"/>
<path class="st0" d="M22.33,87.11c0-0.1,0.02-0.2,0.03-0.29c-0.24-0.53-0.24-1.17-0.02-1.71c-0.04-0.15-0.07-0.31-0.07-0.47
	c-0.26-0.19-0.46-0.43-0.59-0.72c-0.33-0.17-0.58-0.44-0.74-0.76c-0.03-0.02-0.07-0.05-0.1-0.07c-0.09,0.01-0.18,0.02-0.28,0.02
	c-0.39,0-0.71-0.09-0.98-0.25c-0.27,0.13-0.56,0.21-0.85,0.21h-0.04c-0.03,0-0.07-0.01-0.1-0.01c-0.27,0.22-0.61,0.36-1.04,0.38
	c-0.15,0.22-0.36,0.4-0.61,0.52c-0.12,0.37-0.34,0.69-0.67,0.92c0.02,0.29-0.02,0.58-0.12,0.84c-0.01,0.1-0.02,0.2-0.04,0.29
	c0.03,0.22,0.04,0.45,0.01,0.68c0.05,0.21,0.07,0.42,0.06,0.64c0.05,0.15,0.08,0.31,0.09,0.47c0.1,0.15,0.2,0.3,0.32,0.44
	c0.24,0.12,0.43,0.29,0.59,0.5c0.26,0.09,0.48,0.24,0.66,0.42c0.44,0.19,0.92,0.3,1.43,0.3c0.49,0,0.95-0.11,1.37-0.29
	c0.07-0.07,0.15-0.12,0.23-0.18c0.18-0.22,0.41-0.39,0.7-0.5c0,0,0,0,0,0c0.1-0.12,0.22-0.24,0.36-0.34c0.07-0.1,0.14-0.2,0.23-0.29
	c0.04-0.08,0.09-0.16,0.15-0.24c0.01-0.03,0.02-0.07,0.03-0.1c0-0.03,0.01-0.06,0.01-0.09C22.35,87.32,22.34,87.22,22.33,87.11
	L22.33,87.11L22.33,87.11z"/>
<rect x="18.63" y="88.71" class="st0" width="1.3" height="5.44"/>
<path class="st0" d="M19.2,43.55c0-0.1,0.02-0.2,0.03-0.29c-0.24-0.53-0.24-1.17-0.02-1.71c-0.04-0.15-0.07-0.31-0.07-0.47
	c-0.26-0.19-0.46-0.43-0.59-0.72c-0.33-0.17-0.58-0.44-0.74-0.76c-0.03-0.02-0.07-0.05-0.1-0.07c-0.09,0.01-0.18,0.02-0.28,0.02
	c-0.39,0-0.71-0.09-0.98-0.25c-0.27,0.13-0.56,0.21-0.85,0.21h-0.04c-0.03,0-0.07-0.01-0.1-0.01c-0.27,0.22-0.61,0.36-1.04,0.38
	c-0.15,0.22-0.36,0.4-0.61,0.52c-0.12,0.37-0.34,0.69-0.67,0.92c0.02,0.29-0.02,0.58-0.12,0.84c-0.01,0.1-0.02,0.2-0.04,0.29
	c0.03,0.22,0.04,0.45,0.01,0.68c0.05,0.21,0.07,0.42,0.06,0.64c0.05,0.15,0.08,0.31,0.09,0.47c0.1,0.15,0.2,0.3,0.32,0.44
	c0.24,0.12,0.43,0.29,0.59,0.5c0.26,0.09,0.48,0.24,0.66,0.42c0.44,0.19,0.92,0.3,1.43,0.3c0.49,0,0.95-0.11,1.37-0.29
	c0.07-0.07,0.15-0.12,0.23-0.18c0.18-0.22,0.41-0.39,0.7-0.5c0,0,0,0,0,0c0.1-0.12,0.22-0.24,0.36-0.34c0.07-0.1,0.14-0.2,0.23-0.29
	c0.04-0.08,0.09-0.16,0.15-0.24c0.01-0.03,0.02-0.07,0.03-0.1c0-0.03,0.01-0.06,0.01-0.09C19.23,43.77,19.21,43.66,19.2,43.55
	L19.2,43.55L19.2,43.55z"/>
<rect x="15.51" y="45.16" class="st0" width="1.3" height="5.44"/>
<path class="st0" d="M115.76,98.96c0-0.1,0.02-0.2,0.03-0.29c-0.24-0.53-0.24-1.17-0.02-1.71c-0.04-0.15-0.07-0.31-0.07-0.47
	c-0.26-0.19-0.46-0.43-0.59-0.72c-0.33-0.17-0.58-0.44-0.74-0.76c-0.03-0.02-0.07-0.05-0.1-0.07c-0.09,0.01-0.18,0.02-0.28,0.02
	c-0.39,0-0.71-0.09-0.98-0.25c-0.27,0.13-0.56,0.21-0.85,0.21h-0.04c-0.03,0-0.07-0.01-0.1-0.01c-0.27,0.22-0.61,0.36-1.04,0.38
	c-0.15,0.22-0.36,0.4-0.61,0.52c-0.12,0.37-0.34,0.69-0.67,0.92c0.02,0.29-0.02,0.58-0.12,0.84c-0.01,0.1-0.02,0.2-0.04,0.29
	c0.03,0.22,0.04,0.45,0.01,0.68c0.05,0.21,0.07,0.42,0.06,0.64c0.05,0.15,0.08,0.31,0.09,0.47c0.1,0.15,0.2,0.3,0.32,0.44
	c0.24,0.12,0.43,0.29,0.59,0.5c0.26,0.09,0.48,0.24,0.66,0.42c0.44,0.19,0.92,0.3,1.43,0.3c0.49,0,0.95-0.11,1.37-0.29
	c0.07-0.07,0.15-0.12,0.23-0.18c0.18-0.22,0.41-0.39,0.7-0.5c0,0,0,0,0,0c0.1-0.12,0.22-0.24,0.36-0.34c0.07-0.1,0.14-0.2,0.23-0.29
	c0.04-0.08,0.09-0.16,0.15-0.24c0.01-0.03,0.02-0.07,0.03-0.1c0-0.03,0.01-0.06,0.01-0.09C115.78,99.18,115.77,99.08,115.76,98.96
	L115.76,98.96L115.76,98.96z"/>
<rect x="112.06" y="100.57" class="st0" width="1.3" height="5.44"/>
<path class="st0" d="M123.58,83.07c0-0.1,0.02-0.2,0.03-0.29c-0.24-0.53-0.24-1.17-0.02-1.71c-0.04-0.15-0.07-0.31-0.07-0.47
	c-0.26-0.19-0.46-0.43-0.59-0.72c-0.33-0.17-0.58-0.44-0.74-0.76c-0.03-0.02-0.07-0.05-0.1-0.07c-0.09,0.01-0.18,0.02-0.28,0.02
	c-0.39,0-0.71-0.09-0.98-0.25c-0.27,0.13-0.56,0.21-0.85,0.21h-0.04c-0.03,0-0.07-0.01-0.1-0.01c-0.27,0.22-0.61,0.36-1.04,0.38
	c-0.15,0.22-0.36,0.4-0.61,0.52c-0.12,0.37-0.34,0.69-0.67,0.92c0.02,0.29-0.02,0.58-0.12,0.84c-0.01,0.1-0.02,0.2-0.04,0.29
	c0.03,0.22,0.04,0.45,0.01,0.68c0.05,0.21,0.07,0.42,0.06,0.64c0.05,0.15,0.08,0.31,0.09,0.47c0.1,0.15,0.2,0.3,0.32,0.44
	c0.24,0.12,0.43,0.29,0.59,0.5c0.26,0.09,0.48,0.24,0.66,0.42c0.44,0.19,0.92,0.3,1.43,0.3c0.49,0,0.95-0.11,1.37-0.29
	c0.07-0.07,0.15-0.12,0.23-0.18c0.18-0.22,0.41-0.39,0.7-0.5c0,0,0,0,0,0c0.1-0.12,0.22-0.24,0.36-0.34c0.07-0.1,0.14-0.2,0.23-0.29
	c0.04-0.08,0.09-0.16,0.15-0.24c0.01-0.03,0.02-0.07,0.03-0.1c0-0.03,0.01-0.06,0.01-0.09C123.61,83.29,123.59,83.18,123.58,83.07
	L123.58,83.07L123.58,83.07z"/>
<rect x="119.89" y="84.68" class="st0" width="1.3" height="5.44"/>
<path class="st0" d="M122.97,68.85c0-0.1,0.02-0.2,0.03-0.29c-0.24-0.53-0.24-1.17-0.02-1.71c-0.04-0.15-0.07-0.31-0.07-0.47
	c-0.26-0.19-0.46-0.43-0.59-0.72c-0.33-0.17-0.58-0.44-0.74-0.76c-0.03-0.02-0.07-0.05-0.1-0.07c-0.09,0.01-0.18,0.02-0.28,0.02
	c-0.39,0-0.71-0.09-0.98-0.25c-0.27,0.13-0.56,0.21-0.85,0.21h-0.04c-0.03,0-0.07-0.01-0.1-0.01c-0.27,0.22-0.61,0.36-1.04,0.38
	c-0.15,0.22-0.36,0.4-0.61,0.52c-0.12,0.37-0.34,0.69-0.67,0.92c0.02,0.29-0.02,0.57-0.12,0.84c-0.01,0.1-0.02,0.2-0.04,0.29
	c0.03,0.22,0.04,0.45,0.01,0.68c0.05,0.21,0.07,0.42,0.06,0.64c0.05,0.15,0.08,0.31,0.09,0.47c0.1,0.15,0.2,0.3,0.32,0.44
	c0.24,0.12,0.43,0.29,0.59,0.5c0.26,0.09,0.48,0.24,0.66,0.42c0.44,0.19,0.92,0.3,1.43,0.3c0.49,0,0.95-0.11,1.37-0.29
	c0.07-0.07,0.15-0.12,0.23-0.18c0.18-0.22,0.41-0.39,0.7-0.5c0,0,0,0,0,0c0.1-0.12,0.22-0.24,0.36-0.34c0.07-0.1,0.14-0.2,0.23-0.29
	c0.04-0.08,0.09-0.16,0.15-0.24c0.01-0.03,0.02-0.07,0.03-0.1c0-0.03,0.01-0.06,0.01-0.09C122.99,69.07,122.98,68.97,122.97,68.85
	L122.97,68.85L122.97,68.85z"/>
<rect x="119.28" y="70.46" class="st0" width="1.3" height="5.44"/>
<path class="st0" d="M94.7,76.19c0-0.1,0.02-0.2,0.03-0.29c-0.24-0.53-0.24-1.17-0.02-1.71c-0.04-0.15-0.07-0.31-0.07-0.47
	c-0.26-0.19-0.46-0.43-0.59-0.72c-0.33-0.17-0.58-0.44-0.74-0.76c-0.03-0.02-0.07-0.05-0.1-0.07c-0.09,0.01-0.18,0.02-0.28,0.02
	c-0.39,0-0.71-0.09-0.98-0.25c-0.27,0.13-0.56,0.21-0.85,0.21h-0.04c-0.03,0-0.07-0.01-0.1-0.01c-0.27,0.22-0.61,0.36-1.04,0.38
	c-0.15,0.22-0.36,0.4-0.61,0.52c-0.12,0.37-0.34,0.69-0.67,0.92c0.02,0.29-0.02,0.57-0.12,0.84c-0.01,0.1-0.02,0.2-0.04,0.29
	c0.03,0.22,0.04,0.45,0.01,0.68c0.05,0.21,0.07,0.42,0.06,0.64c0.05,0.15,0.08,0.31,0.09,0.47c0.1,0.15,0.2,0.3,0.32,0.44
	c0.24,0.12,0.43,0.29,0.59,0.5c0.26,0.09,0.48,0.24,0.66,0.42c0.44,0.19,0.92,0.3,1.43,0.3c0.49,0,0.95-0.11,1.37-0.29
	c0.07-0.07,0.15-0.12,0.23-0.18c0.18-0.22,0.41-0.39,0.7-0.5c0,0,0,0,0,0c0.1-0.12,0.22-0.24,0.36-0.34c0.07-0.1,0.14-0.2,0.23-0.29
	c0.04-0.08,0.09-0.16,0.15-0.24c0.01-0.03,0.02-0.07,0.03-0.1c0-0.03,0.01-0.06,0.01-0.09C94.73,76.41,94.71,76.3,94.7,76.19
	L94.7,76.19L94.7,76.19z"/>
<rect x="91.01" y="77.8" class="st0" width="1.3" height="5.44"/>
<path class="st0" d="M131.15,101.17c0-0.1,0.02-0.2,0.03-0.29c-0.24-0.53-0.24-1.17-0.02-1.71c-0.04-0.15-0.07-0.31-0.07-0.47
	c-0.26-0.19-0.46-0.43-0.59-0.72c-0.33-0.17-0.58-0.44-0.74-0.76c-0.03-0.02-0.07-0.05-0.1-0.07c-0.09,0.01-0.18,0.02-0.28,0.02
	c-0.39,0-0.71-0.09-0.98-0.25c-0.27,0.13-0.56,0.21-0.85,0.21h-0.04c-0.03,0-0.07-0.01-0.1-0.01c-0.27,0.22-0.61,0.36-1.04,0.38
	c-0.15,0.22-0.36,0.4-0.61,0.52c-0.12,0.37-0.34,0.69-0.67,0.92c0.02,0.29-0.02,0.58-0.12,0.84c-0.01,0.1-0.02,0.2-0.04,0.29
	c0.03,0.22,0.04,0.45,0.01,0.68c0.05,0.21,0.07,0.42,0.06,0.64c0.05,0.15,0.08,0.31,0.09,0.47c0.1,0.15,0.2,0.3,0.32,0.44
	c0.24,0.12,0.43,0.29,0.59,0.5c0.26,0.09,0.48,0.24,0.66,0.42c0.44,0.19,0.92,0.3,1.43,0.3c0.49,0,0.95-0.11,1.37-0.29
	c0.07-0.07,0.15-0.12,0.23-0.18c0.18-0.22,0.41-0.39,0.7-0.5c0,0,0,0,0,0c0.1-0.12,0.22-0.24,0.36-0.34c0.07-0.1,0.14-0.2,0.23-0.29
	c0.04-0.08,0.09-0.16,0.15-0.24c0.01-0.03,0.02-0.07,0.03-0.1c0-0.03,0.01-0.06,0.01-0.09
	C131.17,101.38,131.16,101.28,131.15,101.17L131.15,101.17L131.15,101.17z"/>
<rect x="127.45" y="102.77" class="st0" width="1.3" height="5.44"/>
<path class="st0" d="M90.21,127.31c0-0.1,0.02-0.2,0.03-0.29c-0.24-0.53-0.24-1.17-0.02-1.71c-0.04-0.15-0.07-0.31-0.07-0.47
	c-0.26-0.19-0.46-0.43-0.59-0.72c-0.33-0.17-0.58-0.44-0.74-0.76c-0.03-0.02-0.07-0.05-0.1-0.07c-0.09,0.01-0.18,0.02-0.28,0.02
	c-0.39,0-0.71-0.09-0.98-0.25c-0.27,0.13-0.56,0.21-0.85,0.21h-0.04c-0.03,0-0.07-0.01-0.1-0.01c-0.27,0.22-0.61,0.36-1.04,0.38
	c-0.15,0.22-0.36,0.4-0.61,0.52c-0.12,0.37-0.34,0.69-0.67,0.92c0.02,0.29-0.02,0.57-0.12,0.84c-0.01,0.1-0.02,0.2-0.04,0.29
	c0.03,0.22,0.04,0.45,0.01,0.68c0.05,0.21,0.07,0.42,0.06,0.64c0.05,0.15,0.08,0.31,0.09,0.47c0.1,0.15,0.2,0.3,0.32,0.44
	c0.24,0.12,0.43,0.29,0.59,0.5c0.26,0.09,0.48,0.24,0.66,0.42c0.44,0.19,0.92,0.3,1.43,0.3c0.49,0,0.95-0.11,1.37-0.29
	c0.07-0.07,0.15-0.12,0.23-0.18c0.18-0.22,0.41-0.39,0.7-0.5c0,0,0,0,0,0c0.1-0.12,0.22-0.24,0.36-0.34c0.07-0.1,0.14-0.2,0.23-0.29
	c0.04-0.08,0.09-0.16,0.15-0.24c0.01-0.03,0.02-0.07,0.03-0.1c0-0.03,0.01-0.06,0.01-0.09C90.23,127.53,90.22,127.43,90.21,127.31
	L90.21,127.31L90.21,127.31z"/>
<rect x="86.52" y="128.92" class="st0" width="1.3" height="5.44"/>
<path class="st0" d="M103.39,124.39c0-0.1,0.02-0.2,0.03-0.29c-0.24-0.53-0.24-1.17-0.02-1.71c-0.04-0.15-0.07-0.31-0.07-0.47
	c-0.26-0.19-0.46-0.43-0.59-0.72c-0.33-0.17-0.58-0.44-0.74-0.76c-0.03-0.02-0.07-0.05-0.1-0.07c-0.09,0.01-0.18,0.02-0.28,0.02
	c-0.39,0-0.71-0.09-0.98-0.25c-0.27,0.13-0.56,0.21-0.85,0.21h-0.04c-0.03,0-0.07-0.01-0.1-0.01c-0.27,0.22-0.61,0.36-1.04,0.38
	c-0.15,0.22-0.36,0.4-0.61,0.52c-0.12,0.37-0.34,0.69-0.67,0.92c0.02,0.29-0.02,0.58-0.12,0.84c-0.01,0.1-0.02,0.2-0.04,0.29
	c0.03,0.22,0.04,0.45,0.01,0.68c0.05,0.21,0.07,0.42,0.06,0.64c0.05,0.15,0.08,0.31,0.09,0.47c0.1,0.15,0.2,0.3,0.32,0.44
	c0.24,0.12,0.43,0.29,0.59,0.5c0.26,0.09,0.48,0.24,0.66,0.42c0.44,0.19,0.92,0.3,1.43,0.3c0.49,0,0.95-0.11,1.37-0.29
	c0.07-0.07,0.15-0.12,0.23-0.18c0.18-0.22,0.41-0.39,0.7-0.5c0,0,0,0,0,0c0.1-0.12,0.22-0.24,0.36-0.34c0.07-0.1,0.14-0.2,0.23-0.29
	c0.04-0.08,0.09-0.16,0.15-0.24c0.01-0.03,0.02-0.07,0.03-0.1c0-0.03,0.01-0.06,0.01-0.09C103.41,124.6,103.4,124.5,103.39,124.39
	L103.39,124.39L103.39,124.39z"/>
<rect x="99.7" y="125.99" class="st0" width="1.3" height="5.44"/>
<path class="st0" d="M122.79,129.74c0-0.1,0.02-0.2,0.03-0.29c-0.24-0.53-0.24-1.17-0.02-1.71c-0.04-0.15-0.07-0.31-0.07-0.47
	c-0.26-0.19-0.46-0.43-0.59-0.72c-0.33-0.17-0.58-0.44-0.74-0.76c-0.03-0.02-0.07-0.05-0.1-0.07c-0.09,0.01-0.18,0.02-0.28,0.02
	c-0.39,0-0.71-0.09-0.98-0.25c-0.27,0.13-0.56,0.21-0.85,0.21h-0.04c-0.03,0-0.07-0.01-0.1-0.01c-0.27,0.22-0.61,0.36-1.04,0.38
	c-0.15,0.22-0.36,0.4-0.61,0.52c-0.12,0.37-0.34,0.69-0.67,0.92c0.02,0.29-0.02,0.58-0.12,0.84c-0.01,0.1-0.02,0.2-0.04,0.29
	c0.03,0.22,0.04,0.45,0.01,0.68c0.05,0.21,0.07,0.42,0.06,0.64c0.05,0.15,0.08,0.31,0.09,0.47c0.1,0.15,0.2,0.3,0.32,0.44
	c0.24,0.12,0.43,0.29,0.59,0.5c0.26,0.09,0.48,0.24,0.66,0.42c0.44,0.19,0.92,0.3,1.43,0.3c0.49,0,0.95-0.11,1.37-0.29
	c0.07-0.07,0.15-0.12,0.23-0.18c0.18-0.22,0.41-0.39,0.7-0.5c0,0,0,0,0,0c0.1-0.12,0.22-0.24,0.36-0.34c0.07-0.1,0.14-0.2,0.23-0.29
	c0.04-0.08,0.09-0.16,0.15-0.24c0.01-0.03,0.02-0.07,0.03-0.1c0-0.03,0.01-0.06,0.01-0.09C122.82,129.96,122.8,129.85,122.79,129.74
	L122.79,129.74L122.79,129.74z"/>
<rect x="119.1" y="131.35" class="st0" width="1.3" height="5.44"/>
<path class="st0" d="M139.36,87.32c0-0.1,0.02-0.2,0.03-0.29c-0.24-0.53-0.24-1.17-0.02-1.71c-0.04-0.15-0.07-0.31-0.07-0.47
	c-0.26-0.19-0.46-0.43-0.59-0.72c-0.33-0.17-0.58-0.44-0.74-0.76c-0.03-0.02-0.07-0.05-0.1-0.07c-0.09,0.01-0.18,0.02-0.28,0.02
	c-0.39,0-0.71-0.09-0.98-0.25c-0.27,0.13-0.56,0.21-0.85,0.21h-0.04c-0.03,0-0.07-0.01-0.1-0.01c-0.27,0.22-0.61,0.36-1.04,0.38
	c-0.15,0.22-0.36,0.4-0.61,0.52c-0.12,0.37-0.34,0.69-0.67,0.92c0.02,0.29-0.02,0.58-0.12,0.84c-0.01,0.1-0.02,0.2-0.04,0.29
	c0.03,0.22,0.04,0.45,0.01,0.68c0.05,0.21,0.07,0.42,0.06,0.64c0.05,0.15,0.08,0.31,0.09,0.47c0.1,0.15,0.2,0.3,0.32,0.44
	c0.24,0.12,0.43,0.29,0.59,0.5c0.26,0.09,0.48,0.24,0.66,0.42c0.44,0.19,0.92,0.3,1.43,0.3c0.49,0,0.95-0.11,1.37-0.29
	c0.07-0.07,0.15-0.12,0.23-0.18c0.18-0.22,0.41-0.39,0.7-0.5c0,0,0,0,0,0c0.1-0.12,0.22-0.24,0.36-0.34c0.07-0.1,0.14-0.2,0.23-0.29
	c0.04-0.08,0.09-0.16,0.15-0.24c0.01-0.03,0.02-0.07,0.03-0.1c0-0.03,0.01-0.06,0.01-0.09C139.38,87.53,139.36,87.43,139.36,87.32
	L139.36,87.32L139.36,87.32z"/>
<rect x="135.66" y="88.92" class="st0" width="1.3" height="5.44"/>
<path class="st0" d="M140.04,68.2c0-0.1,0.02-0.2,0.03-0.29c-0.24-0.53-0.24-1.17-0.02-1.71c-0.04-0.15-0.07-0.31-0.07-0.47
	c-0.26-0.19-0.46-0.43-0.59-0.72c-0.33-0.17-0.58-0.44-0.74-0.76c-0.03-0.02-0.07-0.05-0.1-0.07c-0.09,0.01-0.18,0.02-0.28,0.02
	c-0.39,0-0.71-0.09-0.98-0.25c-0.27,0.13-0.56,0.21-0.85,0.21h-0.04c-0.03,0-0.07-0.01-0.1-0.01c-0.27,0.22-0.61,0.36-1.04,0.38
	c-0.15,0.22-0.36,0.4-0.61,0.52c-0.12,0.37-0.34,0.69-0.67,0.92c0.02,0.29-0.02,0.57-0.12,0.84c-0.01,0.1-0.02,0.2-0.04,0.29
	c0.03,0.22,0.04,0.45,0.01,0.68c0.05,0.21,0.07,0.42,0.06,0.64c0.05,0.15,0.08,0.31,0.09,0.47c0.1,0.15,0.2,0.3,0.32,0.44
	c0.24,0.12,0.43,0.29,0.59,0.5c0.26,0.09,0.48,0.24,0.66,0.42c0.44,0.19,0.92,0.3,1.43,0.3c0.49,0,0.95-0.11,1.37-0.29
	c0.07-0.07,0.15-0.12,0.23-0.18c0.18-0.22,0.41-0.39,0.7-0.5c0,0,0,0,0,0c0.1-0.12,0.22-0.24,0.36-0.34c0.07-0.1,0.14-0.2,0.23-0.29
	c0.04-0.08,0.09-0.16,0.15-0.24c0.01-0.03,0.02-0.07,0.03-0.1c0-0.03,0.01-0.06,0.01-0.09C140.07,68.42,140.05,68.31,140.04,68.2
	L140.04,68.2L140.04,68.2z"/>
<rect x="136.35" y="69.81" class="st0" width="1.3" height="5.44"/>
<path class="st0" d="M131.15,51.17c0-0.1,0.02-0.2,0.03-0.29c-0.24-0.53-0.24-1.17-0.02-1.71c-0.04-0.15-0.07-0.31-0.07-0.47
	c-0.26-0.19-0.46-0.43-0.59-0.72c-0.33-0.17-0.58-0.44-0.74-0.76c-0.03-0.02-0.07-0.05-0.1-0.07c-0.09,0.01-0.18,0.02-0.28,0.02
	c-0.39,0-0.71-0.09-0.98-0.25c-0.27,0.13-0.56,0.21-0.85,0.21h-0.04c-0.03,0-0.07-0.01-0.1-0.01c-0.27,0.22-0.61,0.36-1.04,0.38
	c-0.15,0.22-0.36,0.4-0.61,0.52c-0.12,0.37-0.34,0.69-0.67,0.92c0.02,0.29-0.02,0.58-0.12,0.84c-0.01,0.1-0.02,0.2-0.04,0.29
	c0.03,0.22,0.04,0.45,0.01,0.68c0.05,0.21,0.07,0.42,0.06,0.64c0.05,0.15,0.08,0.31,0.09,0.47c0.1,0.15,0.2,0.3,0.32,0.44
	c0.24,0.12,0.43,0.29,0.59,0.5c0.26,0.09,0.48,0.24,0.66,0.42c0.44,0.19,0.92,0.3,1.43,0.3c0.49,0,0.95-0.11,1.37-0.29
	c0.07-0.07,0.15-0.12,0.23-0.18c0.18-0.22,0.41-0.39,0.7-0.5c0,0,0,0,0,0c0.1-0.12,0.22-0.24,0.36-0.34c0.07-0.1,0.14-0.2,0.23-0.29
	c0.04-0.08,0.09-0.16,0.15-0.24c0.01-0.03,0.02-0.07,0.03-0.1c0-0.03,0.01-0.06,0.01-0.09C131.17,51.38,131.16,51.28,131.15,51.17
	L131.15,51.17L131.15,51.17z"/>
<rect x="127.45" y="52.77" class="st0" width="1.3" height="5.44"/>
<path class="st0" d="M120.46,35.43c0-0.1,0.02-0.2,0.03-0.29c-0.24-0.53-0.24-1.17-0.02-1.71c-0.04-0.15-0.07-0.31-0.07-0.47
	c-0.26-0.19-0.46-0.43-0.59-0.72c-0.33-0.17-0.58-0.44-0.74-0.76c-0.03-0.02-0.07-0.05-0.1-0.07c-0.09,0.01-0.18,0.02-0.28,0.02
	c-0.39,0-0.71-0.09-0.98-0.25c-0.27,0.13-0.56,0.21-0.85,0.21h-0.04c-0.03,0-0.07-0.01-0.1-0.01c-0.27,0.22-0.61,0.36-1.04,0.38
	c-0.15,0.22-0.36,0.4-0.61,0.52c-0.12,0.37-0.34,0.69-0.67,0.92c0.02,0.29-0.02,0.58-0.12,0.84c-0.01,0.1-0.02,0.2-0.04,0.29
	c0.03,0.22,0.04,0.45,0.01,0.68c0.05,0.21,0.07,0.42,0.06,0.64c0.05,0.15,0.08,0.31,0.09,0.47c0.1,0.15,0.2,0.3,0.32,0.44
	c0.24,0.12,0.43,0.29,0.59,0.5c0.26,0.09,0.48,0.24,0.66,0.42c0.44,0.19,0.92,0.3,1.43,0.3c0.49,0,0.95-0.11,1.37-0.29
	c0.07-0.07,0.15-0.12,0.23-0.18c0.18-0.22,0.41-0.39,0.7-0.5c0,0,0,0,0,0c0.1-0.12,0.22-0.24,0.36-0.34c0.07-0.1,0.14-0.2,0.23-0.29
	c0.04-0.08,0.09-0.16,0.15-0.24c0.01-0.03,0.02-0.07,0.03-0.1c0-0.03,0.01-0.06,0.01-0.09C120.48,35.65,120.47,35.54,120.46,35.43
	L120.46,35.43L120.46,35.43z"/>
<rect x="116.77" y="37.04" class="st0" width="1.3" height="5.44"/>
<path class="st0" d="M39.66,35.43c0-0.1,0.02-0.2,0.03-0.29c-0.24-0.53-0.24-1.17-0.02-1.71c-0.04-0.15-0.07-0.31-0.07-0.47
	c-0.26-0.19-0.46-0.43-0.59-0.72c-0.33-0.17-0.58-0.44-0.74-0.76c-0.03-0.02-0.07-0.05-0.1-0.07c-0.09,0.01-0.18,0.02-0.28,0.02
	c-0.39,0-0.71-0.09-0.98-0.25c-0.27,0.13-0.56,0.21-0.85,0.21h-0.04c-0.03,0-0.07-0.01-0.1-0.01c-0.27,0.22-0.61,0.36-1.04,0.38
	c-0.15,0.22-0.36,0.4-0.61,0.52c-0.12,0.37-0.34,0.69-0.67,0.92c0.02,0.29-0.02,0.58-0.12,0.84c-0.01,0.1-0.02,0.2-0.04,0.29
	c0.03,0.22,0.04,0.45,0.01,0.68c0.05,0.21,0.07,0.42,0.06,0.64c0.05,0.15,0.08,0.31,0.09,0.47c0.1,0.15,0.2,0.3,0.32,0.44
	c0.24,0.12,0.43,0.29,0.59,0.5c0.26,0.09,0.48,0.24,0.66,0.42c0.44,0.19,0.92,0.3,1.43,0.3c0.49,0,0.95-0.11,1.37-0.29
	c0.07-0.07,0.15-0.12,0.23-0.18c0.18-0.22,0.41-0.39,0.7-0.5c0,0,0,0,0,0c0.1-0.12,0.22-0.24,0.36-0.34c0.07-0.1,0.14-0.2,0.23-0.29
	c0.04-0.08,0.09-0.16,0.15-0.24c0.01-0.03,0.02-0.07,0.03-0.1c0-0.03,0.01-0.06,0.01-0.09C39.68,35.65,39.67,35.54,39.66,35.43
	L39.66,35.43L39.66,35.43z"/>
<rect x="35.97" y="37.04" class="st0" width="1.3" height="5.44"/>
<path class="st0" d="M38.97,149.95c0-0.1,0.02-0.2,0.03-0.29c-0.24-0.53-0.24-1.17-0.02-1.71c-0.04-0.15-0.07-0.31-0.07-0.47
	c-0.26-0.19-0.46-0.43-0.59-0.72c-0.33-0.17-0.58-0.44-0.74-0.76c-0.03-0.02-0.07-0.05-0.1-0.07c-0.09,0.01-0.18,0.02-0.28,0.02
	c-0.39,0-0.71-0.09-0.98-0.25c-0.27,0.13-0.56,0.21-0.85,0.21h-0.04c-0.03,0-0.07-0.01-0.1-0.01c-0.27,0.22-0.61,0.36-1.04,0.38
	c-0.15,0.22-0.36,0.4-0.61,0.52c-0.12,0.37-0.34,0.69-0.67,0.92c0.02,0.29-0.02,0.57-0.12,0.84c-0.01,0.1-0.02,0.2-0.04,0.29
	c0.03,0.22,0.04,0.45,0.01,0.68c0.05,0.21,0.07,0.42,0.06,0.64c0.05,0.15,0.08,0.31,0.09,0.47c0.1,0.15,0.2,0.3,0.32,0.44
	c0.24,0.12,0.43,0.29,0.59,0.5c0.26,0.09,0.48,0.24,0.66,0.42c0.44,0.19,0.92,0.3,1.43,0.3c0.49,0,0.95-0.11,1.37-0.29
	c0.07-0.07,0.15-0.12,0.23-0.18c0.18-0.22,0.41-0.39,0.7-0.5c0,0,0,0,0,0c0.1-0.12,0.22-0.24,0.36-0.34c0.07-0.1,0.14-0.2,0.23-0.29
	c0.04-0.08,0.09-0.16,0.15-0.24c0.01-0.03,0.02-0.07,0.03-0.1c0-0.03,0.01-0.06,0.01-0.09C39,150.17,38.98,150.06,38.97,149.95
	L38.97,149.95L38.97,149.95z"/>
<rect x="35.28" y="151.56" class="st0" width="1.3" height="5.44"/>
<path class="st0" d="M50.79,134.92c0-0.1,0.02-0.2,0.03-0.29c-0.24-0.53-0.24-1.17-0.02-1.71c-0.04-0.15-0.07-0.31-0.07-0.47
	c-0.26-0.19-0.46-0.43-0.59-0.72c-0.33-0.17-0.58-0.44-0.74-0.76c-0.03-0.02-0.07-0.05-0.1-0.07c-0.09,0.01-0.18,0.02-0.28,0.02
	c-0.39,0-0.71-0.09-0.98-0.25c-0.27,0.13-0.56,0.21-0.85,0.21h-0.04c-0.03,0-0.07-0.01-0.1-0.01c-0.27,0.22-0.61,0.36-1.04,0.38
	c-0.15,0.22-0.36,0.4-0.61,0.52c-0.12,0.37-0.34,0.69-0.67,0.92c0.02,0.29-0.02,0.58-0.12,0.84c-0.01,0.1-0.02,0.2-0.04,0.29
	c0.03,0.22,0.04,0.45,0.01,0.68c0.05,0.21,0.07,0.42,0.06,0.64c0.05,0.15,0.08,0.31,0.09,0.47c0.1,0.15,0.2,0.3,0.32,0.44
	c0.24,0.12,0.43,0.29,0.59,0.5c0.26,0.09,0.48,0.24,0.66,0.42c0.44,0.19,0.92,0.3,1.43,0.3c0.49,0,0.95-0.11,1.37-0.29
	c0.07-0.07,0.15-0.12,0.23-0.18c0.18-0.22,0.41-0.39,0.7-0.5c0,0,0,0,0,0c0.1-0.12,0.22-0.24,0.36-0.34c0.07-0.1,0.14-0.2,0.23-0.29
	c0.04-0.08,0.09-0.16,0.15-0.24c0.01-0.03,0.02-0.07,0.03-0.1c0-0.03,0.01-0.06,0.01-0.09C50.81,135.14,50.8,135.03,50.79,134.92
	L50.79,134.92L50.79,134.92z"/>
<rect x="47.09" y="136.53" class="st0" width="1.3" height="5.44"/>
<path class="st0" d="M28.58,125.34c0-0.1,0.02-0.2,0.03-0.29c-0.24-0.53-0.24-1.17-0.02-1.71c-0.04-0.15-0.07-0.31-0.07-0.47
	c-0.26-0.19-0.46-0.43-0.59-0.72c-0.33-0.17-0.58-0.44-0.74-0.76c-0.03-0.02-0.07-0.05-0.1-0.07c-0.09,0.01-0.18,0.02-0.28,0.02
	c-0.39,0-0.71-0.09-0.98-0.25c-0.27,0.13-0.56,0.21-0.85,0.21h-0.04c-0.03,0-0.07-0.01-0.1-0.01c-0.27,0.22-0.61,0.36-1.04,0.38
	c-0.15,0.22-0.36,0.4-0.61,0.52c-0.12,0.37-0.34,0.69-0.67,0.92c0.02,0.29-0.02,0.58-0.12,0.84c-0.01,0.1-0.02,0.2-0.04,0.29
	c0.03,0.22,0.04,0.45,0.01,0.68c0.05,0.21,0.07,0.42,0.06,0.64c0.05,0.15,0.08,0.31,0.09,0.47c0.1,0.15,0.2,0.3,0.32,0.44
	c0.24,0.12,0.43,0.29,0.59,0.5c0.26,0.09,0.48,0.24,0.66,0.42c0.44,0.19,0.92,0.3,1.43,0.3c0.49,0,0.95-0.11,1.37-0.29
	c0.07-0.07,0.15-0.12,0.23-0.18c0.18-0.22,0.41-0.39,0.7-0.5c0,0,0,0,0,0c0.1-0.12,0.22-0.24,0.36-0.34c0.07-0.1,0.14-0.2,0.23-0.29
	c0.04-0.08,0.09-0.16,0.15-0.24c0.01-0.03,0.02-0.07,0.03-0.1c0-0.03,0.01-0.06,0.01-0.09C28.6,125.56,28.58,125.46,28.58,125.34
	L28.58,125.34L28.58,125.34z"/>
<rect x="24.88" y="126.95" class="st0" width="1.3" height="5.44"/>
<path class="st0" d="M70.29,149.14c0-0.1,0.02-0.2,0.03-0.29c-0.24-0.53-0.24-1.17-0.02-1.71c-0.04-0.15-0.07-0.31-0.07-0.47
	c-0.26-0.19-0.46-0.43-0.59-0.72c-0.33-0.17-0.58-0.44-0.74-0.76c-0.03-0.02-0.07-0.05-0.1-0.07c-0.09,0.01-0.18,0.02-0.28,0.02
	c-0.39,0-0.71-0.09-0.98-0.25c-0.27,0.13-0.56,0.21-0.85,0.21h-0.04c-0.03,0-0.07-0.01-0.1-0.01c-0.27,0.22-0.61,0.36-1.04,0.38
	c-0.15,0.22-0.36,0.4-0.61,0.52c-0.12,0.37-0.34,0.69-0.67,0.92c0.02,0.29-0.02,0.57-0.12,0.84c-0.01,0.1-0.02,0.2-0.04,0.29
	c0.03,0.22,0.04,0.45,0.01,0.68c0.05,0.21,0.07,0.42,0.06,0.64c0.05,0.15,0.08,0.31,0.09,0.47c0.1,0.15,0.2,0.3,0.32,0.44
	c0.24,0.12,0.43,0.29,0.59,0.5c0.26,0.09,0.48,0.24,0.66,0.42c0.44,0.19,0.92,0.3,1.43,0.3c0.49,0,0.95-0.11,1.37-0.29
	c0.07-0.07,0.15-0.12,0.23-0.18c0.18-0.22,0.41-0.39,0.7-0.5c0,0,0,0,0,0c0.1-0.12,0.22-0.24,0.36-0.34c0.07-0.1,0.14-0.2,0.23-0.29
	c0.04-0.08,0.09-0.16,0.15-0.24c0.01-0.03,0.02-0.07,0.03-0.1c0-0.03,0.01-0.06,0.01-0.09C70.31,149.36,70.29,149.25,70.29,149.14
	L70.29,149.14L70.29,149.14z"/>
<rect x="66.59" y="150.75" class="st0" width="1.3" height="5.44"/>
<path class="st0" d="M133.17,118.74c0-0.1,0.02-0.2,0.03-0.29c-0.24-0.53-0.24-1.17-0.02-1.71c-0.04-0.15-0.07-0.31-0.07-0.47
	c-0.26-0.19-0.46-0.43-0.59-0.72c-0.33-0.17-0.58-0.44-0.74-0.76c-0.03-0.02-0.07-0.05-0.1-0.07c-0.09,0.01-0.18,0.02-0.28,0.02
	c-0.39,0-0.71-0.09-0.98-0.25c-0.27,0.13-0.56,0.21-0.85,0.21h-0.04c-0.03,0-0.07-0.01-0.1-0.01c-0.27,0.22-0.61,0.36-1.04,0.38
	c-0.15,0.22-0.36,0.4-0.61,0.52c-0.12,0.37-0.34,0.69-0.67,0.92c0.02,0.29-0.02,0.57-0.12,0.84c-0.01,0.1-0.02,0.2-0.04,0.29
	c0.03,0.22,0.04,0.45,0.01,0.68c0.05,0.21,0.07,0.42,0.06,0.64c0.05,0.15,0.08,0.31,0.09,0.47c0.1,0.15,0.2,0.3,0.32,0.44
	c0.24,0.12,0.43,0.29,0.59,0.5c0.26,0.09,0.48,0.24,0.66,0.42c0.44,0.19,0.92,0.3,1.43,0.3c0.49,0,0.95-0.11,1.37-0.29
	c0.07-0.07,0.15-0.12,0.23-0.18c0.18-0.22,0.41-0.39,0.7-0.5c0,0,0,0,0,0c0.1-0.12,0.22-0.24,0.36-0.34c0.07-0.1,0.14-0.2,0.23-0.29
	c0.04-0.08,0.09-0.16,0.15-0.24c0.01-0.03,0.02-0.07,0.03-0.1c0-0.03,0.01-0.06,0.01-0.09
	C133.19,118.96,133.18,118.85,133.17,118.74L133.17,118.74L133.17,118.74z"/>
<rect x="129.48" y="120.35" class="st0" width="1.3" height="5.44"/>
<path class="st0" d="M153.16,102.12c0-0.1,0.02-0.2,0.03-0.29c-0.24-0.53-0.24-1.17-0.02-1.71c-0.04-0.15-0.07-0.31-0.07-0.47
	c-0.26-0.19-0.46-0.43-0.59-0.72c-0.33-0.17-0.58-0.44-0.74-0.76c-0.03-0.02-0.07-0.05-0.1-0.07c-0.09,0.01-0.18,0.02-0.28,0.02
	c-0.39,0-0.71-0.09-0.98-0.25c-0.27,0.13-0.56,0.21-0.85,0.21h-0.04c-0.03,0-0.07-0.01-0.1-0.01c-0.27,0.22-0.61,0.36-1.04,0.38
	c-0.15,0.22-0.36,0.4-0.61,0.52c-0.12,0.37-0.34,0.69-0.67,0.92c0.02,0.29-0.02,0.58-0.12,0.84c-0.01,0.1-0.02,0.2-0.04,0.29
	c0.03,0.22,0.04,0.45,0.01,0.68c0.05,0.21,0.07,0.42,0.06,0.64c0.05,0.15,0.08,0.31,0.09,0.47c0.1,0.15,0.2,0.3,0.32,0.44
	c0.24,0.12,0.43,0.29,0.59,0.5c0.26,0.09,0.48,0.24,0.66,0.42c0.44,0.19,0.92,0.3,1.43,0.3c0.49,0,0.95-0.11,1.37-0.29
	c0.07-0.07,0.15-0.12,0.23-0.18c0.18-0.22,0.41-0.39,0.7-0.5c0,0,0,0,0,0c0.1-0.12,0.22-0.24,0.36-0.34c0.07-0.1,0.14-0.2,0.23-0.29
	c0.04-0.08,0.09-0.16,0.15-0.24c0.01-0.03,0.02-0.07,0.03-0.1c0-0.03,0.01-0.06,0.01-0.09
	C153.18,102.34,153.16,102.24,153.16,102.12L153.16,102.12L153.16,102.12z"/>
<rect x="149.46" y="103.73" class="st0" width="1.3" height="5.44"/>
<path class="st0" d="M171.83,76.19c0-0.1,0.02-0.2,0.03-0.29c-0.24-0.53-0.24-1.17-0.02-1.71c-0.04-0.15-0.07-0.31-0.07-0.47
	c-0.26-0.19-0.46-0.43-0.59-0.72c-0.33-0.17-0.58-0.44-0.74-0.76c-0.03-0.02-0.07-0.05-0.1-0.07c-0.09,0.01-0.18,0.02-0.28,0.02
	c-0.39,0-0.71-0.09-0.98-0.25c-0.27,0.13-0.56,0.21-0.85,0.21h-0.04c-0.03,0-0.07-0.01-0.1-0.01c-0.27,0.22-0.61,0.36-1.04,0.38
	c-0.15,0.22-0.36,0.4-0.61,0.52c-0.12,0.37-0.34,0.69-0.67,0.92c0.02,0.29-0.02,0.57-0.12,0.84c-0.01,0.1-0.02,0.2-0.04,0.29
	c0.03,0.22,0.04,0.45,0.01,0.68c0.05,0.21,0.07,0.42,0.06,0.64c0.05,0.15,0.08,0.31,0.09,0.47c0.1,0.15,0.2,0.3,0.32,0.44
	c0.24,0.12,0.43,0.29,0.59,0.5c0.26,0.09,0.48,0.24,0.66,0.42c0.44,0.19,0.92,0.3,1.43,0.3c0.49,0,0.95-0.11,1.37-0.29
	c0.07-0.07,0.15-0.12,0.23-0.18c0.18-0.22,0.41-0.39,0.7-0.5c0,0,0,0,0,0c0.1-0.12,0.22-0.24,0.36-0.34c0.07-0.1,0.14-0.2,0.23-0.29
	c0.04-0.08,0.09-0.16,0.15-0.24c0.01-0.03,0.02-0.07,0.03-0.1c0-0.03,0.01-0.06,0.01-0.09C171.86,76.41,171.84,76.3,171.83,76.19
	L171.83,76.19L171.83,76.19z"/>
<rect x="168.14" y="77.8" class="st0" width="1.3" height="5.44"/>
<path class="st0" d="M182.34,126.3c0-0.1,0.02-0.2,0.03-0.29c-0.24-0.53-0.24-1.17-0.02-1.71c-0.04-0.15-0.07-0.31-0.07-0.47
	c-0.26-0.19-0.46-0.43-0.59-0.72c-0.33-0.17-0.58-0.44-0.74-0.76c-0.03-0.02-0.07-0.05-0.1-0.07c-0.09,0.01-0.18,0.02-0.28,0.02
	c-0.39,0-0.71-0.09-0.98-0.25c-0.27,0.13-0.56,0.21-0.85,0.21h-0.04c-0.03,0-0.07-0.01-0.1-0.01c-0.27,0.22-0.61,0.36-1.04,0.38
	c-0.15,0.22-0.36,0.4-0.61,0.52c-0.12,0.37-0.34,0.69-0.67,0.92c0.02,0.29-0.02,0.57-0.12,0.84c-0.01,0.1-0.02,0.2-0.04,0.29
	c0.03,0.22,0.04,0.45,0.01,0.68c0.05,0.21,0.07,0.42,0.06,0.64c0.05,0.15,0.08,0.31,0.09,0.47c0.1,0.15,0.2,0.3,0.32,0.44
	c0.24,0.12,0.43,0.29,0.59,0.5c0.26,0.09,0.48,0.24,0.66,0.42c0.44,0.19,0.92,0.3,1.43,0.3c0.49,0,0.95-0.11,1.37-0.29
	c0.07-0.07,0.15-0.12,0.23-0.18c0.18-0.22,0.41-0.39,0.7-0.5c0,0,0,0,0,0c0.1-0.12,0.22-0.24,0.36-0.34c0.07-0.1,0.14-0.2,0.23-0.29
	c0.04-0.08,0.09-0.16,0.15-0.24c0.01-0.03,0.02-0.07,0.03-0.1c0-0.03,0.01-0.06,0.01-0.09C182.36,126.52,182.34,126.41,182.34,126.3
	L182.34,126.3L182.34,126.3z"/>
<rect x="178.64" y="127.91" class="st0" width="1.3" height="5.44"/>
<path class="st0" d="M217,135.88c0-0.1,0.02-0.2,0.03-0.29c-0.24-0.53-0.24-1.17-0.02-1.71c-0.04-0.15-0.07-0.31-0.07-0.47
	c-0.26-0.19-0.46-0.43-0.59-0.72c-0.33-0.17-0.58-0.44-0.74-0.76c-0.03-0.02-0.07-0.05-0.1-0.07c-0.09,0.01-0.18,0.02-0.28,0.02
	c-0.39,0-0.71-0.09-0.98-0.25c-0.27,0.13-0.56,0.21-0.85,0.21h-0.04c-0.03,0-0.07-0.01-0.1-0.01c-0.27,0.22-0.61,0.36-1.04,0.38
	c-0.15,0.22-0.36,0.4-0.61,0.52c-0.12,0.37-0.34,0.69-0.67,0.92c0.02,0.29-0.02,0.57-0.12,0.84c-0.01,0.1-0.02,0.2-0.04,0.29
	c0.03,0.22,0.04,0.45,0.01,0.68c0.05,0.21,0.07,0.42,0.06,0.64c0.05,0.15,0.08,0.31,0.09,0.47c0.1,0.15,0.2,0.3,0.32,0.44
	c0.24,0.12,0.43,0.29,0.59,0.5c0.26,0.09,0.48,0.24,0.66,0.42c0.44,0.19,0.92,0.3,1.43,0.3c0.49,0,0.95-0.11,1.37-0.29
	c0.07-0.07,0.15-0.12,0.23-0.18c0.18-0.22,0.41-0.39,0.7-0.5c0,0,0,0,0,0c0.1-0.12,0.22-0.24,0.36-0.34c0.07-0.1,0.14-0.2,0.23-0.29
	c0.04-0.08,0.09-0.16,0.15-0.24c0.01-0.03,0.02-0.07,0.03-0.1c0-0.03,0.01-0.06,0.01-0.09C217.02,136.1,217.01,135.99,217,135.88
	L217,135.88L217,135.88z"/>
<rect x="213.31" y="137.49" class="st0" width="1.3" height="5.44"/>
<path class="st0" d="M206.73,106.81c0-0.1,0.02-0.2,0.03-0.29c-0.24-0.53-0.24-1.17-0.02-1.71c-0.04-0.15-0.07-0.31-0.07-0.47
	c-0.26-0.19-0.46-0.43-0.59-0.72c-0.33-0.17-0.58-0.44-0.74-0.76c-0.03-0.02-0.07-0.05-0.1-0.07c-0.09,0.01-0.18,0.02-0.28,0.02
	c-0.39,0-0.71-0.09-0.98-0.25c-0.27,0.13-0.56,0.21-0.85,0.21h-0.04c-0.03,0-0.07-0.01-0.1-0.01c-0.27,0.22-0.61,0.36-1.04,0.38
	c-0.15,0.22-0.36,0.4-0.61,0.52c-0.12,0.37-0.34,0.69-0.67,0.92c0.02,0.29-0.02,0.58-0.12,0.84c-0.01,0.1-0.02,0.2-0.04,0.29
	c0.03,0.22,0.04,0.45,0.01,0.68c0.05,0.21,0.07,0.42,0.06,0.64c0.05,0.15,0.08,0.31,0.09,0.47c0.1,0.15,0.2,0.3,0.32,0.44
	c0.24,0.12,0.43,0.29,0.59,0.5c0.26,0.09,0.48,0.24,0.66,0.42c0.44,0.19,0.92,0.3,1.43,0.3c0.49,0,0.95-0.11,1.37-0.29
	c0.07-0.07,0.15-0.12,0.23-0.18c0.18-0.22,0.41-0.39,0.7-0.5c0,0,0,0,0,0c0.1-0.12,0.22-0.24,0.36-0.34c0.07-0.1,0.14-0.2,0.23-0.29
	c0.04-0.08,0.09-0.16,0.15-0.24c0.01-0.03,0.02-0.07,0.03-0.1c0-0.03,0.01-0.06,0.01-0.09
	C206.75,107.03,206.73,106.93,206.73,106.81L206.73,106.81L206.73,106.81z"/>
<rect x="203.03" y="108.42" class="st0" width="1.3" height="5.44"/>
<path class="st0" d="M191.81,57.56c0-0.1,0.02-0.2,0.03-0.29c-0.24-0.53-0.24-1.17-0.02-1.71c-0.04-0.15-0.07-0.31-0.07-0.47
	c-0.26-0.19-0.46-0.43-0.59-0.72c-0.33-0.17-0.58-0.44-0.74-0.76c-0.03-0.02-0.07-0.05-0.1-0.07c-0.09,0.01-0.18,0.02-0.28,0.02
	c-0.39,0-0.71-0.09-0.98-0.25c-0.27,0.13-0.56,0.21-0.85,0.21h-0.04c-0.03,0-0.07-0.01-0.1-0.01c-0.27,0.22-0.61,0.36-1.04,0.38
	c-0.15,0.22-0.36,0.4-0.61,0.52c-0.12,0.37-0.34,0.69-0.67,0.92c0.02,0.29-0.02,0.58-0.12,0.84c-0.01,0.1-0.02,0.2-0.04,0.29
	c0.03,0.22,0.04,0.45,0.01,0.68c0.05,0.21,0.07,0.42,0.06,0.64c0.05,0.15,0.08,0.31,0.09,0.47c0.1,0.15,0.2,0.3,0.32,0.44
	c0.24,0.12,0.43,0.29,0.59,0.5c0.26,0.09,0.48,0.24,0.66,0.42c0.44,0.19,0.92,0.3,1.43,0.3c0.49,0,0.95-0.11,1.37-0.29
	c0.07-0.07,0.15-0.12,0.23-0.18c0.18-0.22,0.41-0.39,0.7-0.5c0,0,0,0,0,0c0.1-0.12,0.22-0.24,0.36-0.34c0.07-0.1,0.14-0.2,0.23-0.29
	c0.04-0.08,0.09-0.16,0.15-0.24c0.01-0.03,0.02-0.07,0.03-0.1c0-0.03,0.01-0.06,0.01-0.09C191.83,57.78,191.82,57.67,191.81,57.56
	L191.81,57.56L191.81,57.56z"/>
<rect x="188.12" y="59.17" class="st0" width="1.3" height="5.44"/>
<path class="st0" d="M159.4,45.9c0-0.1,0.02-0.2,0.03-0.29c-0.24-0.53-0.24-1.17-0.02-1.71c-0.04-0.15-0.07-0.31-0.07-0.47
	c-0.26-0.19-0.46-0.43-0.59-0.72c-0.33-0.17-0.58-0.44-0.74-0.76c-0.03-0.02-0.07-0.05-0.1-0.07c-0.09,0.01-0.18,0.02-0.28,0.02
	c-0.39,0-0.71-0.09-0.98-0.25c-0.27,0.13-0.56,0.21-0.85,0.21h-0.04c-0.03,0-0.07-0.01-0.1-0.01c-0.27,0.22-0.61,0.36-1.04,0.38
	c-0.15,0.22-0.36,0.4-0.61,0.52c-0.12,0.37-0.34,0.69-0.67,0.92c0.02,0.29-0.02,0.58-0.12,0.84c-0.01,0.1-0.02,0.2-0.04,0.29
	c0.03,0.22,0.04,0.45,0.01,0.68c0.05,0.21,0.07,0.42,0.06,0.64c0.05,0.15,0.08,0.31,0.09,0.47c0.1,0.15,0.2,0.3,0.32,0.44
	c0.24,0.12,0.43,0.29,0.59,0.5c0.26,0.09,0.48,0.24,0.66,0.42c0.44,0.19,0.92,0.3,1.43,0.3c0.49,0,0.95-0.11,1.37-0.29
	c0.07-0.07,0.15-0.12,0.23-0.18c0.18-0.22,0.41-0.39,0.7-0.5c0,0,0,0,0,0c0.1-0.12,0.22-0.24,0.36-0.34c0.07-0.1,0.14-0.2,0.23-0.29
	c0.04-0.08,0.09-0.16,0.15-0.24c0.01-0.03,0.02-0.07,0.03-0.1c0-0.03,0.01-0.06,0.01-0.09C159.43,46.11,159.41,46.01,159.4,45.9
	L159.4,45.9L159.4,45.9z"/>
<rect x="155.71" y="47.5" class="st0" width="1.3" height="5.44"/>
<path class="st0" d="M249.14,116.4c0-0.1,0.02-0.2,0.03-0.29c-0.24-0.53-0.24-1.17-0.02-1.71c-0.04-0.15-0.07-0.31-0.07-0.47
	c-0.26-0.19-0.46-0.43-0.59-0.72c-0.33-0.17-0.58-0.44-0.74-0.76c-0.03-0.02-0.07-0.05-0.1-0.07c-0.09,0.01-0.18,0.02-0.28,0.02
	c-0.39,0-0.71-0.09-0.98-0.25c-0.27,0.13-0.56,0.21-0.85,0.21h-0.04c-0.03,0-0.07-0.01-0.1-0.01c-0.27,0.22-0.61,0.36-1.04,0.38
	c-0.15,0.22-0.36,0.4-0.61,0.52c-0.12,0.37-0.34,0.69-0.67,0.92c0.02,0.29-0.02,0.58-0.12,0.84c-0.01,0.1-0.02,0.2-0.04,0.29
	c0.03,0.22,0.04,0.45,0.01,0.68c0.05,0.21,0.07,0.42,0.06,0.64c0.05,0.15,0.08,0.31,0.09,0.47c0.1,0.15,0.2,0.3,0.32,0.44
	c0.24,0.12,0.43,0.29,0.59,0.5c0.26,0.09,0.48,0.24,0.66,0.42c0.44,0.19,0.92,0.3,1.43,0.3c0.49,0,0.95-0.11,1.37-0.29
	c0.07-0.07,0.15-0.12,0.23-0.18c0.18-0.22,0.41-0.39,0.7-0.5c0,0,0,0,0,0c0.1-0.12,0.22-0.24,0.36-0.34c0.07-0.1,0.14-0.2,0.23-0.29
	c0.04-0.08,0.09-0.16,0.15-0.24c0.01-0.03,0.02-0.07,0.03-0.1c0-0.03,0.01-0.06,0.01-0.09C249.16,116.61,249.15,116.51,249.14,116.4
	L249.14,116.4L249.14,116.4z"/>
<rect x="245.45" y="118" class="st0" width="1.3" height="5.44"/>
<path class="st0" d="M232.76,101.38c0-0.1,0.02-0.2,0.03-0.29c-0.24-0.53-0.24-1.17-0.02-1.71c-0.04-0.15-0.07-0.31-0.07-0.47
	c-0.26-0.19-0.46-0.43-0.59-0.72c-0.33-0.17-0.58-0.44-0.74-0.76c-0.03-0.02-0.07-0.05-0.1-0.07c-0.09,0.01-0.18,0.02-0.28,0.02
	c-0.39,0-0.71-0.09-0.98-0.25c-0.27,0.13-0.56,0.21-0.85,0.21h-0.04c-0.03,0-0.07-0.01-0.1-0.01c-0.27,0.22-0.61,0.36-1.04,0.38
	c-0.15,0.22-0.36,0.4-0.61,0.52c-0.12,0.37-0.34,0.69-0.67,0.92c0.02,0.29-0.02,0.58-0.12,0.84c-0.01,0.1-0.02,0.2-0.04,0.29
	c0.03,0.22,0.04,0.45,0.01,0.68c0.05,0.21,0.07,0.42,0.06,0.64c0.05,0.15,0.08,0.31,0.09,0.47c0.1,0.15,0.2,0.3,0.32,0.44
	c0.24,0.12,0.43,0.29,0.59,0.5c0.26,0.09,0.48,0.24,0.66,0.42c0.44,0.19,0.92,0.3,1.43,0.3c0.49,0,0.95-0.11,1.37-0.29
	c0.07-0.07,0.15-0.12,0.23-0.18c0.18-0.22,0.41-0.39,0.7-0.5c0,0,0,0,0,0c0.1-0.12,0.22-0.24,0.36-0.34c0.07-0.1,0.14-0.2,0.23-0.29
	c0.04-0.08,0.09-0.16,0.15-0.24c0.01-0.03,0.02-0.07,0.03-0.1c0-0.03,0.01-0.06,0.01-0.09
	C232.78,101.59,232.76,101.49,232.76,101.38L232.76,101.38L232.76,101.38z"/>
<rect x="229.06" y="102.98" class="st0" width="1.3" height="5.44"/>
<path class="st0" d="M220.12,92.22c0-0.1,0.02-0.2,0.03-0.29c-0.24-0.53-0.24-1.17-0.02-1.71c-0.04-0.15-0.07-0.31-0.07-0.47
	c-0.26-0.19-0.46-0.43-0.59-0.72c-0.33-0.17-0.58-0.44-0.74-0.76c-0.03-0.02-0.07-0.05-0.1-0.07c-0.09,0.01-0.18,0.02-0.28,0.02
	c-0.39,0-0.71-0.09-0.98-0.25c-0.27,0.13-0.56,0.21-0.85,0.21h-0.04c-0.03,0-0.07-0.01-0.1-0.01c-0.27,0.22-0.61,0.36-1.04,0.38
	c-0.15,0.22-0.36,0.4-0.61,0.52c-0.12,0.37-0.34,0.69-0.67,0.92c0.02,0.29-0.02,0.57-0.12,0.84c-0.01,0.1-0.02,0.2-0.04,0.29
	c0.03,0.22,0.04,0.45,0.01,0.68c0.05,0.21,0.07,0.42,0.06,0.64c0.05,0.15,0.08,0.31,0.09,0.47c0.1,0.15,0.2,0.3,0.32,0.44
	c0.24,0.12,0.43,0.29,0.59,0.5c0.26,0.09,0.48,0.24,0.66,0.42c0.44,0.19,0.92,0.3,1.43,0.3c0.49,0,0.95-0.11,1.37-0.29
	c0.07-0.07,0.15-0.12,0.23-0.18c0.18-0.22,0.41-0.39,0.7-0.5c0,0,0,0,0,0c0.1-0.12,0.22-0.24,0.36-0.34c0.07-0.1,0.14-0.2,0.23-0.29
	c0.04-0.08,0.09-0.16,0.15-0.24c0.01-0.03,0.02-0.07,0.03-0.1c0-0.03,0.01-0.06,0.01-0.09C220.15,92.44,220.13,92.33,220.12,92.22
	L220.12,92.22L220.12,92.22z"/>
<rect x="216.43" y="93.83" class="st0" width="1.3" height="5.44"/>
<path class="st0" d="M247.83,103.51c0-0.1,0.02-0.2,0.03-0.29c-0.24-0.53-0.24-1.17-0.02-1.71c-0.04-0.15-0.07-0.31-0.07-0.47
	c-0.26-0.19-0.46-0.43-0.59-0.72c-0.33-0.17-0.58-0.44-0.74-0.76c-0.03-0.02-0.07-0.05-0.1-0.07c-0.09,0.01-0.18,0.02-0.28,0.02
	c-0.39,0-0.71-0.09-0.98-0.25c-0.27,0.13-0.56,0.21-0.85,0.21h-0.04c-0.03,0-0.07-0.01-0.1-0.01c-0.27,0.22-0.61,0.36-1.04,0.38
	c-0.15,0.22-0.36,0.4-0.61,0.52c-0.12,0.37-0.34,0.69-0.67,0.92c0.02,0.29-0.02,0.58-0.12,0.84c-0.01,0.1-0.02,0.2-0.04,0.29
	c0.03,0.22,0.04,0.45,0.01,0.68c0.05,0.21,0.07,0.42,0.06,0.64c0.05,0.15,0.08,0.31,0.09,0.47c0.1,0.15,0.2,0.3,0.32,0.44
	c0.24,0.12,0.43,0.29,0.59,0.5c0.26,0.09,0.48,0.24,0.66,0.42c0.44,0.19,0.92,0.3,1.43,0.3c0.49,0,0.95-0.11,1.37-0.29
	c0.07-0.07,0.15-0.12,0.23-0.18c0.18-0.22,0.41-0.39,0.7-0.5c0,0,0,0,0,0c0.1-0.12,0.22-0.24,0.36-0.34c0.07-0.1,0.14-0.2,0.23-0.29
	c0.04-0.08,0.09-0.16,0.15-0.24c0.01-0.03,0.02-0.07,0.03-0.1c0-0.03,0.01-0.06,0.01-0.09
	C247.85,103.73,247.83,103.62,247.83,103.51L247.83,103.51L247.83,103.51z"/>
<rect x="244.13" y="105.12" class="st0" width="1.3" height="5.44"/>
<path class="st0" d="M232.79,77.15c0-0.1,0.02-0.2,0.03-0.29c-0.24-0.53-0.24-1.17-0.02-1.71c-0.04-0.15-0.07-0.31-0.07-0.47
	c-0.26-0.19-0.46-0.43-0.59-0.72c-0.33-0.17-0.58-0.44-0.74-0.76c-0.03-0.02-0.07-0.05-0.1-0.07c-0.09,0.01-0.18,0.02-0.28,0.02
	c-0.39,0-0.71-0.09-0.98-0.25c-0.27,0.13-0.56,0.21-0.85,0.21h-0.04c-0.03,0-0.07-0.01-0.1-0.01c-0.27,0.22-0.61,0.36-1.04,0.38
	c-0.15,0.22-0.36,0.4-0.61,0.52c-0.12,0.37-0.34,0.69-0.67,0.92c0.02,0.29-0.02,0.58-0.12,0.84c-0.01,0.1-0.02,0.2-0.04,0.29
	c0.03,0.22,0.04,0.45,0.01,0.68c0.05,0.21,0.07,0.42,0.06,0.64c0.05,0.15,0.08,0.31,0.09,0.47c0.1,0.15,0.2,0.3,0.32,0.44
	c0.24,0.12,0.43,0.29,0.59,0.5c0.26,0.09,0.48,0.24,0.66,0.42c0.44,0.19,0.92,0.3,1.43,0.3c0.49,0,0.95-0.11,1.37-0.29
	c0.07-0.07,0.15-0.12,0.23-0.18c0.18-0.22,0.41-0.39,0.7-0.5c0,0,0,0,0,0c0.1-0.12,0.22-0.24,0.36-0.34c0.07-0.1,0.14-0.2,0.23-0.29
	c0.04-0.08,0.09-0.16,0.15-0.24c0.01-0.03,0.02-0.07,0.03-0.1c0-0.03,0.01-0.06,0.01-0.09C232.82,77.36,232.8,77.26,232.79,77.15
	L232.79,77.15L232.79,77.15z"/>
<rect x="229.1" y="78.75" class="st0" width="1.3" height="5.44"/>
<path class="st0" d="M220.12,65.86c0-0.1,0.02-0.2,0.03-0.29c-0.24-0.53-0.24-1.17-0.02-1.71c-0.04-0.15-0.07-0.31-0.07-0.47
	c-0.26-0.19-0.46-0.43-0.59-0.72c-0.33-0.17-0.58-0.44-0.74-0.76c-0.03-0.02-0.07-0.05-0.1-0.07c-0.09,0.01-0.18,0.02-0.28,0.02
	c-0.39,0-0.71-0.09-0.98-0.25c-0.27,0.13-0.56,0.21-0.85,0.21h-0.04c-0.03,0-0.07-0.01-0.1-0.01c-0.27,0.22-0.61,0.36-1.04,0.38
	c-0.15,0.22-0.36,0.4-0.61,0.52c-0.12,0.37-0.34,0.69-0.67,0.92c0.02,0.29-0.02,0.58-0.12,0.84c-0.01,0.1-0.02,0.2-0.04,0.29
	c0.03,0.22,0.04,0.45,0.01,0.68c0.05,0.21,0.07,0.42,0.06,0.64c0.05,0.15,0.08,0.31,0.09,0.47c0.1,0.15,0.2,0.3,0.32,0.44
	c0.24,0.12,0.43,0.29,0.59,0.5c0.26,0.09,0.48,0.24,0.66,0.42c0.44,0.19,0.92,0.3,1.43,0.3c0.49,0,0.95-0.11,1.37-0.29
	c0.07-0.07,0.15-0.12,0.23-0.18c0.18-0.22,0.41-0.39,0.7-0.5c0,0,0,0,0,0c0.1-0.12,0.22-0.24,0.36-0.34c0.07-0.1,0.14-0.2,0.23-0.29
	c0.04-0.08,0.09-0.16,0.15-0.24c0.01-0.03,0.02-0.07,0.03-0.1c0-0.03,0.01-0.06,0.01-0.09C220.15,66.07,220.13,65.97,220.12,65.86
	L220.12,65.86L220.12,65.86z"/>
<rect x="216.43" y="67.46" class="st0" width="1.3" height="5.44"/>
<path class="st0" d="M44.54,218.04c0-0.1,0.02-0.2,0.03-0.29c-0.24-0.53-0.24-1.17-0.02-1.71c-0.04-0.15-0.07-0.31-0.07-0.47
	c-0.26-0.19-0.46-0.43-0.59-0.72c-0.33-0.17-0.58-0.44-0.74-0.76c-0.03-0.02-0.07-0.05-0.1-0.07c-0.09,0.01-0.18,0.02-0.28,0.02
	c-0.39,0-0.71-0.09-0.98-0.25c-0.27,0.13-0.56,0.21-0.85,0.21H40.9c-0.03,0-0.07-0.01-0.1-0.01c-0.27,0.22-0.61,0.36-1.04,0.38
	c-0.15,0.22-0.36,0.4-0.61,0.52c-0.12,0.37-0.34,0.69-0.67,0.92c0.02,0.29-0.02,0.57-0.12,0.84c-0.01,0.1-0.02,0.2-0.04,0.29
	c0.03,0.22,0.04,0.45,0.01,0.68c0.05,0.21,0.07,0.42,0.06,0.64c0.05,0.15,0.08,0.31,0.09,0.47c0.1,0.15,0.2,0.3,0.32,0.44
	c0.24,0.12,0.43,0.29,0.59,0.5c0.26,0.09,0.48,0.24,0.66,0.42c0.44,0.19,0.92,0.3,1.43,0.3c0.49,0,0.95-0.11,1.37-0.29
	c0.07-0.07,0.15-0.12,0.23-0.18c0.18-0.22,0.41-0.39,0.7-0.5c0,0,0,0,0,0c0.1-0.12,0.22-0.24,0.36-0.34c0.07-0.1,0.14-0.2,0.23-0.29
	c0.04-0.08,0.09-0.16,0.15-0.24c0.01-0.03,0.02-0.07,0.03-0.1c0-0.03,0.01-0.06,0.01-0.09C44.56,218.26,44.55,218.15,44.54,218.04
	L44.54,218.04L44.54,218.04z"/>
<rect x="40.85" y="219.65" class="st0" width="1.3" height="5.44"/>
<path class="st0" d="M60.44,225.08c0-0.1,0.02-0.2,0.03-0.29c-0.24-0.53-0.24-1.17-0.02-1.71c-0.04-0.15-0.07-0.31-0.07-0.47
	c-0.26-0.19-0.46-0.43-0.59-0.72c-0.33-0.17-0.58-0.44-0.74-0.76c-0.03-0.02-0.07-0.05-0.1-0.07c-0.09,0.01-0.18,0.02-0.28,0.02
	c-0.39,0-0.71-0.09-0.98-0.25c-0.27,0.13-0.56,0.21-0.85,0.21h-0.04c-0.03,0-0.07-0.01-0.1-0.01c-0.27,0.22-0.61,0.36-1.04,0.38
	c-0.15,0.22-0.36,0.4-0.61,0.52c-0.12,0.37-0.34,0.69-0.67,0.92c0.02,0.29-0.02,0.58-0.12,0.84c-0.01,0.1-0.02,0.2-0.04,0.29
	c0.03,0.22,0.04,0.45,0.01,0.68c0.05,0.21,0.07,0.42,0.06,0.64c0.05,0.15,0.08,0.31,0.09,0.47c0.1,0.15,0.2,0.3,0.32,0.44
	c0.24,0.12,0.43,0.29,0.59,0.5c0.26,0.09,0.48,0.24,0.66,0.42c0.44,0.19,0.92,0.3,1.43,0.3c0.49,0,0.95-0.11,1.37-0.29
	c0.07-0.07,0.15-0.12,0.23-0.18c0.18-0.22,0.41-0.39,0.7-0.5c0,0,0,0,0,0c0.1-0.12,0.22-0.24,0.36-0.34c0.07-0.1,0.14-0.2,0.23-0.29
	c0.04-0.08,0.09-0.16,0.15-0.24c0.01-0.03,0.02-0.07,0.03-0.1c0-0.03,0.01-0.06,0.01-0.09C60.46,225.3,60.45,225.19,60.44,225.08
	L60.44,225.08L60.44,225.08z"/>
<rect x="56.75" y="226.68" class="st0" width="1.3" height="5.44"/>
<path class="st0" d="M43.93,238.95c0-0.1,0.02-0.2,0.03-0.29c-0.24-0.53-0.24-1.17-0.02-1.71c-0.04-0.15-0.07-0.31-0.07-0.47
	c-0.26-0.19-0.46-0.43-0.59-0.72c-0.33-0.17-0.58-0.44-0.74-0.76c-0.03-0.02-0.07-0.05-0.1-0.07c-0.09,0.01-0.18,0.02-0.28,0.02
	c-0.39,0-0.71-0.09-0.98-0.25c-0.27,0.13-0.56,0.21-0.85,0.21h-0.04c-0.03,0-0.07-0.01-0.1-0.01c-0.27,0.22-0.61,0.36-1.04,0.38
	c-0.15,0.22-0.36,0.4-0.61,0.52c-0.12,0.37-0.34,0.69-0.67,0.92c0.02,0.29-0.02,0.57-0.12,0.84c-0.01,0.1-0.02,0.2-0.04,0.29
	c0.03,0.22,0.04,0.45,0.01,0.68c0.05,0.21,0.07,0.42,0.06,0.64c0.05,0.15,0.08,0.31,0.09,0.47c0.1,0.15,0.2,0.3,0.32,0.44
	c0.24,0.12,0.43,0.29,0.59,0.5c0.26,0.09,0.48,0.24,0.66,0.42c0.44,0.19,0.92,0.3,1.43,0.3c0.49,0,0.95-0.11,1.37-0.29
	c0.07-0.07,0.15-0.12,0.23-0.18c0.18-0.22,0.41-0.39,0.7-0.5c0,0,0,0,0,0c0.1-0.12,0.22-0.24,0.36-0.34c0.07-0.1,0.14-0.2,0.23-0.29
	c0.04-0.08,0.09-0.16,0.15-0.24c0.01-0.03,0.02-0.07,0.03-0.1c0-0.03,0.01-0.06,0.01-0.09C43.95,239.17,43.94,239.06,43.93,238.95
	L43.93,238.95L43.93,238.95z"/>
<rect x="40.24" y="240.55" class="st0" width="1.3" height="5.44"/>
<path class="st0" d="M59.83,249.77c0-0.1,0.02-0.2,0.03-0.29c-0.24-0.53-0.24-1.17-0.02-1.71c-0.04-0.15-0.07-0.31-0.07-0.47
	c-0.26-0.19-0.46-0.43-0.59-0.72c-0.33-0.17-0.58-0.44-0.74-0.76c-0.03-0.02-0.07-0.05-0.1-0.07c-0.09,0.01-0.18,0.02-0.28,0.02
	c-0.39,0-0.71-0.09-0.98-0.25c-0.27,0.13-0.56,0.21-0.85,0.21h-0.04c-0.03,0-0.07-0.01-0.1-0.01c-0.27,0.22-0.61,0.36-1.04,0.38
	c-0.15,0.22-0.36,0.4-0.61,0.52c-0.12,0.37-0.34,0.69-0.67,0.92c0.02,0.29-0.02,0.57-0.12,0.84c-0.01,0.1-0.02,0.2-0.04,0.29
	c0.03,0.22,0.04,0.45,0.01,0.68c0.05,0.21,0.07,0.42,0.06,0.64c0.05,0.15,0.08,0.31,0.09,0.47c0.1,0.15,0.2,0.3,0.32,0.44
	c0.24,0.12,0.43,0.29,0.59,0.5c0.26,0.09,0.48,0.24,0.66,0.42c0.44,0.19,0.92,0.3,1.43,0.3c0.49,0,0.95-0.11,1.37-0.29
	c0.07-0.07,0.15-0.12,0.23-0.18c0.18-0.22,0.41-0.39,0.7-0.5c0,0,0,0,0,0c0.1-0.12,0.22-0.24,0.36-0.34c0.07-0.1,0.14-0.2,0.23-0.29
	c0.04-0.08,0.09-0.16,0.15-0.24c0.01-0.03,0.02-0.07,0.03-0.1c0-0.03,0.01-0.06,0.01-0.09C59.85,249.99,59.84,249.88,59.83,249.77
	L59.83,249.77L59.83,249.77z"/>
<rect x="56.14" y="251.38" class="st0" width="1.3" height="5.44"/>
<path class="st0" d="M29.26,254.26c0-0.1,0.02-0.2,0.03-0.29c-0.24-0.53-0.24-1.17-0.02-1.71c-0.04-0.15-0.07-0.31-0.07-0.47
	c-0.26-0.19-0.46-0.43-0.59-0.72c-0.33-0.17-0.58-0.44-0.74-0.76c-0.03-0.02-0.07-0.05-0.1-0.07c-0.09,0.01-0.18,0.02-0.28,0.02
	c-0.39,0-0.71-0.09-0.98-0.25c-0.27,0.13-0.56,0.21-0.85,0.21h-0.04c-0.03,0-0.07-0.01-0.1-0.01c-0.27,0.22-0.61,0.36-1.04,0.38
	c-0.15,0.22-0.36,0.4-0.61,0.52c-0.12,0.37-0.34,0.69-0.67,0.92c0.02,0.29-0.02,0.57-0.12,0.84c-0.01,0.1-0.02,0.2-0.04,0.29
	c0.03,0.22,0.04,0.45,0.01,0.68c0.05,0.21,0.07,0.42,0.06,0.64c0.05,0.15,0.08,0.31,0.09,0.47c0.1,0.15,0.2,0.3,0.32,0.44
	c0.24,0.12,0.43,0.29,0.59,0.5c0.26,0.09,0.48,0.24,0.66,0.42c0.44,0.19,0.92,0.3,1.43,0.3c0.49,0,0.95-0.11,1.37-0.29
	c0.07-0.07,0.15-0.12,0.23-0.18c0.18-0.22,0.41-0.39,0.7-0.5c0,0,0,0,0,0c0.1-0.12,0.22-0.24,0.36-0.34c0.07-0.1,0.14-0.2,0.23-0.29
	c0.04-0.08,0.09-0.16,0.15-0.24c0.01-0.03,0.02-0.07,0.03-0.1c0-0.03,0.01-0.06,0.01-0.09C29.28,254.48,29.27,254.37,29.26,254.26
	L29.26,254.26L29.26,254.26z"/>
<rect x="25.57" y="255.87" class="st0" width="1.3" height="5.44"/>
<path class="st0" d="M31.7,233.3c0-0.1,0.02-0.2,0.03-0.29c-0.24-0.53-0.24-1.17-0.02-1.71c-0.04-0.15-0.07-0.31-0.07-0.47
	c-0.26-0.19-0.46-0.43-0.59-0.72c-0.33-0.17-0.58-0.44-0.74-0.76c-0.03-0.02-0.07-0.05-0.1-0.07c-0.09,0.01-0.18,0.02-0.28,0.02
	c-0.39,0-0.71-0.09-0.98-0.25c-0.27,0.13-0.56,0.21-0.85,0.21h-0.04c-0.03,0-0.07-0.01-0.1-0.01c-0.27,0.22-0.61,0.36-1.04,0.38
	c-0.15,0.22-0.36,0.4-0.61,0.52c-0.12,0.37-0.34,0.69-0.67,0.92c0.02,0.29-0.02,0.58-0.12,0.84c-0.01,0.1-0.02,0.2-0.04,0.29
	c0.03,0.22,0.04,0.45,0.01,0.68c0.05,0.21,0.07,0.42,0.06,0.64c0.05,0.15,0.08,0.31,0.09,0.47c0.1,0.15,0.2,0.3,0.32,0.44
	c0.24,0.12,0.43,0.29,0.59,0.5c0.26,0.09,0.48,0.24,0.66,0.42c0.44,0.19,0.92,0.3,1.43,0.3c0.49,0,0.95-0.11,1.37-0.29
	c0.07-0.07,0.15-0.12,0.23-0.18c0.18-0.22,0.41-0.39,0.7-0.5c0,0,0,0,0,0c0.1-0.12,0.22-0.24,0.36-0.34c0.07-0.1,0.14-0.2,0.23-0.29
	c0.04-0.08,0.09-0.16,0.15-0.24c0.01-0.03,0.02-0.07,0.03-0.1c0-0.03,0.01-0.06,0.01-0.09C31.72,233.52,31.71,233.42,31.7,233.3
	L31.7,233.3L31.7,233.3z"/>
<rect x="28.01" y="234.91" class="st0" width="1.3" height="5.44"/>
<path class="st0" d="M78.55,275.82c0-0.1,0.02-0.2,0.03-0.29c-0.24-0.53-0.24-1.17-0.02-1.71c-0.04-0.15-0.07-0.31-0.07-0.47
	c-0.26-0.19-0.46-0.43-0.59-0.72c-0.33-0.17-0.58-0.44-0.74-0.76c-0.03-0.02-0.07-0.05-0.1-0.07c-0.09,0.01-0.18,0.02-0.28,0.02
	c-0.39,0-0.71-0.09-0.98-0.25c-0.27,0.13-0.56,0.21-0.85,0.21h-0.04c-0.03,0-0.07-0.01-0.1-0.01c-0.27,0.22-0.61,0.36-1.04,0.38
	c-0.15,0.22-0.36,0.4-0.61,0.52c-0.12,0.37-0.34,0.69-0.67,0.92c0.02,0.29-0.02,0.57-0.12,0.84c-0.01,0.1-0.02,0.2-0.04,0.29
	c0.03,0.22,0.04,0.45,0.01,0.68c0.05,0.21,0.07,0.42,0.06,0.64c0.05,0.15,0.08,0.31,0.09,0.47c0.1,0.15,0.2,0.3,0.32,0.44
	c0.24,0.12,0.43,0.29,0.59,0.5c0.26,0.09,0.48,0.24,0.66,0.42c0.44,0.19,0.92,0.3,1.43,0.3c0.49,0,0.95-0.11,1.37-0.29
	c0.07-0.07,0.15-0.12,0.23-0.18c0.18-0.22,0.41-0.39,0.7-0.5c0,0,0,0,0,0c0.1-0.12,0.22-0.24,0.36-0.34c0.07-0.1,0.14-0.2,0.23-0.29
	c0.04-0.08,0.09-0.16,0.15-0.24c0.01-0.03,0.02-0.07,0.03-0.1c0-0.03,0.01-0.06,0.01-0.09C78.57,276.04,78.55,275.93,78.55,275.82
	L78.55,275.82L78.55,275.82z"/>
<rect x="74.85" y="277.43" class="st0" width="1.3" height="5.44"/>
<path class="st0" d="M57.53,273.48c0-0.1,0.02-0.2,0.03-0.29c-0.24-0.53-0.24-1.17-0.02-1.71c-0.04-0.15-0.07-0.31-0.07-0.47
	c-0.26-0.19-0.46-0.43-0.59-0.72c-0.33-0.17-0.58-0.44-0.74-0.76c-0.03-0.02-0.07-0.05-0.1-0.07c-0.09,0.01-0.18,0.02-0.28,0.02
	c-0.39,0-0.71-0.09-0.98-0.25c-0.27,0.13-0.56,0.21-0.85,0.21h-0.04c-0.03,0-0.07-0.01-0.1-0.01c-0.27,0.22-0.61,0.36-1.04,0.38
	c-0.15,0.22-0.36,0.4-0.61,0.52c-0.12,0.37-0.34,0.69-0.67,0.92c0.02,0.29-0.02,0.58-0.12,0.84c-0.01,0.1-0.02,0.2-0.04,0.29
	c0.03,0.22,0.04,0.45,0.01,0.68c0.05,0.21,0.07,0.42,0.06,0.64c0.05,0.15,0.08,0.31,0.09,0.47c0.1,0.15,0.2,0.3,0.32,0.44
	c0.24,0.12,0.43,0.29,0.59,0.5c0.26,0.09,0.48,0.24,0.66,0.42c0.44,0.19,0.92,0.3,1.43,0.3c0.49,0,0.95-0.11,1.37-0.29
	c0.07-0.07,0.15-0.12,0.23-0.18c0.18-0.22,0.41-0.39,0.7-0.5c0,0,0,0,0,0c0.1-0.12,0.22-0.24,0.36-0.34c0.07-0.1,0.14-0.2,0.23-0.29
	c0.04-0.08,0.09-0.16,0.15-0.24c0.01-0.03,0.02-0.07,0.03-0.1c0-0.03,0.01-0.06,0.01-0.09C57.55,273.69,57.54,273.59,57.53,273.48
	L57.53,273.48L57.53,273.48z"/>
<rect x="53.84" y="275.08" class="st0" width="1.3" height="5.44"/>
<path class="st0" d="M42.1,262.83c0-0.1,0.02-0.2,0.03-0.29c-0.24-0.53-0.24-1.17-0.02-1.71c-0.04-0.15-0.07-0.31-0.07-0.47
	c-0.26-0.19-0.46-0.43-0.59-0.72c-0.33-0.17-0.58-0.44-0.74-0.76c-0.03-0.02-0.07-0.05-0.1-0.07c-0.09,0.01-0.18,0.02-0.28,0.02
	c-0.39,0-0.71-0.09-0.98-0.25c-0.27,0.13-0.56,0.21-0.85,0.21h-0.04c-0.03,0-0.07-0.01-0.1-0.01c-0.27,0.22-0.61,0.36-1.04,0.38
	c-0.15,0.22-0.36,0.4-0.61,0.52c-0.12,0.37-0.34,0.69-0.67,0.92c0.02,0.29-0.02,0.57-0.12,0.84c-0.01,0.1-0.02,0.2-0.04,0.29
	c0.03,0.22,0.04,0.45,0.01,0.68c0.05,0.21,0.07,0.42,0.06,0.64c0.05,0.15,0.08,0.31,0.09,0.47c0.1,0.15,0.2,0.3,0.32,0.44
	c0.24,0.12,0.43,0.29,0.59,0.5c0.26,0.09,0.48,0.24,0.66,0.42c0.44,0.19,0.92,0.3,1.43,0.3c0.49,0,0.95-0.11,1.37-0.29
	c0.07-0.07,0.15-0.12,0.23-0.18c0.18-0.22,0.41-0.39,0.7-0.5c0,0,0,0,0,0c0.1-0.12,0.22-0.24,0.36-0.34c0.07-0.1,0.14-0.2,0.23-0.29
	c0.04-0.08,0.09-0.16,0.15-0.24c0.01-0.03,0.02-0.07,0.03-0.1c0-0.03,0.01-0.06,0.01-0.09C42.12,263.05,42.11,262.95,42.1,262.83
	L42.1,262.83L42.1,262.83z"/>
<rect x="38.4" y="264.44" class="st0" width="1.3" height="5.44"/>
<path class="st0" d="M77.93,254.47c0-0.1,0.02-0.2,0.03-0.29c-0.24-0.53-0.24-1.17-0.02-1.71c-0.04-0.15-0.07-0.31-0.07-0.47
	c-0.26-0.19-0.46-0.43-0.59-0.72c-0.33-0.17-0.58-0.44-0.74-0.76c-0.03-0.02-0.07-0.05-0.1-0.07c-0.09,0.01-0.18,0.02-0.28,0.02
	c-0.39,0-0.71-0.09-0.98-0.25c-0.27,0.13-0.56,0.21-0.85,0.21H74.3c-0.03,0-0.07-0.01-0.1-0.01c-0.27,0.22-0.61,0.36-1.04,0.38
	c-0.15,0.22-0.36,0.4-0.61,0.52c-0.12,0.37-0.34,0.69-0.67,0.92c0.02,0.29-0.02,0.58-0.12,0.84c-0.01,0.1-0.02,0.2-0.04,0.29
	c0.03,0.22,0.04,0.45,0.01,0.68c0.05,0.21,0.07,0.42,0.06,0.64c0.05,0.15,0.08,0.31,0.09,0.47c0.1,0.15,0.2,0.3,0.32,0.44
	c0.24,0.12,0.43,0.29,0.59,0.5c0.26,0.09,0.48,0.24,0.66,0.42c0.44,0.19,0.92,0.3,1.43,0.3c0.49,0,0.95-0.11,1.37-0.29
	c0.07-0.07,0.15-0.12,0.23-0.18c0.18-0.22,0.41-0.39,0.7-0.5c0,0,0,0,0,0c0.1-0.12,0.22-0.24,0.36-0.34c0.07-0.1,0.14-0.2,0.23-0.29
	c0.04-0.08,0.09-0.16,0.15-0.24c0.01-0.03,0.02-0.07,0.03-0.1c0-0.03,0.01-0.06,0.01-0.09C77.96,254.69,77.94,254.58,77.93,254.47
	L77.93,254.47L77.93,254.47z"/>
<rect x="74.24" y="256.07" class="st0" width="1.3" height="5.44"/>
<path class="st0" d="M29.95,283.81c0-0.1,0.02-0.2,0.03-0.29c-0.24-0.53-0.24-1.17-0.02-1.71c-0.04-0.15-0.07-0.31-0.07-0.47
	c-0.26-0.19-0.46-0.43-0.59-0.72c-0.33-0.17-0.58-0.44-0.74-0.76c-0.03-0.02-0.07-0.05-0.1-0.07c-0.09,0.01-0.18,0.02-0.28,0.02
	c-0.39,0-0.71-0.09-0.98-0.25c-0.27,0.13-0.56,0.21-0.85,0.21h-0.04c-0.03,0-0.07-0.01-0.1-0.01c-0.27,0.22-0.61,0.36-1.04,0.38
	c-0.15,0.22-0.36,0.4-0.61,0.52c-0.12,0.37-0.34,0.69-0.67,0.92c0.02,0.29-0.02,0.58-0.12,0.84c-0.01,0.1-0.02,0.2-0.04,0.29
	c0.03,0.22,0.04,0.45,0.01,0.68c0.05,0.21,0.07,0.42,0.06,0.64c0.05,0.15,0.08,0.31,0.09,0.47c0.1,0.15,0.2,0.3,0.32,0.44
	c0.24,0.12,0.43,0.29,0.59,0.5c0.26,0.09,0.48,0.24,0.66,0.42c0.44,0.19,0.92,0.3,1.43,0.3c0.49,0,0.95-0.11,1.37-0.29
	c0.07-0.07,0.15-0.12,0.23-0.18c0.18-0.22,0.41-0.39,0.7-0.5c0,0,0,0,0,0c0.1-0.12,0.22-0.24,0.36-0.34c0.07-0.1,0.14-0.2,0.23-0.29
	c0.04-0.08,0.09-0.16,0.15-0.24c0.01-0.03,0.02-0.07,0.03-0.1c0-0.03,0.01-0.06,0.01-0.09C29.97,284.03,29.95,283.92,29.95,283.81
	L29.95,283.81L29.95,283.81z"/>
<rect x="26.25" y="285.42" class="st0" width="1.3" height="5.44"/>
<path class="st0" d="M60.44,300.87c0-0.1,0.02-0.2,0.03-0.29c-0.24-0.53-0.24-1.17-0.02-1.71c-0.04-0.15-0.07-0.31-0.07-0.47
	c-0.26-0.19-0.46-0.43-0.59-0.72c-0.33-0.17-0.58-0.44-0.74-0.76c-0.03-0.02-0.07-0.05-0.1-0.07c-0.09,0.01-0.18,0.02-0.28,0.02
	c-0.39,0-0.71-0.09-0.98-0.25c-0.27,0.13-0.56,0.21-0.85,0.21h-0.04c-0.03,0-0.07-0.01-0.1-0.01c-0.27,0.22-0.61,0.36-1.04,0.38
	c-0.15,0.22-0.36,0.4-0.61,0.52c-0.12,0.37-0.34,0.69-0.67,0.92c0.02,0.29-0.02,0.57-0.12,0.84c-0.01,0.1-0.02,0.2-0.04,0.29
	c0.03,0.22,0.04,0.45,0.01,0.68c0.05,0.21,0.07,0.42,0.06,0.64c0.05,0.15,0.08,0.31,0.09,0.47c0.1,0.15,0.2,0.3,0.32,0.44
	c0.24,0.12,0.43,0.29,0.59,0.5c0.26,0.09,0.48,0.24,0.66,0.42c0.44,0.19,0.92,0.3,1.43,0.3c0.49,0,0.95-0.11,1.37-0.29
	c0.07-0.07,0.15-0.12,0.23-0.18c0.18-0.22,0.41-0.39,0.7-0.5c0,0,0,0,0,0c0.1-0.12,0.22-0.24,0.36-0.34c0.07-0.1,0.14-0.2,0.23-0.29
	c0.04-0.08,0.09-0.16,0.15-0.24c0.01-0.03,0.02-0.07,0.03-0.1c0-0.03,0.01-0.06,0.01-0.09C60.46,301.08,60.45,300.98,60.44,300.87
	L60.44,300.87L60.44,300.87z"/>
<rect x="56.75" y="302.47" class="st0" width="1.3" height="5.44"/>
<path class="st0" d="M79.23,301.08c0-0.1,0.02-0.2,0.03-0.29c-0.24-0.53-0.24-1.17-0.02-1.71c-0.04-0.15-0.07-0.31-0.07-0.47
	c-0.26-0.19-0.46-0.43-0.59-0.72c-0.33-0.17-0.58-0.44-0.74-0.76c-0.03-0.02-0.07-0.05-0.1-0.07c-0.09,0.01-0.18,0.02-0.28,0.02
	c-0.39,0-0.71-0.09-0.98-0.25c-0.27,0.13-0.56,0.21-0.85,0.21H75.6c-0.03,0-0.07-0.01-0.1-0.01c-0.27,0.22-0.61,0.36-1.04,0.38
	c-0.15,0.22-0.36,0.4-0.61,0.52c-0.12,0.37-0.34,0.69-0.67,0.92c0.02,0.29-0.02,0.58-0.12,0.84c-0.01,0.1-0.02,0.2-0.04,0.29
	c0.03,0.22,0.04,0.45,0.01,0.68c0.05,0.21,0.07,0.42,0.06,0.64c0.05,0.15,0.08,0.31,0.09,0.47c0.1,0.15,0.2,0.3,0.32,0.44
	c0.24,0.12,0.43,0.29,0.59,0.5c0.26,0.09,0.48,0.24,0.66,0.42c0.44,0.19,0.92,0.3,1.43,0.3c0.49,0,0.95-0.11,1.37-0.29
	c0.07-0.07,0.15-0.12,0.23-0.18c0.18-0.22,0.41-0.39,0.7-0.5c0,0,0,0,0,0c0.1-0.12,0.22-0.24,0.36-0.34c0.07-0.1,0.14-0.2,0.23-0.29
	c0.04-0.08,0.09-0.16,0.15-0.24c0.01-0.03,0.02-0.07,0.03-0.1c0-0.03,0.01-0.06,0.01-0.09C79.25,301.29,79.24,301.19,79.23,301.08
	L79.23,301.08L79.23,301.08z"/>
<rect x="75.54" y="302.68" class="st0" width="1.3" height="5.44"/>
</svg>
