<svg id="Layer_1" data-name="Layer 1" xmlns="http://www.w3.org/2000/svg" viewBox="0 0 111.72 173.18"><defs><style>.cls-1{fill:#0e1513;}.cls-2{fill:#3bc98c;}</style></defs><title>mb-final</title><path class="cls-1" d="M414.14,664.93c.33,6.69.77,13.39.95,20.09s-1.19,7.48-7.57,6.08c-1.35-.3-2.92.19-4.36.47-2.11.4-4.18,1.26-6.29,1.35-5.15.22-10.32.18-15.48.09a8.88,8.88,0,0,1-4.45-.91c-5.08-3.34-10.76-3.43-16.47-3.52-2.27,0-4.53-.07-6.8,0-2.56.08-3.79-1.22-3.55-3.63.61-5.94,1.2-11.88,2.15-17.76a22.35,22.35,0,0,0-.27-10.12c-1-3.68-1-7.69-1.12-11.57-.24-9.84.72-19.38,5.11-28.56,1.95-4.08,1.8-9.17,2.5-13.82a41.81,41.81,0,0,0-.5-14,17.92,17.92,0,0,1,1.12-9.21,29.53,29.53,0,0,0,1.41-17.5c-.88-4,.07-8.58.74-12.81.42-2.62,1.77-5.12,2.84-7.61,2.2-5.09,2.82-10.16-.13-15.12-1.39-2.35-.24-3.69,1.41-5a2.83,2.83,0,0,1,1.17-.67c6.05-1,12.24-2.69,17.94,1,5.08,3.25,10.54,3.34,16.21,3a86.78,86.78,0,0,1,10.81-.28c4.49.27,6.36,3.28,5.5,7.74a80.23,80.23,0,0,0-1.22,9.14c-.2,2.78.92,3.75,3.71,3.7,6.92-.1,9.1,1.58,10.34,8.36.6,3.29.8,6.65,1.24,10s1.32,4,4.82,4c5.7-.05,11.41,0,17.1.26a11.62,11.62,0,0,1,5.07,1.64c3.67,2.13,4.93,6.1,2.48,9.51-3.83,5.35-8.17,10.34-12.43,15.37-2.28,2.68-4.83,5.14-7.27,7.68-8.26,8.61-16.46,17.29-24.83,25.79-3,3.06-2.74,6.88-2.76,10.44,0,6.77.62,13.54.94,20.31.09,2.08,0,4.16,0,6.24Zm-57.58-2.46c-.31,1.65-.68,3.32-.93,5-.71,4.74-1.44,9.47-2,14.23-.26,2.2.89,3.32,3.21,3.33,3.44,0,6.88.36,10.32.27a18,18,0,0,1,9.52,2.63,12.71,12.71,0,0,0,5.85,1.64c5.33.09,10.67-.17,16-.44,1.22-.06,2.38-.85,3.61-1a28.22,28.22,0,0,1,7.06-.6c1.94.22,2.53-.38,2.61-2s.08-3.27,0-4.9c-.34-10.22-.68-20.45-1.09-30.67-.07-1.8-.58-3.59-.62-5.39-.2-7.81-2.13-16.15,6.18-21.54a3.09,3.09,0,0,0,.56-.58c3.78-4.12,7.53-8.28,11.35-12.36,7.31-7.78,14.71-15.48,22-23.3,2.39-2.58,4.57-5.37,6.7-8.18s1.45-4.87-1.72-6.22a6.63,6.63,0,0,0-2.35-.56c-5.69-.13-11.37-.39-17.05-.24-5.47.13-7.71-1.65-8.16-7-.25-3-.52-6-1.06-8.88-.92-5-2.6-6.22-7.58-6-4.39.22-6.43-1.28-6.58-5.6a91.5,91.5,0,0,1,.68-11.07c.31-3.67-.42-4.69-4-4.66-3,0-5.93.28-8.89.53-5.78.51-11.47.22-16.56-2.87a16.17,16.17,0,0,0-12.5-1.88c-2.91.64-3.44,1.28-2.38,4a17.27,17.27,0,0,1,.2,12,60,60,0,0,1-2.48,6.32c-2.44,5.34-3.54,10.93-2.34,16.67A30.29,30.29,0,0,1,362,582.17c-.78,1.77-.54,4.06-.52,6.11.06,5,.63,9.93.32,14.85-.5,7.78-1.61,15.49-5.43,22.53a10.82,10.82,0,0,0-1.15,3.61c-1.14,8-1.75,16-.36,24.08C355.38,656.36,356,659.36,356.56,662.47Z" transform="translate(-350.09 -519.9)"/><path class="cls-2" d="M356.56,662.47c-.58-3.11-1.18-6.11-1.7-9.12-1.39-8.05-.78-16.08.36-24.08a10.82,10.82,0,0,1,1.15-3.61c3.82-7,4.93-14.75,5.43-22.53.31-4.92-.26-9.89-.32-14.85,0-2-.26-4.34.52-6.11a30.29,30.29,0,0,0,2.09-19.09c-1.2-5.74-.1-11.33,2.34-16.67a60,60,0,0,0,2.48-6.32,17.27,17.27,0,0,0-.2-12c-1.06-2.72-.53-3.36,2.38-4a16.17,16.17,0,0,1,12.5,1.88c5.09,3.09,10.78,3.38,16.56,2.87,3-.25,5.93-.5,8.89-.53,3.61,0,4.34,1,4,4.66a91.5,91.5,0,0,0-.68,11.07c.15,4.32,2.19,5.82,6.58,5.6,5-.23,6.66,1,7.58,6,.54,2.92.81,5.91,1.06,8.88.45,5.39,2.69,7.17,8.16,7,5.68-.15,11.36.11,17.05.24a6.63,6.63,0,0,1,2.35.56c3.17,1.35,3.81,3.48,1.72,6.22s-4.31,5.6-6.7,8.18c-7.27,7.82-14.67,15.52-22,23.3-3.82,4.08-7.57,8.24-11.35,12.36a3.09,3.09,0,0,1-.56.58c-8.31,5.39-6.38,13.73-6.18,21.54,0,1.8.55,3.59.62,5.39.41,10.22.75,20.45,1.09,30.67.06,1.63.06,3.27,0,4.9s-.67,2.22-2.61,2a28.22,28.22,0,0,0-7.06.6c-1.23.18-2.39,1-3.61,1-5.33.27-10.67.53-16,.44a12.71,12.71,0,0,1-5.85-1.64,18,18,0,0,0-9.52-2.63c-3.44.09-6.88-.25-10.32-.27-2.32,0-3.47-1.13-3.21-3.33.56-4.76,1.29-9.49,2-14.23C355.88,665.79,356.25,664.12,356.56,662.47Z" transform="translate(-350.09 -519.9)"/></svg>