<svg id="Layer_1" data-name="Layer 1" xmlns="http://www.w3.org/2000/svg" viewBox="0 0 159.39 125.63"><defs><style>.cls-1{fill:#05120c;}.cls-2{fill:#23362e;}.cls-3{fill:#192922;}.cls-4{fill:#24362e;}.cls-5{fill:#15241e;}.cls-6{fill:#14241d;}.cls-7{fill:#153427;}.cls-8{fill:#122b20;}.cls-9{fill:#081b12;}.cls-10{fill:#3bca8d;}.cls-11{fill:#061710;}.cls-12{fill:#298e63;}</style></defs><title>nb-final</title><path class="cls-1" d="M366.32,623.78l-.75-.9a9.81,9.81,0,0,0-1.23-2.26c-4.5-4.68-10.31-6.58-16.53-7.12-5.47-.47-11-.48-16.49-.55-2.68,0-5.36.22-8,.35-1.87-.34-4-.26-4.57-2.74l-1.35-9,.28-1.65c.26-.23.62-.41.74-.7,1.41-3.32,2.64-6.73,5.57-9.14.32-.27.28-1,.41-1.49l2.27-2.28,2.05-2,.1-.23.24,0,1.29-.88,5.17-3.5,4.63-2.24,1.3-.5,1.42-.54,1.32-.54,1.4-.6,1.27-.51,2.53-1,6.05-1.88,1.55-.51,8.72-5.2,3.2-2.24,4.38-3.2c3.39-.64,5.65-2.83,7.56-5.52l0,0c3.76-1.49,7.52-3,11.28-4.48.12-.05.16-.31.23-.47l1.06-.16c.79,1.26,1.53,1.31,2.19-.11a11.13,11.13,0,0,1,9.67,3.76c2.29,2.53,4.77,4.62,8.25,5.2h1.66l5.7-2.69c3.36-1.08,6.7-1.49,10,.09,2.13,2.82,1.68,6.08,1.59,9.27l.17,1.08a17.6,17.6,0,0,0,7,9.08c1,2.9,4,4.34,6.07,2.92l3.64,1.29,1.47.71,5.64,3.88.93,1.16.22.09V586l1.3,1.86,1.33,1.31,1.75,1.36,2,1.4,1.22.77a.28.28,0,0,1,.42.21l2.59,1.3,3.4,1.85.65.45,3.15,2.79c.57,3.74-.66,7.11-2.12,10.43a.32.32,0,0,1-.27.4L471.15,613a.34.34,0,0,1-.24.43l-.89,1.09-6.18,9.8-.83,1.22-.82,1.49-.81,1.24-1.36,2-1.95,2.77-.74,1-3.57,6.1c-.3.5-.59,1-.88,1.51l-7.23,12.74-1.2,1.44a5.24,5.24,0,0,0-3.73,4.5l-7.6,7.5c-.49.18-1,.35-1.46.57-4.47,2.07-8.87,4.31-13.42,6.15-1.75.71-3.86.51-5.8.72a11.24,11.24,0,0,1-9.19-2.85c-2.42-2.07-5.46-3.42-8.23-5.09-2.39-1.28-4.34-.56-6,1.37l-.71.34c-4.41,1.15-8.79,1.56-13.05-.62l-1-1-.87-1.28c-.28-.6-.56-1.21-.83-1.81s-.38-1-.56-1.47l-.3-1.09q-.13-7-.26-14a3.74,3.74,0,0,1-.12-.45c0-.06.1-.12.16-.18,1-2.88,2.07-5.75.55-8.78l-.35-2.18q-.29-3.24-.56-6.5l1.71,0,1.21,1.37.35.81.51,1.11.21,1c.17,2.92.33,5.83.49,8.75l-.17,4.4-.12,9.77c-1.61,1-1.28,2.13-.25,3.32.39,2.58,1.51,4.62,4.14,5.51l1.11.45,4.37,0,1.64-.49,5.95-1.75,4.35,0,6.52,3.82,2,1.28,1.82,1.54,1.11.44,1.06.12,6,1c.78.32,1.61,1,2.33.91,8.12-1.18,14.26-6.11,19.41-11.82,5.36-5.95,10.79-12.12,13.55-20,.15-.42.53-.74.72-1.14,1.24-2.57,2.45-5.15,3.67-7.73l-.1-1.23a.73.73,0,0,1,.09-.38l1-1.25a.78.78,0,0,1,.08-.39H457c1.9-1.07,3.49-2.32,2.75-4.89l-.1-.62h0l1.06-1.73,2.28-3.65,1-1.22a1,1,0,0,1,.1-.4l1-1.75.08-1c.54-.55,2.07-3.33,2.32-3.64l2-1.81,2.76-3.81c2,.22,1.57-1.57,1.87-2.59.06-.2-1.22-.8-1.89-1.21l-1.12-.53-3.51-2.52-6.79-4-2.09-1.67L457,590.53,455.85,589l-1.1-1.56L453,585.79l-3.12-1.23-1.11-.45-2.15-.64-3-1.42L438,579.7a.78.78,0,0,0-.35-.18l-1.84-1.42a.92.92,0,0,0-.35-.19l-1.67-1.63-1.25-1.45L431.06,573l-1.23-2-.6-2.69-.4-1.12c-.06-.53-.11-1.06-.17-1.59l-.33-1.68-.66-4.33c-.22-1.76-1.46-1.54-2.68-1.38l-1.42.54q-2.06,1.5-4.13,3l-2.33,1.51a.8.8,0,0,0-.35.19l-1.1,0-1.08-.52a7.63,7.63,0,0,0-1.52-1.07c-2-.79-4.07-1.49-6.11-2.22l-3.78-3.24-2.74-2.2c-.55-.85-1.1-1.69-1.61,0a19.23,19.23,0,0,0-2.88-.55c-6.62-.26-11.94,3-17,6.62-4.45,3.21-8.53,7-13.27,9.71-4.32,2.43-9.32,3.63-14,5.49a15.62,15.62,0,0,0-2.89,2,.41.41,0,0,1-.37.2L342.78,580l-1.32.42a8.8,8.8,0,0,0-2.52.75c-3.6,2.39-7.17,4.83-10.66,7.38-4.91,3.59-7.67,8.31-7.23,14.58-3,.48-.81,2.57-.92,3.74-.2,2,2.44,3.75,4.21,3.31a19.43,19.43,0,0,0,3.17.53c6,.06,12,0,18,0a13.3,13.3,0,0,1,3.46.35c4.47,1.28,8.9,2.67,13.34,4l0,0,1.73,1.54,1.65,1.5,1.08,1.21,4,5.79-.41,1.39-2.12-.55-.46-.52Z" transform="translate(-317.13 -549.9)"/><path class="cls-1" d="M323.29,613.3c2.67-.13,5.35-.39,8-.35,5.5.07,11,.08,16.49.55,6.22.54,12,2.44,16.53,7.12a9.81,9.81,0,0,1,1.23,2.26c-3.9-4-8.36-7.16-14-8a77.94,77.94,0,0,0-7.81-.43Z" transform="translate(-317.13 -549.9)"/><path class="cls-1" d="M412.44,675.33c1.94-.21,4.05,0,5.8-.72,4.55-1.84,8.95-4.08,13.42-6.15.47-.22,1-.39,1.46-.57C427.3,673.36,420.59,676.34,412.44,675.33Z" transform="translate(-317.13 -549.9)"/><path class="cls-2" d="M445.65,654.45l7.23-12.74Z" transform="translate(-317.13 -549.9)"/><path class="cls-1" d="M392.3,550.22c-.07.16-.11.42-.23.47-3.76,1.51-7.52,3-11.28,4.48C384.1,552.31,387.79,550.3,392.3,550.22Z" transform="translate(-317.13 -549.9)"/><path class="cls-1" d="M324.37,588.54c-.13.51-.09,1.22-.41,1.49-2.93,2.41-4.16,5.82-5.57,9.14-.12.29-.48.47-.74.7C318.54,595.29,320.48,591.34,324.37,588.54Z" transform="translate(-317.13 -549.9)"/><path class="cls-1" d="M430.86,556.32c-3.33-1.58-6.67-1.17-10-.09,2.6-2.51,5.66-3.33,8.22-2C429.81,554.63,430.27,555.61,430.86,556.32Z" transform="translate(-317.13 -549.9)"/><path class="cls-3" d="M371.45,647.87q.12,7,.26,14Q371.58,654.86,371.45,647.87Z" transform="translate(-317.13 -549.9)"/><path class="cls-4" d="M473.34,609.76c1.46-3.32,2.69-6.69,2.12-10.43.37,1.18,1.3,2.53,1,3.49A54.4,54.4,0,0,1,473.34,609.76Z" transform="translate(-317.13 -549.9)"/><path class="cls-1" d="M375.25,668.48c4.26,2.18,8.64,1.77,13.05.62C383.5,671.69,378.55,671.46,375.25,668.48Z" transform="translate(-317.13 -549.9)"/><path class="cls-5" d="M445.71,578.67c-2.07,1.42-5.08,0-6.07-2.92Z" transform="translate(-317.13 -549.9)"/><path class="cls-6" d="M380.82,555.15c-1.91,2.69-4.17,4.88-7.56,5.52Z" transform="translate(-317.13 -549.9)"/><path class="cls-1" d="M372,638.46c1.52,3,.42,5.9-.55,8.78Q371.76,642.84,372,638.46Z" transform="translate(-317.13 -549.9)"/><path class="cls-1" d="M317.37,601.52l1.35,9C316.88,607.75,317,604.66,317.37,601.52Z" transform="translate(-317.13 -549.9)"/><path class="cls-1" d="M371.13,629.78l.56,6.5c-.54-2.52-1.09-5-1.63-7.57Z" transform="translate(-317.13 -549.9)"/><path class="cls-2" d="M453.76,640.2l3.57-6.1Z" transform="translate(-317.13 -549.9)"/><path class="cls-1" d="M440.72,660.39a5.24,5.24,0,0,1,3.73-4.5A5.57,5.57,0,0,1,440.72,660.39Z" transform="translate(-317.13 -549.9)"/><path class="cls-1" d="M389,668.76c1.67-1.93,3.62-2.65,6-1.37Z" transform="translate(-317.13 -549.9)"/><path class="cls-1" d="M368.24,626l2.12.55c.12-.43.27-.91.4-1.39l.89,1.79L370,628.13Z" transform="translate(-317.13 -549.9)"/><path class="cls-1" d="M370,628.13l1.65-1.16c.19,0,.22.4.41.42.17.37.28.76.44,1.13.05.53.29.69.34,1.22l-1.71,0-1.07-1.07Z" transform="translate(-317.13 -549.9)"/><path class="cls-7" d="M340.12,577.37l-4.63,2.24Z" transform="translate(-317.13 -549.9)"/><path class="cls-8" d="M368.88,563.87l-3.2,2.24Z" transform="translate(-317.13 -549.9)"/><path class="cls-2" d="M458.07,633.06l1.95-2.77Z" transform="translate(-317.13 -549.9)"/><path class="cls-4" d="M471.15,613l1.92-2.83Z" transform="translate(-317.13 -549.9)"/><path class="cls-7" d="M328.69,584.24l-2.05,2Z" transform="translate(-317.13 -549.9)"/><path class="cls-6" d="M468.26,594.24l-2.59-1.3Z" transform="translate(-317.13 -549.9)"/><path class="cls-1" d="M395.55,550c-.66,1.42-1.4,1.37-2.19.11Z" transform="translate(-317.13 -549.9)"/><path class="cls-7" d="M349.36,573.7l-2.53,1Z" transform="translate(-317.13 -549.9)"/><path class="cls-7" d="M366.32,623.78l1.46,1.72Z" transform="translate(-317.13 -549.9)"/><path class="cls-5" d="M458.9,587.89,457.6,586Z" transform="translate(-317.13 -549.9)"/><path class="cls-6" d="M462,590.56l-1.75-1.36Z" transform="translate(-317.13 -549.9)"/><path class="cls-6" d="M415.13,558.92h0Z" transform="translate(-317.13 -549.9)"/><path class="cls-5" d="M457.39,585.71l-.93-1.16Z" transform="translate(-317.13 -549.9)"/><path class="cls-7" d="M342.84,576.33l-1.42.54Z" transform="translate(-317.13 -549.9)"/><path class="cls-7" d="M345.56,575.19l-1.4.6Z" transform="translate(-317.13 -549.9)"/><path class="cls-2" d="M461.38,628.26l.81-1.24Z" transform="translate(-317.13 -549.9)"/><path class="cls-8" d="M357,571.31l-1.55.51Z" transform="translate(-317.13 -549.9)"/><path class="cls-5" d="M432.62,566.67l-.17-1.08Z" transform="translate(-317.13 -549.9)"/><path class="cls-5" d="M450.82,580.67l-1.47-.71Z" transform="translate(-317.13 -549.9)"/><path class="cls-2" d="M463,625.53l.83-1.22Z" transform="translate(-317.13 -549.9)"/><path class="cls-6" d="M465.25,592.73,464,592Z" transform="translate(-317.13 -549.9)"/><path class="cls-3" d="M372,662.94c.18.49.37,1,.56,1.47C372.38,663.92,372.19,663.43,372,662.94Z" transform="translate(-317.13 -549.9)"/><path class="cls-7" d="M330.32,583.11,329,584Z" transform="translate(-317.13 -549.9)"/><path class="cls-3" d="M373.4,666.22l.87,1.28Z" transform="translate(-317.13 -549.9)"/><path class="cls-4" d="M470,614.51l.89-1.09Z" transform="translate(-317.13 -549.9)"/><path class="cls-9" d="M472.31,596.54l-.65-.45Z" transform="translate(-317.13 -549.9)"/><path class="cls-10" d="M372.7,628.15l-.48-1.11c.69-2.76-2.07-7.13-5.48-8.7l-1-.16-1.65-1.5-1.73-1.54,0,0c-.81-.81-1.5-2.08-2.47-2.36-4.48-1.3-9-2.89-13.56-3.31-6.18-.57-12.45-.22-18.68-.14-2.63,0-4.09-1-4.47-3.64a5.24,5.24,0,0,0-.39-1.57c-1.84-3.89-.5-7.33,1.84-10.33a35.08,35.08,0,0,1,6.26-6c3.42-2.62,7.06-4.94,10.61-7.39l1.32-.41,5.62-2.39a.41.41,0,0,0,.37-.2,19.19,19.19,0,0,1,2.8-.94c11.5-2.12,20.41-8.92,29.14-16.06a26.74,26.74,0,0,1,11.34-5.5,9.28,9.28,0,0,1,8.93,2.42c2.77,2.53,6.15,4.38,9.26,6.53H414l1.66.11,1.09-.55a.8.8,0,0,1,.35-.19l2.33-1.51q2.07-1.49,4.13-3l1.42-.54c1.22-.16,2.46-.38,2.68,1.38s.2,3.31.31,5l.07,1c-.93,2.31.07,4,1.78,5.42l1.23,2,1.44,1.83,1.25,1.45,1.67,1.63a.92.92,0,0,1,.35.19l1.84,1.42a.78.78,0,0,1,.35.18c2.39,1.6,4.61,3.6,7.2,4.73,3.92,1.72,8,2.71,10.67,6.71a15.56,15.56,0,0,0,11.74,6.75l3.51,2.52c0,.36,0,.71,0,1.07-1.13,2.36-2.28,4.7-3.35,7.08a6.22,6.22,0,0,0-.25,1.8c-.25.31-.5.62-.76.92-1.22.5-2.74.83-1.56,2.72,0,.32,0,.65-.08,1l-1.08.62a11.81,11.81,0,0,0-2.16,1.86c-2.18,3-4.31,6.14-6.35,9.29-3.42,5.29-1.19,8-4.35,13.46-3.92,6.78-13.75,16-19.85,20.95-4.8,3.93-9.8,8-16.29,8.59-3.24.31-6.58-.36-9.87-.58l-2-1.28c-1.67-3.29-4.25-5.54-8-5.33a45.83,45.83,0,0,0-9.21,1.78c-6.29,1.67-9.74-.93-9.43-7.06s.51-12.26.44-18.39c0-1.62-1.18-3.23-1.82-4.84l-.21-1-.51-1.11-.34-.81C374.38,629.77,374.67,628.44,372.7,628.15Z" transform="translate(-317.13 -549.9)"/><path class="cls-10" d="M405.12,669.16c3.29.22,6.63.89,9.87.58,6.49-.63,11.49-4.66,16.29-8.59,6.1-5,10.18-11.67,14.11-18.44,3.15-5.45,6.67-10.68,10.09-16,2-3.15,4.17-6.24,6.35-9.29a11.81,11.81,0,0,1,2.16-1.86c0,.38.05.75.07,1.13a1,1,0,0,0-.1.4c-.33.41-.67.82-1,1.22L460.67,622l-1.06,1.73h0l-1,1.17-.68,1.46-1,1.25a.78.78,0,0,0-.1.39l-1,1.24a.78.78,0,0,0-.08.39l-1,1.25a.75.75,0,0,0-.09.39L453.62,633h0l-1,1.17a.75.75,0,0,0-.09.39l-1,1.24a.89.89,0,0,0-.09.39q-2.94,4.71-5.89,9.4a.8.8,0,0,0-.08.4l-1,1.25a.86.86,0,0,0-.1.41l-1.59,2.27h0l-2.72,3.82-.61,1-2.64,3.41a.7.7,0,0,0-.1.38l-5.34,5h0l-1.21,1a.8.8,0,0,0-.4.08l-1.63,1.1h0l-1.23,1a.9.9,0,0,0-.4.09l-1.23,1a.8.8,0,0,0-.4.08,28.27,28.27,0,0,1-15.79,3.41l-1.06-.12-1.11-.44Z" transform="translate(-317.13 -549.9)"/><path class="cls-1" d="M341.46,580.41c-3.55,2.45-7.19,4.77-10.61,7.39a35.08,35.08,0,0,0-6.26,6c-2.34,3-3.68,6.44-1.84,10.33a5.24,5.24,0,0,1,.39,1.57c.38,2.59,1.84,3.67,4.47,3.64,6.23-.08,12.5-.43,18.68.14,4.59.42,9.08,2,13.56,3.31,1,.28,1.66,1.55,2.47,2.36-4.44-1.35-8.87-2.74-13.34-4a13.3,13.3,0,0,0-3.46-.35c-6,0-12,0-18,0a19.43,19.43,0,0,1-3.17-.53,9.21,9.21,0,0,1-3.29-7c-.44-6.27,2.32-11,7.23-14.58,3.49-2.55,7.06-5,10.66-7.38A8.8,8.8,0,0,1,341.46,580.41Z" transform="translate(-317.13 -549.9)"/><path class="cls-1" d="M452.52,634.51a.75.75,0,0,1,.09-.39l1-1.17h0l1.18-.49c-1.22,2.58-1.05,5.16-2.28,7.73-.2.4-.94,1.78-1.09,2.19-2.76,7.84-9.21,13-14.57,18.91-5.15,5.71-11.29,10.64-19.41,11.82-.72.1-1.55-.59-2.33-.91a28.66,28.66,0,0,0,5.1-1.3,34.79,34.79,0,0,0,4.68-3.06.82.82,0,0,1,.41-.08l1.22-1a.9.9,0,0,1,.4-.09l1.23-1h0l1.63-1.1a.8.8,0,0,1,.4-.08l1.21-1h0a6.9,6.9,0,0,0,5.34-5,.7.7,0,0,1,.1-.38l2.64-3.41c.2-.32.4-.64.61-1l2.72-3.82h0" transform="translate(-317.13 -549.9)"/><path class="cls-9" d="M451.43,636.14" transform="translate(-317.13 -549.9)"/><path class="cls-9" d="M445.46,645.94" transform="translate(-317.13 -549.9)"/><path class="cls-1" d="M410.24,563.86c-3.11-2.15-6.49-4-9.26-6.53a9.28,9.28,0,0,0-8.93-2.42,26.74,26.74,0,0,0-11.34,5.5c-8.73,7.14-17.64,13.94-29.14,16.06a19.19,19.19,0,0,0-2.8.94,15.62,15.62,0,0,1,2.89-2c4.66-1.86,9.66-3.06,14-5.49,4.74-2.68,8.82-6.5,13.27-9.71,5.09-3.66,10.41-6.88,17-6.62a19.23,19.23,0,0,1,2.88.55l1.05.53,3.28,2.24,2.67,2.66Z" transform="translate(-317.13 -549.9)"/><path class="cls-10" d="M375.12,634c.64,1.61,1.81,3.22,1.82,4.84.07,6.13-.12,12.26-.44,18.39s3.14,8.73,9.43,7.06a45.83,45.83,0,0,1,9.21-1.78c3.76-.21,6.34,2,8,5.33l-6.52-3.82-4.35,0-5.95,1.75-1.64.49-4.37,0-1.11-.45c-2.63-.89-3.75-2.93-4.14-5.51.08-1.11.16-2.22.25-3.32l.12-9.77c.05-1.47.11-2.93.17-4.4C375.45,639.87,375.29,637,375.12,634Z" transform="translate(-317.13 -549.9)"/><path class="cls-10" d="M467.57,597.89a15.56,15.56,0,0,1-11.74-6.75c-2.7-4-6.75-5-10.67-6.71-2.59-1.13-4.81-3.13-7.2-4.73l5.75,2.35,3,1.42,2.15.64,1.11.45,3.12,1.23,1.71,1.64,1.1,1.56c.39.51.78,1,1.16,1.54l1.68,1.66,2.09,1.67Z" transform="translate(-317.13 -549.9)"/><path class="cls-1" d="M424.9,667.85a34.79,34.79,0,0,1-4.68,3.06,28.66,28.66,0,0,1-5.1,1.3l-6-1A28.27,28.27,0,0,0,424.9,667.85Z" transform="translate(-317.13 -549.9)"/><path class="cls-1" d="M410.24,563.86l-4.42-4.27,1.13,0c2,.73,4.09,1.43,6.11,2.22a7.63,7.63,0,0,1,1.52,1.07l-.57,1Z" transform="translate(-317.13 -549.9)"/><path class="cls-11" d="M321.05,603.12a9.21,9.21,0,0,0,3.29,7c-1.77.44-4.41-1.33-4.21-3.31C320.24,605.69,318,603.6,321.05,603.12Z" transform="translate(-317.13 -549.9)"/><path class="cls-10" d="M366.74,618.34c3.41,1.57,6.17,5.94,5.48,8.7l-.57-.07-.89-1.79-3.95-5.79C366.78,619,366.76,618.69,366.74,618.34Z" transform="translate(-317.13 -549.9)"/><path class="cls-10" d="M467.47,610.36c.07-.6-1.32-1.72-1.08-2.25,1.07-2.38,3.55-4.27,4.68-6.63h.63l0,3.28-2.21,3.8Z" transform="translate(-317.13 -549.9)"/><path class="cls-10" d="M471.67,604.75l0-3.28.5-.53c.67.41,1.95,1,1.89,1.21-.3,1,.18,2.81-1.87,2.59Z" transform="translate(-317.13 -549.9)"/><path class="cls-1" d="M458,626.34c.22-.49.45-1,.68-1.46.36-.18.72-.36,1.07-.55.74,2.57-.85,3.82-2.75,4.89,0-.41-.05-.82-.08-1.24a.78.78,0,0,1,.1-.39C457.29,627.17,457.62,626.76,458,626.34Z" transform="translate(-317.13 -549.9)"/><path class="cls-10" d="M429.83,571c-1.71-1.44-2.71-3.11-1.78-5.42l.61,0c.06.53.11,1.06.17,1.59.13.37.27.74.4,1.12Z" transform="translate(-317.13 -549.9)"/><path class="cls-1" d="M407,559.57l-1.13,0-2.67-2.66,0-.6Z" transform="translate(-317.13 -549.9)"/><path class="cls-7" d="M348.4,577.61,342.78,580Z" transform="translate(-317.13 -549.9)"/><path class="cls-10" d="M428,564.55c-.11-1.66-.21-3.31-.31-5l.66,4.33Z" transform="translate(-317.13 -549.9)"/><path class="cls-1" d="M403.17,556.33l0,.6-3.28-2.24.56-.56Z" transform="translate(-317.13 -549.9)"/><path class="cls-7" d="M375.61,642.79c-.06,1.47-.12,2.93-.17,4.4C375.49,645.72,375.55,644.26,375.61,642.79Z" transform="translate(-317.13 -549.9)"/><path class="cls-7" d="M392.28,664l4.35,0Z" transform="translate(-317.13 -549.9)"/><path class="cls-10" d="M465.07,615c-1.61-3.78,1.82-4.7,3.05-5.2.14-.1-1.55,2.21-1.68,2.59C465.9,612.91,465.61,614.43,465.07,615Z" transform="translate(-317.13 -549.9)"/><path class="cls-10" d="M471.67,604.75h.55l-2.76,3.81Z" transform="translate(-317.13 -549.9)"/><path class="cls-1" d="M375.32,657c-.09,1.1-.17,2.21-.25,3.32C374,659.09,373.71,658,375.32,657Z" transform="translate(-317.13 -549.9)"/><path class="cls-10" d="M371.42,626.5c2,.29,4.13,2.6,2.64,4.61l-1.22-1.37C372.79,629.21,371.46,627,371.42,626.5Z" transform="translate(-317.13 -549.9)"/><path class="cls-7" d="M446.66,583.47l-3-1.42Z" transform="translate(-317.13 -549.9)"/><path class="cls-7" d="M460.78,593.86l-2.09-1.67Z" transform="translate(-317.13 -549.9)"/><path class="cls-12" d="M419.44,561.72l-2.33,1.51Z" transform="translate(-317.13 -549.9)"/><path class="cls-7" d="M454.75,587.43,453,585.79Z" transform="translate(-317.13 -549.9)"/><path class="cls-7" d="M362.35,615.14l1.73,1.54Z" transform="translate(-317.13 -549.9)"/><path class="cls-12" d="M437.61,579.52l-1.84-1.42Z" transform="translate(-317.13 -549.9)"/><path class="cls-12" d="M432.5,574.83,431.06,573Z" transform="translate(-317.13 -549.9)"/><path class="cls-12" d="M435.42,577.91l-1.67-1.63Z" transform="translate(-317.13 -549.9)"/><path class="cls-1" d="M400.43,554.13l-.56.56-1.05-.53C399.33,552.44,399.88,553.28,400.43,554.13Z" transform="translate(-317.13 -549.9)"/><path class="cls-7" d="M384.69,666.27l1.64-.49Z" transform="translate(-317.13 -549.9)"/><path class="cls-1" d="M414,563.86l.57-1,1.08.52V564Z" transform="translate(-317.13 -549.9)"/><path class="cls-10" d="M428,564.55l.35-.64.33,1.68-.61,0C428,565.23,428,564.89,428,564.55Z" transform="translate(-317.13 -549.9)"/><path class="cls-10" d="M464.06,616.72c0-.38-.05-.75-.07-1.13l1.08-.62Z" transform="translate(-317.13 -549.9)"/><path class="cls-7" d="M459.61,623.72l1.06-1.73Z" transform="translate(-317.13 -549.9)"/><path class="cls-7" d="M457,590.53c-.38-.52-.77-1-1.16-1.54C456.24,589.5,456.63,590,457,590.53Z" transform="translate(-317.13 -549.9)"/><path class="cls-1" d="M454.8,632.47l-1.18.49,1.08-1.71C454.73,631.65,454.76,632.06,454.8,632.47Z" transform="translate(-317.13 -549.9)"/><path class="cls-7" d="M454.79,630.86l1-1.25Z" transform="translate(-317.13 -549.9)"/><path class="cls-12" d="M374.4,631.92l.51,1.11Z" transform="translate(-317.13 -549.9)"/><path class="cls-1" d="M456.87,628c0,.42.05.83.08,1.24h-1.08C456.2,628.81,456.54,628.4,456.87,628Z" transform="translate(-317.13 -549.9)"/><path class="cls-10" d="M429.23,568.3c-.13-.38-.27-.75-.4-1.12C429,567.55,429.1,567.92,429.23,568.3Z" transform="translate(-317.13 -549.9)"/><path class="cls-10" d="M472.2,600.94l-.5.53h-.63c0-.36,0-.71,0-1.07Z" transform="translate(-317.13 -549.9)"/><path class="cls-7" d="M406.94,670.7l1.11.44Z" transform="translate(-317.13 -549.9)"/><path class="cls-1" d="M415.67,564v-.59l1.1,0Z" transform="translate(-317.13 -549.9)"/><path class="cls-1" d="M459.7,624.33c-.35.19-.71.37-1.07.55l1-1.17C459.63,623.92,459.67,624.13,459.7,624.33Z" transform="translate(-317.13 -549.9)"/><path class="cls-7" d="M379.21,665.79l1.11.45Z" transform="translate(-317.13 -549.9)"/><path class="cls-10" d="M366.74,618.34c0,.35,0,.7.07,1l-1.08-1.21Z" transform="translate(-317.13 -549.9)"/><path class="cls-7" d="M463,618.34c.34-.4.68-.81,1-1.22C463.62,617.53,463.29,617.94,463,618.34Z" transform="translate(-317.13 -549.9)"/><path class="cls-7" d="M449.92,584.56l-1.11-.45Z" transform="translate(-317.13 -549.9)"/><path class="cls-12" d="M425,558.2l-1.42.54Z" transform="translate(-317.13 -549.9)"/><path class="cls-7" d="M466.76,612.36c.13-.38.27-.76.41-1.13Z" transform="translate(-317.13 -549.9)"/><path class="cls-7" d="M451.43,636.14q-2.94,4.71-5.89,9.4Q448.48,640.85,451.43,636.14Z" transform="translate(-317.13 -549.9)"/><path class="cls-1" d="M436.74,658.44a6.9,6.9,0,0,1-5.34,5Z" transform="translate(-317.13 -549.9)"/><path class="cls-7" d="M442.81,649.87l-2.72,3.82Z" transform="translate(-317.13 -549.9)"/><path class="cls-7" d="M439.48,654.65l-2.64,3.41Z" transform="translate(-317.13 -549.9)"/><path class="cls-7" d="M444.39,647.6l-1.59,2.27Z" transform="translate(-317.13 -549.9)"/><path class="cls-7" d="M429.79,664.58l-1.63,1.1Z" transform="translate(-317.13 -549.9)"/><path class="cls-7" d="M453.62,633l-1,1.17Z" transform="translate(-317.13 -549.9)"/><path class="cls-7" d="M452.52,634.51" transform="translate(-317.13 -549.9)"/><path class="cls-7" d="M445.46,645.94l-1,1.25Z" transform="translate(-317.13 -549.9)"/><path class="cls-7" d="M458,626.34c-.33.42-.66.83-1,1.25C457.29,627.17,457.62,626.76,458,626.34Z" transform="translate(-317.13 -549.9)"/><path class="cls-7" d="M431.4,663.47l-1.21,1Z" transform="translate(-317.13 -549.9)"/><path class="cls-7" d="M428.16,665.68l-1.23,1Z" transform="translate(-317.13 -549.9)"/><path class="cls-10" d="M426.53,666.76l-1.22,1Z" transform="translate(-317.13 -549.9)"/></svg>