<svg id="Layer_1" data-name="Layer 1" xmlns="http://www.w3.org/2000/svg" viewBox="0 0 162.81 115.51"><defs><style>.cls-1{fill:#010202;}.cls-2{fill:#0a0e0d;}.cls-3{fill:#121b18;}.cls-4{fill:#7c7c7c;}.cls-5{fill:#707271;}.cls-6{fill:#3ac58a;}.cls-7{fill:#34b17c;}.cls-8{fill:#3ac68a;}.cls-9{fill:#28865e;}.cls-10{fill:#1f4938;}.cls-11{fill:#2c9467;}</style></defs><title>nl-final</title><path class="cls-1" d="M476.17,621l.95,1.63,1.06,2.79v4.35l-2.7,7.12-.66,1.51-1.57,2.21L471.81,642l-3.95-1.34-.47-1.39-.52.12v1.55l-.67,2.45h0c-3.26,1.31-5.3,0-5.49-3.51-.06-1-.06-2-.08-2.93l.07-1.39-1.05.9c-.16,1.8-.43,3.6-.44,5.4,0,1.23.62,2.5.48,3.69-.25,2.12-1.38,3.86-3.77,3.8s-3.38-1.72-3.32-4c0-.63,0-1.26,0-1.89l.07-1-1.07,1.05c-.81,1.73-2.27,1.84-3.88,1.59a3.18,3.18,0,0,1-.35-.26l-1.6-1.55-1.19,1.84c-.44.67-.88,1.33-1.31,2l-2,2.28-2.91,3.13-2,2.27-1.1,1.09-1.18.94c-.12.08-.24.16-.37.23l-3.84,1.58-2.18,0-1.25-.3A2.39,2.39,0,0,1,426,658l-1.9-2.87-1.76-1.74a8.09,8.09,0,0,0-1.44-1.06c-3.11-1.42-3.22-1.71-1.38-4.64,1.09-1.72.17-2.45-1.35-2.92l-1.71-2.35c-.28-1.51-.57-3-.86-4.52l-.16-1-.34-1.78-.24-1.47-.26-1.25-.21-4.78-.07-5.71.23-1.48,2.52-7.21.15-.94.5-5.84.12-1.62,1.2-1.51,3.65-.1c.45.84.7,1.92,1.39,2.47a8.73,8.73,0,0,1,3.61,8.27c-.17,1.51-.53,3-.55,4.52a4.73,4.73,0,0,0,.84,2.69c.2.27,1.43-.18,2.17-.35,1.39-.31,2.78-.66,4.16-1l.39.56.52,1.53,1.11-1.21,1.83-1.86.88-.93.07-.23.25,0a17.17,17.17,0,0,0,4.18,0c1.12-.27,2.08-1.24,3.11-1.91,0-.22.17-.29.39-.22,4.52-1.05,5.37,3.24,7.62,5.6.83-.63,1.44-1.14,2.1-1.58,1.55-1.05,2.74-.65,4,.67,2.37,2.43,4.94,4.66,8.09,7.59.64-2.36,1.07-3.93,1.5-5.49l2-2Zm-52.9,23.46h0L421.47,650l4.59,2.63,1.55,1.69c1.28,2.27,2.7,2.27,4.36,0l.1-.14h.17l4-3.87,3.78-4.22,1.06-1.36v-.15l.13-.09,1.47-2c.4-1.85,1.28-3.15,3.44-3l1.12.5a.68.68,0,0,0,.36.22c.56,1.24,1.18,2.23,2.35.47l.53-.54c3.72-1.3,4.62-.67,4.81,3.38,0,.82.07,1.63.11,2.45l.74,1.12.8-1.08a.86.86,0,0,1,.17-.46c1.29-.51,1.33-1.06.05-1.65-.26-1.26-.53-2.52-.79-3.78l0-1.69-.18-1.14,2.72-5.32.27-1.12,0-7.54-.32-1.43-.74.77-.5.6-1.71.9c-3.2-.57-4.95-2.85-6.45-5.45l-.79-.83-.85,1c-1.42,2-3.3,2.16-5.43,1.45l-.59-.71-.53.77c-1.79,1.77-3.54,3.58-5.37,5.3s-2.54,1.42-3.48-1.09l-.47-1.32-1,.63c-1.92,1-3.68,1.12-5-.94-.09-2.45-.18-4.89-.28-7.34l-.76-5.26c-1.07-1.42-2.12-2.86-3.26-4.23-.12-.15-1,.06-1.09.21a6.25,6.25,0,0,0,.05,1.61c1,5.13-1.51,9.52-3,14.13l-.19,1.13v3.8l.08,1.11q.76,5.16,1.54,10.32l.32,1.1.27,1.06.51,1.1,1.08,1.08Zm39.8-7.59.46,3.73.43.88.53-1a13.45,13.45,0,0,1,1-3.35,3.38,3.38,0,0,1,2.23-1.53c.6-.06,1.35.89,1.93,1.48a6.89,6.89,0,0,1,.85,1.53c3.73-3.86,5.47-8.11,4.77-13.2-.09-.71-.76-1.33-1.16-2-.6.56-1.44,1-1.75,1.7-.7,1.56-1,3.3-1.75,4.83a3.27,3.27,0,0,1-2.11,1.79c-.68,0-1.58-.92-2.14-1.63a41.39,41.39,0,0,1-2.32-3.63l-1-1-.51,1.27c.15,2.62.29,5.24.44,7.87Z" transform="translate(-315.37 -543.11)"/><path class="cls-2" d="M475.48,636.89l2.7-7.12V633l-1.07,1.46Z" transform="translate(-315.37 -543.11)"/><path class="cls-2" d="M478.18,625.42l-1.06-2.79,1.06.61Z" transform="translate(-315.37 -543.11)"/><path class="cls-3" d="M417.86,604.91l-.12,1.62-4.25,5.28H412.4l-1.65-1.06-.54-.54c-1.56-3-2.76-3.34-5-1.29a1.1,1.1,0,0,1-.4.21l-5,2.52-1,.71-1.2.88a1.56,1.56,0,0,1-.38.25l-1.21.93-1,.7-1.22.93c-5.19,3.74-10.26,7.69-15.64,11.15-3.23,2.09-6.94,2.54-10.51.17a6.18,6.18,0,0,0-2.74-1.07c-1.54-.15-2.56.29-2.2,2.35,1.14,6.32-.94,8.81-7.3,8.16-2.87-.29-5.71-1.58-8.38-2.81a29,29,0,0,1-6.45-4.15,5.92,5.92,0,0,1-1.62-3.69c-.33-3.5-.92-4.24-4.4-4.45-2.64-.15-5.69.53-7.13-2.65-1.8-4-1.13-7.82,1.08-11.4,1.67-2.69,3.85-4.23,7.43-3.79,5.21.66,8.87-2.44,12-6.16,1-1.22.64-2.19-.73-3.1a27,27,0,0,1-11.78-17.79c-.82-4-2-7-6.2-8.37-1-.32-1.7-2.08-2.12-3.32s0-2.61-.4-3.73c-.36-.93-1.59-2.33-2.19-2.21-2.09.4-2.74-.86-3.5-2.22-1.8-3.24-3.74-6.4-5.34-9.73a4.67,4.67,0,0,1,.08-3.72c.3-.52,2.41-.55,3.34-.08a50.23,50.23,0,0,1,8.6,5c4.41,3.44,8.45,7.36,12.81,10.89a7.34,7.34,0,0,0,4.18,1.41c2.36.06,3.82.9,4.34,3.21a5.4,5.4,0,0,0,5,4.59c2.72.4,3.65,2.07,3.39,4.94-.34,3.6.14,4.2,3.73,3.92,2.41-.18,4.79-.75,7.19-1.11a3.11,3.11,0,0,1,1.05.21c1.66,4.63,2.61,5,6.66,2.76a8.35,8.35,0,0,0,1-.78l.88-.15c3.36.75,4.84-.29,6.69-4.68h0c2.43-.88,4.72-.4,5.83,1.86a8.64,8.64,0,0,1,.26,5.15,39.08,39.08,0,0,1-2.26,6,20.9,20.9,0,0,0-5,8l1,.59,4.71-7.92c2-5.24,3.45-5.67,7.78-2.28a4.73,4.73,0,0,0,6.17.07l5.28,1,2.37,1.2a.83.83,0,0,1,.4.24l1.21.87,1,.71,1.21.9,1.6,1.66.83,1.21,2,5.31C418.21,600.36,416.66,602.39,417.86,604.91Zm-67.5-13,1.2.85c1.51,2.26,1.14,5-1.24,7.82a19,19,0,0,1-14.53,6.83c-3.38.11-5.66,2.66-6,6.51-.22,2.89.6,3.66,4.58,4.29l1.07.17c4.79.59,6,1.83,6.76,6.58a3.18,3.18,0,0,0,.73,1.92,51.05,51.05,0,0,0,6.47,4.61,15.75,15.75,0,0,0,5.8,2c3.67.4,4.72-1,4-4.57s1-6.22,4.78-6.13a12.06,12.06,0,0,1,5.35,1.58,6.09,6.09,0,0,0,6.45,0c3.6-2.24,7-4.81,10.47-7.25,4.79-3.35,9.47-6.87,14.4-10,3.89-2.45,8.11-4.83,12.24,1.15,1.06-3.94,2.45-7,2.61-10.16.24-4.65-8.23-10.27-12.83-9.27a15.64,15.64,0,0,1-6-.28,9.06,9.06,0,0,1-2.82-1.68c-2.19,3.7-4.13,7.25-6.33,10.64-2.09,3.23-5.12,4.3-7.29,2.87s-2.09-4.09.08-7.52,4.39-6.67,6.36-10.13a25.17,25.17,0,0,0,1.62-4.95l-1.15-.61a29.37,29.37,0,0,1-2.5,2.49,15.17,15.17,0,0,1-3.72,2.38c-1.72.66-3.66.73-5.41,1.32-2.91,1-5.13.71-6.78-1.67-1.1-1.58-2.23-1.68-3.91-1.44a36.23,36.23,0,0,1-7.27.48c-3.39-.19-4.93-2.26-4.14-5.49.59-2.36-.31-3.07-2.39-3.87-1.67-.65-3.74-2.14-4.18-3.67-.85-3-2.44-3.66-5.09-3.27l-1.17-.27-2.12-1.34-1-1.16-7.1-5.41c-2.83-3.27-5.72-6.47-10.16-8.2,1.43,5.06,4.9,7.54,9.08,9.3a26.1,26.1,0,0,1,1.35,5.17c.11,1.75.57,2.82,2.21,3.58,3.49,1.63,5.23,4.49,5.67,8.33C339.37,582.33,343.77,587.87,350.36,591.89Z" transform="translate(-315.37 -543.11)"/><path class="cls-3" d="M470.41,622.36c-.43,1.56-.86,3.13-1.5,5.49-3.15-2.93-5.72-5.16-8.09-7.59-1.3-1.32-2.49-1.72-4-.67-.66.44-1.27.95-2.1,1.58-2.25-2.36-3.1-6.65-7.62-5.6,2.81-1.63,4.43-1.21,5.75,1.4a28.11,28.11,0,0,0,1.68,2.59,9.12,9.12,0,0,1,2.82-1,6.74,6.74,0,0,1,3.68.74c1.48,1,2.55,2.58,3.93,3.76C468,625.64,468,625.6,470.41,622.36Z" transform="translate(-315.37 -543.11)"/><path class="cls-1" d="M434.33,619.9c-1.38.34-2.77.69-4.16,1-.74.17-2,.62-2.17.35a4.73,4.73,0,0,1-.84-2.69c0-1.51.38-3,.55-4.52a8.73,8.73,0,0,0-3.61-8.27c-.69-.55-.94-1.63-1.39-2.47,4.29,3.29,7.11,7.15,5.76,13-.78,3.39,0,4,3.51,3.19A6.44,6.44,0,0,1,434.33,619.9Z" transform="translate(-315.37 -543.11)"/><path class="cls-3" d="M417.86,604.91c-1.2-2.52.35-4.55,1.2-6.71a25.05,25.05,0,0,0-.39,3,10.89,10.89,0,0,0,.39,2.22Z" transform="translate(-315.37 -543.11)"/><path class="cls-4" d="M417.09,613.31l-2.52,7.21Z" transform="translate(-315.37 -543.11)"/><path class="cls-3" d="M446.67,615.79c-1,.67-2,1.64-3.11,1.91a17.17,17.17,0,0,1-4.18,0,20.48,20.48,0,0,1,2.56-1C443.5,616.35,445.09,616.1,446.67,615.79Z" transform="translate(-315.37 -543.11)"/><path class="cls-3" d="M405.23,608.92c2.22-2,3.42-1.74,5,1.29C408.67,609.29,407.32,607.65,405.23,608.92Z" transform="translate(-315.37 -543.11)"/><path class="cls-4" d="M414.34,622l.07,5.71Z" transform="translate(-315.37 -543.11)"/><path class="cls-4" d="M399.79,611.65l5-2.52Z" transform="translate(-315.37 -543.11)"/><path class="cls-4" d="M415.62,637.94l.86,4.52C416.2,641,415.91,639.44,415.62,637.94Z" transform="translate(-315.37 -543.11)"/><path class="cls-4" d="M429.8,658.6l3.84-1.58Z" transform="translate(-315.37 -543.11)"/><path class="cls-3" d="M476.17,621l-3.79-.65Z" transform="translate(-315.37 -543.11)"/><path class="cls-4" d="M424.12,655.17,426,658Z" transform="translate(-315.37 -543.11)"/><path class="cls-4" d="M436.29,654.76l2-2.27Z" transform="translate(-315.37 -543.11)"/><path class="cls-4" d="M441.21,649.36l2-2.28Z" transform="translate(-315.37 -543.11)"/><path class="cls-4" d="M473.25,640.61l1.57-2.21Z" transform="translate(-315.37 -543.11)"/><path class="cls-3" d="M436.35,620.78,435.24,622l-.52-1.53Z" transform="translate(-315.37 -543.11)"/><path class="cls-5" d="M410.81,587.3l-2.37-1.2Z" transform="translate(-315.37 -543.11)"/><path class="cls-4" d="M410.75,610.75l1.65,1.06Z" transform="translate(-315.37 -543.11)"/><path class="cls-4" d="M415.12,635.21l.34,1.78Z" transform="translate(-315.37 -543.11)"/><path class="cls-3" d="M439.06,618l-.88.93Z" transform="translate(-315.37 -543.11)"/><path class="cls-4" d="M393.83,616.05l1.22-.93Z" transform="translate(-315.37 -543.11)"/><path class="cls-4" d="M396,614.42l1.21-.93Z" transform="translate(-315.37 -543.11)"/><path class="cls-4" d="M397.6,613.24l1.2-.88Z" transform="translate(-315.37 -543.11)"/><path class="cls-4" d="M414.62,632.49l.26,1.25Z" transform="translate(-315.37 -543.11)"/><path class="cls-5" d="M417,592.89l-.83-1.21Z" transform="translate(-315.37 -543.11)"/><path class="cls-5" d="M414.61,590l-1.21-.9Z" transform="translate(-315.37 -543.11)"/><path class="cls-5" d="M412.42,588.41l-1.21-.87Z" transform="translate(-315.37 -543.11)"/><path class="cls-4" d="M434,656.79l1.18-.94Z" transform="translate(-315.37 -543.11)"/><path class="cls-4" d="M426.37,658.32l1.25.3Z" transform="translate(-315.37 -543.11)"/><path class="cls-6" d="M459.11,623.32l0,7.54-.27,1.12-2.72,5.32c-1,.41-2.06.74-3,1.23s-1.76,1.08-2.64,1.62l-.53.54-2.35-.47a.68.68,0,0,1-.36-.22l-1.12-.5c-2.16-.18-3,1.12-3.44,3l-1.47,2-.13.09v.15c-.35.45-.7.91-1.06,1.36l-3.78,4.22-4,3.87h-.17l-.1.14h-4.36l-1.55-1.69c-1.43-1.9-3.6-3.54-1.86-6.42.17-.29-.6-1.13-.92-1.72h0l-2.17-1.64L420,641.74l-.51-1.1-.27-1.06c-.11-.36-.22-.73-.32-1.1q-.78-5.16-1.54-10.32c0-.37-.06-.74-.08-1.11v-3.8l.19-1.13c1.49-4.61,4-9,3-14.13l4.3,2.41c.26,1.75.51,3.51.76,5.26-1.31,2.5-1.83,5,.28,7.34,1.34,2.06,3.1,2,5,.94l1.5.69c.94,2.51,1.69,2.78,3.48,1.09s3.58-3.53,5.37-5.29l1.12-.07c2.13.71,4,.51,5.43-1.45l1.64-.2c1.5,2.6,3.25,4.88,6.45,5.45l1.71-.9.5-.6Z" transform="translate(-315.37 -543.11)"/><path class="cls-7" d="M464.05,626.47a41.39,41.39,0,0,0,2.32,3.63c.56.71,1.46,1.68,2.14,1.63a3.27,3.27,0,0,0,2.11-1.79c.75-1.53,1.05-3.27,1.75-4.83.31-.69,1.15-1.14,1.75-1.7.4.66,1.07,1.28,1.16,2,.7,5.09-1,9.34-4.77,13.2a6.89,6.89,0,0,0-.85-1.53c-.58-.59-1.33-1.54-1.93-1.48a3.38,3.38,0,0,0-2.23,1.53,13.45,13.45,0,0,0-1,3.35l-1,.13c-.15-1.24-.31-2.48-.46-3.73,0-.74,0-1.48-.05-2.21-.15-2.63-.29-5.25-.44-7.87Z" transform="translate(-315.37 -543.11)"/><path class="cls-8" d="M450.48,640.15c.88-.54,1.72-1.16,2.64-1.62s2-.82,3-1.23l.18,1.14c0,.57,0,1.13,0,1.69.26,1.26.53,2.52.79,3.78,0,.55,0,1.1-.05,1.65a.86.86,0,0,0-.17.46l-1.54,0c0-.82-.08-1.63-.11-2.45C455.1,639.48,454.2,638.85,450.48,640.15Z" transform="translate(-315.37 -543.11)"/><path class="cls-2" d="M423.28,644.46c.32.59,1.09,1.43.92,1.72-1.74,2.88.43,4.52,1.86,6.42L421.47,650Z" transform="translate(-315.37 -543.11)"/><path class="cls-3" d="M424.79,610.4l-4.3-2.41a6.25,6.25,0,0,1-.05-1.61c0-.15,1-.36,1.09-.21C422.67,607.54,423.72,609,424.79,610.4Z" transform="translate(-315.37 -543.11)"/><path class="cls-1" d="M425.83,623c-2.11-2.37-1.59-4.84-.28-7.34C425.65,618.11,425.74,620.55,425.83,623Z" transform="translate(-315.37 -543.11)"/><path class="cls-2" d="M432.24,654.15l4-3.87Z" transform="translate(-315.37 -543.11)"/><path class="cls-2" d="M427.61,654.29H432C430.31,656.56,428.89,656.56,427.61,654.29Z" transform="translate(-315.37 -543.11)"/><path class="cls-8" d="M447.6,640.22l2.35.47C448.78,642.45,448.16,641.46,447.6,640.22Z" transform="translate(-315.37 -543.11)"/><path class="cls-2" d="M421.1,642.82l2.17,1.64Z" transform="translate(-315.37 -543.11)"/><path class="cls-3" d="M463,634.66c0,.73,0,1.47.05,2.21C463.05,636.13,463,635.39,463,634.66Z" transform="translate(-315.37 -543.11)"/><path class="cls-2" d="M460.63,636.92l-1-.49,1.05-.9Z" transform="translate(-315.37 -543.11)"/><path class="cls-2" d="M441.21,644.46l1.47-2Z" transform="translate(-315.37 -543.11)"/><path class="cls-3" d="M457.55,623.26l-1.71.9Z" transform="translate(-315.37 -543.11)"/><path class="cls-2" d="M455.4,646l1.54,0-.8,1.08Z" transform="translate(-315.37 -543.11)"/><path class="cls-2" d="M457.11,645.56c0-.55,0-1.1.05-1.65C458.44,644.5,458.4,645.05,457.11,645.56Z" transform="translate(-315.37 -543.11)"/><path class="cls-3" d="M449.39,618.71l-1.64.2c.28-.34.57-.68.85-1Z" transform="translate(-315.37 -543.11)"/><path class="cls-3" d="M464.05,626.47l-1.47.32.51-1.27Z" transform="translate(-315.37 -543.11)"/><path class="cls-2" d="M452.58,643.4l-1,.06,1.07-1.05Z" transform="translate(-315.37 -543.11)"/><path class="cls-2" d="M456.37,640.13c0-.56,0-1.12,0-1.69C456.34,639,456.35,639.57,456.37,640.13Z" transform="translate(-315.37 -543.11)"/><path class="cls-3" d="M432.35,624.63l-1.5-.69,1-.63Z" transform="translate(-315.37 -543.11)"/><path class="cls-2" d="M467.86,640.63l-1,.28v-1.55l.52-.12Z" transform="translate(-315.37 -543.11)"/><path class="cls-3" d="M459.11,623.32l-1.06-.66c.25-.26.5-.51.74-.77Z" transform="translate(-315.37 -543.11)"/><path class="cls-9" d="M446.12,639.5l1.12.5Z" transform="translate(-315.37 -543.11)"/><path class="cls-3" d="M417.49,622.12l-.19,1.13Z" transform="translate(-315.37 -543.11)"/><path class="cls-2" d="M419.51,640.64l.51,1.1Z" transform="translate(-315.37 -543.11)"/><path class="cls-3" d="M463.53,640.6l1-.13c-.18.34-.35.68-.53,1Z" transform="translate(-315.37 -543.11)"/><path class="cls-2" d="M418.92,638.48c.1.37.21.74.32,1.1C419.13,639.22,419,638.85,418.92,638.48Z" transform="translate(-315.37 -543.11)"/><path class="cls-3" d="M442.32,620.36l-1.12.07.53-.78Z" transform="translate(-315.37 -543.11)"/><path class="cls-3" d="M417.3,627.05c0,.37.05.74.08,1.11C417.35,627.79,417.32,627.42,417.3,627.05Z" transform="translate(-315.37 -543.11)"/><path class="cls-3" d="M458.87,632l.27-1.12Z" transform="translate(-315.37 -543.11)"/><path class="cls-2" d="M440,646.06c.36-.45.71-.91,1.06-1.36C440.74,645.15,440.39,645.61,440,646.06Z" transform="translate(-315.37 -543.11)"/><path class="cls-8" d="M338.44,562.86l2.12,1.34,1.17.27c2.65-.39,4.24.28,5.09,3.27.44,1.53,2.51,3,4.18,3.67,2.08.8,3,1.51,2.39,3.87-.79,3.23.75,5.3,4.14,5.49a36.23,36.23,0,0,0,7.27-.48c1.68-.24,2.81-.14,3.91,1.44,1.65,2.38,3.87,2.66,6.78,1.67,1.75-.59,3.69-.66,5.41-1.32a15.17,15.17,0,0,0,3.72-2.38,29.37,29.37,0,0,0,2.5-2.49l1.15.61a25.17,25.17,0,0,1-1.62,4.95c-2,3.46-4.23,6.76-6.36,10.13s-2.19,6.13-.08,7.52,5.2.36,7.29-2.87c2.2-3.39,4.14-6.94,6.33-10.64a9.06,9.06,0,0,0,2.82,1.68,15.64,15.64,0,0,0,6,.28c4.6-1,13.07,4.62,12.83,9.27-.16,3.14-1.55,6.22-2.61,10.16-4.13-6-8.35-3.6-12.24-1.15-4.93,3.12-9.61,6.64-14.4,10-3.48,2.44-6.87,5-10.47,7.25a6.09,6.09,0,0,1-6.45,0,12.06,12.06,0,0,0-5.35-1.58c-3.75-.09-5.56,2.46-4.78,6.13s-.3,5-4,4.57a15.75,15.75,0,0,1-5.8-2,51.05,51.05,0,0,1-6.47-4.61,3.18,3.18,0,0,1-.73-1.92c-.72-4.75-2-6-6.76-6.58l-1.07-.17c-4-.63-4.8-1.4-4.58-4.29.29-3.85,2.57-6.4,6-6.51a19,19,0,0,0,14.53-6.83c2.38-2.81,2.75-5.56,1.24-7.82l-1.2-.85c-6.59-4-11-9.56-11.89-17.42-.44-3.84-2.18-6.7-5.67-8.33-1.64-.76-2.1-1.83-2.21-3.58a26.1,26.1,0,0,0-1.35-5.17l1.08-1.1,7.1,5.41Z" transform="translate(-315.37 -543.11)"/><path class="cls-8" d="M330.32,556.29l-1.08,1.1c-4.18-1.76-7.65-4.24-9.08-9.3C324.6,549.82,327.49,553,330.32,556.29Z" transform="translate(-315.37 -543.11)"/><path class="cls-10" d="M350.36,591.89l1.2.85Z" transform="translate(-315.37 -543.11)"/><path class="cls-11" d="M341.73,564.47l-1.17-.27Z" transform="translate(-315.37 -543.11)"/><path class="cls-11" d="M338.44,562.86l-1-1.16Z" transform="translate(-315.37 -543.11)"/></svg>