<svg id="Layer_1" data-name="Layer 1" xmlns="http://www.w3.org/2000/svg" viewBox="0 0 156.99 209.71"><defs><style>.cls-1{fill:#080e0b;}.cls-2{fill:#b9b9b9;}.cls-3{fill:#bcbcbc;}.cls-4{fill:#a7a7a7;}.cls-5{fill:#b3b3b3;}.cls-6{fill:#3bca8d;}.cls-7{fill:#39c388;}.cls-8{fill:#3bc78b;}.cls-9{fill:#27865e;}</style></defs><title>ns-final</title><path class="cls-1" d="M428.81,563.29c-.53-2-1.07-4-1.6-6l-.81-4.86-.07-2.05.19-2.25.2-2.21c.11-1.44.23-2.88.34-4.32.07-.74.15-1.47.22-2.21l.19-2.74.35-3.23.23-1.65,6.45-19c2.36-4,5.49-6.61,10.53-5.48l1.09.33,5.77,5.78c1.17,3.4,2.32,6.82,3.51,10.22.64,1.81,1.25,3.7,3.76,3.51l4.34-.26,1.55-.17,4.56-.22,3.13.45,1.16.37a3.12,3.12,0,0,1,2.59,3.76c-.4,3.16-.92,6.3-1.4,9.45q-4.79,5.76-9.59,11.52c-1.37,1.63-2.81,3.2-4.22,4.8l-.49.58-1.66,2.15-.67.91q-3.4,5.28-6.8,10.58l-.08,4.85c-.64,2-.91,4.16-2,5.85-2.74,4.34-5.81,8.48-8.78,12.68-1.29,1.83-2.67,3.59-4,5.38h0c-2.52,3.16-5.06,6.29-7.54,9.46-6.06,7.74-11.19,15.94-12.44,26-2.23,2.67-4.28,5.55-6.75,8-2.7,2.66-6,4.73-8.67,7.37a30.13,30.13,0,0,0-8.65,16.87,229.34,229.34,0,0,1-9.17,36,20,20,0,0,1-17.5,13.26,8.3,8.3,0,0,1-3.72-.51c-7.35-3.42-15.17-5.08-23.09-6.45-3.29-.57-5.67-2.68-7.5-5.41-.18-1.51-.42-3-.5-4.55a17.75,17.75,0,0,0-5.83-12.91c-1.9-1.71-3.32-4-5-6-2.52-4.69.3-8,3.16-11,3.59-3.8,8-6.89,11.22-11,5.37-6.89,10.18-14.24,14.94-21.58,2.36-3.62,4.94-6.48,9.27-7.76,4.93-1.45,9.74-3.32,14.55-5.14,2.31-.87,4.2-2.33,4.75-5,.06-2.78-1.85-3.38-3.9-2.93-3.19.71-6.27,1.88-9.41,2.86l-2.65.76-1.68.39-1.56.26-1.71.25c-2.47-.42-4.94-.86-7.42-1.27-2-.34-2.25-1.65-1.54-3.18,1.22-2.62,2.56-5.19,3.9-7.75,2.13-4.09,4.4-8.12,6.44-12.26,1.95-4,.87-7.21-3.08-9.33-2.85-1.54-6-2.63-8.69-4.33-2.1-1.3-3.81-3.24-5.66-4.93-.33-.3-.5-.77-.83-1.07-3.29-3-3.35-6.44-1.55-10.19,3.12-1.9,6-4.54,9.41-5.53a148.76,148.76,0,0,1,19.12-3.84,45,45,0,0,0,14.23-4.21c6.89-3.58,13.86-7,20.79-10.45l2.66-.11c3.63-.08,3.94.18,4.75,3.83-.21,2.52-.43,5-.64,7.55-.9,10.85-7.68,17.3-18.56,17.59-4.06.1-8.13,0-12.19.18-7.51.3-13.08,5.35-14.45,12.92l.7,3.4c.87.44,1.74,1.22,2.63,1.25,3.42.12,6.86-.17,10.27,0,9.06.46,17.54-.79,25.18-6.33a35.83,35.83,0,0,1,17.61-6.53,39.71,39.71,0,0,0,8.41-2.05c1.12-.36,2-1.54,2.94-2.35-.08-1-.16-1.94-.23-2.91-.33-.67-.65-1.34-1-2l-1-2.08Zm-60.11-.17-1.42.08a43.17,43.17,0,0,0-20.37,3.51,4,4,0,0,0-1.62,3.54c.71,2.07,2.23,3.85,3.42,5.75l2.08,1.22c1.5.74,3,1.55,4.51,2.21,4.09,1.76,4.44,1.64,6.37-2.28,2.64-5.35,6.94-8.67,12.75-9.38,6.07-.75,12.23-.92,18.36-1.1,9.57-.28,13.33-10.29,11.6-15.83-.58-1.84-1.47-2.64-3.34-1.87a49.76,49.76,0,0,0-5.7,2.47c-6.77,3.76-13.11,8.4-20.95,9.92-.3.06-.53.44-.79.68l-.89.11Zm15.48,60.69-3.84,3.82-3,1.82-1.36.9c-4.35,1.48-8.62,3.36-13.08,4.33-4.22.91-6.83,3.33-9,6.72-3.47,5.51-6.62,11.26-10.54,16.42-3.69,4.85-8.22,9-12.34,13.58-1.71,1.88-3.31,3.85-5,5.78l0,1.48c.27.62.39,1.42.85,1.82,5.58,4.79,8.35,10.91,9.22,18.15.53,4.34,2.26,5.79,6.6,6.08a51.28,51.28,0,0,1,17.18,4.6c3.74,1.65,8,2.11,11.07-.7s6.34-6.56,7.73-10.52A259.73,259.73,0,0,0,386.25,671c1.47-6.33,2.48-12.63,6.19-18.28,3.37-5.12,8-8.71,12.4-12.74a45.25,45.25,0,0,0,7.45-8.78c1.28-2,.93-5,2.09-7.22a144.11,144.11,0,0,1,9.77-16.42C430.27,599,437,591,443.31,582.62c.79-1,.76-2.73,1.11-4.12-1.32-.21-2.71-.76-4-.55-6.23,1-12.39,2.74-18.65,3.33s-11.8,2-16.52,6c-8.62,7.24-18.54,8.53-29.32,7.41-9-.93-10.63.37-14.12,7.36-1.21,2.43-2.58,4.79-3.67,7.28a24.52,24.52,0,0,0-1,4.24c1.52.19,3.13.8,4.54.49,6-1.31,12-2.65,18.23-2.31,2.6.14,4.76.78,5.92,3.34v1.66Q385,620.27,384.18,623.81Zm49.59-78.76c-.78,8.3.22,16.26,4.4,23.65,1.36,2.39,3.94,3.23,5.77,1.22a65,65,0,0,0,7.75-9.73,52.76,52.76,0,0,1,10.9-12.68c3.66-3.16,6.76-6.77,8-11.63.68-2.59,0-3.79-2.47-3.84a33.48,33.48,0,0,0-6.47.5c-6.52,1.14-8.7-.24-10.85-6.64-1.38-4.07-1.85-8.51-5-11.92-1.59-1.74-3.11-1.75-4.69-.35a7.3,7.3,0,0,0-1.75,2.68C435.66,525.51,432.85,534.92,433.77,545.05Z" transform="translate(-319.53 -507.03)"/><path class="cls-1" d="M402.61,542.71c-6.93,3.47-13.9,6.87-20.79,10.45a45,45,0,0,1-14.23,4.21,148.76,148.76,0,0,0-19.12,3.84c-3.38,1-6.29,3.63-9.41,5.53a8.9,8.9,0,0,1,6.8-6.6c6.55-1.58,13.22-2.71,19.88-3.72a60,60,0,0,0,21.12-7.28c3.91-2.24,7.9-4.35,12-6.29C399.88,542.36,401.34,542.73,402.61,542.71Z" transform="translate(-319.53 -507.03)"/><path class="cls-1" d="M416.85,635.26c1.25-10,6.38-18.25,12.44-26,2.48-3.17,5-6.3,7.54-9.46a16.56,16.56,0,0,1-1.23,2.54c-5.54,7.75-11.41,15.29-15.12,24.17-.86,2.07-1.32,4.3-2.1,6.4A12.21,12.21,0,0,1,416.85,635.26Z" transform="translate(-319.53 -507.03)"/><path class="cls-1" d="M436.83,599.82c1.33-1.79,2.71-3.55,4-5.38,3-4.2,6-8.34,8.78-12.68,1.06-1.69,1.33-3.89,2-5.85,1.6,2,.67,4.14-.37,5.76-2.89,4.53-6,8.91-9.29,13.19A46.84,46.84,0,0,1,436.83,599.82Z" transform="translate(-319.53 -507.03)"/><path class="cls-2" d="M459.13,559.57l1.66-2.15Z" transform="translate(-319.53 -507.03)"/><path class="cls-3" d="M360.76,620.54l1.68-.39Z" transform="translate(-319.53 -507.03)"/><path class="cls-3" d="M357.49,621.05l1.71-.25Z" transform="translate(-319.53 -507.03)"/><path class="cls-4" d="M428.81,563.29l.91,1.78Z" transform="translate(-319.53 -507.03)"/><path class="cls-5" d="M473.9,527.31l-1.16-.37Z" transform="translate(-319.53 -507.03)"/><path class="cls-6" d="M326.14,678.66l0-1.48c3.17-2.63,6.48-5.11,9.48-7.93,8.39-7.87,13.81-17.89,19.63-27.61a9.87,9.87,0,0,1,6-5c4.14-1.16,8.18-2.69,12.2-4.22a10.54,10.54,0,0,0,2.58-2.1l1.36-.9,3-1.82,3.84-3.82c2.55-1.88,1.49-4.63,1.67-7.08v-1.66c.79-2.4-.77-3.29-2.61-3.72-4.32-1-8.68-1.5-13.09-.37-3.23.82-6.47,1.6-9.73,2.3a3.07,3.07,0,0,1-2-.41c-.25-.14-.33-1.06-.14-1.43,2-3.83,4-7.66,6.16-11.4a7.41,7.41,0,0,1,7.33-4.11c5.3.25,10.61,0,15.91.11,5.95.11,10.8-2.72,15.44-5.81,4.21-2.8,8.09-6.15,13.26-7.05,7.08-1.23,14.18-2.33,21.26-3.52,1.85-.31,3.67-.75,5.51-1.12l.39.72a24.19,24.19,0,0,1-1.34,2.52c-1.69,2.45-3.37,4.9-5.19,7.25-4.08,5.28-8.41,10.37-12.31,15.77a146,146,0,0,0-8.81,13.85,48.17,48.17,0,0,0-3.86,9.46c-2.14,6.91-8,10.57-12.86,15-7.13,6.5-12.21,14-13.41,23.85a106.73,106.73,0,0,1-7,28c-1,2.48-1.86,5.17-3.45,7.25-2.76,3.62-5.64,7.62-11.24,6.45-1.92-.4-3.8-1-5.69-1.58-4.49-1.28-8.9-3.12-13.48-3.7-5.86-.75-6.64-.82-7.54-6.64A27.12,27.12,0,0,0,326.14,678.66Z" transform="translate(-319.53 -507.03)"/><path class="cls-7" d="M433.77,545.05c-.92-10.13,1.89-19.54,5.67-28.74a7.3,7.3,0,0,1,1.75-2.68c1.58-1.4,3.1-1.39,4.69.35,3.11,3.41,3.58,7.85,5,11.92,2.15,6.4,4.33,7.78,10.85,6.64a33.48,33.48,0,0,1,6.47-.5c2.51.05,3.15,1.25,2.47,3.84-1.28,4.86-4.38,8.47-8,11.63a52.76,52.76,0,0,0-10.9,12.68,65,65,0,0,1-7.75,9.73c-1.83,2-4.41,1.17-5.77-1.22C434,561.31,433,553.35,433.77,545.05Z" transform="translate(-319.53 -507.03)"/><path class="cls-8" d="M350.79,577.22,348.71,576c-.69-1.34-1.44-2.65-2-4-1.13-2.61-.4-4.15,2.34-4.77,3.59-.8,7.22-1.45,10.83-2.22,2.49-.54,5-1.19,7.44-1.78l1.42-.08c1.46.18,3.08,1,4-1l.89-.11a19.33,19.33,0,0,0,3.42-.26c6.85-1.75,12.76-5.41,18.66-9.14a27.61,27.61,0,0,1,5.67-2.48,2,2,0,0,1,1.71.92c1.07,6.12-2.15,12.77-8,13.84a101.18,101.18,0,0,1-15.88,1.17c-8.73.21-15.54,3.47-19.53,11.55-.78,1.57-1.79,1.79-3.3,1.29C354.54,578.31,352.66,577.78,350.79,577.22Z" transform="translate(-319.53 -507.03)"/><path class="cls-6" d="M326.14,678.66a27.12,27.12,0,0,1,11.21,18.11c.9,5.82,1.68,5.89,7.54,6.64,4.58.58,9,2.42,13.48,3.7,1.89.54,3.77,1.18,5.69,1.58,5.6,1.17,8.48-2.83,11.24-6.45,1.59-2.08,2.43-4.77,3.45-7.25a106.73,106.73,0,0,0,7-28c1.2-9.86,6.28-17.35,13.41-23.85,4.88-4.46,10.72-8.12,12.86-15a48.17,48.17,0,0,1,3.86-9.46,146,146,0,0,1,8.81-13.85c3.9-5.4,8.23-10.49,12.31-15.77,1.82-2.35,3.5-4.8,5.19-7.25a24.19,24.19,0,0,0,1.34-2.52l-.39-.72c-1.84.37-3.66.81-5.51,1.12-7.08,1.19-14.18,2.29-21.26,3.52-5.17.9-9.05,4.25-13.26,7.05-4.64,3.09-9.49,5.92-15.44,5.81-5.3-.11-10.61.14-15.91-.11a7.41,7.41,0,0,0-7.33,4.11c-2.15,3.74-4.16,7.57-6.16,11.4-.19.37-.11,1.29.14,1.43a3.07,3.07,0,0,0,2,.41c3.26-.7,6.5-1.48,9.73-2.3,4.41-1.13,8.77-.63,13.09.37,1.84.43,3.4,1.32,2.61,3.72-1.16-2.56-3.32-3.2-5.92-3.34-6.23-.34-12.21,1-18.23,2.31-1.41.31-3-.3-4.54-.49a24.52,24.52,0,0,1,1-4.24c1.09-2.49,2.46-4.85,3.67-7.28,3.49-7,5.14-8.29,14.12-7.36,10.78,1.12,20.7-.17,29.32-7.41,4.72-4,10.36-5.41,16.52-6S434.23,579,440.46,578c1.25-.21,2.64.34,4,.55-.35,1.39-.32,3.07-1.11,4.12-6.33,8.35-13,16.41-19.16,24.89a144.11,144.11,0,0,0-9.77,16.42c-1.16,2.17-.81,5.19-2.09,7.22a45.25,45.25,0,0,1-7.45,8.78c-4.37,4-9,7.62-12.4,12.74-3.71,5.65-4.72,12-6.19,18.28a259.73,259.73,0,0,1-7.46,27.14c-1.39,4-4.57,7.6-7.73,10.52s-7.33,2.35-11.07.7a51.28,51.28,0,0,0-17.18-4.6c-4.34-.29-6.07-1.74-6.6-6.08-.87-7.24-3.64-13.36-9.22-18.15C326.53,680.08,326.41,679.28,326.14,678.66Z" transform="translate(-319.53 -507.03)"/><path class="cls-6" d="M350.79,577.22c1.87.56,3.75,1.09,5.6,1.71,1.51.5,2.52.28,3.3-1.29,4-8.08,10.8-11.34,19.53-11.55a101.18,101.18,0,0,0,15.88-1.17c5.81-1.07,9-7.72,8-13.84a2,2,0,0,0-1.71-.92,27.61,27.61,0,0,0-5.67,2.48c-5.9,3.73-11.81,7.39-18.66,9.14a19.33,19.33,0,0,1-3.42.26c.26-.24.49-.62.79-.68,7.84-1.52,14.18-6.16,20.95-9.92A49.76,49.76,0,0,1,401,549c1.87-.77,2.76,0,3.34,1.87,1.73,5.54-2,15.55-11.6,15.83-6.13.18-12.29.35-18.36,1.1-5.81.71-10.11,4-12.75,9.38-1.93,3.92-2.28,4-6.37,2.28C353.76,578.77,352.29,578,350.79,577.22Z" transform="translate(-319.53 -507.03)"/><path class="cls-6" d="M376,630.35a10.54,10.54,0,0,1-2.58,2.1c-4,1.53-8.06,3.06-12.2,4.22a9.87,9.87,0,0,0-6,5c-5.82,9.72-11.24,19.74-19.63,27.61-3,2.82-6.31,5.3-9.48,7.93,1.65-1.93,3.25-3.9,5-5.78,4.12-4.53,8.65-8.73,12.34-13.58,3.92-5.16,7.07-10.91,10.54-16.42,2.14-3.39,4.75-5.81,9-6.72C367.38,633.71,371.65,631.83,376,630.35Z" transform="translate(-319.53 -507.03)"/><path class="cls-6" d="M367.28,563.2c-2.48.59-4.95,1.24-7.44,1.78-3.61.77-7.24,1.42-10.83,2.22-2.74.62-3.47,2.16-2.34,4.77.6,1.38,1.35,2.69,2,4-1.19-1.9-2.71-3.68-3.42-5.75a4,4,0,0,1,1.62-3.54A43.17,43.17,0,0,1,367.28,563.2Z" transform="translate(-319.53 -507.03)"/><path class="cls-1" d="M428.05,531.8a41.05,41.05,0,0,1,1.06-6.11c1.37-4.15,3-8.21,4.59-12.3.1-.27.53-.41.8-.61Z" transform="translate(-319.53 -507.03)"/><path class="cls-6" d="M385.85,616.73c-.18,2.45.88,5.2-1.67,7.08Q385,620.27,385.85,616.73Z" transform="translate(-319.53 -507.03)"/><path class="cls-6" d="M372.71,562.15c-.93,2-2.55,1.15-4,1Z" transform="translate(-319.53 -507.03)"/><path class="cls-4" d="M427.47,536.68c.12-1.08.23-2.15.35-3.23C427.7,534.53,427.59,535.6,427.47,536.68Z" transform="translate(-319.53 -507.03)"/><path class="cls-9" d="M380.34,627.63l-3,1.82Z" transform="translate(-319.53 -507.03)"/><path class="cls-4" d="M445,507.3l1.09.33Z" transform="translate(-319.53 -507.03)"/></svg>