<svg id="Layer_1" data-name="Layer 1" xmlns="http://www.w3.org/2000/svg" viewBox="0 0 162.04 150.88"><defs><style>.cls-1{fill:#101816;}.cls-2{fill:#c5c6c6;}.cls-3{fill:#a0a0a0;}.cls-4{fill:#cecece;}.cls-5{fill:#3bc98c;}.cls-6{fill:#2a8e63;}.cls-7{fill:#1d6245;}</style></defs><title>on-final</title><path class="cls-1" d="M476.5,637.41c1,4,1,4-3,5.72a11.86,11.86,0,0,0-2.42,1.88h0L470,646.63a.22.22,0,0,0-.18.27l-.93,1.34-1,1.19-6.84,6.79a.25.25,0,0,0-.28.19c-.72.71-1.51,1.37-2.16,2.14-.83,1-1.33,2.44-2.35,3.05a49.35,49.35,0,0,1-6.14,2.64l-1.78.58-3.86,1.44-1.09.51-2.5,1.45a3.52,3.52,0,0,0,2,.7c3,.16,4,1.91,2.22,4.4a12.66,12.66,0,0,1-3.73,2.94c-3.93,2.44-7.93,4.78-11.91,7.15l-3.61,2.25-1.21,1.11-3,2.88-1.49.59c-3,1.15-6.65.69-7.75-1.17-1.58-2.66.26-4.46,1.71-6.48a4.44,4.44,0,0,0,.38-3.6c-.73-1.85-.36-2.94,1.32-3.73,2.74-1.28,3.66-3.54,3.55-6.4-.07-1.8-.06-3.6-.09-5.4l.18-1a13,13,0,0,0-.57-3.34c-.42-1-1.48-1.59-2.06-2.49-1.06-1.67-1.94-3.56-.07-5.14s3.37-.27,5,.94c2.61,2,5.47,3.58,8.63,5.61-.2-4.51-1.84-6.74-5-8.63-4-2.39-7.63-.69-11.36.54l-3.26,0-1.14-.28-1-.21-7.12-2-1-.21-1.14-.29-1-.27-1.12-.4-1.85-.9-1.36-.91-1.1-1.06a64.8,64.8,0,0,1-3.24-6.52c-.88-2.36-2.45-4.06-4.73-4.38-3.9-.55-6.41-2.83-8.93-5.52-1.62-1.72-3.8-2.79-6.32-1.4l-8.85,8c-3.23,1.83-6.53,1.4-9.89.4-2.17-.64-4.4-1.17-6.09,1.09h-.2l-.13.16c-4.13.85-7.28-.67-10.19-3.62-1.25-1.27-3.38-1.79-5.2-2.35-2.58-.81-5.3-1.14-7.84-2-3.85-1.34-4.77-4.88-5.66-8.34-.16-10.13-.16-20.27-.54-30.4-.24-6.68,2.45-11.94,6.94-16.46,6.49-6.54,13.26-12.81,19.6-19.48a54.66,54.66,0,0,0,6.62-9.5c2.17-3.58,4.87-4.16,7.8-1.08,4.07,4.26,8.56,7.42,14.72,7.74a10.46,10.46,0,0,1,4.45,1.85,17.63,17.63,0,0,0,13.85,2,14,14,0,0,1,4.54-.43c3.54.31,5.32,2.11,5,5.45-.71,7.68.92,14.37,7.08,19.49a5.22,5.22,0,0,1,.79,1.1c.86,1.08,1.52,2.47,2.62,3.16,2.12,1.33,4.4,2.9,6.78,3.23,4.3.6,5.31,3.08,6.23,6.82,1.13,4.62,3.34,9,5.08,13.45l0,6c-1.43,4.5.33,8.18,3,11.64a.87.87,0,0,0,.25.35l.93,1.23.75.91.64,1.35.48.82,4.27,4.4h0c1.1.7,2.15,1.87,3.33,2,6.95.82,13.88,2.19,20.87-.21,4.2-1.45,8.59-2.19,12.77.38l1.06,1.09.9,1.36A.22.22,0,0,0,476.5,637.41Zm-57,17.38-.24-.23.21.25a10.93,10.93,0,0,0,1.66,2.34c2,1.63,2.64,3.41,1.58,5.9-.42,1-.17,2.24-.22,3.38l-.54,6.76-1.32,2.35-1.1,1.07-1.19.95.2,2.14-.57,3.51-2.48,2.51c-1.08.63-1.33,1.25,0,1.82l2.16.26,1.38-.55,4.68-4.22,1.23-.92a1.52,1.52,0,0,1,.38-.2l1.28-.82,1.46-.79,1.24-.87a2.14,2.14,0,0,1,.4-.2l1.24-.87,5.81-3.67,1.4-.59.84-.29,2.72-1.21-.24-.63-3-.87-.52-.55-.67-1,.26-2.55,1.59-1.71,1.49-1.21,10-4c1-.73,2-1.39,2.93-2.18s1.39-1.76,2.28-2.3c5.08-3.08,8.81-7.42,12.07-12.28.81-1.21,2.32-2,3.5-2.92.51-.41,1.48-1,1.4-1.25-.26-.68-.85-1.66-1.42-1.74-2.36-.33-5-1.12-7.09-.38-7,2.54-14.17,2-21.24,1.22a19.16,19.16,0,0,1-8.76-3.77c-4.41-3.21-6.84-8.14-9.09-13-1.73-3.76-2-7.76-1.72-11.95.17-3-.74-6-1.6-8.93a76.29,76.29,0,0,0-3.6-9,4.18,4.18,0,0,0-1.85-1.89c-2.88-1.46-6.17-2.34-8.69-4.25-2.67-2-4.45-5.17-6.94-7.47-4.37-4-5.65-9.1-5.73-14.72,0-1.27-.08-2.54,0-3.8.16-2.37-1-3.09-3.18-2.8-.81.11-1.62.21-2.41.39a21,21,0,0,1-16-2.4,9.26,9.26,0,0,0-4-1.61c-5.92-.26-10.43-3.15-14.53-7.08-1.93-1.86-2.94-1.37-4.58.62q-7.61,9.28-15.63,18.25a73.46,73.46,0,0,1-7.71,7.25c-5.84,4.9-9,11-8.81,18.69.29,9.85.53,19.7,1,29.54a4.72,4.72,0,0,0,2.14,3.22c2,1.14,4.29,2.36,6.5,2.45a12.34,12.34,0,0,1,9.51,4.36c1.56,1.79,3.46,1.9,5.9,1.21s5.43-.44,8.16-.49a22.89,22.89,0,0,1,2.65.51c4.21.49,6.46-2.52,8.63-5.23,5-6.21,12.64-5.47,16.36-.59a8.25,8.25,0,0,0,4.35,3c5,1.08,8.19,3.83,9.73,8.74,1.19,3.77,4.11,5.5,7.91,6.14a47.5,47.5,0,0,1,7.64,1.84,10.59,10.59,0,0,0,7.09-.1c8.45-2.75,17.32,2.68,18.21,12.83.22,2.62-1.62,3.8-4.09,2.78-1.93-.79-3.78-1.74-5.67-2.62Z" transform="translate(-315.01 -539.98)"/><path class="cls-2" d="M437.39,632.52l-4.27-4.4Z" transform="translate(-315.01 -539.98)"/><path class="cls-2" d="M476.32,637.14l-.9-1.36Z" transform="translate(-315.01 -539.98)"/><path class="cls-3" d="M431.25,625l-.93-1.23Z" transform="translate(-315.01 -539.98)"/><path class="cls-3" d="M432.64,627.3,432,626Z" transform="translate(-315.01 -539.98)"/><path class="cls-4" d="M401.47,647.42l7.12,2Z" transform="translate(-315.01 -539.98)"/><path class="cls-2" d="M444.48,666.26l3.86-1.44Z" transform="translate(-315.01 -539.98)"/><path class="cls-2" d="M470,646.63l1.13-1.62Z" transform="translate(-315.01 -539.98)"/><path class="cls-4" d="M409.63,649.61l1.14.28Z" transform="translate(-315.01 -539.98)"/><path class="cls-2" d="M468.88,648.24l.93-1.34Z" transform="translate(-315.01 -539.98)"/><path class="cls-4" d="M399.29,646.92l1.14.29Z" transform="translate(-315.01 -539.98)"/><path class="cls-4" d="M397.14,646.25l1.12.4Z" transform="translate(-315.01 -539.98)"/><path class="cls-4" d="M393.93,644.44l1.36.91Z" transform="translate(-315.01 -539.98)"/><path class="cls-4" d="M424.69,686.77l1.21-1.11Z" transform="translate(-315.01 -539.98)"/><path class="cls-5" d="M417.68,687.8l-2.16-.26c0-.61,0-1.22,0-1.82l2.48-2.51c1.19-1,2.05-2.07.57-3.51-.06-.72-.13-1.43-.2-2.14l1.19-.95,1.1-1.07,1.32-2.35q.27-3.39.53-6.76c.63-2.74,1.27-5.47,1.9-8.2,1.89.88,3.74,1.83,5.67,2.62,2.47,1,4.31-.16,4.09-2.78-.89-10.15-9.76-15.58-18.21-12.83a10.59,10.59,0,0,1-7.09.1,47.5,47.5,0,0,0-7.64-1.84c-3.8-.64-6.72-2.37-7.91-6.14-1.54-4.91-4.7-7.66-9.73-8.74a8.25,8.25,0,0,1-4.35-3c-3.72-4.88-11.4-5.62-16.36.59-2.17,2.71-4.42,5.72-8.63,5.23a22.89,22.89,0,0,0-2.65-.51c-2.73,0-5.59-.23-8.16.49s-4.34.58-5.9-1.21a12.34,12.34,0,0,0-9.51-4.36c-2.21-.09-4.5-1.31-6.5-2.45a4.72,4.72,0,0,1-2.14-3.22c-.45-9.84-.69-19.69-1-29.54-.23-7.72,3-13.79,8.81-18.69a73.46,73.46,0,0,0,7.71-7.25q8-9,15.63-18.25c1.64-2,2.65-2.48,4.58-.62,4.1,3.93,8.61,6.82,14.53,7.08a9.26,9.26,0,0,1,4,1.61,21,21,0,0,0,16,2.4c.79-.18,1.6-.28,2.41-.39,2.13-.29,3.34.43,3.18,2.8-.08,1.26,0,2.53,0,3.8.08,5.62,1.36,10.69,5.73,14.72,2.49,2.3,4.27,5.45,6.94,7.47,2.52,1.91,5.81,2.79,8.69,4.25a4.18,4.18,0,0,1,1.85,1.89,76.29,76.29,0,0,1,3.6,9c.86,2.89,1.77,6,1.6,8.93-.26,4.19,0,8.19,1.72,11.95,2.25,4.85,4.68,9.78,9.09,13a19.16,19.16,0,0,0,8.76,3.77c7.07.74,14.21,1.32,21.24-1.22,2.06-.74,4.73,0,7.09.38.57.08,1.16,1.06,1.42,1.74.08.21-.89.84-1.4,1.25-1.18,1-2.69,1.71-3.5,2.92-3.26,4.86-7,9.2-12.07,12.28-.89.54-1.46,1.59-2.28,2.3s-1.94,1.45-2.93,2.17l-10,4.06-1.49,1.21L437.58,667c-.09.85-.18,1.7-.26,2.55.22.35.44.7.67,1s.35.37.52.55l.51,2.71-.84.29-1.4.59L431,678.36l-1.24.87a2.14,2.14,0,0,0-.4.2l-1.24.87-1.46.79-1.28.82a1.52,1.52,0,0,0-.38.2l-1.23.92-4.68,4.22Z" transform="translate(-315.01 -539.98)"/><path class="cls-5" d="M424.36,658.23c-.63,2.73-1.27,5.46-1.9,8.2.06-1.14-.19-2.41.23-3.38,1.06-2.49.43-4.27-1.58-5.9a10.93,10.93,0,0,1-1.66-2.34l0,0Z" transform="translate(-315.01 -539.98)"/><path class="cls-6" d="M440.66,664l10-4.06Z" transform="translate(-315.01 -539.98)"/><path class="cls-5" d="M439,673.81l-.51-2.71,3,.87.24.63Z" transform="translate(-315.01 -539.98)"/><path class="cls-5" d="M418.52,679.7c1.48,1.44.62,2.5-.57,3.51Z" transform="translate(-315.01 -539.98)"/><path class="cls-7" d="M421.93,673.19l-1.32,2.35Z" transform="translate(-315.01 -539.98)"/><path class="cls-6" d="M437.58,667l1.59-1.71Z" transform="translate(-315.01 -539.98)"/><path class="cls-5" d="M415.47,685.72c0,.6,0,1.21,0,1.82C414.14,687,414.39,686.35,415.47,685.72Z" transform="translate(-315.01 -539.98)"/><path class="cls-6" d="M438,670.55c-.23-.34-.45-.69-.67-1C437.54,669.86,437.76,670.21,438,670.55Z" transform="translate(-315.01 -539.98)"/><path class="cls-6" d="M436.78,674.69l1.4-.59Z" transform="translate(-315.01 -539.98)"/><path class="cls-7" d="M419.51,676.61l-1.19.95Z" transform="translate(-315.01 -539.98)"/><path class="cls-7" d="M429.73,679.23l1.24-.87Z" transform="translate(-315.01 -539.98)"/><path class="cls-7" d="M428.09,680.3l1.24-.87Z" transform="translate(-315.01 -539.98)"/><path class="cls-7" d="M425.35,681.91l1.28-.82Z" transform="translate(-315.01 -539.98)"/><path class="cls-7" d="M423.74,683l1.23-.92Z" transform="translate(-315.01 -539.98)"/><path class="cls-7" d="M417.68,687.8l1.38-.55Z" transform="translate(-315.01 -539.98)"/><path class="cls-7" d="M419.45,654.81l-.21-.25.24.23Z" transform="translate(-315.01 -539.98)"/></svg>