<svg id="Layer_1" data-name="Layer 1" xmlns="http://www.w3.org/2000/svg" viewBox="0 0 163.28 186.12"><defs><style>.cls-1{fill:#101815;}.cls-2{fill:#656666;}.cls-3{fill:#b7b7b7;}.cls-4{fill:#979798;}.cls-5{fill:#3bc98c;}.cls-6{fill:#38bf86;}.cls-7{fill:#ececec;}</style></defs><title>qc-final</title><path class="cls-1" d="M437.12,627.3l2.95-1.47,3.86-1h4.36l2.2.51c1.93.63,2.54,2,2.52,4,0,5.56-2.26,9.41-7.34,12.25-5.82,3.24-11.2,7.33-16.58,11.3-3.46,2.55-4.89,6.52-5.5,10.61-.2,1.37.71,3.11,1.55,4.39,1,1.52,1.39,2.79.61,4.52a13.25,13.25,0,0,0-1.14,4.18c-.55,5.75-3.46,10.31-7.42,14.13-1.71,1.65-4.24,2.55-6.52,3.5-2.55,1.07-5.33,1.6-7.85,2.73s-5,1.28-7.34-.6c-4.78-3.83-10.13-4.37-15.9-2.71a52.52,52.52,0,0,1-8.44,1.91c-9.31,1-16.13-3.58-21.93-10.21-1.85-2.1-3.55-4.34-5.4-6.46-3.56-4.09-4.23-8.75-3.27-14a15.4,15.4,0,0,0,0-6.69c-1.2-4.33-3-8.49-4.46-12.76a54.18,54.18,0,0,1-2-7.26c-.28-1.51.54-2.56,2.33-2.61,3.1-.09,3.79-1,2.47-3.94-2-4.53-4.36-8.95-6.59-13.39-1.79-3.56-3.62-7.09-5.45-10.62a4.5,4.5,0,0,1,1-5.89c1-.93,1.84-2,2.87-2.88,6.56-5.58,7.37-12.92,5.73-20.6-.58-2.7-2.86-5.11-4.63-7.46-3.05-4-6.39-7.86-9.46-11.88a8.71,8.71,0,0,1-1-9.28c1.86-4,2-7.33-1.43-10.83-1.49-1.54-1.55-4.47-2.23-6.78a62.11,62.11,0,0,0-2.07-7.21c-2-4.56,0-9,4.93-9.15,5.16-.13,9.85-.4,14.69-3,3.89-2.11,8.45-.66,11.84,2.92a57.19,57.19,0,0,0,5.39,4.51l1.92.67,1.2-.09,2-.47,1-.23,1.08-.09h1.08l1.34.22,4.72,2.95,1.65,5.54c.05.47.09.94.14,1.41.36,1.2.71,2.4,1.07,3.6l.49,1.34a48.44,48.44,0,0,0,1.61,5,2.07,2.07,0,0,0,1.81.87,15.45,15.45,0,0,0,3.07-1.48l4.76.07,1.31.32,1.23.07c2.35.3,3.07-1.35,3.21-3.1.2-2.59,0-5.21,0-7.81l.16-2,.41-1.84.18-.89.29-1.32.21-1.39.28-4.62L389,516l2.86.5a.57.57,0,0,1,.35.28,61.09,61.09,0,0,0,3.2,6.43c1.08,1.66,2.43,3.85,4.07,4.31,3,.83,3.28,2.39,3.11,4.89-.14,2.11.25,4.16,2.81,4.81a.68.68,0,0,1,.39.25c2.6,2.2,4,5.12,5,8.26a10.53,10.53,0,0,0,1.2,2l.57,1.33,1.05,2.48,1.57,3.05.75,1.29a.73.73,0,0,1,.28.42l.89,1.18,4.57,4.76c0,1.31,0,2.62,0,3.93a.57.57,0,0,1-.27.37l-2.6,2.61a.63.63,0,0,1-.4.25c-3.46,1.13-6.91,2.27-10.37,3.39-1.09.36-2.18.67-3.27,1l-.86.17-1.13,1-.05,1.44c-2.2,3.43-2.27,4.91-.33,7.18l1.19,1.2a18.15,18.15,0,0,0,3.61.51,28.07,28.07,0,0,0,4.19-.79l1.06,1.09a24.84,24.84,0,0,0,.59,5.07c.32,1,1.54,2.39,2.35,2.39,2.63,0,3.6,1.46,4.5,3.53.8,1.81,2.11,3.17,4.44,2.34l1.12-.06,1.08-.16.89-.17c3.13-.49,3.93-1.82,2.83-4.71l0-1.07,3.92-3.92h1.61a24.78,24.78,0,0,0,4.15,1.48,9.56,9.56,0,0,0,3.07-.43l3.63-2.62,1.22-.83,1.89-1,4.65-2.25,3.15-1.92c5-4,10-8,16.32-9.87H476c.72,1.11,1.45,2.22,2.18,3.33v5.44l-1,1.54L476,584.07l-1.09,1.64-.74.91-.9,1.25a1.41,1.41,0,0,0-.24.36l-.81,1.31a1.07,1.07,0,0,0-.21.36c-.38.84-1.25,1.81-1.06,2.5.83,3.11-.15,5.59-2.16,7.84l-14.44,9L450.8,611q-10.68,6.18-21.36,12.37a8.21,8.21,0,0,0-1.22,1.07c-1.9,1-2.27,2.52-.89,4.16a3.31,3.31,0,0,1,.2,4.37,20.8,20.8,0,0,1-2.64,1.88c-3.13,1.58-4.4,4.11-4.89,7.56a18,18,0,0,1-2.89,7.76c-2.49,3.49-3.77,6.93-2.5,11.11L411,668.07l.74.41,4-6.49c1.46-4.3,2.84-8.63,4.42-12.88,1.17-3.14,2.61-6.17,3.93-9.25l.91-1.33,3.68-3.94Zm-17.86,34.62c-4.43,7.62-8.8,15.19-13.21,22.74a8.94,8.94,0,0,1-2.18,3c-1.18.79-3,1.64-4.09,1.26s-2.18-2.13-2.47-3.45c-1.35-6,1.76-10.37,5.87-14.31a81.46,81.46,0,0,0,6.74-7.4,4.07,4.07,0,0,0,.84-3.21c-1.36-4,.15-7.13,2.17-10.45a27.21,27.21,0,0,0,3.71-8.86c.71-3.74,2-6.67,5.32-8.65a2.72,2.72,0,0,0,1.28-2c-.6-5.67.95-9.16,5.82-11.81,8.36-4.53,16.83-8.85,25.16-13.44,4-2.21,7.88-4.74,11.68-7.32.94-.64,2.05-2.19,1.88-3.07-.92-4.68,2-7.66,4.22-11a27.15,27.15,0,0,0,3-5.41c1-2.91-.32-4.3-3.07-3a69.19,69.19,0,0,0-9,5.48c-3.16,2.09-6.18,4.4-9.35,6.47-2.56,1.67-5.33,3-7.86,4.73-2.12,1.43-4.18,2.07-6.62,1a8,8,0,0,0-2.07-.62c-2-.27-3.37,0-3.16,2.65a6.13,6.13,0,0,1-.85,3.86c-3.58,4.85-12.44,4.21-15.66-.94a4,4,0,0,0-2.11-1.76c-4.5-1-4.65-1-5.29-5.77-.23-1.74-.75-2.21-2.61-1.94-6.31.91-10.72-4.61-8.75-10.72a7.08,7.08,0,0,0,.68-2.87c-.38-2.88,1.32-3.93,3.63-4.48,1.31-.32,2.68-.42,4-.66,3.47-.63,7-1.2,9.73-3.75,1.28-1.18,1.83-2.26.43-3.63-4.89-4.79-6.9-11.16-9.65-17.16-1-2.11-2.92-3.76-4.4-5.65-1.08-1.39-2.81-2.72-3-4.26-.41-2.85-1.26-4.76-3.88-6.4-1.88-1.18-2.9-3.76-4.28-5.68-1.73,3.24-2,5.43-1.53,11.52.46,5.65-2.29,9-7.29,8.22a16.55,16.55,0,0,0-9.23.9c-1.88.74-3.72.35-4.44-1.83-1.49-4.55-3.05-9.09-4.17-13.73-1-4.21-3-5.9-7.17-4.61a8.21,8.21,0,0,1-8.34-1.6c-1.66-1.4-3.41-2.7-5-4.19-3.45-3.27-7.33-3.55-10.93-.45a9,9,0,0,1-7.84,2,20.74,20.74,0,0,0-3.76-.37c-3.07.06-3.74,1.27-2.87,4.2s1.26,5.79,2.07,8.63c.53,1.85,1,3.95,2.25,5.3,3.12,3.48,3.82,7.26,1.87,11.29-2.36,4.83-.65,8.53,2.48,12.1,2.86,3.26,5.79,6.47,8.51,9.85a13.86,13.86,0,0,1,2.92,5.14c2.41,10.33,1.45,19.92-7.39,27.16-2.21,1.81-2.17,3.37-1,5.59,3.53,6.63,7,13.29,10.44,20,3.18,6.24,2.39,8.63-3.65,11.51a3.59,3.59,0,0,0,.08,1c.35.93.76,1.84,1.17,2.74,3.44,7.57,6.47,15.11,4.52,23.82a9.91,9.91,0,0,0,1.84,7.11,78.12,78.12,0,0,0,11.13,12.52c5.21,4.51,11.65,6.62,18.47,4.07,8.12-3,15.71-3,23.1,1.86a4.22,4.22,0,0,0,3,.46c3.29-.83,6.53-1.89,9.77-2.91a7,7,0,0,0,2.19-1c6.13-4.71,8.42-11.34,9.15-18.7a4.52,4.52,0,0,0-.45-1.82C421.06,667,420.26,664.72,419.26,661.92Zm3.37-7.36c1.78-1.88,2.84-3.43,4.27-4.43q9-6.25,18.24-12.21c2.25-1.45,3.95-3.13,4.32-5.87.43-3.12-.33-4.11-3.41-3.86a11.75,11.75,0,0,0-5.41,1.36c-3.37,2.23-6.45,4.9-9.6,7.45C425.67,641.33,424.05,647.5,422.63,654.56Zm-21.72,30.8c3.07-2.44,8-11.52,7.94-14.55C401,677.3,399.09,680.71,400.91,685.36Z" transform="translate(-314.9 -511.67)"/><path class="cls-1" d="M473.84,571.48c-6.3,1.86-11.3,5.89-16.32,9.87C461.78,576.1,467,572.51,473.84,571.48Z" transform="translate(-314.9 -511.67)"/><path class="cls-2" d="M368.46,528.58,366.81,523Z" transform="translate(-314.9 -511.67)"/><path class="cls-2" d="M454.37,583.27l-4.65,2.25Z" transform="translate(-314.9 -511.67)"/><path class="cls-2" d="M388.69,516.89l-.28,4.62C388.5,520,388.6,518.43,388.69,516.89Z" transform="translate(-314.9 -511.67)"/><path class="cls-1" d="M421.69,566.18c0-1.31,0-2.62,0-3.93C423.55,563.56,423.39,564.87,421.69,566.18Z" transform="translate(-314.9 -511.67)"/><path class="cls-3" d="M443.93,624.84l-3.86,1Z" transform="translate(-314.9 -511.67)"/><path class="cls-2" d="M418.82,569.16l2.6-2.61Z" transform="translate(-314.9 -511.67)"/><path class="cls-4" d="M450.8,611l3.56-1.74Z" transform="translate(-314.9 -511.67)"/><path class="cls-2" d="M369.67,533.59c-.36-1.2-.71-2.4-1.07-3.6C369,531.19,369.31,532.39,369.67,533.59Z" transform="translate(-314.9 -511.67)"/><path class="cls-1" d="M391.84,516.52,389,516C390.14,515,390.47,515.05,391.84,516.52Z" transform="translate(-314.9 -511.67)"/><path class="cls-2" d="M413.62,551.55l-1.05-2.48Z" transform="translate(-314.9 -511.67)"/><path class="cls-3" d="M450.49,625.34l-2.2-.51Z" transform="translate(-314.9 -511.67)"/><path class="cls-2" d="M387.73,525.11l-.41,1.84Z" transform="translate(-314.9 -511.67)"/><path class="cls-2" d="M357.61,520.19l-2,.47Z" transform="translate(-314.9 -511.67)"/><path class="cls-2" d="M354.42,520.75l-1.92-.67Z" transform="translate(-314.9 -511.67)"/><path class="cls-4" d="M474.92,585.71l1.09-1.64Z" transform="translate(-314.9 -511.67)"/><path class="cls-4" d="M473.28,587.87l.9-1.25Z" transform="translate(-314.9 -511.67)"/><path class="cls-2" d="M425.46,598.9" transform="translate(-314.9 -511.67)"/><path class="cls-2" d="M447.83,586.47l-1.22.83Z" transform="translate(-314.9 -511.67)"/><path class="cls-4" d="M472.23,589.54l.81-1.31Z" transform="translate(-314.9 -511.67)"/><path class="cls-2" d="M402.79,575l1.13-1Z" transform="translate(-314.9 -511.67)"/><path class="cls-2" d="M417.11,557.49l-.89-1.18Z" transform="translate(-314.9 -511.67)"/><path class="cls-2" d="M415.94,555.89l-.75-1.29Z" transform="translate(-314.9 -511.67)"/><path class="cls-2" d="M382.72,539.75l-1.31-.32Z" transform="translate(-314.9 -511.67)"/><path class="cls-2" d="M388.2,522.9l-.29,1.32Z" transform="translate(-314.9 -511.67)"/><path class="cls-2" d="M362.09,520.09l-1.34-.22Z" transform="translate(-314.9 -511.67)"/><path class="cls-2" d="M359.67,519.87l-1.08.09Z" transform="translate(-314.9 -511.67)"/><path class="cls-5" d="M419.26,661.92c1,2.8,1.8,5,2.58,7.27a4.52,4.52,0,0,1,.45,1.82c-.73,7.36-3,14-9.15,18.7a7,7,0,0,1-2.19,1c-3.24,1-6.48,2.08-9.77,2.91a4.22,4.22,0,0,1-3-.46c-7.39-4.84-15-4.89-23.1-1.86-6.82,2.55-13.26.44-18.47-4.07a78.12,78.12,0,0,1-11.13-12.52,9.91,9.91,0,0,1-1.84-7.11c1.95-8.71-1.08-16.25-4.52-23.82-.41-.9-.82-1.81-1.17-2.74a3.59,3.59,0,0,1-.08-1c6-2.88,6.83-5.27,3.65-11.51-3.41-6.7-6.91-13.36-10.44-20-1.18-2.22-1.22-3.78,1-5.59,8.84-7.24,9.8-16.83,7.39-27.16a13.86,13.86,0,0,0-2.92-5.14c-2.72-3.38-5.65-6.59-8.51-9.85-3.13-3.57-4.84-7.27-2.48-12.1,1.95-4,1.25-7.81-1.87-11.29-1.22-1.35-1.72-3.45-2.25-5.3-.81-2.84-1.24-5.79-2.07-8.63s-.2-4.14,2.87-4.2a20.74,20.74,0,0,1,3.76.37,9,9,0,0,0,7.84-2c3.6-3.1,7.48-2.82,10.93.45,1.57,1.49,3.32,2.79,5,4.19a8.21,8.21,0,0,0,8.34,1.6c4.13-1.29,6.15.4,7.17,4.61,1.12,4.64,2.68,9.18,4.17,13.73.72,2.18,2.56,2.57,4.44,1.83a16.55,16.55,0,0,1,9.23-.9c5,.83,7.75-2.57,7.29-8.22-.5-6.09-.2-8.28,1.53-11.52,1.38,1.92,2.4,4.5,4.28,5.68,2.62,1.64,3.47,3.55,3.88,6.4.22,1.54,2,2.87,3,4.26,1.48,1.89,3.43,3.54,4.4,5.65,2.75,6,4.76,12.37,9.65,17.16,1.4,1.37.85,2.45-.43,3.63-2.77,2.55-6.26,3.12-9.73,3.75-1.34.24-2.71.34-4,.66-2.31.55-4,1.6-3.63,4.48a7.08,7.08,0,0,1-.68,2.87c-2,6.11,2.44,11.63,8.75,10.72,1.86-.27,2.38.2,2.61,1.94.64,4.75.79,4.76,5.29,5.77a4,4,0,0,1,2.11,1.76c3.22,5.15,12.08,5.79,15.66.94a6.13,6.13,0,0,0,.85-3.86c-.21-2.6,1.18-2.92,3.16-2.65a8,8,0,0,1,2.07.62c2.44,1,4.5.39,6.62-1,2.53-1.71,5.3-3.06,7.86-4.73,3.17-2.07,6.19-4.38,9.35-6.47a69.19,69.19,0,0,1,9-5.48c2.75-1.26,4.08.13,3.07,3a27.15,27.15,0,0,1-3,5.41c-2.18,3.39-5.14,6.37-4.22,11,.17.88-.94,2.43-1.88,3.07-3.8,2.58-7.66,5.11-11.68,7.32-8.33,4.59-16.8,8.91-25.16,13.44-4.87,2.65-6.42,6.14-5.82,11.81a2.72,2.72,0,0,1-1.28,2c-3.32,2-4.61,4.91-5.32,8.65a27.21,27.21,0,0,1-3.71,8.86c-2,3.32-3.53,6.45-2.17,10.45a4.07,4.07,0,0,1-.84,3.21,81.46,81.46,0,0,1-6.74,7.4c-4.11,3.94-7.22,8.26-5.87,14.31.29,1.32,1.36,3.09,2.47,3.45s2.91-.47,4.09-1.26a8.94,8.94,0,0,0,2.18-3C410.46,677.11,414.83,669.54,419.26,661.92Z" transform="translate(-314.9 -511.67)"/><path class="cls-6" d="M422.63,654.56c1.42-7.06,3-13.23,8.41-17.56,3.15-2.55,6.23-5.22,9.6-7.45a11.75,11.75,0,0,1,5.41-1.36c3.08-.25,3.84.74,3.41,3.86-.37,2.74-2.07,4.42-4.32,5.87q-9.22,6-18.24,12.21C425.47,651.13,424.41,652.68,422.63,654.56Z" transform="translate(-314.9 -511.67)"/><path class="cls-7" d="M427.53,633l1.14,1.61L425,638.53l-.91,1.33c-1.32,3.08-2.76,6.11-3.93,9.25-1.58,4.25-3,8.58-4.42,12.88l-1.12-.7c-1.27-4.18,0-7.62,2.5-11.11a18,18,0,0,0,2.89-7.76c.49-3.45,1.76-6,4.89-7.56A20.8,20.8,0,0,0,427.53,633Z" transform="translate(-314.9 -511.67)"/><path class="cls-3" d="M424.08,639.86l.91-1.33Z" transform="translate(-314.9 -511.67)"/></svg>