<?xml version="1.0" encoding="utf-8"?>
<!-- Generator: Adobe Illustrator 23.0.2, SVG Export Plug-In . SVG Version: 6.00 Build 0)  -->
<svg version="1.1" id="saskatchewan" xmlns="http://www.w3.org/2000/svg" xmlns:xlink="http://www.w3.org/1999/xlink" x="0px"
	 y="0px" viewBox="0 0 300 400" style="enable-background:new 0 0 300 400;" xml:space="preserve">
<style type="text/css">
	.st0{fill:#999999;}
</style>
<path class="st0" d="M257.27,11.54c0-0.3-0.02-0.6-0.04-0.91c0,0,0-0.01,0-0.01H13.36v1.98h243.83
	C257.17,12.25,257.19,11.9,257.27,11.54z"/>
<rect x="117.25" y="149.54" transform="matrix(4.490103e-11 -1 1 4.490103e-11 105.6355 406.6966)" class="st0" width="277.83" height="1.98"/>
<path class="st0" d="M257.16,389.61V115.09h-1.98v276.74c0.15-0.01,0.3-0.02,0.46-0.02c0.29,0,0.56,0.03,0.82,0.07
	c0.24,0,0.47,0,0.7,0.03v-0.21C257.03,391,257.03,390.29,257.16,389.61z"/>
<path class="st0" d="M257.11,389.94H13.36v1.98h241.12c0.36-0.08,0.74-0.12,1.15-0.12c0.28,0,0.54,0.03,0.8,0.06
	c0.26-0.01,0.52,0.01,0.77,0.04C257.06,391.26,257.03,390.59,257.11,389.94z"/>
<rect x="-124.56" y="251.02" transform="matrix(4.490103e-11 -1 1 4.490103e-11 -237.6616 266.3699)" class="st0" width="277.83" height="1.98"/>
<rect x="-124.55" y="148.55" transform="matrix(4.490103e-11 -1 1 4.490103e-11 -135.1765 163.9005)" class="st0" width="277.83" height="1.98"/>
<path class="st0" d="M63.36,282.01c0-0.11,0.02-0.21,0.03-0.31c-0.25-0.56-0.26-1.24-0.02-1.81c-0.04-0.16-0.07-0.33-0.08-0.49
	c-0.28-0.2-0.49-0.45-0.62-0.76c-0.35-0.18-0.62-0.47-0.78-0.8c-0.04-0.02-0.07-0.05-0.11-0.08c-0.09,0.01-0.19,0.02-0.29,0.02
	c-0.41,0-0.75-0.1-1.03-0.26c-0.28,0.14-0.6,0.22-0.9,0.22h-0.04c-0.04,0-0.07-0.01-0.1-0.01c-0.29,0.23-0.65,0.38-1.1,0.4
	c-0.16,0.23-0.38,0.42-0.64,0.55c-0.13,0.39-0.36,0.73-0.71,0.97c0.02,0.3-0.02,0.61-0.12,0.89c-0.01,0.11-0.02,0.21-0.04,0.31
	c0.04,0.24,0.04,0.48,0.01,0.71c0.05,0.22,0.08,0.45,0.06,0.68c0.05,0.16,0.09,0.33,0.1,0.49c0.1,0.16,0.22,0.32,0.34,0.46
	c0.25,0.13,0.46,0.31,0.62,0.53c0.28,0.1,0.51,0.25,0.69,0.44c0.46,0.2,0.97,0.32,1.51,0.32c0.52,0,1-0.11,1.45-0.31
	c0.07-0.07,0.16-0.13,0.24-0.19c0.19-0.23,0.43-0.41,0.74-0.53c0,0,0,0,0,0c0.11-0.13,0.23-0.26,0.38-0.35
	c0.07-0.11,0.15-0.22,0.24-0.31c0.04-0.09,0.1-0.17,0.16-0.25c0.01-0.03,0.02-0.07,0.04-0.1c0-0.03,0.01-0.07,0.01-0.1
	C63.39,282.23,63.37,282.12,63.36,282.01L63.36,282.01L63.36,282.01z"/>
<rect x="59.46" y="283.7" class="st0" width="1.37" height="5.74"/>
<path class="st0" d="M84.61,304.97c0-0.11,0.02-0.21,0.03-0.31c-0.25-0.56-0.26-1.24-0.02-1.81c-0.04-0.16-0.07-0.33-0.08-0.49
	c-0.28-0.2-0.49-0.45-0.62-0.76c-0.35-0.18-0.62-0.47-0.78-0.8c-0.04-0.02-0.07-0.05-0.11-0.08c-0.09,0.01-0.19,0.02-0.29,0.02
	c-0.41,0-0.75-0.1-1.03-0.26c-0.28,0.14-0.6,0.22-0.9,0.22h-0.04c-0.04,0-0.07-0.01-0.1-0.01c-0.29,0.23-0.65,0.38-1.1,0.4
	c-0.16,0.23-0.38,0.42-0.64,0.55c-0.13,0.39-0.36,0.73-0.71,0.97c0.02,0.3-0.02,0.61-0.12,0.89c-0.01,0.11-0.02,0.21-0.04,0.31
	c0.04,0.24,0.04,0.48,0.01,0.71c0.05,0.22,0.08,0.45,0.06,0.68c0.05,0.16,0.09,0.33,0.1,0.49c0.1,0.16,0.22,0.32,0.34,0.46
	c0.25,0.13,0.46,0.31,0.62,0.53c0.28,0.1,0.51,0.25,0.69,0.44c0.46,0.2,0.97,0.32,1.51,0.32c0.52,0,1-0.11,1.45-0.31
	c0.07-0.07,0.16-0.13,0.24-0.19c0.19-0.23,0.43-0.41,0.74-0.53c0,0,0,0,0,0c0.11-0.13,0.23-0.26,0.38-0.35
	c0.07-0.11,0.15-0.22,0.24-0.31c0.04-0.09,0.1-0.17,0.16-0.25c0.01-0.03,0.02-0.07,0.04-0.1c0-0.03,0.01-0.07,0.01-0.1
	C84.63,305.2,84.62,305.09,84.61,304.97L84.61,304.97L84.61,304.97z"/>
<rect x="80.71" y="306.67" class="st0" width="1.37" height="5.74"/>
<path class="st0" d="M56.76,310.94c0-0.11,0.02-0.21,0.03-0.31c-0.25-0.56-0.26-1.24-0.02-1.81c-0.04-0.16-0.07-0.33-0.08-0.49
	c-0.28-0.2-0.49-0.45-0.62-0.76c-0.35-0.18-0.62-0.47-0.78-0.8c-0.04-0.02-0.07-0.05-0.11-0.08c-0.09,0.01-0.19,0.02-0.29,0.02
	c-0.41,0-0.75-0.1-1.03-0.26c-0.28,0.14-0.6,0.22-0.9,0.22h-0.04c-0.04,0-0.07-0.01-0.1-0.01c-0.29,0.23-0.65,0.38-1.1,0.4
	c-0.16,0.23-0.38,0.42-0.64,0.55c-0.13,0.39-0.36,0.73-0.71,0.97c0.02,0.3-0.02,0.61-0.12,0.89c-0.01,0.11-0.02,0.21-0.04,0.31
	c0.04,0.24,0.04,0.48,0.01,0.71c0.05,0.22,0.08,0.45,0.06,0.68c0.05,0.16,0.09,0.33,0.1,0.49c0.1,0.16,0.22,0.32,0.34,0.46
	c0.25,0.13,0.46,0.31,0.62,0.53c0.28,0.1,0.51,0.25,0.69,0.44c0.46,0.2,0.97,0.32,1.51,0.32c0.52,0,1-0.11,1.45-0.31
	c0.07-0.07,0.16-0.13,0.24-0.19c0.19-0.23,0.43-0.41,0.74-0.53c0,0,0,0,0,0c0.11-0.13,0.23-0.26,0.38-0.35
	c0.07-0.11,0.15-0.22,0.24-0.31c0.04-0.09,0.1-0.17,0.16-0.25c0.01-0.03,0.02-0.07,0.04-0.1c0-0.03,0.01-0.07,0.01-0.1
	C56.79,311.17,56.77,311.06,56.76,310.94L56.76,310.94L56.76,310.94z"/>
<rect x="52.86" y="312.63" class="st0" width="1.37" height="5.74"/>
<path class="st0" d="M98.84,322.87c0-0.11,0.02-0.21,0.03-0.31c-0.25-0.56-0.26-1.24-0.02-1.81c-0.04-0.16-0.07-0.33-0.08-0.49
	c-0.28-0.2-0.49-0.45-0.62-0.76c-0.35-0.18-0.62-0.47-0.78-0.8c-0.04-0.02-0.07-0.05-0.11-0.08c-0.09,0.01-0.19,0.02-0.29,0.02
	c-0.41,0-0.75-0.1-1.03-0.26c-0.28,0.14-0.6,0.22-0.9,0.22H95c-0.04,0-0.07-0.01-0.1-0.01c-0.29,0.23-0.65,0.38-1.1,0.4
	c-0.16,0.23-0.38,0.42-0.64,0.55c-0.13,0.39-0.36,0.73-0.71,0.97c0.02,0.3-0.02,0.61-0.12,0.89c-0.01,0.11-0.02,0.21-0.04,0.31
	c0.04,0.24,0.04,0.48,0.01,0.71c0.05,0.22,0.08,0.45,0.06,0.68c0.05,0.16,0.09,0.33,0.1,0.49c0.1,0.16,0.22,0.32,0.34,0.46
	c0.25,0.13,0.46,0.31,0.62,0.53c0.28,0.1,0.51,0.25,0.69,0.44c0.46,0.2,0.97,0.32,1.51,0.32c0.52,0,1-0.11,1.45-0.31
	c0.07-0.07,0.16-0.13,0.24-0.19c0.19-0.23,0.43-0.41,0.74-0.53c0,0,0,0,0,0c0.11-0.13,0.23-0.26,0.38-0.35
	c0.07-0.11,0.15-0.22,0.24-0.31c0.04-0.09,0.1-0.17,0.16-0.25c0.01-0.03,0.02-0.07,0.04-0.1c0-0.03,0.01-0.07,0.01-0.1
	C98.86,323.09,98.84,322.98,98.84,322.87L98.84,322.87L98.84,322.87z"/>
<rect x="94.94" y="324.56" class="st0" width="1.37" height="5.74"/>
<path class="st0" d="M84.61,135.66c0-0.11,0.02-0.21,0.03-0.31c-0.25-0.56-0.26-1.24-0.02-1.81c-0.04-0.16-0.07-0.33-0.08-0.49
	c-0.28-0.2-0.49-0.45-0.62-0.76c-0.35-0.18-0.62-0.47-0.78-0.8c-0.04-0.02-0.07-0.05-0.11-0.08c-0.09,0.01-0.19,0.02-0.29,0.02
	c-0.41,0-0.75-0.1-1.03-0.26c-0.28,0.14-0.6,0.22-0.9,0.22h-0.04c-0.04,0-0.07-0.01-0.1-0.01c-0.29,0.23-0.65,0.38-1.1,0.4
	c-0.16,0.23-0.38,0.42-0.64,0.55c-0.13,0.39-0.36,0.73-0.71,0.97c0.02,0.3-0.02,0.61-0.12,0.89c-0.01,0.11-0.02,0.21-0.04,0.31
	c0.04,0.24,0.04,0.48,0.01,0.71c0.05,0.22,0.08,0.45,0.06,0.68c0.05,0.16,0.09,0.33,0.1,0.49c0.1,0.16,0.22,0.32,0.34,0.46
	c0.25,0.13,0.46,0.31,0.62,0.53c0.28,0.1,0.51,0.25,0.69,0.44c0.46,0.2,0.97,0.32,1.51,0.32c0.52,0,1-0.11,1.45-0.31
	c0.07-0.07,0.16-0.13,0.24-0.19c0.19-0.23,0.43-0.41,0.74-0.53c0,0,0,0,0,0c0.11-0.13,0.23-0.26,0.38-0.35
	c0.07-0.11,0.15-0.22,0.24-0.31c0.04-0.09,0.1-0.17,0.16-0.25c0.01-0.03,0.02-0.07,0.04-0.1c0-0.03,0.01-0.07,0.01-0.1
	C84.63,135.88,84.62,135.77,84.61,135.66L84.61,135.66L84.61,135.66z"/>
<rect x="80.71" y="137.35" class="st0" width="1.37" height="5.74"/>
<path class="st0" d="M66.66,117.59c0-0.11,0.02-0.21,0.03-0.31c-0.25-0.56-0.26-1.24-0.02-1.81c-0.04-0.16-0.07-0.33-0.08-0.49
	c-0.28-0.2-0.49-0.45-0.62-0.76c-0.35-0.18-0.62-0.47-0.78-0.8c-0.04-0.02-0.07-0.05-0.11-0.08c-0.09,0.01-0.19,0.02-0.29,0.02
	c-0.41,0-0.75-0.1-1.03-0.26c-0.28,0.14-0.6,0.22-0.9,0.22h-0.04c-0.04,0-0.07-0.01-0.1-0.01c-0.29,0.23-0.65,0.38-1.1,0.4
	c-0.16,0.23-0.38,0.42-0.64,0.55c-0.13,0.39-0.36,0.73-0.71,0.97c0.02,0.3-0.02,0.61-0.12,0.89c-0.01,0.11-0.02,0.21-0.04,0.31
	c0.04,0.24,0.04,0.48,0.01,0.71c0.05,0.22,0.08,0.45,0.06,0.68c0.05,0.16,0.09,0.33,0.1,0.49c0.1,0.16,0.22,0.32,0.34,0.46
	c0.25,0.13,0.46,0.31,0.62,0.53c0.28,0.1,0.51,0.25,0.69,0.44c0.46,0.2,0.97,0.32,1.51,0.32c0.52,0,1-0.11,1.45-0.31
	c0.07-0.07,0.16-0.13,0.24-0.19c0.19-0.23,0.43-0.41,0.74-0.53c0,0,0,0,0,0c0.11-0.13,0.23-0.26,0.38-0.35
	c0.07-0.11,0.15-0.22,0.24-0.31c0.04-0.09,0.1-0.17,0.16-0.25c0.01-0.03,0.02-0.07,0.04-0.1c0-0.03,0.01-0.07,0.01-0.1
	C66.69,117.82,66.67,117.71,66.66,117.59L66.66,117.59L66.66,117.59z"/>
<rect x="62.76" y="119.29" class="st0" width="1.37" height="5.74"/>
<path class="st0" d="M42.31,120.68c0-0.11,0.02-0.21,0.03-0.31c-0.25-0.56-0.26-1.24-0.02-1.81c-0.04-0.16-0.07-0.33-0.08-0.49
	c-0.28-0.2-0.49-0.45-0.62-0.76c-0.35-0.18-0.62-0.47-0.78-0.8c-0.04-0.02-0.07-0.05-0.11-0.08c-0.09,0.01-0.19,0.02-0.29,0.02
	c-0.41,0-0.75-0.1-1.03-0.26c-0.28,0.14-0.6,0.22-0.9,0.22h-0.04c-0.04,0-0.07-0.01-0.1-0.01c-0.29,0.23-0.65,0.38-1.1,0.4
	c-0.16,0.23-0.38,0.42-0.64,0.55c-0.13,0.39-0.36,0.73-0.71,0.97c0.02,0.3-0.02,0.61-0.12,0.89c-0.01,0.11-0.02,0.21-0.04,0.31
	c0.04,0.24,0.04,0.48,0.01,0.71c0.05,0.22,0.08,0.45,0.06,0.68c0.05,0.16,0.09,0.33,0.1,0.49c0.1,0.16,0.22,0.32,0.34,0.46
	c0.25,0.13,0.46,0.31,0.62,0.53c0.28,0.1,0.51,0.25,0.69,0.44c0.46,0.2,0.97,0.32,1.51,0.32c0.52,0,1-0.11,1.45-0.31
	c0.07-0.07,0.16-0.13,0.24-0.19c0.19-0.23,0.43-0.41,0.74-0.53c0,0,0,0,0,0c0.11-0.13,0.23-0.26,0.38-0.35
	c0.07-0.11,0.15-0.22,0.24-0.31c0.04-0.09,0.1-0.17,0.16-0.25c0.01-0.03,0.02-0.07,0.04-0.1c0-0.03,0.01-0.07,0.01-0.1
	C42.34,120.91,42.32,120.8,42.31,120.68L42.31,120.68L42.31,120.68z"/>
<rect x="38.41" y="122.38" class="st0" width="1.37" height="5.74"/>
<path class="st0" d="M35.71,141.62c0-0.11,0.02-0.21,0.03-0.31c-0.25-0.56-0.26-1.24-0.02-1.81c-0.04-0.16-0.07-0.33-0.08-0.49
	c-0.28-0.2-0.49-0.45-0.62-0.76c-0.35-0.18-0.62-0.47-0.78-0.8c-0.04-0.02-0.07-0.05-0.11-0.08c-0.09,0.01-0.19,0.02-0.29,0.02
	c-0.41,0-0.75-0.1-1.03-0.26c-0.28,0.14-0.6,0.22-0.9,0.22h-0.04c-0.04,0-0.07-0.01-0.1-0.01c-0.29,0.23-0.65,0.38-1.1,0.4
	c-0.16,0.23-0.38,0.42-0.64,0.55c-0.13,0.39-0.36,0.73-0.71,0.97c0.02,0.3-0.02,0.61-0.12,0.89c-0.01,0.11-0.02,0.21-0.04,0.31
	c0.04,0.24,0.04,0.48,0.01,0.71c0.05,0.22,0.08,0.45,0.06,0.68c0.05,0.16,0.09,0.33,0.1,0.49c0.1,0.16,0.22,0.32,0.34,0.46
	c0.25,0.13,0.46,0.31,0.62,0.53c0.28,0.1,0.51,0.25,0.69,0.44c0.46,0.2,0.97,0.32,1.51,0.32c0.52,0,1-0.11,1.45-0.31
	c0.07-0.07,0.16-0.13,0.24-0.19c0.19-0.23,0.43-0.41,0.74-0.53c0,0,0,0,0,0c0.11-0.13,0.23-0.26,0.38-0.35
	c0.07-0.11,0.15-0.22,0.24-0.31c0.04-0.09,0.1-0.17,0.16-0.25c0.01-0.03,0.02-0.07,0.04-0.1c0-0.03,0.01-0.07,0.01-0.1
	C35.74,141.85,35.72,141.74,35.71,141.62L35.71,141.62L35.71,141.62z"/>
<rect x="31.81" y="143.32" class="st0" width="1.37" height="5.74"/>
<path class="st0" d="M60.06,149.05c0-0.11,0.02-0.21,0.03-0.31c-0.25-0.56-0.26-1.24-0.02-1.81c-0.04-0.16-0.07-0.33-0.08-0.49
	c-0.28-0.2-0.49-0.45-0.62-0.76c-0.35-0.18-0.62-0.47-0.78-0.8c-0.04-0.02-0.07-0.05-0.11-0.08c-0.09,0.01-0.19,0.02-0.29,0.02
	c-0.41,0-0.75-0.1-1.03-0.26c-0.28,0.14-0.6,0.22-0.9,0.22h-0.04c-0.04,0-0.07-0.01-0.1-0.01c-0.29,0.23-0.65,0.38-1.1,0.4
	c-0.16,0.23-0.38,0.42-0.64,0.55c-0.13,0.39-0.36,0.73-0.71,0.97c0.02,0.3-0.02,0.61-0.12,0.89c-0.01,0.11-0.02,0.21-0.04,0.31
	c0.04,0.24,0.04,0.48,0.01,0.71c0.05,0.22,0.08,0.45,0.06,0.68c0.05,0.16,0.09,0.33,0.1,0.49c0.1,0.16,0.22,0.32,0.34,0.46
	c0.25,0.13,0.46,0.31,0.62,0.53c0.28,0.1,0.51,0.25,0.69,0.44c0.46,0.2,0.97,0.32,1.51,0.32c0.52,0,1-0.11,1.45-0.31
	c0.07-0.07,0.16-0.13,0.24-0.19c0.19-0.23,0.43-0.41,0.74-0.53c0,0,0,0,0,0c0.11-0.13,0.23-0.26,0.38-0.35
	c0.07-0.11,0.15-0.22,0.24-0.31c0.04-0.09,0.1-0.17,0.16-0.25c0.01-0.03,0.02-0.07,0.04-0.1c0-0.03,0.01-0.07,0.01-0.1
	C60.09,149.28,60.07,149.17,60.06,149.05L60.06,149.05L60.06,149.05z"/>
<rect x="56.16" y="150.75" class="st0" width="1.37" height="5.74"/>
<path class="st0" d="M48.91,100.32c0-0.11,0.02-0.21,0.03-0.31c-0.25-0.56-0.26-1.24-0.02-1.81c-0.04-0.16-0.07-0.33-0.08-0.49
	c-0.28-0.2-0.49-0.45-0.62-0.76c-0.35-0.18-0.62-0.47-0.78-0.8c-0.04-0.02-0.07-0.05-0.11-0.08c-0.09,0.01-0.19,0.02-0.29,0.02
	c-0.41,0-0.75-0.1-1.03-0.26c-0.28,0.14-0.6,0.22-0.9,0.22h-0.04c-0.04,0-0.07-0.01-0.1-0.01c-0.29,0.23-0.65,0.38-1.1,0.4
	c-0.16,0.23-0.38,0.42-0.64,0.55c-0.13,0.39-0.36,0.73-0.71,0.97c0.02,0.3-0.02,0.61-0.12,0.89c-0.01,0.11-0.02,0.21-0.04,0.31
	c0.04,0.24,0.04,0.48,0.01,0.71c0.05,0.22,0.08,0.45,0.06,0.68c0.05,0.16,0.09,0.33,0.1,0.49c0.1,0.16,0.22,0.32,0.34,0.46
	c0.25,0.13,0.46,0.31,0.62,0.53c0.28,0.1,0.51,0.25,0.69,0.44c0.46,0.2,0.97,0.32,1.51,0.32c0.52,0,1-0.11,1.45-0.31
	c0.07-0.07,0.16-0.13,0.24-0.19c0.19-0.23,0.43-0.41,0.74-0.53c0,0,0,0,0,0c0.11-0.13,0.23-0.26,0.38-0.35
	c0.07-0.11,0.15-0.22,0.24-0.31c0.04-0.09,0.1-0.17,0.16-0.25c0.01-0.03,0.02-0.07,0.04-0.1c0-0.03,0.01-0.07,0.01-0.1
	C48.94,100.54,48.92,100.43,48.91,100.32L48.91,100.32L48.91,100.32z"/>
<rect x="45.01" y="102.01" class="st0" width="1.37" height="5.74"/>
<path class="st0" d="M69.96,94.35c0-0.11,0.02-0.21,0.03-0.31c-0.25-0.56-0.26-1.24-0.02-1.81c-0.04-0.16-0.07-0.33-0.08-0.49
	c-0.28-0.2-0.49-0.45-0.62-0.76c-0.35-0.18-0.62-0.47-0.78-0.8c-0.04-0.02-0.07-0.05-0.11-0.08c-0.09,0.01-0.19,0.02-0.29,0.02
	c-0.41,0-0.75-0.1-1.03-0.26c-0.28,0.14-0.6,0.22-0.9,0.22h-0.04c-0.04,0-0.07-0.01-0.1-0.01c-0.29,0.23-0.65,0.38-1.1,0.4
	c-0.16,0.23-0.38,0.42-0.64,0.55c-0.13,0.39-0.36,0.73-0.71,0.97c0.02,0.3-0.02,0.61-0.12,0.89c-0.01,0.11-0.02,0.21-0.04,0.31
	c0.04,0.24,0.04,0.48,0.01,0.71c0.05,0.22,0.08,0.45,0.06,0.68c0.05,0.16,0.09,0.33,0.1,0.49c0.1,0.16,0.22,0.32,0.34,0.46
	c0.25,0.13,0.46,0.31,0.62,0.53c0.28,0.1,0.51,0.25,0.69,0.44c0.46,0.2,0.97,0.32,1.51,0.32c0.52,0,1-0.11,1.45-0.31
	c0.07-0.07,0.16-0.13,0.24-0.19c0.19-0.23,0.43-0.41,0.74-0.53c0,0,0,0,0,0c0.11-0.13,0.23-0.26,0.38-0.35
	c0.07-0.11,0.15-0.22,0.24-0.31c0.04-0.09,0.1-0.17,0.16-0.25c0.01-0.03,0.02-0.07,0.04-0.1c0-0.03,0.01-0.07,0.01-0.1
	C69.99,94.58,69.97,94.47,69.96,94.35L69.96,94.35L69.96,94.35z"/>
<rect x="66.06" y="96.05" class="st0" width="1.37" height="5.74"/>
<path class="st0" d="M92.24,115.11c0-0.11,0.02-0.21,0.03-0.31c-0.25-0.56-0.26-1.24-0.02-1.81c-0.04-0.16-0.07-0.33-0.08-0.49
	c-0.28-0.2-0.49-0.45-0.62-0.76c-0.35-0.18-0.62-0.47-0.78-0.8c-0.04-0.02-0.07-0.05-0.11-0.08c-0.09,0.01-0.19,0.02-0.29,0.02
	c-0.41,0-0.75-0.1-1.03-0.26c-0.28,0.14-0.6,0.22-0.9,0.22H88.4c-0.04,0-0.07-0.01-0.1-0.01c-0.29,0.23-0.65,0.38-1.1,0.4
	c-0.16,0.23-0.38,0.42-0.64,0.55c-0.13,0.39-0.36,0.73-0.71,0.97c0.02,0.3-0.02,0.61-0.12,0.89c-0.01,0.11-0.02,0.21-0.04,0.31
	c0.04,0.24,0.04,0.48,0.01,0.71c0.05,0.22,0.08,0.45,0.06,0.68c0.05,0.16,0.09,0.33,0.1,0.49c0.1,0.16,0.22,0.32,0.34,0.46
	c0.25,0.13,0.46,0.31,0.62,0.53c0.28,0.1,0.51,0.25,0.69,0.44c0.46,0.2,0.97,0.32,1.51,0.32c0.52,0,1-0.11,1.45-0.31
	c0.07-0.07,0.16-0.13,0.24-0.19c0.19-0.23,0.43-0.41,0.74-0.53c0,0,0,0,0,0c0.11-0.13,0.23-0.26,0.38-0.35
	c0.07-0.11,0.15-0.22,0.24-0.31c0.04-0.09,0.1-0.17,0.16-0.25c0.01-0.03,0.02-0.07,0.04-0.1c0-0.03,0.01-0.07,0.01-0.1
	C92.26,115.34,92.25,115.23,92.24,115.11L92.24,115.11L92.24,115.11z"/>
<rect x="88.34" y="116.81" class="st0" width="1.37" height="5.74"/>
<path class="st0" d="M52.21,77.7c0-0.11,0.02-0.21,0.03-0.31c-0.25-0.56-0.26-1.24-0.02-1.81c-0.04-0.16-0.07-0.33-0.08-0.49
	c-0.28-0.2-0.49-0.45-0.62-0.76c-0.35-0.18-0.62-0.47-0.78-0.8c-0.04-0.02-0.07-0.05-0.11-0.08c-0.09,0.01-0.19,0.02-0.29,0.02
	c-0.41,0-0.75-0.1-1.03-0.26c-0.28,0.14-0.6,0.22-0.9,0.22h-0.04c-0.04,0-0.07-0.01-0.1-0.01c-0.29,0.23-0.65,0.38-1.1,0.4
	c-0.16,0.23-0.38,0.42-0.64,0.55c-0.13,0.39-0.36,0.73-0.71,0.97c0.02,0.3-0.02,0.61-0.12,0.89c-0.01,0.11-0.02,0.21-0.04,0.31
	c0.04,0.24,0.04,0.48,0.01,0.71c0.05,0.22,0.08,0.45,0.06,0.68c0.05,0.16,0.09,0.33,0.1,0.49c0.1,0.16,0.22,0.32,0.34,0.46
	c0.25,0.13,0.46,0.31,0.62,0.53c0.28,0.1,0.51,0.25,0.69,0.44c0.46,0.2,0.97,0.32,1.51,0.32c0.52,0,1-0.11,1.45-0.31
	c0.07-0.07,0.16-0.13,0.24-0.19c0.19-0.23,0.43-0.41,0.74-0.53c0,0,0,0,0,0c0.11-0.13,0.23-0.26,0.38-0.35
	c0.07-0.11,0.15-0.22,0.24-0.31c0.04-0.09,0.1-0.17,0.16-0.25c0.01-0.03,0.02-0.07,0.04-0.1c0-0.03,0.01-0.07,0.01-0.1
	C52.24,77.93,52.22,77.82,52.21,77.7L52.21,77.7L52.21,77.7z"/>
<rect x="48.31" y="79.4" class="st0" width="1.37" height="5.74"/>
<path class="st0" d="M35.07,54.95c0-0.11,0.02-0.21,0.03-0.31c-0.25-0.56-0.26-1.24-0.02-1.81c-0.04-0.16-0.07-0.33-0.08-0.49
	c-0.28-0.2-0.49-0.45-0.62-0.76c-0.35-0.18-0.62-0.47-0.78-0.8c-0.04-0.02-0.07-0.05-0.11-0.08c-0.09,0.01-0.19,0.02-0.29,0.02
	c-0.41,0-0.75-0.1-1.03-0.26c-0.28,0.14-0.6,0.22-0.9,0.22h-0.04c-0.04,0-0.07-0.01-0.1-0.01c-0.29,0.23-0.65,0.38-1.1,0.4
	c-0.16,0.23-0.38,0.42-0.64,0.55c-0.13,0.39-0.36,0.73-0.71,0.97c0.02,0.3-0.02,0.61-0.12,0.89c-0.01,0.11-0.02,0.21-0.04,0.31
	c0.04,0.24,0.04,0.48,0.01,0.71c0.05,0.22,0.08,0.45,0.06,0.68c0.05,0.16,0.09,0.33,0.1,0.49c0.1,0.16,0.22,0.32,0.34,0.46
	c0.25,0.13,0.46,0.31,0.62,0.53c0.28,0.1,0.51,0.25,0.69,0.44c0.46,0.2,0.97,0.32,1.51,0.32c0.52,0,1-0.11,1.45-0.31
	c0.07-0.07,0.16-0.13,0.24-0.19c0.19-0.23,0.43-0.41,0.74-0.53c0,0,0,0,0,0c0.11-0.13,0.23-0.26,0.38-0.35
	c0.07-0.11,0.15-0.22,0.24-0.31c0.04-0.09,0.1-0.17,0.16-0.25c0.01-0.03,0.02-0.07,0.04-0.1c0-0.03,0.01-0.07,0.01-0.1
	C35.09,55.18,35.07,55.07,35.07,54.95L35.07,54.95L35.07,54.95z"/>
<rect x="31.17" y="56.65" class="st0" width="1.37" height="5.74"/>
<path class="st0" d="M67.38,55.96c0-0.11,0.02-0.21,0.03-0.31c-0.25-0.56-0.26-1.24-0.02-1.81c-0.04-0.16-0.07-0.33-0.08-0.49
	c-0.28-0.2-0.49-0.45-0.62-0.76c-0.35-0.18-0.62-0.47-0.78-0.8c-0.04-0.02-0.07-0.05-0.11-0.08c-0.09,0.01-0.19,0.02-0.29,0.02
	c-0.41,0-0.75-0.1-1.03-0.26c-0.28,0.14-0.6,0.22-0.9,0.22h-0.04c-0.04,0-0.07-0.01-0.1-0.01c-0.29,0.23-0.65,0.38-1.1,0.4
	c-0.16,0.23-0.38,0.42-0.64,0.55c-0.13,0.39-0.36,0.73-0.71,0.97c0.02,0.3-0.02,0.61-0.12,0.89c-0.01,0.11-0.02,0.21-0.04,0.31
	c0.04,0.24,0.04,0.48,0.01,0.71c0.05,0.22,0.08,0.45,0.06,0.68c0.05,0.16,0.09,0.33,0.1,0.49c0.1,0.16,0.22,0.32,0.34,0.46
	c0.25,0.13,0.46,0.31,0.62,0.53c0.28,0.1,0.51,0.25,0.69,0.44c0.46,0.2,0.97,0.32,1.51,0.32c0.52,0,1-0.11,1.45-0.31
	c0.07-0.07,0.16-0.13,0.24-0.19c0.19-0.23,0.43-0.41,0.74-0.53c0,0,0,0,0,0c0.11-0.13,0.23-0.26,0.38-0.35
	c0.07-0.11,0.15-0.22,0.24-0.31c0.04-0.09,0.1-0.17,0.16-0.25c0.01-0.03,0.02-0.07,0.04-0.1c0-0.03,0.01-0.07,0.01-0.1
	C67.41,56.19,67.39,56.08,67.38,55.96L67.38,55.96L67.38,55.96z"/>
<rect x="63.48" y="57.66" class="st0" width="1.37" height="5.74"/>
<path class="st0" d="M98.19,65.02c0-0.11,0.02-0.21,0.03-0.31c-0.25-0.56-0.26-1.24-0.02-1.81c-0.04-0.16-0.07-0.33-0.08-0.49
	c-0.28-0.2-0.49-0.45-0.62-0.76c-0.35-0.18-0.62-0.47-0.78-0.8c-0.04-0.02-0.07-0.05-0.11-0.08c-0.09,0.01-0.19,0.02-0.29,0.02
	c-0.41,0-0.75-0.1-1.03-0.26c-0.28,0.14-0.6,0.22-0.9,0.22h-0.04c-0.04,0-0.07-0.01-0.1-0.01c-0.29,0.23-0.65,0.38-1.1,0.4
	c-0.16,0.23-0.38,0.42-0.64,0.55c-0.13,0.39-0.36,0.73-0.71,0.97c0.02,0.3-0.02,0.61-0.12,0.89c-0.01,0.11-0.02,0.21-0.04,0.31
	c0.04,0.24,0.04,0.48,0.01,0.71c0.05,0.22,0.08,0.45,0.06,0.68c0.05,0.16,0.09,0.33,0.1,0.49c0.1,0.16,0.22,0.32,0.34,0.46
	c0.25,0.13,0.46,0.31,0.62,0.53c0.28,0.1,0.51,0.25,0.69,0.44c0.46,0.2,0.97,0.32,1.51,0.32c0.52,0,1-0.11,1.45-0.31
	c0.07-0.07,0.16-0.13,0.24-0.19c0.19-0.23,0.43-0.41,0.74-0.53c0,0,0,0,0,0c0.11-0.13,0.23-0.26,0.38-0.35
	c0.07-0.11,0.15-0.22,0.24-0.31c0.04-0.09,0.1-0.17,0.16-0.25c0.01-0.03,0.02-0.07,0.04-0.1c0-0.03,0.01-0.07,0.01-0.1
	C98.21,65.25,98.2,65.14,98.19,65.02L98.19,65.02L98.19,65.02z"/>
<rect x="94.29" y="66.71" class="st0" width="1.37" height="5.74"/>
<path class="st0" d="M88.94,35.44c0-0.11,0.02-0.21,0.03-0.31c-0.25-0.56-0.26-1.24-0.02-1.81c-0.04-0.16-0.07-0.33-0.08-0.49
	c-0.28-0.2-0.49-0.45-0.62-0.76c-0.35-0.18-0.62-0.47-0.78-0.8c-0.04-0.02-0.07-0.05-0.11-0.08c-0.09,0.01-0.19,0.02-0.29,0.02
	c-0.41,0-0.75-0.1-1.03-0.26c-0.28,0.14-0.6,0.22-0.9,0.22H85.1c-0.04,0-0.07-0.01-0.1-0.01c-0.29,0.23-0.65,0.38-1.1,0.4
	c-0.16,0.23-0.38,0.42-0.64,0.55c-0.13,0.39-0.36,0.73-0.71,0.97c0.02,0.3-0.02,0.61-0.12,0.89c-0.01,0.11-0.02,0.21-0.04,0.31
	c0.04,0.24,0.04,0.48,0.01,0.71c0.05,0.22,0.08,0.45,0.06,0.68c0.05,0.16,0.09,0.33,0.1,0.49c0.1,0.16,0.22,0.32,0.34,0.46
	c0.25,0.13,0.46,0.31,0.62,0.53c0.28,0.1,0.51,0.25,0.69,0.44c0.46,0.2,0.97,0.32,1.51,0.32c0.52,0,1-0.11,1.45-0.31
	c0.07-0.07,0.16-0.13,0.24-0.19c0.19-0.23,0.43-0.41,0.74-0.53c0,0,0,0,0,0c0.11-0.13,0.23-0.26,0.38-0.35
	c0.07-0.11,0.15-0.22,0.24-0.31c0.04-0.09,0.1-0.17,0.16-0.25c0.01-0.03,0.02-0.07,0.04-0.1c0-0.03,0.01-0.07,0.01-0.1
	C88.96,35.66,88.95,35.55,88.94,35.44L88.94,35.44L88.94,35.44z"/>
<rect x="85.04" y="37.13" class="st0" width="1.37" height="5.74"/>
<path class="st0" d="M88.29,83.07c0-0.11,0.02-0.21,0.03-0.31c-0.25-0.56-0.26-1.24-0.02-1.81c-0.04-0.16-0.07-0.33-0.08-0.49
	c-0.28-0.2-0.49-0.45-0.62-0.76c-0.35-0.18-0.62-0.47-0.78-0.8c-0.04-0.02-0.07-0.05-0.11-0.08c-0.09,0.01-0.19,0.02-0.29,0.02
	c-0.41,0-0.75-0.1-1.03-0.26c-0.28,0.14-0.6,0.22-0.9,0.22h-0.04c-0.04,0-0.07-0.01-0.1-0.01c-0.29,0.23-0.65,0.38-1.1,0.4
	c-0.16,0.23-0.38,0.42-0.64,0.55c-0.13,0.39-0.36,0.73-0.71,0.97c0.02,0.3-0.02,0.61-0.12,0.89c-0.01,0.11-0.02,0.21-0.04,0.31
	c0.04,0.24,0.04,0.48,0.01,0.71c0.05,0.22,0.08,0.45,0.06,0.68c0.05,0.16,0.09,0.33,0.1,0.49c0.1,0.16,0.22,0.32,0.34,0.46
	c0.25,0.13,0.46,0.31,0.62,0.53c0.28,0.1,0.51,0.25,0.69,0.44c0.46,0.2,0.97,0.32,1.51,0.32c0.52,0,1-0.11,1.45-0.31
	c0.07-0.07,0.16-0.13,0.24-0.19c0.19-0.23,0.43-0.41,0.74-0.53c0,0,0,0,0,0c0.11-0.13,0.23-0.26,0.38-0.35
	c0.07-0.11,0.15-0.22,0.24-0.31c0.04-0.09,0.1-0.17,0.16-0.25c0.01-0.03,0.02-0.07,0.04-0.1c0-0.03,0.01-0.07,0.01-0.1
	C88.32,83.3,88.3,83.19,88.29,83.07L88.29,83.07L88.29,83.07z"/>
<rect x="84.39" y="84.77" class="st0" width="1.37" height="5.74"/>
<path class="st0" d="M116.04,91.88c0-0.11,0.02-0.21,0.03-0.31c-0.25-0.56-0.26-1.24-0.02-1.81c-0.04-0.16-0.07-0.33-0.08-0.49
	c-0.28-0.2-0.49-0.45-0.62-0.76c-0.35-0.18-0.62-0.47-0.78-0.8c-0.04-0.02-0.07-0.05-0.11-0.08c-0.09,0.01-0.19,0.02-0.29,0.02
	c-0.41,0-0.75-0.1-1.03-0.26c-0.28,0.14-0.6,0.22-0.9,0.22h-0.04c-0.04,0-0.07-0.01-0.1-0.01c-0.29,0.23-0.65,0.38-1.1,0.4
	c-0.16,0.23-0.38,0.42-0.64,0.55c-0.13,0.39-0.36,0.73-0.71,0.97c0.02,0.3-0.02,0.61-0.12,0.89c-0.01,0.11-0.02,0.21-0.04,0.31
	c0.04,0.24,0.04,0.48,0.01,0.71c0.05,0.22,0.08,0.45,0.06,0.68c0.05,0.16,0.09,0.33,0.1,0.49c0.1,0.16,0.22,0.32,0.34,0.46
	c0.25,0.13,0.46,0.31,0.62,0.53c0.28,0.1,0.51,0.25,0.69,0.44c0.46,0.2,0.97,0.32,1.51,0.32c0.52,0,1-0.11,1.45-0.31
	c0.07-0.07,0.16-0.13,0.24-0.19c0.19-0.23,0.43-0.41,0.74-0.53c0,0,0,0,0,0c0.11-0.13,0.23-0.26,0.38-0.35
	c0.07-0.11,0.15-0.22,0.24-0.31c0.04-0.09,0.1-0.17,0.16-0.25c0.01-0.03,0.02-0.07,0.04-0.1c0-0.03,0.01-0.07,0.01-0.1
	C116.07,92.1,116.05,91.99,116.04,91.88L116.04,91.88L116.04,91.88z"/>
<rect x="112.14" y="93.57" class="st0" width="1.37" height="5.74"/>
<path class="st0" d="M126.81,66.03c0-0.11,0.02-0.21,0.03-0.31c-0.25-0.56-0.26-1.24-0.02-1.81c-0.04-0.16-0.07-0.33-0.08-0.49
	c-0.28-0.2-0.49-0.45-0.62-0.76c-0.35-0.18-0.62-0.47-0.78-0.8c-0.04-0.02-0.07-0.05-0.11-0.08c-0.09,0.01-0.19,0.02-0.29,0.02
	c-0.41,0-0.75-0.1-1.03-0.26c-0.28,0.14-0.6,0.22-0.9,0.22h-0.04c-0.04,0-0.07-0.01-0.1-0.01c-0.29,0.23-0.65,0.38-1.1,0.4
	c-0.16,0.23-0.38,0.42-0.64,0.55c-0.13,0.39-0.36,0.73-0.71,0.97c0.02,0.3-0.02,0.61-0.12,0.89c-0.01,0.11-0.02,0.21-0.04,0.31
	c0.04,0.24,0.04,0.48,0.01,0.71c0.05,0.22,0.08,0.45,0.06,0.68c0.05,0.16,0.09,0.33,0.1,0.49c0.1,0.16,0.22,0.32,0.34,0.46
	c0.25,0.13,0.46,0.31,0.62,0.53c0.28,0.1,0.51,0.25,0.69,0.44c0.46,0.2,0.97,0.32,1.51,0.32c0.52,0,1-0.11,1.45-0.31
	c0.07-0.07,0.16-0.13,0.24-0.19c0.19-0.23,0.43-0.41,0.74-0.53c0,0,0,0,0,0c0.11-0.13,0.23-0.26,0.38-0.35
	c0.07-0.11,0.15-0.22,0.24-0.31c0.04-0.09,0.1-0.17,0.16-0.25c0.01-0.03,0.02-0.07,0.04-0.1c0-0.03,0.01-0.07,0.01-0.1
	C126.83,66.26,126.81,66.15,126.81,66.03L126.81,66.03L126.81,66.03z"/>
<rect x="122.91" y="67.73" class="st0" width="1.37" height="5.74"/>
<path class="st0" d="M130.11,103.41c0-0.11,0.02-0.21,0.03-0.31c-0.25-0.56-0.26-1.24-0.02-1.81c-0.04-0.16-0.07-0.33-0.08-0.49
	c-0.28-0.2-0.49-0.45-0.62-0.76c-0.35-0.18-0.62-0.47-0.78-0.8c-0.04-0.02-0.07-0.05-0.11-0.08c-0.09,0.01-0.19,0.02-0.29,0.02
	c-0.41,0-0.75-0.1-1.03-0.26c-0.28,0.14-0.6,0.22-0.9,0.22h-0.04c-0.04,0-0.07-0.01-0.1-0.01c-0.29,0.23-0.65,0.38-1.1,0.4
	c-0.16,0.23-0.38,0.42-0.64,0.55c-0.13,0.39-0.36,0.73-0.71,0.97c0.02,0.3-0.02,0.61-0.12,0.89c-0.01,0.11-0.02,0.21-0.04,0.31
	c0.04,0.24,0.04,0.48,0.01,0.71c0.05,0.22,0.08,0.45,0.06,0.68c0.05,0.16,0.09,0.33,0.1,0.49c0.1,0.16,0.22,0.32,0.34,0.46
	c0.25,0.13,0.46,0.31,0.62,0.53c0.28,0.1,0.51,0.25,0.69,0.44c0.46,0.2,0.97,0.32,1.51,0.32c0.52,0,1-0.11,1.45-0.31
	c0.07-0.07,0.16-0.13,0.24-0.19c0.19-0.23,0.43-0.41,0.74-0.53c0,0,0,0,0,0c0.11-0.13,0.23-0.26,0.38-0.35
	c0.07-0.11,0.15-0.22,0.24-0.31c0.04-0.09,0.1-0.17,0.16-0.25c0.01-0.03,0.02-0.07,0.04-0.1c0-0.03,0.01-0.07,0.01-0.1
	C130.13,103.64,130.11,103.53,130.11,103.41L130.11,103.41L130.11,103.41z"/>
<rect x="126.2" y="105.1" class="st0" width="1.37" height="5.74"/>
<path class="st0" d="M116.08,44.49c0-0.11,0.02-0.21,0.03-0.31c-0.25-0.56-0.26-1.24-0.02-1.81c-0.04-0.16-0.07-0.33-0.08-0.49
	c-0.28-0.2-0.49-0.45-0.62-0.76c-0.35-0.18-0.62-0.47-0.78-0.8c-0.04-0.02-0.07-0.05-0.11-0.08c-0.09,0.01-0.19,0.02-0.29,0.02
	c-0.41,0-0.75-0.1-1.03-0.26c-0.28,0.14-0.6,0.22-0.9,0.22h-0.04c-0.04,0-0.07-0.01-0.1-0.01c-0.29,0.23-0.65,0.38-1.1,0.4
	c-0.16,0.23-0.38,0.42-0.64,0.55c-0.13,0.39-0.36,0.73-0.71,0.97c0.02,0.3-0.02,0.61-0.12,0.89c-0.01,0.11-0.02,0.21-0.04,0.31
	c0.04,0.24,0.04,0.48,0.01,0.71c0.05,0.22,0.08,0.45,0.06,0.68c0.05,0.16,0.09,0.33,0.1,0.49c0.1,0.16,0.22,0.32,0.34,0.46
	c0.25,0.13,0.46,0.31,0.62,0.53c0.28,0.1,0.51,0.25,0.69,0.44c0.46,0.2,0.97,0.32,1.51,0.32c0.52,0,1-0.11,1.45-0.31
	c0.07-0.07,0.16-0.13,0.24-0.19c0.19-0.23,0.43-0.41,0.74-0.53c0,0,0,0,0,0c0.11-0.13,0.23-0.26,0.38-0.35
	c0.07-0.11,0.15-0.22,0.24-0.31c0.04-0.09,0.1-0.17,0.16-0.25c0.01-0.03,0.02-0.07,0.04-0.1c0-0.03,0.01-0.07,0.01-0.1
	C116.11,44.72,116.09,44.61,116.08,44.49L116.08,44.49L116.08,44.49z"/>
<rect x="112.18" y="46.19" class="st0" width="1.37" height="5.74"/>
<path class="st0" d="M141.87,80.79c0-0.11,0.02-0.21,0.03-0.31c-0.25-0.56-0.26-1.24-0.02-1.81c-0.04-0.16-0.07-0.33-0.08-0.49
	c-0.28-0.2-0.49-0.45-0.62-0.76c-0.35-0.18-0.62-0.47-0.78-0.8c-0.04-0.02-0.07-0.05-0.11-0.08c-0.09,0.01-0.19,0.02-0.29,0.02
	c-0.41,0-0.75-0.1-1.03-0.26c-0.28,0.14-0.6,0.22-0.9,0.22h-0.04c-0.04,0-0.07-0.01-0.1-0.01c-0.29,0.23-0.65,0.38-1.1,0.4
	c-0.16,0.23-0.38,0.42-0.64,0.55c-0.13,0.39-0.36,0.73-0.71,0.97c0.02,0.3-0.02,0.61-0.12,0.89c-0.01,0.11-0.02,0.21-0.04,0.31
	c0.04,0.24,0.04,0.48,0.01,0.71c0.05,0.22,0.08,0.45,0.06,0.68c0.05,0.16,0.09,0.33,0.1,0.49c0.1,0.16,0.22,0.32,0.34,0.46
	c0.25,0.13,0.46,0.31,0.62,0.53c0.28,0.1,0.51,0.25,0.69,0.44c0.46,0.2,0.97,0.32,1.51,0.32c0.52,0,1-0.11,1.45-0.31
	c0.07-0.07,0.16-0.13,0.24-0.19c0.19-0.23,0.43-0.41,0.74-0.53c0,0,0,0,0,0c0.11-0.13,0.23-0.26,0.38-0.35
	c0.07-0.11,0.15-0.22,0.24-0.31c0.04-0.09,0.1-0.17,0.16-0.25c0.01-0.03,0.02-0.07,0.04-0.1c0-0.03,0.01-0.07,0.01-0.1
	C141.9,81.02,141.88,80.91,141.87,80.79L141.87,80.79L141.87,80.79z"/>
<rect x="137.97" y="82.49" class="st0" width="1.37" height="5.74"/>
<path class="st0" d="M165.84,86.76c0-0.11,0.02-0.21,0.03-0.31c-0.25-0.56-0.26-1.24-0.02-1.81c-0.04-0.16-0.07-0.33-0.08-0.49
	c-0.28-0.2-0.49-0.45-0.62-0.76c-0.35-0.18-0.62-0.47-0.78-0.8c-0.04-0.02-0.07-0.05-0.11-0.08c-0.09,0.01-0.19,0.02-0.29,0.02
	c-0.41,0-0.75-0.1-1.03-0.26c-0.28,0.14-0.6,0.22-0.9,0.22H162c-0.04,0-0.07-0.01-0.1-0.01c-0.29,0.23-0.65,0.38-1.1,0.4
	c-0.16,0.23-0.38,0.42-0.64,0.55c-0.13,0.39-0.36,0.73-0.71,0.97c0.02,0.3-0.02,0.61-0.12,0.89c-0.01,0.11-0.02,0.21-0.04,0.31
	c0.04,0.24,0.04,0.48,0.01,0.71c0.05,0.22,0.08,0.45,0.06,0.68c0.05,0.16,0.09,0.33,0.1,0.49c0.1,0.16,0.22,0.32,0.34,0.46
	c0.25,0.13,0.46,0.31,0.62,0.53c0.28,0.1,0.51,0.25,0.69,0.44c0.46,0.2,0.97,0.32,1.51,0.32c0.52,0,1-0.11,1.45-0.31
	c0.07-0.07,0.16-0.13,0.24-0.19c0.19-0.23,0.43-0.41,0.74-0.53c0,0,0,0,0,0c0.11-0.13,0.23-0.26,0.38-0.35
	c0.07-0.11,0.15-0.22,0.24-0.31c0.04-0.09,0.1-0.17,0.16-0.25c0.01-0.03,0.02-0.07,0.04-0.1c0-0.03,0.01-0.07,0.01-0.1
	C165.87,86.99,165.85,86.88,165.84,86.76L165.84,86.76L165.84,86.76z"/>
<rect x="161.94" y="88.45" class="st0" width="1.37" height="5.74"/>
<path class="st0" d="M156.55,60.92c0-0.11,0.02-0.21,0.03-0.31c-0.25-0.56-0.26-1.24-0.02-1.81c-0.04-0.16-0.07-0.33-0.08-0.49
	c-0.28-0.2-0.49-0.45-0.62-0.76c-0.35-0.18-0.62-0.47-0.78-0.8c-0.04-0.02-0.07-0.05-0.11-0.08c-0.09,0.01-0.19,0.02-0.29,0.02
	c-0.41,0-0.75-0.1-1.03-0.26c-0.28,0.14-0.6,0.22-0.9,0.22h-0.04c-0.04,0-0.07-0.01-0.1-0.01c-0.29,0.23-0.65,0.38-1.1,0.4
	c-0.16,0.23-0.38,0.42-0.64,0.55c-0.13,0.39-0.36,0.73-0.71,0.97c0.02,0.3-0.02,0.61-0.12,0.89c-0.01,0.11-0.02,0.21-0.04,0.31
	c0.04,0.24,0.04,0.48,0.01,0.71c0.05,0.22,0.08,0.45,0.06,0.68c0.05,0.16,0.09,0.33,0.1,0.49c0.1,0.16,0.22,0.32,0.34,0.46
	c0.25,0.13,0.46,0.31,0.62,0.53c0.28,0.1,0.51,0.25,0.69,0.44c0.46,0.2,0.97,0.32,1.51,0.32c0.52,0,1-0.11,1.45-0.31
	c0.07-0.07,0.16-0.13,0.24-0.19c0.19-0.23,0.43-0.41,0.74-0.53c0,0,0,0,0,0c0.11-0.13,0.23-0.26,0.38-0.35
	c0.07-0.11,0.15-0.22,0.24-0.31c0.04-0.09,0.1-0.17,0.16-0.25c0.01-0.03,0.02-0.07,0.04-0.1c0-0.03,0.01-0.07,0.01-0.1
	C156.58,61.14,156.56,61.03,156.55,60.92L156.55,60.92L156.55,60.92z"/>
<rect x="152.65" y="62.61" class="st0" width="1.37" height="5.74"/>
<path class="st0" d="M138.52,47.58c0-0.11,0.02-0.21,0.03-0.31c-0.25-0.56-0.26-1.24-0.02-1.81c-0.04-0.16-0.07-0.33-0.08-0.49
	c-0.28-0.2-0.49-0.45-0.62-0.76c-0.35-0.18-0.62-0.47-0.78-0.8c-0.04-0.02-0.07-0.05-0.11-0.08c-0.09,0.01-0.19,0.02-0.29,0.02
	c-0.41,0-0.75-0.1-1.03-0.26c-0.28,0.14-0.6,0.22-0.9,0.22h-0.04c-0.04,0-0.07-0.01-0.1-0.01c-0.29,0.23-0.65,0.38-1.1,0.4
	c-0.16,0.23-0.38,0.42-0.64,0.55c-0.13,0.39-0.36,0.73-0.71,0.97c0.02,0.3-0.02,0.61-0.12,0.89c-0.01,0.11-0.02,0.21-0.04,0.31
	c0.04,0.24,0.04,0.48,0.01,0.71c0.05,0.22,0.08,0.45,0.06,0.68c0.05,0.16,0.09,0.33,0.1,0.49c0.1,0.16,0.22,0.32,0.34,0.46
	c0.25,0.13,0.46,0.31,0.62,0.53c0.28,0.1,0.51,0.25,0.69,0.44c0.46,0.2,0.97,0.32,1.51,0.32c0.52,0,1-0.11,1.45-0.31
	c0.07-0.07,0.16-0.13,0.24-0.19c0.19-0.23,0.43-0.41,0.74-0.53c0,0,0,0,0,0c0.11-0.13,0.23-0.26,0.38-0.35
	c0.07-0.11,0.15-0.22,0.24-0.31c0.04-0.09,0.1-0.17,0.16-0.25c0.01-0.03,0.02-0.07,0.04-0.1c0-0.03,0.01-0.07,0.01-0.1
	C138.54,47.81,138.53,47.7,138.52,47.58L138.52,47.58L138.52,47.58z"/>
<rect x="134.62" y="49.28" class="st0" width="1.37" height="5.74"/>
<path class="st0" d="M174.04,44.71c0-0.11,0.02-0.21,0.03-0.31c-0.25-0.56-0.26-1.24-0.02-1.81c-0.04-0.16-0.07-0.33-0.08-0.49
	c-0.28-0.2-0.49-0.45-0.62-0.76c-0.35-0.18-0.62-0.47-0.78-0.8c-0.04-0.02-0.07-0.05-0.11-0.08c-0.09,0.01-0.19,0.02-0.29,0.02
	c-0.41,0-0.75-0.1-1.03-0.26c-0.28,0.14-0.6,0.22-0.9,0.22h-0.04c-0.04,0-0.07-0.01-0.1-0.01c-0.29,0.23-0.65,0.38-1.1,0.4
	c-0.16,0.23-0.38,0.42-0.64,0.55c-0.13,0.39-0.36,0.73-0.71,0.97c0.02,0.3-0.02,0.61-0.12,0.89c-0.01,0.11-0.02,0.21-0.04,0.31
	c0.04,0.24,0.04,0.48,0.01,0.71c0.05,0.22,0.08,0.45,0.06,0.68c0.05,0.16,0.09,0.33,0.1,0.49c0.1,0.16,0.22,0.32,0.34,0.46
	c0.25,0.13,0.46,0.31,0.62,0.53c0.28,0.1,0.51,0.25,0.69,0.44c0.46,0.2,0.97,0.32,1.51,0.32c0.52,0,1-0.11,1.45-0.31
	c0.07-0.07,0.16-0.13,0.24-0.19c0.19-0.23,0.43-0.41,0.74-0.53c0,0,0,0,0,0c0.11-0.13,0.23-0.26,0.38-0.35
	c0.07-0.11,0.15-0.22,0.24-0.31c0.04-0.09,0.1-0.17,0.16-0.25c0.01-0.03,0.02-0.07,0.04-0.1c0-0.03,0.01-0.07,0.01-0.1
	C174.07,44.94,174.05,44.83,174.04,44.71L174.04,44.71L174.04,44.71z"/>
<rect x="170.14" y="46.41" class="st0" width="1.37" height="5.74"/>
<path class="st0" d="M155.91,33.04c0-0.11,0.02-0.21,0.03-0.31c-0.25-0.56-0.26-1.24-0.02-1.81c-0.04-0.16-0.07-0.33-0.08-0.49
	c-0.28-0.2-0.49-0.45-0.62-0.76c-0.35-0.18-0.62-0.47-0.78-0.8c-0.04-0.02-0.07-0.05-0.11-0.08c-0.09,0.01-0.19,0.02-0.29,0.02
	c-0.41,0-0.75-0.1-1.03-0.26c-0.28,0.14-0.6,0.22-0.9,0.22h-0.04c-0.04,0-0.07-0.01-0.1-0.01c-0.29,0.23-0.65,0.38-1.1,0.4
	c-0.16,0.23-0.38,0.42-0.64,0.55c-0.13,0.39-0.36,0.73-0.71,0.97c0.02,0.3-0.02,0.61-0.12,0.89c-0.01,0.11-0.02,0.21-0.04,0.31
	c0.04,0.24,0.04,0.48,0.01,0.71c0.05,0.22,0.08,0.45,0.06,0.68c0.05,0.16,0.09,0.33,0.1,0.49c0.1,0.16,0.22,0.32,0.34,0.46
	c0.25,0.13,0.46,0.31,0.62,0.53c0.28,0.1,0.51,0.25,0.69,0.44c0.46,0.2,0.97,0.32,1.51,0.32c0.52,0,1-0.11,1.45-0.31
	c0.07-0.07,0.16-0.13,0.24-0.19c0.19-0.23,0.43-0.41,0.74-0.53c0,0,0,0,0,0c0.11-0.13,0.23-0.26,0.38-0.35
	c0.07-0.11,0.15-0.22,0.24-0.31c0.04-0.09,0.1-0.17,0.16-0.25c0.01-0.03,0.02-0.07,0.04-0.1c0-0.03,0.01-0.07,0.01-0.1
	C155.93,33.27,155.92,33.16,155.91,33.04L155.91,33.04L155.91,33.04z"/>
<rect x="152.01" y="34.74" class="st0" width="1.37" height="5.74"/>
<path class="st0" d="M130.14,23.7c0-0.11,0.02-0.21,0.03-0.31c-0.25-0.56-0.26-1.24-0.02-1.81c-0.04-0.16-0.07-0.33-0.08-0.49
	c-0.28-0.2-0.49-0.45-0.62-0.76c-0.35-0.18-0.62-0.47-0.78-0.8c-0.04-0.02-0.07-0.05-0.11-0.08c-0.09,0.01-0.19,0.02-0.29,0.02
	c-0.41,0-0.75-0.1-1.03-0.26c-0.28,0.14-0.6,0.22-0.9,0.22h-0.04c-0.04,0-0.07-0.01-0.1-0.01c-0.29,0.23-0.65,0.38-1.1,0.4
	c-0.16,0.23-0.38,0.42-0.64,0.55c-0.13,0.39-0.36,0.73-0.71,0.97c0.02,0.3-0.02,0.61-0.12,0.89c-0.01,0.11-0.02,0.21-0.04,0.31
	c0.04,0.24,0.04,0.48,0.01,0.71c0.05,0.22,0.08,0.45,0.06,0.68c0.05,0.16,0.09,0.33,0.1,0.49c0.1,0.16,0.22,0.32,0.34,0.46
	c0.25,0.13,0.46,0.31,0.62,0.53c0.28,0.1,0.51,0.25,0.69,0.44c0.46,0.2,0.97,0.32,1.51,0.32c0.52,0,1-0.11,1.45-0.31
	c0.07-0.07,0.16-0.13,0.24-0.19c0.19-0.23,0.43-0.41,0.74-0.53c0,0,0,0,0,0c0.11-0.13,0.23-0.26,0.38-0.35
	c0.07-0.11,0.15-0.22,0.24-0.31c0.04-0.09,0.1-0.17,0.16-0.25c0.01-0.03,0.02-0.07,0.04-0.1c0-0.03,0.01-0.07,0.01-0.1
	C130.17,23.93,130.15,23.82,130.14,23.7L130.14,23.7L130.14,23.7z"/>
<rect x="126.24" y="25.4" class="st0" width="1.37" height="5.74"/>
<path class="st0" d="M73.98,323.88c0-0.11,0.02-0.21,0.03-0.31c-0.25-0.56-0.26-1.24-0.02-1.81c-0.04-0.16-0.07-0.33-0.08-0.49
	c-0.28-0.2-0.49-0.45-0.62-0.76c-0.35-0.18-0.62-0.47-0.78-0.8c-0.04-0.02-0.07-0.05-0.11-0.08c-0.09,0.01-0.19,0.02-0.29,0.02
	c-0.41,0-0.75-0.1-1.03-0.26c-0.28,0.14-0.6,0.22-0.9,0.22h-0.04c-0.04,0-0.07-0.01-0.1-0.01c-0.29,0.23-0.65,0.38-1.1,0.4
	c-0.16,0.23-0.38,0.42-0.64,0.55c-0.13,0.39-0.36,0.73-0.71,0.97c0.02,0.3-0.02,0.61-0.12,0.89c-0.01,0.11-0.02,0.21-0.04,0.31
	c0.04,0.24,0.04,0.48,0.01,0.71c0.05,0.22,0.08,0.45,0.06,0.68c0.05,0.16,0.09,0.33,0.1,0.49c0.1,0.16,0.22,0.32,0.34,0.46
	c0.25,0.13,0.46,0.31,0.62,0.53c0.28,0.1,0.51,0.25,0.69,0.44c0.46,0.2,0.97,0.32,1.51,0.32c0.52,0,1-0.11,1.45-0.31
	c0.07-0.07,0.16-0.13,0.24-0.19c0.19-0.23,0.43-0.41,0.74-0.53c0,0,0,0,0,0c0.11-0.13,0.23-0.26,0.38-0.35
	c0.07-0.11,0.15-0.22,0.24-0.31c0.04-0.09,0.1-0.17,0.16-0.25c0.01-0.03,0.02-0.07,0.04-0.1c0-0.03,0.01-0.07,0.01-0.1
	C74.01,324.1,73.99,323.99,73.98,323.88L73.98,323.88L73.98,323.88z"/>
<rect x="70.08" y="325.57" class="st0" width="1.37" height="5.74"/>
<path class="st0" d="M38.37,293.93c0-0.11,0.02-0.21,0.03-0.31c-0.25-0.56-0.26-1.24-0.02-1.81c-0.04-0.16-0.07-0.33-0.08-0.49
	c-0.28-0.2-0.49-0.45-0.62-0.76c-0.35-0.18-0.62-0.47-0.78-0.8c-0.04-0.02-0.07-0.05-0.11-0.08c-0.09,0.01-0.19,0.02-0.29,0.02
	c-0.41,0-0.75-0.1-1.03-0.26c-0.28,0.14-0.6,0.22-0.9,0.22h-0.04c-0.04,0-0.07-0.01-0.1-0.01c-0.29,0.23-0.65,0.38-1.1,0.4
	c-0.16,0.23-0.38,0.42-0.64,0.55c-0.13,0.39-0.36,0.73-0.71,0.97c0.02,0.3-0.02,0.61-0.12,0.89c-0.01,0.11-0.02,0.21-0.04,0.31
	c0.04,0.24,0.04,0.48,0.01,0.71c0.05,0.22,0.08,0.45,0.06,0.68c0.05,0.16,0.09,0.33,0.1,0.49c0.1,0.16,0.22,0.32,0.34,0.46
	c0.25,0.13,0.46,0.31,0.62,0.53c0.28,0.1,0.51,0.25,0.69,0.44c0.46,0.2,0.97,0.32,1.51,0.32c0.52,0,1-0.11,1.45-0.31
	c0.07-0.07,0.16-0.13,0.24-0.19c0.19-0.23,0.43-0.41,0.74-0.53c0,0,0,0,0,0c0.11-0.13,0.23-0.26,0.38-0.35
	c0.07-0.11,0.15-0.22,0.24-0.31c0.04-0.09,0.1-0.17,0.16-0.25c0.01-0.03,0.02-0.07,0.04-0.1c0-0.03,0.01-0.07,0.01-0.1
	C38.39,294.16,38.37,294.05,38.37,293.93L38.37,293.93L38.37,293.93z"/>
<rect x="34.46" y="295.63" class="st0" width="1.37" height="5.74"/>
<path class="st0" d="M43.04,320.39c0-0.11,0.02-0.21,0.03-0.31c-0.25-0.56-0.26-1.24-0.02-1.81c-0.04-0.16-0.07-0.33-0.08-0.49
	c-0.28-0.2-0.49-0.45-0.62-0.76c-0.35-0.18-0.62-0.47-0.78-0.8c-0.04-0.02-0.07-0.05-0.11-0.08c-0.09,0.01-0.19,0.02-0.29,0.02
	c-0.41,0-0.75-0.1-1.03-0.26c-0.28,0.14-0.6,0.22-0.9,0.22H39.2c-0.04,0-0.07-0.01-0.1-0.01c-0.29,0.23-0.65,0.38-1.1,0.4
	c-0.16,0.23-0.38,0.42-0.64,0.55c-0.13,0.39-0.36,0.73-0.71,0.97c0.02,0.3-0.02,0.61-0.12,0.89c-0.01,0.11-0.02,0.21-0.04,0.31
	c0.04,0.24,0.04,0.48,0.01,0.71c0.05,0.22,0.08,0.45,0.06,0.68c0.05,0.16,0.09,0.33,0.1,0.49c0.1,0.16,0.22,0.32,0.34,0.46
	c0.25,0.13,0.46,0.31,0.62,0.53c0.28,0.1,0.51,0.25,0.69,0.44c0.46,0.2,0.97,0.32,1.51,0.32c0.52,0,1-0.11,1.45-0.31
	c0.07-0.07,0.16-0.13,0.24-0.19c0.19-0.23,0.43-0.41,0.74-0.53c0,0,0,0,0,0c0.11-0.13,0.23-0.26,0.38-0.35
	c0.07-0.11,0.15-0.22,0.24-0.31c0.04-0.09,0.1-0.17,0.16-0.25c0.01-0.03,0.02-0.07,0.04-0.1c0-0.03,0.01-0.07,0.01-0.1
	C43.06,320.62,43.04,320.51,43.04,320.39L43.04,320.39L43.04,320.39z"/>
<rect x="39.13" y="322.08" class="st0" width="1.37" height="5.74"/>
<path class="st0" d="M56.12,339.87c0-0.11,0.02-0.21,0.03-0.31c-0.25-0.56-0.26-1.24-0.02-1.81c-0.04-0.16-0.07-0.33-0.08-0.49
	c-0.28-0.2-0.49-0.45-0.62-0.76c-0.35-0.18-0.62-0.47-0.78-0.8c-0.04-0.02-0.07-0.05-0.11-0.08c-0.09,0.01-0.19,0.02-0.29,0.02
	c-0.41,0-0.75-0.1-1.03-0.26c-0.28,0.14-0.6,0.22-0.9,0.22h-0.04c-0.04,0-0.07-0.01-0.1-0.01c-0.29,0.23-0.65,0.38-1.1,0.4
	c-0.16,0.23-0.38,0.42-0.64,0.55c-0.13,0.39-0.36,0.73-0.71,0.97c0.02,0.3-0.02,0.61-0.12,0.89c-0.01,0.11-0.02,0.21-0.04,0.31
	c0.04,0.24,0.04,0.48,0.01,0.71c0.05,0.22,0.08,0.45,0.06,0.68c0.05,0.16,0.09,0.33,0.1,0.49c0.1,0.16,0.22,0.32,0.34,0.46
	c0.25,0.13,0.46,0.31,0.62,0.53c0.28,0.1,0.51,0.25,0.69,0.44c0.46,0.2,0.97,0.32,1.51,0.32c0.52,0,1-0.11,1.45-0.31
	c0.07-0.07,0.16-0.13,0.24-0.19c0.19-0.23,0.43-0.41,0.74-0.53c0,0,0,0,0,0c0.11-0.13,0.23-0.26,0.38-0.35
	c0.07-0.11,0.15-0.22,0.24-0.31c0.04-0.09,0.1-0.17,0.16-0.25c0.01-0.03,0.02-0.07,0.04-0.1c0-0.03,0.01-0.07,0.01-0.1
	C56.14,340.1,56.12,339.99,56.12,339.87L56.12,339.87L56.12,339.87z"/>
<rect x="52.21" y="341.57" class="st0" width="1.37" height="5.74"/>
<path class="st0" d="M89.66,347.22c0-0.11,0.02-0.21,0.03-0.31c-0.25-0.56-0.26-1.24-0.02-1.81c-0.04-0.16-0.07-0.33-0.08-0.49
	c-0.28-0.2-0.49-0.45-0.62-0.76c-0.35-0.18-0.62-0.47-0.78-0.8c-0.04-0.02-0.07-0.05-0.11-0.08c-0.09,0.01-0.19,0.02-0.29,0.02
	c-0.41,0-0.75-0.1-1.03-0.26c-0.28,0.14-0.6,0.22-0.9,0.22h-0.04c-0.04,0-0.07-0.01-0.1-0.01c-0.29,0.23-0.65,0.38-1.1,0.4
	c-0.16,0.23-0.38,0.42-0.64,0.55c-0.13,0.39-0.36,0.73-0.71,0.97c0.02,0.3-0.02,0.61-0.12,0.89c-0.01,0.11-0.02,0.21-0.04,0.31
	c0.04,0.24,0.04,0.48,0.01,0.71c0.05,0.22,0.08,0.45,0.06,0.68c0.05,0.16,0.09,0.33,0.1,0.49c0.1,0.16,0.22,0.32,0.34,0.46
	c0.25,0.13,0.46,0.31,0.62,0.53c0.28,0.1,0.51,0.25,0.69,0.44c0.46,0.2,0.97,0.32,1.51,0.32c0.52,0,1-0.11,1.45-0.31
	c0.07-0.07,0.16-0.13,0.24-0.19c0.19-0.23,0.43-0.41,0.74-0.53c0,0,0,0,0,0c0.11-0.13,0.23-0.26,0.38-0.35
	c0.07-0.11,0.15-0.22,0.24-0.31c0.04-0.09,0.1-0.17,0.16-0.25c0.01-0.03,0.02-0.07,0.04-0.1c0-0.03,0.01-0.07,0.01-0.1
	C89.69,347.45,89.67,347.34,89.66,347.22L89.66,347.22L89.66,347.22z"/>
<rect x="85.76" y="348.92" class="st0" width="1.37" height="5.74"/>
<path class="st0" d="M109.48,341.26c0-0.11,0.02-0.21,0.03-0.31c-0.25-0.56-0.26-1.24-0.02-1.81c-0.04-0.16-0.07-0.33-0.08-0.49
	c-0.28-0.2-0.49-0.45-0.62-0.76c-0.35-0.18-0.62-0.47-0.78-0.8c-0.04-0.02-0.07-0.05-0.11-0.08c-0.09,0.01-0.19,0.02-0.29,0.02
	c-0.41,0-0.75-0.1-1.03-0.26c-0.28,0.14-0.6,0.22-0.9,0.22h-0.04c-0.04,0-0.07-0.01-0.1-0.01c-0.29,0.23-0.65,0.38-1.1,0.4
	c-0.16,0.23-0.38,0.42-0.64,0.55c-0.13,0.39-0.36,0.73-0.71,0.97c0.02,0.3-0.02,0.61-0.12,0.89c-0.01,0.11-0.02,0.21-0.04,0.31
	c0.04,0.24,0.04,0.48,0.01,0.71c0.05,0.22,0.08,0.45,0.06,0.68c0.05,0.16,0.09,0.33,0.1,0.49c0.1,0.16,0.22,0.32,0.34,0.46
	c0.25,0.13,0.46,0.31,0.62,0.53c0.28,0.1,0.51,0.25,0.69,0.44c0.46,0.2,0.97,0.32,1.51,0.32c0.52,0,1-0.11,1.45-0.31
	c0.07-0.07,0.16-0.13,0.24-0.19c0.19-0.23,0.43-0.41,0.74-0.53c0,0,0,0,0,0c0.11-0.13,0.23-0.26,0.38-0.35
	c0.07-0.11,0.15-0.22,0.24-0.31c0.04-0.09,0.1-0.17,0.16-0.25c0.01-0.03,0.02-0.07,0.04-0.1c0-0.03,0.01-0.07,0.01-0.1
	C109.51,341.49,109.49,341.38,109.48,341.26L109.48,341.26L109.48,341.26z"/>
<rect x="105.58" y="342.96" class="st0" width="1.37" height="5.74"/>
<path class="st0" d="M244.43,198.52c0-0.11,0.02-0.21,0.03-0.31c-0.25-0.56-0.26-1.24-0.02-1.81c-0.04-0.16-0.07-0.33-0.08-0.49
	c-0.28-0.2-0.49-0.45-0.62-0.76c-0.35-0.18-0.62-0.47-0.78-0.8c-0.04-0.02-0.07-0.05-0.11-0.08c-0.09,0.01-0.19,0.02-0.29,0.02
	c-0.41,0-0.75-0.1-1.03-0.26c-0.28,0.14-0.6,0.22-0.9,0.22h-0.04c-0.04,0-0.07-0.01-0.1-0.01c-0.29,0.23-0.65,0.38-1.1,0.4
	c-0.16,0.23-0.38,0.42-0.64,0.55c-0.13,0.39-0.36,0.73-0.71,0.97c0.02,0.3-0.02,0.61-0.12,0.89c-0.01,0.11-0.02,0.21-0.04,0.31
	c0.04,0.24,0.04,0.48,0.01,0.71c0.05,0.22,0.08,0.45,0.06,0.68c0.05,0.16,0.09,0.33,0.1,0.49c0.1,0.16,0.22,0.32,0.34,0.46
	c0.25,0.13,0.46,0.31,0.62,0.53c0.28,0.1,0.51,0.25,0.69,0.44c0.46,0.2,0.97,0.32,1.51,0.32c0.52,0,1-0.11,1.45-0.31
	c0.07-0.07,0.16-0.13,0.24-0.19c0.19-0.23,0.43-0.41,0.74-0.53c0,0,0,0,0,0c0.11-0.13,0.23-0.26,0.38-0.35
	c0.07-0.11,0.15-0.22,0.24-0.31c0.04-0.09,0.1-0.17,0.16-0.25c0.01-0.03,0.02-0.07,0.04-0.1c0-0.03,0.01-0.07,0.01-0.1
	C244.46,198.75,244.44,198.64,244.43,198.52L244.43,198.52L244.43,198.52z"/>
<rect x="240.53" y="200.22" class="st0" width="1.37" height="5.74"/>
<path class="st0" d="M223.12,186.6c0-0.11,0.02-0.21,0.03-0.31c-0.25-0.56-0.26-1.24-0.02-1.81c-0.04-0.16-0.07-0.33-0.08-0.49
	c-0.28-0.2-0.49-0.45-0.62-0.76c-0.35-0.18-0.62-0.47-0.78-0.8c-0.04-0.02-0.07-0.05-0.11-0.08c-0.09,0.01-0.19,0.02-0.29,0.02
	c-0.41,0-0.75-0.1-1.03-0.26c-0.28,0.14-0.6,0.22-0.9,0.22h-0.04c-0.04,0-0.07-0.01-0.1-0.01c-0.29,0.23-0.65,0.38-1.1,0.4
	c-0.16,0.23-0.38,0.42-0.64,0.55c-0.13,0.39-0.36,0.73-0.71,0.97c0.02,0.3-0.02,0.61-0.12,0.89c-0.01,0.11-0.02,0.21-0.04,0.31
	c0.04,0.24,0.04,0.48,0.01,0.71c0.05,0.22,0.08,0.45,0.06,0.68c0.05,0.16,0.09,0.33,0.1,0.49c0.1,0.16,0.22,0.32,0.34,0.46
	c0.25,0.13,0.46,0.31,0.62,0.53c0.28,0.1,0.51,0.25,0.69,0.44c0.46,0.2,0.97,0.32,1.51,0.32c0.52,0,1-0.11,1.45-0.31
	c0.07-0.07,0.16-0.13,0.24-0.19c0.19-0.23,0.43-0.41,0.74-0.53c0,0,0,0,0,0c0.11-0.13,0.23-0.26,0.38-0.35
	c0.07-0.11,0.15-0.22,0.24-0.31c0.04-0.09,0.1-0.17,0.16-0.25c0.01-0.03,0.02-0.07,0.04-0.1c0-0.03,0.01-0.07,0.01-0.1
	C223.15,186.83,223.13,186.72,223.12,186.6L223.12,186.6L223.12,186.6z"/>
<rect x="219.22" y="188.29" class="st0" width="1.37" height="5.74"/>
<path class="st0" d="M232.3,210.45c0-0.11,0.02-0.21,0.03-0.31c-0.25-0.56-0.26-1.24-0.02-1.81c-0.04-0.16-0.07-0.33-0.08-0.49
	c-0.28-0.2-0.49-0.45-0.62-0.76c-0.35-0.18-0.62-0.47-0.78-0.8c-0.04-0.02-0.07-0.05-0.11-0.08c-0.09,0.01-0.19,0.02-0.29,0.02
	c-0.41,0-0.75-0.1-1.03-0.26c-0.28,0.14-0.6,0.22-0.9,0.22h-0.04c-0.04,0-0.07-0.01-0.1-0.01c-0.29,0.23-0.65,0.38-1.1,0.4
	c-0.16,0.23-0.38,0.42-0.64,0.55c-0.13,0.39-0.36,0.73-0.71,0.97c0.02,0.3-0.02,0.61-0.12,0.89c-0.01,0.11-0.02,0.21-0.04,0.31
	c0.04,0.24,0.04,0.48,0.01,0.71c0.05,0.22,0.08,0.45,0.06,0.68c0.05,0.16,0.09,0.33,0.1,0.49c0.1,0.16,0.22,0.32,0.34,0.46
	c0.25,0.13,0.46,0.31,0.62,0.53c0.28,0.1,0.51,0.25,0.69,0.44c0.46,0.2,0.97,0.32,1.51,0.32c0.52,0,1-0.11,1.45-0.31
	c0.07-0.07,0.16-0.13,0.24-0.19c0.19-0.23,0.43-0.41,0.74-0.53c0,0,0,0,0,0c0.11-0.13,0.23-0.26,0.38-0.35
	c0.07-0.11,0.15-0.22,0.24-0.31c0.04-0.09,0.1-0.17,0.16-0.25c0.01-0.03,0.02-0.07,0.04-0.1c0-0.03,0.01-0.07,0.01-0.1
	C232.33,210.68,232.31,210.57,232.3,210.45L232.3,210.45L232.3,210.45z"/>
<rect x="228.4" y="212.15" class="st0" width="1.37" height="5.74"/>
<path class="st0" d="M187.25,291.46c0-0.11,0.02-0.21,0.03-0.31c-0.25-0.56-0.26-1.24-0.02-1.81c-0.04-0.16-0.07-0.33-0.08-0.49
	c-0.28-0.2-0.49-0.45-0.62-0.76c-0.35-0.18-0.62-0.47-0.78-0.8c-0.04-0.02-0.07-0.05-0.11-0.08c-0.09,0.01-0.19,0.02-0.29,0.02
	c-0.41,0-0.75-0.1-1.03-0.26c-0.28,0.14-0.6,0.22-0.9,0.22h-0.04c-0.04,0-0.07-0.01-0.1-0.01c-0.29,0.23-0.65,0.38-1.1,0.4
	c-0.16,0.23-0.38,0.42-0.64,0.55c-0.13,0.39-0.36,0.73-0.71,0.97c0.02,0.3-0.02,0.61-0.12,0.89c-0.01,0.11-0.02,0.21-0.04,0.31
	c0.04,0.24,0.04,0.48,0.01,0.71c0.05,0.22,0.08,0.45,0.06,0.68c0.05,0.16,0.09,0.33,0.1,0.49c0.1,0.16,0.22,0.32,0.34,0.46
	c0.25,0.13,0.46,0.31,0.62,0.53c0.28,0.1,0.51,0.25,0.69,0.44c0.46,0.2,0.97,0.32,1.51,0.32c0.52,0,1-0.11,1.45-0.31
	c0.07-0.07,0.16-0.13,0.24-0.19c0.19-0.23,0.43-0.41,0.74-0.53c0,0,0,0,0,0c0.11-0.13,0.23-0.26,0.38-0.35
	c0.07-0.11,0.15-0.22,0.24-0.31c0.04-0.09,0.1-0.17,0.16-0.25c0.01-0.03,0.02-0.07,0.04-0.1c0-0.03,0.01-0.07,0.01-0.1
	C187.28,291.68,187.26,291.57,187.25,291.46L187.25,291.46L187.25,291.46z"/>
<rect x="183.35" y="293.15" class="st0" width="1.37" height="5.74"/>
<path class="st0" d="M112.74,196.05c0-0.11,0.02-0.21,0.03-0.31c-0.25-0.56-0.26-1.24-0.02-1.81c-0.04-0.16-0.07-0.33-0.08-0.49
	c-0.28-0.2-0.49-0.45-0.62-0.76c-0.35-0.18-0.62-0.47-0.78-0.8c-0.04-0.02-0.07-0.05-0.11-0.08c-0.09,0.01-0.19,0.02-0.29,0.02
	c-0.41,0-0.75-0.1-1.03-0.26c-0.28,0.14-0.6,0.22-0.9,0.22h-0.04c-0.04,0-0.07-0.01-0.1-0.01c-0.29,0.23-0.65,0.38-1.1,0.4
	c-0.16,0.23-0.38,0.42-0.64,0.55c-0.13,0.39-0.36,0.73-0.71,0.97c0.02,0.3-0.02,0.61-0.12,0.89c-0.01,0.11-0.02,0.21-0.04,0.31
	c0.04,0.24,0.04,0.48,0.01,0.71c0.05,0.22,0.08,0.45,0.06,0.68c0.05,0.16,0.09,0.33,0.1,0.49c0.1,0.16,0.22,0.32,0.34,0.46
	c0.25,0.13,0.46,0.31,0.62,0.53c0.28,0.1,0.51,0.25,0.69,0.44c0.46,0.2,0.97,0.32,1.51,0.32c0.52,0,1-0.11,1.45-0.31
	c0.07-0.07,0.16-0.13,0.24-0.19c0.19-0.23,0.43-0.41,0.74-0.53c0,0,0,0,0,0c0.11-0.13,0.23-0.26,0.38-0.35
	c0.07-0.11,0.15-0.22,0.24-0.31c0.04-0.09,0.1-0.17,0.16-0.25c0.01-0.03,0.02-0.07,0.04-0.1c0-0.03,0.01-0.07,0.01-0.1
	C112.77,196.28,112.75,196.17,112.74,196.05L112.74,196.05L112.74,196.05z"/>
<rect x="108.84" y="197.74" class="st0" width="1.37" height="5.74"/>
<path class="st0" d="M190.55,136.67c0-0.11,0.02-0.21,0.03-0.31c-0.25-0.56-0.26-1.24-0.02-1.81c-0.04-0.16-0.07-0.33-0.08-0.49
	c-0.28-0.2-0.49-0.45-0.62-0.76c-0.35-0.18-0.62-0.47-0.78-0.8c-0.04-0.02-0.07-0.05-0.11-0.08c-0.09,0.01-0.19,0.02-0.29,0.02
	c-0.41,0-0.75-0.1-1.03-0.26c-0.28,0.14-0.6,0.22-0.9,0.22h-0.04c-0.04,0-0.07-0.01-0.1-0.01c-0.29,0.23-0.65,0.38-1.1,0.4
	c-0.16,0.23-0.38,0.42-0.64,0.55c-0.13,0.39-0.36,0.73-0.71,0.97c0.02,0.3-0.02,0.61-0.12,0.89c-0.01,0.11-0.02,0.21-0.04,0.31
	c0.04,0.24,0.04,0.48,0.01,0.71c0.05,0.22,0.08,0.45,0.06,0.68c0.05,0.16,0.09,0.33,0.1,0.49c0.1,0.16,0.22,0.32,0.34,0.46
	c0.25,0.13,0.46,0.31,0.62,0.53c0.28,0.1,0.51,0.25,0.69,0.44c0.46,0.2,0.97,0.32,1.51,0.32c0.52,0,1-0.11,1.45-0.31
	c0.07-0.07,0.16-0.13,0.24-0.19c0.19-0.23,0.43-0.41,0.74-0.53c0,0,0,0,0,0c0.11-0.13,0.23-0.26,0.38-0.35
	c0.07-0.11,0.15-0.22,0.24-0.31c0.04-0.09,0.1-0.17,0.16-0.25c0.01-0.03,0.02-0.07,0.04-0.1c0-0.03,0.01-0.07,0.01-0.1
	C190.58,136.9,190.56,136.79,190.55,136.67L190.55,136.67L190.55,136.67z"/>
<rect x="186.65" y="138.36" class="st0" width="1.37" height="5.74"/>
</svg>
