<svg id="Layer_1" data-name="Layer 1" xmlns="http://www.w3.org/2000/svg" viewBox="0 0 84.38 173.06"><defs><style>.cls-1{fill:#0f1513;}.cls-2{fill:#3bca8d;}</style></defs><title>sk-final</title><path class="cls-1" d="M431.15,532.85c-.26,2.24-.55,4.47-.77,6.71-.56,5.76-1.11,11.53-1.6,17.3a5.32,5.32,0,0,0,.41,2.39c3.81,9,4.22,18.62,5.51,28.1.69,5.09,1.62,10.16,2.22,15.27.52,4.48.91,9,1.05,13.51.18,6-.43,12,.21,17.92.78,7.36,2.73,14.58,3.73,21.92,1.14,8.43,2,16.91,2.55,25.39a19.82,19.82,0,0,1-1.77,8.4c-1.58,3.86-5.27,5.32-9.39,4.81a9.66,9.66,0,0,0-5.16.59,11.72,11.72,0,0,1-12.58-.79c-3.19-2.15-6.67-1.61-10.23-1.13-6.61.9-13.25,1.86-19.9,2.18-5.59.27-10.88-1.5-15.76-4.37-1.55-.91-3.21-1.65-4.85-2.42-4-1.89-5.24-4.06-4.53-8.47a11.22,11.22,0,0,1,1.08-3.63c2.28-4.16,2.46-8.52,2.18-13.16-.41-6.65-.17-13.34-.27-20a21.88,21.88,0,0,0-.49-5.38c-2.55-9.15-1.48-18.31-.41-27.49,1-8.17,2.26-16.34,2.59-24.53.59-14.49,1.45-28.91,3.74-43.24.3-1.83-.1-3.76.09-5.62.28-2.66.32-5.52,1.39-7.87.65-1.44,3-2.74,4.67-3a29.11,29.11,0,0,1,10,.24c7.3,1.75,14.38.57,21.54-.6q7.88-1.27,15.81-2.29a11.16,11.16,0,0,1,3.77.26c3.25.73,4.73,2.64,4.8,5.94,0,1,0,2,0,3Zm3.47,82.3c-.33-3.42-.75-8.65-1.37-13.85-.51-4.29-1.34-8.55-1.89-12.84-1.21-9.5-2.26-19-5.63-28.11a11.1,11.1,0,0,1-.54-4.55c.44-6,1.16-11.89,1.55-17.85a30,30,0,0,0-.45-7.51,3.84,3.84,0,0,0-2.48-2.39,17.85,17.85,0,0,0-6.18-.33c-3.58.48-7.08,1.49-10.65,2-7.42,1.17-14.82,2.41-22.34.4a36.63,36.63,0,0,0-8.56-1c-2.54-.07-3.93,1.44-4.07,4.09a88,88,0,0,1-.77,9.2c-2.28,14-2.3,28.14-2.7,42.25A192.65,192.65,0,0,1,366,612.24c-1.43,8.36-2.23,16.89.5,25.27a16.06,16.06,0,0,1,.43,4.56c.11,7.06.1,14.12.27,21.17.12,5.07.56,10-2.42,14.71-1.76,2.78-1.07,5.47,1.3,7a60.91,60.91,0,0,0,8.79,4.8c8.48,3.65,17.25,2.66,25.9.83,6.42-1.36,12.62-2.56,18.59,1.46,2,1.36,4.28,1,6.49,0,2.64-1.24,5.31-2.1,8.38-1.28a4.3,4.3,0,0,0,5.14-2.64c.9-2,1.89-4.35,1.74-6.46-.61-8.39-1-16.88-2.7-25.08C435.67,643.47,433.53,630.41,434.62,615.15Z" transform="translate(-360.1 -523.56)"/><path class="cls-2" d="M434.62,615.15c-1.09,15.26,1.05,28.32,3.76,41.43,1.7,8.2,2.09,16.69,2.7,25.08.15,2.11-.84,4.43-1.74,6.46a4.3,4.3,0,0,1-5.14,2.64c-3.07-.82-5.74,0-8.38,1.28-2.21,1-4.47,1.35-6.49,0-6-4-12.17-2.82-18.59-1.46-8.65,1.83-17.42,2.82-25.9-.83a60.91,60.91,0,0,1-8.79-4.8c-2.37-1.52-3.06-4.21-1.3-7,3-4.66,2.54-9.64,2.42-14.71-.17-7-.16-14.11-.27-21.17a16.06,16.06,0,0,0-.43-4.56c-2.73-8.38-1.93-16.91-.5-25.27a192.65,192.65,0,0,0,2.57-27.53c.4-14.11.42-28.25,2.7-42.25a88,88,0,0,0,.77-9.2c.14-2.65,1.53-4.16,4.07-4.09a36.63,36.63,0,0,1,8.56,1c7.52,2,14.92.77,22.34-.4,3.57-.56,7.07-1.57,10.65-2a17.85,17.85,0,0,1,6.18.33,3.84,3.84,0,0,1,2.48,2.39,30,30,0,0,1,.45,7.51c-.39,6-1.11,11.89-1.55,17.85a11.1,11.1,0,0,0,.54,4.55c3.37,9.08,4.42,18.61,5.63,28.11.55,4.29,1.38,8.55,1.89,12.84C433.87,606.5,434.29,611.73,434.62,615.15Z" transform="translate(-360.1 -523.56)"/></svg>