<?xml version="1.0" encoding="utf-8"?>
<!-- Generator: Adobe Illustrator 23.0.3, SVG Export Plug-In . SVG Version: 6.00 Build 0)  -->
<svg version="1.1" xmlns="http://www.w3.org/2000/svg" xmlns:xlink="http://www.w3.org/1999/xlink" x="0px" y="0px"
	 viewBox="0 0 100 100" style="enable-background:new 0 0 100 100;" xml:space="preserve">
<style type="text/css">
	.st0{fill:none;stroke:#999999;stroke-miterlimit:10;}
</style>
<g id="background">
	<circle class="st0" cx="50" cy="50" r="49.11"/>
</g>
<g id="building">
	<rect x="35.78" y="24.57" class="st0" width="30.26" height="50.87"/>
	<rect x="14.39" y="54.04" class="st0" width="21.39" height="21.39"/>
	<rect x="66.04" y="42.57" class="st0" width="19.57" height="32.87"/>
	<rect x="40.13" y="30.74" class="st0" width="7.83" height="4.17"/>
	<rect x="40.13" y="41.04" class="st0" width="7.83" height="4.17"/>
	<rect x="40.13" y="51.35" class="st0" width="7.83" height="4.17"/>
	<rect x="40.13" y="61.65" class="st0" width="7.83" height="4.17"/>
	<rect x="53.09" y="30.76" class="st0" width="7.83" height="4.17"/>
	<rect x="53.09" y="41.07" class="st0" width="7.83" height="4.17"/>
	<rect x="53.09" y="51.37" class="st0" width="7.83" height="4.17"/>
	<rect x="53.09" y="61.68" class="st0" width="7.83" height="4.17"/>
	<rect x="71.91" y="47.2" class="st0" width="7.83" height="4.17"/>
	<rect x="71.91" y="55.55" class="st0" width="7.83" height="4.17"/>
	<rect x="71.91" y="63.89" class="st0" width="7.83" height="4.17"/>
	<rect x="21.17" y="57.63" class="st0" width="7.83" height="4.17"/>
	<rect x="21.17" y="65.83" class="st0" width="7.83" height="4.17"/>
</g>
</svg>
