<?xml version="1.0" encoding="utf-8"?>
<!-- Generator: Adobe Illustrator 23.0.3, SVG Export Plug-In . SVG Version: 6.00 Build 0)  -->
<svg version="1.1" id="Layer_1" xmlns="http://www.w3.org/2000/svg" xmlns:xlink="http://www.w3.org/1999/xlink" x="0px" y="0px"
	 viewBox="0 0 100 100" style="enable-background:new 0 0 100 100;" xml:space="preserve">
<style type="text/css">
	.st0{fill:none;stroke:#999999;stroke-miterlimit:10;}
	.st1{fill:#999999;}
</style>
<circle class="st0" cx="50" cy="50" r="49.11"/>
<rect x="25.93" y="15.21" class="st0" width="48.15" height="69.58"/>
<rect x="29.39" y="19.59" class="st1" width="41.22" height="5.49"/>
<rect x="29.39" y="29.04" class="st1" width="41.22" height="1.04"/>
<rect x="29.39" y="31.72" class="st1" width="41.22" height="1.04"/>
<rect x="29.39" y="34.39" class="st1" width="41.22" height="1.04"/>
<rect x="29.39" y="37.07" class="st1" width="41.22" height="1.04"/>
<rect x="29.39" y="39.57" class="st1" width="41.22" height="1.04"/>
<rect x="29.39" y="42.24" class="st1" width="41.22" height="1.04"/>
<rect x="29.39" y="44.91" class="st1" width="41.22" height="1.04"/>
<rect x="29.39" y="47.59" class="st1" width="41.22" height="1.04"/>
<rect x="29.39" y="49.99" class="st1" width="41.22" height="1.04"/>
<rect x="29.39" y="52.66" class="st1" width="41.22" height="1.04"/>
<rect x="29.39" y="55.34" class="st1" width="41.22" height="1.04"/>
<rect x="29.39" y="58.01" class="st1" width="41.22" height="1.04"/>
<rect x="29.39" y="60.51" class="st1" width="41.22" height="1.04"/>
<rect x="29.39" y="63.18" class="st1" width="41.22" height="1.04"/>
<rect x="29.39" y="65.86" class="st1" width="41.22" height="1.04"/>
<rect x="29.39" y="68.53" class="st1" width="41.22" height="1.04"/>
<rect x="29.39" y="71.21" class="st1" width="41.22" height="1.04"/>
<rect x="29.39" y="73.88" class="st1" width="41.22" height="1.04"/>
<rect x="29.39" y="76.55" class="st1" width="41.22" height="1.04"/>
<rect x="29.39" y="79.23" class="st1" width="41.22" height="1.04"/>
</svg>
